<?xml version="1.0" encoding="UTF-8"?>
<svg id="Layer_1" data-name="Layer 1" xmlns="http://www.w3.org/2000/svg" viewBox="0 0 1024 1024">
  <defs>
    <style>
      .cls-1 {
        fill: none;
      }

      .cls-2 {
        fill: #fff;
      }

      .cls-3 {
        fill: #ebb22c;
      }

      .cls-4 {
        fill: #e0205b;
      }

      .cls-5 {
        fill: #3bc6ef;
      }

      .cls-6 {
        fill: #2eb47c;
      }
    </style>
  </defs>
  <path class="cls-2" d="M96.13,506.83V187.16h841.79v627.65H96.13v-306.23c1.45,1.39,2.86,3.4,3.98,5.08,18.49,27.63,35.48,56.35,53.89,84.05,12.29,8.44,27.85,5.86,41.78,5.53,114.27-2.72,228.54-8.8,342.56-13.44,19.16-.78,42.74.47,61.23-3.07,3.06-.59,10.61-2.61,12.34-5.25,6.41-19.89,13.77-39.59,19.86-59.57,1.69-5.56,5.45-11.75-.92-15.19-11.88-6.41-47.3-3.77-62.11-3.95-138.38-1.69-276.64-2.73-415.05-3.5-10.99-.06-22.24-1.24-33.32-.64-8.38.46-18.27,1.92-24.24,8.21ZM162.66,259.8c-5.11.38-17.92,2.08-20.93,6.54l-23.39,91.19c.04,5.57,10.87,7.53,15.09,8.29,14.82,2.66,30.46.07,45.4-.44,136.16-4.61,272.49-9.98,408.62-15.19,15.19-.58,58.43,1,69.49-6.5,2.36-1.6,3.6-3.24,2.27-6.17l-32.62-65.56c-3.44-5.38-18.99-7.36-25.06-7.67-14.08-.73-29.08.23-43.31.05-106.32-1.38-212.81-2.59-319.13-4.14-25.01,1.65-51.67-2.21-76.43-.39ZM348.28,399.5c-1.19,1.22-2.31,4.91-2.95,6.69-7.43,20.49-13,42.3-20.08,62.97-.22,6.65,15.28,9.24,20.21,9.61,23,1.7,49.26-.5,72.46-.6,107.62-.48,215.15-1.41,322.69-2.34,26.73-.23,53.42.08,80.09-.58,6.5-.16,13.53.49,19.92.05,4.77-.33,20.12-3.4,20.62-9.23l-45.57-92.69c-10.97-8.3-25.97-6.17-38.8-5.64-61.78,2.54-123.59,7.77-185.31,11.69-69.68,4.43-139.61,8.03-209.28,13.44-7.52.58-15.04.55-22.52,2.03-3.06.6-9.33,2.4-11.47,4.6ZM317.29,715.86c4.35,4.77,22.35,6.1,28.78,6.05,22.8-.18,46.08-2.19,68.93-2.97,130.85-4.48,261.91-9.16,392.84-14.61,13.61-.57,31.66,1.04,44.15-4.37,2.54-1.1,5.61-2.62,5.31-5.82l-33.68-68.07c-10.09-7.83-23.15-6.05-35.08-6.43-17.52-.55-35.03-.35-52.61-.58-106.13-1.44-212.42-2.85-318.55-4.14-17.57-.21-38.47-1.75-55.58-.58-5.15.35-17.39,2.41-21.29,5.6-.94.77-1.43,1.69-1.89,2.79l-22.58,90.55c.38.8.67,1.97,1.24,2.6Z"/>
  <path class="cls-4" d="M96.13,506.83c5.96-6.29,15.86-7.75,24.24-8.21,11.08-.61,22.33.58,33.32.64,138.41.77,276.67,1.81,415.05,3.5,14.81.18,50.22-2.46,62.11,3.95,6.37,3.44,2.62,9.63.92,15.19-6.09,19.98-13.45,39.68-19.86,59.57-1.72,2.64-9.28,4.66-12.34,5.25-18.49,3.54-42.07,2.29-61.23,3.07-114.02,4.64-228.29,10.72-342.56,13.44-13.92.33-29.49,2.91-41.78-5.53-18.41-27.7-35.39-56.42-53.89-84.05-1.12-1.68-2.53-3.69-3.98-5.08v-1.75Z"/>
  <path class="cls-3" d="M317.29,715.86c-.58-.63-.86-1.8-1.24-2.6l22.58-90.55c.47-1.09.95-2.02,1.89-2.79,3.9-3.19,16.14-5.25,21.29-5.6,17.11-1.16,38.01.37,55.58.58,106.13,1.29,212.42,2.7,318.55,4.14,17.58.24,35.09.03,52.61.58,11.93.38,24.99-1.4,35.08,6.43l33.68,68.07c.3,3.2-2.77,4.73-5.31,5.82-12.5,5.4-30.54,3.8-44.15,4.37-130.93,5.45-261.99,10.13-392.84,14.61-22.86.78-46.13,2.79-68.93,2.97-6.43.05-24.43-1.28-28.78-6.05Z"/>
  <path class="cls-6" d="M162.66,259.8c24.76-1.82,51.42,2.03,76.43.39,106.32,1.55,212.81,2.76,319.13,4.14,14.22.18,29.22-.78,43.31-.05,6.07.32,21.62,2.3,25.06,7.67l32.62,65.56c1.33,2.93.09,4.57-2.27,6.17-11.06,7.5-54.3,5.92-69.49,6.5-136.13,5.22-272.46,10.58-408.62,15.19-14.94.51-30.58,3.1-45.4.44-4.23-.76-15.05-2.72-15.09-8.29l23.39-91.19c3.02-4.46,15.82-6.16,20.93-6.54Z"/>
  <path class="cls-5" d="M348.28,399.5c2.14-2.2,8.42-4,11.47-4.6,7.49-1.48,15-1.45,22.52-2.03,69.67-5.41,139.6-9.01,209.28-13.44,61.73-3.92,123.53-9.15,185.31-11.69,12.83-.53,27.83-2.66,38.8,5.64l45.57,92.69c-.5,5.83-15.85,8.9-20.62,9.23-6.39.45-13.42-.21-19.92-.05-26.66.67-53.36.35-80.09.58-107.54.92-215.07,1.85-322.69,2.34-23.2.1-49.45,2.3-72.46.6-4.93-.36-20.43-2.96-20.21-9.61,7.08-20.68,12.65-42.48,20.08-62.97.64-1.78,1.76-5.47,2.95-6.69Z"/>
  <rect class="cls-1" width="1024" height="1024"/>
</svg>