<svg xmlns="http://www.w3.org/2000/svg" viewBox="109 43 29 36" fill="none">
<path d="M123.377 75.3084C131.057 75.3084 137.283 69.0822 137.283 61.4019C137.283 53.7215 131.057 47.4954 123.377 47.4954C115.697 47.4954 109.47 53.7215 109.47 61.4019C109.47 69.0822 115.697 75.3084 123.377 75.3084Z" fill="black"/>
<path opacity="0.4" d="M123.377 78.7538C119.94 78.7538 116.58 77.7347 113.723 75.8253C110.865 73.9159 108.638 71.202 107.323 68.0268C106.008 64.8515 105.663 61.3576 106.334 57.9868C107.004 54.6161 108.659 51.5198 111.09 49.0896C113.52 46.6594 116.616 45.0044 119.987 44.3339C123.358 43.6634 126.852 44.0075 130.027 45.3227C133.202 46.638 135.916 48.8652 137.825 51.7228C139.735 54.5804 140.754 57.9401 140.754 61.3769C140.75 65.9845 138.919 70.4025 135.661 73.6606C132.402 76.9187 127.985 78.7505 123.377 78.7538ZM123.377 47.4704C120.626 47.4704 117.938 48.286 115.651 49.8141C113.364 51.3421 111.582 53.514 110.529 56.0551C109.476 58.5962 109.201 61.3923 109.738 64.0899C110.274 66.7875 111.599 69.2654 113.544 71.2103C115.488 73.1551 117.966 74.4796 120.664 75.0162C123.361 75.5528 126.158 75.2774 128.699 74.2248C131.24 73.1723 133.412 71.3899 134.94 69.1029C136.468 66.816 137.283 64.1273 137.283 61.3769C137.278 57.6903 135.811 54.1562 133.204 51.5494C130.598 48.9425 127.064 47.4757 123.377 47.4704Z" fill="black"/>
</svg>
