<svg width="131.4" height="86.9" viewBox="0 0 131.4 86.9" xmlns="http://www.w3.org/2000/svg">
    <defs/>
    <path fill="#ff5f00" stroke="none" d="M 49.9 15.1 L 81.4 15.1 L 81.4 71.7 L 49.9 71.7 Z"/>
    <path fill="#eb001b" stroke="none" d="M 51.9 43.5 C 51.9 32 57.3 21.8 65.6 15.2 C 59.5 10.4 51.8 7.5 43.4 7.5 C 23.500002 7.5 7.4 23.6 7.4 43.5 C 7.4 63.4 23.500002 79.5 43.4 79.5 C 51.8 79.5 59.5 76.6 65.6 71.8 C 57.3 65.2 51.9 54.900005 51.9 43.5"/>
    <path fill="#f79e1b" stroke="none" d="M 123.90001 43.5 C 123.90001 63.4 107.8 79.5 87.90001 79.5 C 79.5 79.5 71.8 76.6 65.7 71.8 C 74.1 65.2 79.4 55 79.4 43.5 C 79.4 32 74 21.8 65.7 15.2 C 71.8 10.4 79.5 7.5 87.90001 7.5 C 107.8 7.5 123.90001 23.6 123.90001 43.5"/>
</svg>
