<svg width="48" height="48" viewBox="0 0 48 48" xmlns="http://www.w3.org/2000/svg">
    <defs>
        <clipPath id="a">
            <path fill="#000000" stroke="none" d="M 7.056 3 L 44.406002 3 L 44.406002 48 L 7.056 48 Z"/>
        </clipPath>
    </defs>
    <g clip-path="url(#a)">
        <path fill="#002991" stroke="none" d="M 38.914 13.35 C 38.914 18.924 33.77 25.500002 25.987 25.500002 L 18.49 25.500002 L 18.122 27.822 L 16.373 39 L 7.056 39 L 12.660999 3 L 27.756 3 C 32.839 3 36.838 5.833 38.311 9.77 C 38.736 10.915 38.941 12.130001 38.914 13.35"/>
        <path fill="#60cdff" stroke="none" d="M 44.284 23.7 C 43.256866 29.940813 37.854755 34.515285 31.530003 34.5 L 26.324 34.5 L 24.157 48 L 14.89 48 L 16.373 39 L 18.123 27.822 L 18.49 25.500002 L 25.987 25.500002 C 33.76 25.500002 38.914 18.924 38.914 13.35 C 42.739 15.324 44.969 19.313 44.284 23.7"/>
        <path fill="#008cff" stroke="none" d="M 38.914 13.35 C 37.31 12.510999 35.365 12 33.248 12 L 20.608 12 L 18.49 25.500002 L 25.987 25.500002 C 33.76 25.500002 38.914 18.924 38.914 13.35"/>
    </g>
</svg>
