<svg width="27" height="27" viewBox="0 0 27 27" xmlns="http://www.w3.org/2000/svg">
    <defs/>
    <path fill="#0a66c2" fill-rule="evenodd" stroke="none" d="M 1.91 0 L 24.273 0 C 25.327473 0.00055208 26.181997 0.8555265 26.181997 1.91 L 26.181997 24.273 C 26.181448 25.327473 25.326475 26.181997 24.272 26.181997 L 1.91 26.181997 C 0.85513616 26.181997 0 25.326864 0 24.272 L 0 1.91 C -0 0.85513616 0.85513616 0 1.91 0 M 3.818 22.364002 L 7.636 22.364002 L 7.636 9.818 L 3.818 9.818 Z M 8.182 5.727 C 8.182 4.371141 7.082859 3.272 5.727 3.272 C 4.371141 3.272 3.272 4.371141 3.272 5.727 C 3.272 7.082859 4.371141 8.182 5.727 8.182 C 7.082859 8.182 8.182 7.082859 8.182 5.727 M 10.364 9.818 L 10.364 22.364002 L 14.182001 22.364002 L 14.182001 16.287 C 14.182001 14.249999 14.932 12.955 16.735 12.955 C 18.035 12.955 18.545 14.156 18.545 16.287 L 18.545 22.364002 L 22.364002 22.364002 L 22.364002 15.434001 C 22.364002 11.694 21.469 9.654 17.697 9.654 C 15.73 9.654 14.42 10.575 13.909001 11.6 L 13.909001 9.818 Z"/>
</svg>
