<?xml version="1.0" encoding="UTF-8"?>
<svg id="Layer_1" data-name="Layer 1" xmlns="http://www.w3.org/2000/svg" xmlns:xlink="http://www.w3.org/1999/xlink" viewBox="0 0 2943.21 489.26">
  <defs>
    <style>
      .cls-1 {
        fill: url(#linear-gradient-4);
      }

      .cls-2 {
        fill: url(#linear-gradient-3);
      }

      .cls-3 {
        fill: url(#linear-gradient-2);
      }

      .cls-4 {
        fill: #0a3b42;
        font-family: ArialRoundedMTBold, 'Arial Rounded MT Bold';
        font-size: 404.59px;
      }

      .cls-4, .cls-5 {
        isolation: isolate;
      }

      .cls-6 {
        fill: url(#linear-gradient);
      }
    </style>
    <linearGradient id="linear-gradient" x1="233.12" y1="432.13" x2="805.33" y2="432.13" gradientUnits="userSpaceOnUse">
      <stop offset="0" stop-color="#fff"/>
      <stop offset=".17" stop-color="#0a3b42"/>
    </linearGradient>
    <linearGradient id="linear-gradient-2" x1="23.91" y1="57.01" x2="596.11" y2="57.01" xlink:href="#linear-gradient"/>
    <linearGradient id="linear-gradient-3" x1="809.41" y1="173.54" x2="242.66" y2="173.54" xlink:href="#linear-gradient"/>
    <linearGradient id="linear-gradient-4" x1="0" y1="308.65" x2="569.66" y2="308.65" xlink:href="#linear-gradient"/>
  </defs>
  <path class="cls-6" d="M234.4,483.23c-1.34-1.39-1.5-3.31-1.08-5.14,9.04-29.6,13.31-62.65,22.85-91.86,1.89-5.78,4.01-6.37,9.61-8.04,14.98-4.47,30.73-3.04,46.07-2.75,139.02,2.68,278.37,2.7,417.4,5.74,13.64.3,29.51-2.3,40.7,7.06l35.37,72.12c.1,1.5-1.22,2.97-2.33,3.85-9.47,7.53-40.44,6.31-52.93,6.77-152.43,5.59-304.21,10.8-456.38,17.11-13.72.57-27.69,2.04-41.48.45-4.17-.48-14.98-2.38-17.8-5.31h0Z"/>
  <path class="cls-3" d="M73.17.29c15.24-.95,30.35.71,45.51.91,116.57,1.53,232.96,2.62,349.46,3.59,19.53.16,40.47-.69,59.71,0,7.99.29,28.2,1.66,33.17,8.36l34.67,69.15c3.19,8.9-12.58,10.85-18.62,11.72-24.31,3.5-54.35,2.35-79.34,3.21-134.9,4.65-270.11,9.78-404.97,15.05-17.79.7-41.2,3.83-58.13-.58-3.97-1.03-10.83-3.04-10.72-8.01L48.65,7.45c2.91-5.07,18.96-6.81,24.51-7.15h.01Z"/>
  <path class="cls-2" d="M732.53,113.97c7.92-.15,24.4.55,29.28,7.79l47.58,96.77c.34,2.23-3.1,4.5-4.75,5.42-13.09,7.31-45.03,4.39-60.86,4.56-141.48,1.51-283.19,1.59-424.65,3.68-17.8.26-39.11,2.01-56.55-.09-5.18-.62-21.17-3.56-19.84-10.85,5.19-14.46,8.97-29.37,13.67-43.99,2.37-7.38,5.97-21.22,9.38-27.48,3.08-5.66,18.31-7.39,24.25-7.93,29.94-2.74,60.32-4.26,90.34-6.23,91.35-5.98,182.78-12.08,274.13-17.65,25.66-1.56,52.4-3.51,78.03-4.01h-.01Z"/>
  <path class="cls-1" d="M24.36,253.09c10.81-.74,22.23.17,33.1.34,144.39,2.32,289.12,2.85,433.52,3.63,19.68.11,43.58-1.57,62.74,1.12,5.41.76,15.93,2.58,15.94,9.54,0,3.18-3.44,12.07-4.57,15.71-5.99,19.15-13.16,37.94-19.24,57.07-1.45,2.59-7.91,4.54-10.82,5.28-20.46,5.18-52.24,3.46-74.16,4.24-119.41,4.23-238.4,10.92-357.72,14.02-14.07.36-30.83,2.48-42.32-7.04-20.01-30-38.09-61.29-58.46-91.05-1.99-2.9-4.05-2.49-.22-6.02,5.03-4.62,15.59-6.39,22.22-6.85h0Z"/>
  <g class="cls-5">
    <text class="cls-4" transform="translate(873.83 364.49)"><tspan x="0" y="0">NEXTHIRE</tspan></text>
  </g>
</svg>