<svg width="60" height="60" viewBox="0 0 60 60" fill="none" xmlns="http://www.w3.org/2000/svg">
<rect width="60" height="60" rx="16" fill="url(#paint0_linear_11906_2605)"/>
<path d="M38.873 25.448L46.6372 21.6587L45.8084 29.8186L38.873 25.448Z" fill="url(#paint1_linear_11906_2605)"/>
<path d="M44.138 22.875L41.2888 24.2687C39.7921 21.2999 37.215 19.0734 34.1184 18.0178C33.001 17.6343 32.3125 16.5252 32.5104 15.3624L32.6753 14.3976C37.648 15.2429 41.8825 18.393 44.138 22.875Z" fill="url(#paint2_linear_11906_2605)"/>
<path d="M34.5513 38.8733L38.3406 46.6374L30.1807 45.8086L34.5513 38.8733Z" fill="url(#paint3_linear_11906_2605)"/>
<path d="M37.1251 44.1387L35.7314 41.2895C38.7002 39.7928 40.9268 37.2157 41.9823 34.1192C42.3658 33.0018 43.4749 32.3132 44.6377 32.5111L45.6025 32.676C44.7573 37.6487 41.6071 41.8833 37.1251 44.1387Z" fill="url(#paint4_linear_11906_2605)"/>
<path d="M21.1264 34.5522L13.3623 38.3415L14.1911 30.1815L21.1264 34.5522Z" fill="url(#paint5_linear_11906_2605)"/>
<path d="M15.8613 37.125L18.7105 35.7313C20.2072 38.7001 22.7843 40.9266 25.8809 41.9822C26.9983 42.3657 27.6868 43.4748 27.4889 44.6376L27.324 45.6024C22.3513 44.7571 18.1168 41.607 15.8613 37.125Z" fill="url(#paint6_linear_11906_2605)"/>
<path d="M25.4475 21.1268L21.6582 13.3627L29.8181 14.1914L25.4475 21.1268Z" fill="url(#paint7_linear_11906_2605)"/>
<path d="M22.8749 15.8613L24.2686 18.7105C21.2998 20.2072 19.0732 22.7843 18.0177 25.8809C17.6342 26.9983 16.5251 27.6868 15.3623 27.4889L14.3975 27.324C15.2427 22.3513 18.3929 18.1168 22.8749 15.8613Z" fill="url(#paint8_linear_11906_2605)"/>
<defs>
<linearGradient id="paint0_linear_11906_2605" x1="60" y1="-17" x2="-5.06639e-07" y2="60" gradientUnits="userSpaceOnUse">
<stop stop-color="#0FDDCC"/>
<stop offset="0.8" stop-color="#173B3F"/>
</linearGradient>
<linearGradient id="paint1_linear_11906_2605" x1="37.1204" y1="36.7218" x2="46.6577" y2="20.4036" gradientUnits="userSpaceOnUse">
<stop stop-color="white" stop-opacity="0"/>
<stop offset="1" stop-color="white" stop-opacity="0.8"/>
</linearGradient>
<linearGradient id="paint2_linear_11906_2605" x1="29.8441" y1="32.6194" x2="40.0492" y2="10.94" gradientUnits="userSpaceOnUse">
<stop stop-color="white" stop-opacity="0"/>
<stop offset="1" stop-color="white" stop-opacity="0.8"/>
</linearGradient>
<linearGradient id="paint3_linear_11906_2605" x1="30.5745" y1="38.9073" x2="37.9209" y2="46.6282" gradientUnits="userSpaceOnUse">
<stop stop-color="white" stop-opacity="0.8"/>
<stop offset="1" stop-color="white"/>
</linearGradient>
<linearGradient id="paint4_linear_11906_2605" x1="36.2079" y1="32.5284" x2="47.1038" y2="41.7515" gradientUnits="userSpaceOnUse">
<stop stop-color="white" stop-opacity="0.8"/>
<stop offset="1" stop-color="white"/>
</linearGradient>
<linearGradient id="paint5_linear_11906_2605" x1="11.6096" y1="45.2446" x2="21.1469" y2="28.9264" gradientUnits="userSpaceOnUse">
<stop stop-color="white" stop-opacity="0"/>
<stop offset="1" stop-color="white" stop-opacity="0.8"/>
</linearGradient>
<linearGradient id="paint6_linear_11906_2605" x1="13.2289" y1="53.9532" x2="23.434" y2="32.2738" gradientUnits="userSpaceOnUse">
<stop stop-color="white" stop-opacity="0"/>
<stop offset="1" stop-color="white" stop-opacity="0.8"/>
</linearGradient>
<linearGradient id="paint7_linear_11906_2605" x1="22.052" y1="13.3967" x2="29.3984" y2="21.1176" gradientUnits="userSpaceOnUse">
<stop stop-color="white" stop-opacity="0.8"/>
<stop offset="1" stop-color="white"/>
</linearGradient>
<linearGradient id="paint8_linear_11906_2605" x1="14.8739" y1="15.9124" x2="25.7698" y2="25.1356" gradientUnits="userSpaceOnUse">
<stop stop-color="white" stop-opacity="0.8"/>
<stop offset="1" stop-color="white"/>
</linearGradient>
</defs>
</svg>
