<?xml version="1.0" encoding="UTF-8"?>
<svg id="Layer_1" data-name="Layer 1" xmlns="http://www.w3.org/2000/svg" viewBox="0 0 1361.73 223.02">
  <defs>
    <style>
      .cls-1 {
        fill: #fff;
        fill-rule: evenodd;
      }
    </style>
  </defs>
  <path class="cls-1" d="M0,8.1v.69c10.77,1.95,21.55,3.89,32.33,5.83.77.14,1.47.32,2.64.57-1.36.25-2.32.43-3.27.6-10.57,1.9-21.14,3.79-31.7,5.69v.71c10.67-2,21.33-4.01,31.98-6.02,1.06-.2,2.12-.39,3.59-.66.1.49.23.8.22,1.12-.19,5.71-.46,11.41-.56,17.11-.01.8-.83,1.25-2.99,1.65-10.77,2-21.51,4.02-32.24,6.04v.44c11.01-1.97,22.03-3.95,33.02-5.94,2.13-.39,3.78-.44,6-.03,15.64,2.86,31.35,5.67,47.03,8.5.78.14,1.52.31,2.83.59-2.72.5-4.89.91-7.08,1.3-14.2,2.55-28.43,5.08-42.59,7.65-2.13.38-3.74.45-5.99.04-11.05-2.02-22.14-4.02-33.23-6.01v.51c13.43,2.45,30.39,5.68,34.93,6.71.18,6.31.36,12.68.55,19.06-1.77-.11-20.67-3.55-35.48-6.36v.62c10.46,1.89,20.93,3.77,31.39,5.66.97.18,1.89.37,3.21.64-1.19.26-1.98.45-2.84.6-10.59,1.9-21.18,3.8-31.77,5.69v.57c10.49-1.97,20.97-3.94,31.45-5.92,1.06-.2,2.14-.39,3.62-.67.1.47.24.79.23,1.1-.19,5.74-.43,11.48-.58,17.23-.02.64-.4,1.08-2.32,1.44-10.82,2.01-21.61,4.04-32.39,6.07v.57c11.03-1.97,22.07-3.95,33.07-5.94,1.9-.34,3.36-.4,5.38-.03,15.73,2.87,31.52,5.7,47.29,8.55.78.14,1.5.31,2.55.53-1.02.22-1.7.4-2.46.53-15.9,2.85-31.8,5.69-47.69,8.56-1.67.3-2.99.36-4.76.03-11.11-2.02-22.24-4.03-33.37-6.03v.54c10.78,2.04,21.56,4.08,32.36,6.1,1.45.27,2.13.57,2.13,1.12.12,5.97.32,11.94.48,17.91,0,.14-.08.29-.2.69-11.75-2.22-23.29-4.4-34.77-6.57v.68c10.63,1.92,21.26,3.84,31.89,5.76.66.12,1.23.29,2.12.5-1.15.24-1.96.43-2.82.58-10.4,1.87-20.79,3.73-31.18,5.59v.66c7.61-1.43,15.23-2.85,22.84-4.27,3.78-.71,7.59-1.4,11.98-2.2.05.51.15.86.13,1.22-.2,5.67-.46,11.34-.56,17.02-.02.8-.82,1.25-2.98,1.66-10.5,1.95-20.95,3.92-31.4,5.89v.43c11.05-1.98,22.1-3.95,33.13-5.94,1.43-.26,2.63-.34,4.16-.06,16.35,2.97,32.73,5.92,49.1,8.88.38.07.69.17,1.52.38-1.43.26-2.41.45-3.41.62-15.39,2.76-30.82,5.51-46.15,8.3-2.32.42-4.01.41-6.31-.01-10.65-1.95-21.33-3.88-32.02-5.8v.55c10.5,1.99,21,3.97,31.51,5.95,1.56.29,2.64.56,2.65,1.25.07,5.93.29,11.86.45,17.79.01.18-.07.36-.13.65-.85-.09-1.61-.13-2.22-.25-10.76-2.03-21.51-4.06-32.26-6.09v.68c10.29,1.86,20.59,3.72,30.89,5.57.86.16,1.66.35,2.89.61-1.38.26-2.35.44-3.32.61-10.15,1.82-20.31,3.64-30.45,5.46v.58c10.77-2.02,21.54-4.05,32.31-6.07.48-.09,1.02-.14,2.02-.27.06.45.14.74.14,1.02-.21,5.78-.43,11.57-.6,17.35-.02.6-.39,1.01-2.2,1.35-10.57,1.97-21.12,3.95-31.67,5.94v.52c10.83-1.94,21.66-3.88,32.47-5.83,1.52-.27,2.79-.39,4.47-.08,15.41,2.8,30.85,5.57,46.28,8.36h3.11c-9.38-1.54-45.22-8.24-50.23-9.42-.17-6.32-.36-12.68-.54-19.07,2.74.22,46.84,8.44,52.34,9.74.18,6.21.36,12.47.54,18.75h1.2c-.05-.27-.09-.5-.08-.72.19-5.67.47-11.35.54-17.02,0-.87.96-1.31,3.22-1.73,15.38-2.85,30.69-5.75,46.02-8.63.86-.16,1.78-.29,3.08-.5.07.47.18.83.17,1.18-.19,5.67-.44,11.35-.56,17.02-.02.78-.71,1.26-2.92,1.67-15.38,2.86-30.68,5.76-46,8.64-.14.03-.29.05-.44.08h1.57c15.36-2.75,30.73-5.49,46.05-8.26,1.76-.32,3.16-.41,5.07-.06,15.3,2.79,30.65,5.55,45.99,8.32h2.3c-16.8-3.18-33.06-6.25-49.42-9.34-.19-6.38-.37-12.73-.55-19.12,2.72.23,47.88,8.67,52.22,9.74.17,6.14.35,12.32.53,18.72h1.25c-.08-.17-.15-.32-.14-.48.19-5.85.42-11.7.6-17.56.01-.51.31-.89,1.87-1.18,10.15-1.9,20.28-3.81,30.41-5.71h0c4.48-.84,8.96-1.68,13.45-2.53,1.47-.28,2.95-.55,4.43-.83.39-.07.83-.14,1.33-.21.13-.02.25-.03.44-.05.12.31.29.57.27.83-.19,5.81-.43,11.63-.59,17.44-.02.61-.44,1.01-2.24,1.35-5.83,1.08-11.63,2.17-17.44,3.27v.06c-9.95,1.87-19.9,3.74-29.85,5.61h2.43c9.75-1.75,19.5-3.5,29.26-5.25,5.6-1,11.2-2,16.79-3,.33-.06.64-.1.95-.15.19-.02.37-.05.56-.06.05,0,.09,0,.14-.01.52-.04,1.04-.04,1.59,0,.37.03.76.08,1.17.16,15.31,2.79,30.67,5.55,46.02,8.32h2.65c-15.84-2.99-31.65-5.98-47.49-8.96-1.31-.25-2.02-.52-2.03-1.04-.11-6.04-.29-12.08-.45-18.12,0-.1.09-.21.21-.45,1.06.17,1.92.3,2.68.44,15.5,2.92,30.99,5.86,46.5,8.78,1.57.3,2.63.57,2.64,1.26.07,5.93.29,11.86.45,17.79,0,.09-.02.19-.04.3h1.64c-.08-.16-.13-.31-.13-.45.2-5.85.42-11.7.6-17.56.02-.52.34-.89,1.88-1.18,16.3-3.04,32.56-6.11,48.84-9.17.21-.03.48-.07.8-.11.12-.01.26-.03.42-.05.07.38.16.66.15.93-.2,5.78-.44,11.56-.61,17.33-.02.59-.34,1.02-2.16,1.36-15.85,2.95-31.63,5.93-47.44,8.9h2.08c15.24-2.74,30.51-5.46,45.72-8.21,1.56-.26,2.91-.35,4.39-.21.31.04.62.07.96.14,15.25,2.78,30.58,5.53,45.88,8.29h3.53c-8.55-1.34-42.01-7.58-50.37-9.41-.17-6.32-.36-12.64-.54-18.97,1.61.18,7.11,1.13,14.09,2.39,11.11,2.1,22.02,4.16,32.97,6.23,1.89.38,3.53.72,4.79.99.19,6.21.37,12.49.55,18.78h1.6c-.08-.18-.15-.34-.15-.51.2-5.82.44-11.64.6-17.46.02-.43.23-.77,1.02-1.06.07-.02.14-.05.21-.07.17-.05.39-.1.6-.15.22-.05.43-.1.68-.14,13.27-2.47,26.52-4.96,39.77-7.44,2.29-.43,4.53-.88,6.83-1.31.76-.14,1.62-.26,2.66-.43.06,0,.12-.02.18-.02.06.42.13.7.13.98-.21,5.78-.43,11.57-.6,17.35-.02.6-.39,1.01-2.2,1.35-15.84,2.95-31.62,5.93-47.42,8.9h2.5c15.36-2.76,30.74-5.51,46.08-8.28.35-.06.68-.11,1-.16.08,0,.16-.02.24-.03.17-.02.35-.03.52-.04.39-.02.78-.03,1.18,0,.37.03.76.08,1.18.15,15.41,2.8,30.85,5.57,46.28,8.36h3.45c-3.9-.64-12.4-2.18-21.34-3.84h0c-4.75-.9-9.52-1.79-14.28-2.68-6.01-1.15-11.06-2.14-13.54-2.67-.56-.2-.9-.42-1.09-.69-.16-6.08-.34-12.19-.52-18.33.02-.08.03-.15.04-.24,2.27.31,11.5,1.96,21.6,3.84,2.59.49,5.19.98,7.78,1.47v-.02c10.44,1.96,20.16,3.84,22.56,4.41.18,6.21.36,12.47.54,18.75h1.54c-.05-.27-.09-.5-.09-.72.19-5.67.47-11.35.54-17.02,0-.87.96-1.31,3.22-1.73,15.38-2.85,30.69-5.75,46.02-8.63.78-.15,1.62-.27,2.74-.45.07.45.17.79.16,1.12-.19,5.67-.44,11.35-.56,17.02-.02.78-.71,1.26-2.92,1.67-15.38,2.86-30.68,5.76-46,8.64-.14.03-.29.05-.44.08h1.92c15.36-2.75,30.73-5.49,46.05-8.26.84-.15,1.6-.25,2.38-.27.73,0,1.49.06,2.35.21,15.3,2.79,30.65,5.55,45.99,8.32h2.65c-16.8-3.18-33.06-6.25-49.42-9.34-.19-6.36-.36-12.71-.54-19.08,4.96.67,47.66,8.66,51.87,9.7.17,6.14.35,12.32.53,18.72h1.6c-.08-.17-.15-.32-.14-.48.19-5.85.42-11.7.6-17.56.01-.51.31-.89,1.87-1.18,16.33-3.05,32.63-6.13,48.94-9.19.24-.04.55-.07,1.11-.14,0,0,0,0,0,.01.07.37.17.64.16.91-.2,5.78-.45,11.56-.59,17.34-.01.66-.6,1.07-2.45,1.42-15.8,2.94-31.55,5.92-47.32,8.88h2.78c15.31-2.75,30.64-5.48,45.94-8.24.82-.15,1.56-.24,2.33-.25.65,0,1.32.05,2.09.19,15.27,2.78,30.6,5.53,45.92,8.3h2.65c-15.73-2.97-31.43-5.94-47.16-8.9-1.4-.27-2.25-.53-2.26-1.11-.11-6-.3-12-.45-18.01,0-.13.09-.27.2-.56,1.24.21,2.18.36,3.07.53,15.31,2.89,30.58,5.79,45.92,8.66,2.02.38,2.86.79,2.87,1.56.07,5.71.28,11.42.43,17.12,0,.22-.03.44-.06.7h1.66c-.07-.16-.12-.31-.11-.46.19-5.81.42-11.63.6-17.44,0-.55.24-.96,1.94-1.28,16.25-3.03,32.44-6.09,48.65-9.14.33-.06.73-.11,1.35-.19.07.37.15.61.15.85-.21,5.82-.45,11.63-.6,17.45-.01.61-.46,1.01-2.24,1.34-15.79,2.94-31.53,5.92-47.29,8.88h2.07c15.13-2.71,30.28-5.41,45.35-8.15,1.22-.22,2.29-.33,3.38-.33.91.02,1.84.12,2.89.31,15.01,2.75,30.11,5.45,45.19,8.17h3.46c-8.92-1.43-43.05-7.81-50.22-9.41-.18-6.19-.36-12.46-.55-19,1.04.11,4.11.62,8.29,1.35,14.53,2.75,28.66,5.42,42.91,8.11.23.05.46.1.67.14.18,6.26.35,12.52.54,18.81h1.6c-.09-.11-.16-.21-.15-.32.19-5.93.44-11.86.58-17.79.02-.67,1.07-.97,2.66-1.27,13.27-2.47,26.52-4.96,39.77-7.44,2.29-.43,4.53-.88,6.83-1.31.77-.14,1.62-.27,2.67-.43.08.41.19.72.18,1.02-.2,5.75-.42,11.49-.6,17.24-.01.36-.07.67-.57.94-.01,0-.03.01-.04.02-.15.08-.36.15-.6.23-.2.06-.43.11-.69.17-.05,0-.08.02-.13.03-15.88,2.95-31.7,5.94-47.52,8.91h2.51c15.39-2.77,30.8-5.52,46.18-8.29.72-.13,1.39-.21,2.07-.23.55,0,1.12.04,1.75.16,9.42,1.71,18.86,3.41,28.3,5.12v-.05c6.08,1.1,12.15,2.2,18.23,3.29h3.11c-3.85-.63-12.18-2.14-20.99-3.77v-.07c-8.31-1.57-16.63-3.14-24.97-4.69-.64-.13-1.22-.25-1.75-.36-1.7-.38-2.36-.81-2.37-1.52-.05-5.68-.27-11.35-.42-17.02-.01-.31.06-.63.13-1.02,1.39.19,5.39.88,10.6,1.82,6.14,1.16,12.29,2.32,18.43,3.49v-.07c.12.02.23.04.35.07v-.02c10.44,1.96,20.16,3.84,22.56,4.41.18,6.21.36,12.47.54,18.75h1.19c-.05-.27-.09-.5-.08-.72.19-5.67.47-11.35.54-17.02,0-.87.96-1.31,3.22-1.73,15.38-2.85,30.69-5.75,46.02-8.63.86-.16,1.78-.29,3.08-.5.07.47.18.83.17,1.18-.19,5.67-.44,11.35-.56,17.02-.02.78-.71,1.26-2.92,1.67-15.38,2.86-30.68,5.76-46,8.64-.14.03-.29.05-.44.08h1.57c15.36-2.75,30.73-5.49,46.05-8.26,1.76-.32,3.16-.41,5.07-.06,15.3,2.79,30.65,5.55,45.99,8.32h2.3c-16.8-3.18-33.06-6.25-49.42-9.34-.19-6.38-.37-12.73-.55-19.12,2.72.23,47.88,8.67,52.22,9.74.17,6.14.35,12.32.53,18.72h1.25c-.08-.17-.15-.32-.14-.48.19-5.85.42-11.7.6-17.56.01-.51.31-.89,1.87-1.18,16.34-3.05,32.63-6.13,48.94-9.19.29-.05.64-.08,1.46-.18.07.4.18.68.17.96-.2,5.78-.45,11.56-.59,17.34-.01.66-.6,1.07-2.45,1.42-15.8,2.94-31.55,5.92-47.32,8.88h2.43c15.31-2.75,30.64-5.48,45.94-8.24,1.64-.29,2.96-.39,4.77-.06,15.27,2.78,30.6,5.53,45.92,8.3h2.3c-15.73-2.97-31.43-5.94-47.16-8.9-1.4-.27-2.25-.53-2.26-1.11-.11-6-.3-12-.45-18.01,0-.14.1-.28.23-.61,1.42.24,2.43.4,3.39.59,15.31,2.89,30.58,5.79,45.92,8.66,2.02.38,2.86.79,2.87,1.56.07,5.71.28,11.42.43,17.12,0,.22-.03.44-.06.7h1.31c-.07-.16-.12-.31-.11-.46.19-5.81.42-11.63.6-17.44,0-.55.24-.96,1.94-1.28,16.24-3.03,32.44-6.09,48.65-9.14.39-.07.83-.12,1.69-.23.07.4.16.65.16.9-.21,5.82-.45,11.63-.6,17.45-.01.61-.46,1.01-2.24,1.34-15.79,2.94-31.53,5.92-47.29,8.88h1.72c15.13-2.71,30.27-5.41,45.35-8.15,2.37-.43,4.17-.47,6.62-.02,15.01,2.75,30.11,5.45,45.19,8.17h3.11c-8.92-1.43-43.05-7.81-50.22-9.41-.19-6.28-.37-12.64-.56-19.29,17.86,3.38,34.93,6.6,52.22,9.87.18,6.26.36,12.53.54,18.82h1.25c-.09-.11-.16-.21-.15-.32.19-5.93.44-11.86.58-17.79.02-.67,1.07-.97,2.67-1.27,13.27-2.47,26.52-4.96,39.77-7.44,2.29-.43,4.53-.88,6.83-1.31.86-.16,1.78-.29,3.01-.48.09.44.2.76.19,1.07-.2,5.75-.42,11.49-.6,17.24-.02.58-.16,1.03-2.03,1.38-15.88,2.95-31.7,5.94-47.52,8.91h2.16c15.39-2.77,30.8-5.52,46.18-8.29,1.42-.25,2.62-.35,4.16-.07,9.42,1.71,18.86,3.41,28.3,5.12v-.59c-8.7-1.65-17.41-3.29-26.15-4.91-2.19-.41-2.94-.86-2.95-1.66-.05-5.68-.27-11.35-.42-17.02-.02-.36.09-.71.16-1.18,1.26.2,2.17.33,3.04.5,8.77,1.66,17.54,3.32,26.32,4.98v-.64c-9-1.63-18.01-3.25-27.01-4.87-.4-.07-.75-.17-1.47-.33.8-.2,1.4-.4,2.12-.53,8.79-1.58,17.58-3.15,26.36-4.73v-.54c-9.26,1.74-18.53,3.48-27.8,5.22-.29.05-.64.08-1.44.17-.06-.4-.15-.69-.14-.97.2-5.78.44-11.56.59-17.33.01-.6.4-1.01,2.2-1.35,8.87-1.65,17.73-3.32,26.58-4.98v-.62c-8.94,1.6-17.87,3.21-26.77,4.83-2.3.42-4,.42-6.31,0-15.41-2.82-30.92-5.59-46.38-8.39-.88-.16-1.71-.34-2.92-.59.87-.2,1.44-.35,2.08-.47,16.1-2.89,32.22-5.76,48.3-8.66,1.61-.29,2.85-.3,4.46,0,9.17,1.66,18.36,3.32,27.54,4.97v-.59c-9.54-1.8-19-3.59-28.51-5.39-.18-6.36-.36-12.72-.55-19.36,9.87,1.87,19.51,3.69,29.07,5.5v-.64c-8.6-1.55-17.2-3.1-25.79-4.65-.68-.12-1.29-.28-2.49-.54,1.43-.26,2.31-.43,3.2-.59,8.36-1.5,16.73-3,25.08-4.5v-.61c-8.32,1.56-16.64,3.13-24.96,4.7-1.09.2-2.19.4-3.88.71-.09-.52-.2-.84-.18-1.16.19-5.71.45-11.41.55-17.12.01-.8.83-1.26,3-1.66,8.5-1.58,16.98-3.17,25.46-4.77v-.49c-8.97,1.61-17.95,3.21-26.91,4.83-1.64.3-2.96.38-4.76.05-16.04-2.92-32.14-5.8-48.21-8.71-.58-.1-1.1-.24-1.98-.43,1.05-.23,1.82-.42,2.66-.58,15.8-2.83,31.61-5.66,47.41-8.5,1.64-.29,2.95-.39,4.76-.06,9,1.64,18.01,3.27,27.03,4.89v-.59c-8.61-1.63-17.22-3.26-25.85-4.88-1.69-.32-2.36-.68-2.36-1.31-.1-5.82-.3-11.63-.45-17.45,0-.28.11-.56.21-.97,1.32.22,2.33.36,3.28.54,8.39,1.59,16.79,3.17,25.18,4.75v-.63c-8.26-1.49-16.52-2.98-24.79-4.47-.88-.16-1.71-.35-2.91-.59.85-.2,1.42-.36,2.06-.47,8.54-1.53,17.09-3.07,25.64-4.6v-.52c-8.3,1.56-16.58,3.13-24.88,4.69-.97.18-1.95.36-3.31.61-.16-.42-.36-.69-.35-.97.19-5.82.43-11.64.6-17.46.01-.59.37-1.02,2.18-1.36,8.6-1.6,17.18-3.21,25.76-4.82v-.57c-8.84,1.58-17.69,3.17-26.52,4.76-1.68.3-3,.36-4.77.04-16.05-2.92-32.15-5.81-48.24-8.72-.59-.1-1.11-.24-2.11-.46,1.23-.25,1.96-.42,2.75-.56,15.4-2.77,30.84-5.51,46.19-8.31,2.6-.48,4.54-.53,7.24-.03,8.46,1.56,16.95,3.09,25.46,4.63v-.6c-9.24-1.75-18.42-3.48-27.66-5.23-.19-6.34-.37-12.7-.56-19.08,1.68.1,15.05,2.49,28.22,4.96v-.52c-8.42-1.52-16.84-3.04-25.26-4.56-.58-.1-1.1-.24-1.94-.43.77-.18,1.26-.32,1.8-.42,8.46-1.52,16.93-3.03,25.39-4.55v-.63c-8.26,1.54-16.52,3.09-24.78,4.63-.89.17-1.79.33-2.99.55-.18-.33-.43-.57-.42-.8.15-4.66.32-9.32.47-13.99h-1.98c.14,4.89.28,9.82.42,14.89-17.79-3.36-34.92-6.6-52.21-9.87-.05-1.68-.1-3.35-.15-5.02h-1.96c-.04,1.37-.1,2.75-.13,4.12-.01.65-.54,1.07-2.42,1.42-15.76,2.94-31.46,5.91-47.18,8.87-.68.13-1.42.23-2.38.38-.19-.25-.49-.44-.48-.64.15-4.72.33-9.44.47-14.16h-1.97c.14,4.89.28,9.83.43,14.93-17.87-3.38-34.97-6.61-52.35-9.9-.05-1.68-.1-3.35-.15-5.03h-1.96c-.05,1.4-.1,2.81-.15,4.21-.02.51-.3.89-1.86,1.19-16.35,3.05-32.67,6.13-49,9.19-.29.05-.63.07-1.45.16-.06-.45-.15-.77-.14-1.09.16-4.55.34-9.1.47-13.65h-1.99c.14,4.9.28,9.8.41,14.81-1.55-.26-2.55-.41-3.51-.59-15.31-2.89-30.6-5.8-45.95-8.67-2.03-.38-2.83-.8-2.85-1.56-.01-1.33-.05-2.67-.08-4h-1.92c-.04,1.37-.11,2.75-.14,4.12-.02.61-.42,1.01-2.22,1.34-16.05,2.99-32.04,6.01-48.05,9.02-.49.09-1.03.16-1.93.29-.09-.38-.24-.69-.23-1,.16-4.59.33-9.19.48-13.78h-1.98c.1,4.63.24,9.27.37,13.9,0,.25-.11.49-.2.92-1.42-.24-2.34-.39-3.22-.55-15.4-2.91-30.78-5.83-46.21-8.72-1.86-.35-2.77-.71-2.78-1.46-.01-1.36-.05-2.72-.08-4.09h-1.93c-.05,1.36-.1,2.72-.14,4.09-.01.61-.44,1.01-2.22,1.35-15.59,2.9-31.12,5.83-46.66,8.75-.09.02-.18.03-.27.05-.42.08-.84.16-1.29.24-.38.07-.8.12-1.42.21-.17-.28-.37-.49-.36-.7.15-4.66.32-9.32.47-13.99h-2.33c.14,4.86.28,9.78.42,14.83-17.67-3.34-34.69-6.56-51.86-9.8-.05-1.68-.1-3.35-.15-5.02h-2.31c-.05,1.37-.1,2.75-.13,4.12-.01.65-.54,1.07-2.42,1.42-15.74,2.94-31.41,5.9-47.11,8.86-.61.11-1.27.2-2.15.34-.19-.22-.43-.4-.43-.58.15-4.72.33-9.44.47-14.16h-2.32c.14,4.87.28,9.79.43,14.86-17.75-3.36-34.73-6.56-52-9.83-.05-1.68-.1-3.35-.15-5.03h-2.3c-.05,1.4-.1,2.81-.15,4.21-.01.3-.15.56-.56.78-.14.07-.28.14-.49.21-.08.02-.19.05-.28.07-.21.06-.43.11-.7.16-16.11,3.01-32.18,6.03-48.26,9.05-.33.05-.71.11-1.13.18-.15.01-.34.03-.55.05-.06-.43-.14-.74-.13-1.06.16-4.55.34-9.1.47-13.65h-2.33c.14,4.83.27,9.66.41,14.59,0,.05-.01.1-.02.16-1.33-.22-2.27-.36-3.14-.53-15.31-2.89-30.6-5.8-45.95-8.67-2.03-.38-2.83-.8-2.85-1.56-.01-1.33-.05-2.67-.08-4h-2.27c-.04,1.37-.11,2.75-.14,4.12-.02.61-.42,1.01-2.22,1.34-16.05,2.99-32.04,6.01-48.05,9.02-.42.08-.92.15-1.6.25-.09-.36-.23-.66-.22-.95.16-4.59.33-9.19.48-13.78h-2.33c.1,4.63.24,9.27.37,13.9,0,.23-.1.47-.18.86-1.22-.21-2.08-.34-2.89-.5-15.4-2.91-30.78-5.83-46.21-8.72-1.86-.35-2.77-.71-2.78-1.46-.01-1.36-.05-2.72-.08-4.09h-2.28c-.04,1.36-.1,2.72-.14,4.09-.01.61-.44,1.01-2.22,1.35-16.06,2.99-32.05,6.01-48.06,9.01-.41.08-.87.14-1.57.24-.05-.08-.1-.15-.15-.22-.05-.29-.1-.51-.09-.73.16-4.58.32-9.15.47-13.73h-2.33c.14,4.87.28,9.77.42,14.81-17.7-3.35-34.66-6.55-51.86-9.8-.05-1.67-.1-3.33-.14-5.01h-2.31c-.04,1.35-.09,2.7-.12,4.05-.03.7-.6,1.13-2.59,1.51-15.66,2.92-31.26,5.87-46.88,8.81-.65.12-1.36.22-2.34.37-.07-.08-.15-.16-.22-.24-.05-.31-.09-.53-.08-.76.17-4.58.35-9.17.47-13.75h-2.33c.14,4.89.28,9.79.42,14.85-17.81-3.37-34.88-6.6-52-9.83-.05-1.67-.1-3.34-.14-5.01h-2.3c-.04,1.38-.1,2.75-.13,4.13-.02.62-.55,1-2.3,1.33-15.85,2.96-31.64,5.94-47.47,8.91-.58.11-1.25.2-2.11.33-.1-.39-.24-.69-.22-.99.15-4.57.33-9.14.46-13.71h-2.28c.11,4.49.22,8.97.32,13.45,0,.37-.05.75-.1,1.3-.13-.02-.25-.04-.37-.06-7-1.32-13.91-2.62-20.78-3.91v.04c-9.3-1.76-18.6-3.52-27.94-5.26-2.03-.38-2.83-.8-2.85-1.56-.01-1.33-.05-2.67-.08-4h-1.92c-.05,1.37-.11,2.75-.14,4.12-.02.61-.42,1.01-2.22,1.34-16.05,2.99-32.04,6.01-48.05,9.02-.49.09-1.03.16-1.93.29-.09-.38-.24-.69-.23-1,.16-4.59.33-9.19.48-13.78h-1.98c.1,4.63.24,9.27.37,13.9,0,.25-.11.49-.2.92-1.42-.24-2.34-.39-3.22-.55-15.4-2.91-30.78-5.83-46.21-8.72-1.86-.35-2.77-.71-2.78-1.46-.01-1.36-.05-2.72-.08-4.09h-1.93c-.04,1.36-.1,2.72-.14,4.09-.01.61-.44,1.01-2.22,1.35-16.06,2.99-32.05,6.01-48.06,9.01-.5.09-1.04.16-2.02.3-.06-.45-.15-.73-.14-1.02.16-4.58.32-9.15.47-13.73h-1.99c.14,4.9.28,9.81.42,14.88C23.64,12.57,11.81,10.34,0,8.1ZM37.15,55.86c.01-.68,1.16-.96,2.72-1.26,12.57-2.35,25.12-4.7,37.68-7.05,3.77-.71,7.58-1.4,11.87-2.18.09.43.2.72.2,1-.2,5.78-.44,11.57-.59,17.35-.01.65-.53,1.07-2.42,1.42-15.76,2.94-31.46,5.91-47.18,8.87-.68.13-1.42.23-2.38.39-.19-.25-.49-.44-.48-.64.18-5.97.44-11.94.58-17.9ZM248.4,54.65c1.63.31,2.48.63,2.49,1.29.08,5.86.29,11.71.45,17.56,0,.24-.08.48-.17.86-1.11-.18-1.88-.3-2.59-.43-6.05-1.14-12.1-2.29-18.15-3.43v.03c-9.4-1.78-18.8-3.55-28.23-5.31-2.14-.4-3.04-.82-3.05-1.64-.04-5.67-.26-11.34-.41-17.01,0-.36.07-.71.13-1.2,1.15.17,1.97.27,2.72.41,9.5,1.79,19,3.59,28.5,5.38v.03c6.1,1.15,12.2,2.31,18.32,3.46ZM1224.72,134.78c1.36.23,2.36.38,3.32.56,15.31,2.89,30.58,5.8,45.95,8.66,2.17.4,2.98.85,2.99,1.65.05,5.68.27,11.35.42,17.03,0,.35-.08.71-.15,1.2-1.36-.23-2.37-.38-3.32-.56-15.31-2.89-30.59-5.8-45.96-8.67-2.18-.4-2.97-.84-2.98-1.65-.05-5.68-.27-11.35-.42-17.03-.01-.36.08-.71.15-1.2ZM1224.71,133.16c.19-5.85.42-11.7.6-17.56.01-.52.33-.89,1.88-1.18,16.33-3.05,32.63-6.13,48.94-9.19.29-.06.64-.08,1.45-.18.07.4.17.68.16.97-.2,5.78-.44,11.56-.6,17.34-.02.6-.35,1.02-2.16,1.36-16.05,2.99-32.04,6.01-48.05,9.02-.49.09-1.03.16-1.89.3-.13-.33-.33-.6-.32-.87ZM1275.82,143.56c-16.04-2.93-32.16-5.82-48.24-8.72-.59-.11-1.13-.24-2.01-.43.87-.21,1.51-.41,2.26-.54,15.8-2.84,31.64-5.66,47.42-8.52,1.9-.34,3.38-.41,5.39-.04,15.84,2.89,31.76,5.74,47.63,8.61.69.12,1.32.28,2.59.55-1.51.28-2.47.46-3.45.63-15.51,2.78-31.04,5.55-46.53,8.35-1.71.31-3.11.47-5.07.11ZM1275.65,83.85c-15.53-2.84-31.15-5.63-46.73-8.44-.88-.16-1.71-.35-2.89-.59.95-.22,1.61-.41,2.36-.54,15.81-2.84,31.64-5.66,47.41-8.52,1.93-.35,3.39-.39,5.39-.02,15.74,2.87,31.55,5.71,47.34,8.55.78.14,1.51.31,2.86.6-1.55.29-2.53.47-3.51.65-15.42,2.76-30.86,5.5-46.23,8.29-2.14.39-3.77.44-5.99.03ZM1277.51,63.72c-.01.59-.31,1.02-2.15,1.36-16.06,2.99-32.07,6.01-48.09,9.03-.48.09-1.02.15-1.86.28-.14-.34-.35-.61-.34-.88.19-5.82.46-11.64.57-17.46.02-.73.85-1.12,2.77-1.48,15.76-2.94,31.47-5.91,47.2-8.86.58-.11,1.22-.19,2.34-.35.08.44.17.73.16,1.01-.2,5.78-.43,11.57-.6,17.35ZM1277.25,85.06c.18,6.31.36,12.66.54,19.26-17.77-3.36-34.89-6.59-52.22-9.86-.18-6.36-.37-12.72-.55-19.1,2.68.18,46.58,8.36,52.22,9.71ZM1226.23,95.39c16.35,2.97,32.73,5.92,49.1,8.87.38.07.7.17,1.56.38-1.41.26-2.39.45-3.39.62-15.39,2.76-30.82,5.51-46.16,8.3-2.29.42-3.98.42-6.3,0-15.41-2.83-30.92-5.6-46.38-8.39-.88-.16-1.72-.35-2.92-.59.85-.2,1.41-.36,2.05-.47,16.1-2.89,32.21-5.76,48.31-8.66,1.42-.25,2.61-.35,4.15-.07ZM1116.68,134.75c17.71,3.3,34.78,6.57,52.08,9.83.18,6.38.36,12.74.55,19.32-1.75-.31-2.77-.48-3.75-.67-15.11-2.86-30.19-5.73-45.35-8.55-2.24-.42-3.21-.85-3.22-1.72,0-5.6-.24-11.2-.39-16.8-.01-.39.05-.79.1-1.4ZM1116.59,132.91c.2-5.75.42-11.49.6-17.23.02-.59.3-1.02,2.14-1.36,16.15-3,32.23-6.05,48.35-9.08.39-.07.82-.12,1.52-.23.17.27.44.5.43.72-.19,5.92-.43,11.85-.59,17.77-.01.55-.69.87-2.14,1.14-16.03,3-32.03,6.01-48.05,9.02-.57.11-1.19.17-2.09.3-.07-.42-.17-.74-.16-1.06ZM1167.16,143.46c-15.52-2.84-31.12-5.63-46.7-8.44-.88-.16-1.71-.34-2.91-.59,1.06-.23,1.84-.43,2.67-.58,15.8-2.83,31.62-5.66,47.4-8.5,1.64-.29,2.95-.39,4.76-.07,16.04,2.92,32.13,5.81,48.2,8.71.58.1,1.11.24,2.21.48-1.41.26-2.29.42-3.19.58-15.6,2.8-31.23,5.58-46.78,8.4-2.06.37-3.59.38-5.68,0ZM1170.97,145.47c.02-.73.85-1.12,2.76-1.48,15.76-2.93,31.47-5.9,47.2-8.86.58-.11,1.22-.19,2.35-.35.07.44.17.73.16,1.01-.2,5.78-.44,11.57-.58,17.35-.01.66-.61,1.07-2.47,1.41-15.76,2.94-31.47,5.91-47.19,8.86-.68.13-1.41.23-2.54.41-.11-.4-.27-.71-.26-1.01.2-5.78.46-11.57.56-17.35ZM1223.35,134.07c-1.53-.27-2.54-.44-3.53-.63-15.2-2.87-30.37-5.76-45.62-8.6-2.15-.4-3.02-.83-3.03-1.64-.04-5.67-.26-11.34-.41-17.02,0-.35.08-.71.14-1.19,1.15.17,1.97.27,2.72.42,15.7,2.96,31.39,5.94,47.09,8.89,1.48.28,2.42.55,2.43,1.18.09,5.93.3,11.86.46,17.79,0,.21-.12.42-.24.8ZM1170.89,103.13c.2-5.71.45-11.42.58-17.13.02-.73.59-1.2,2.73-1.59,15.68-2.91,31.28-5.86,46.91-8.8.68-.13,1.42-.23,2.42-.4.17.3.41.54.41.77-.19,5.89-.43,11.79-.6,17.68-.01.57-.51.94-2.15,1.25-16.05,3-32.05,6.03-48.08,9.04-.49.09-1.02.15-2.08.31-.07-.49-.15-.81-.15-1.13ZM1223.77,74.4c-9.03-1.55-17.45-3.25-26.04-4.85-8.66-1.62-17.28-3.26-25.97-4.91-.19-6.38-.36-12.72-.55-19.2,1.15.15,1.98.23,2.71.37,15.81,2.98,31.6,5.98,47.43,8.95,1.46.27,2.12.56,2.13,1.12.11,5.97.31,11.94.48,17.91,0,.14-.08.29-.18.62ZM1173.06,65.7c15.74,2.87,31.55,5.71,47.33,8.55.78.14,1.5.31,2.8.59-2.92.54-5.3.98-7.7,1.41-13.9,2.49-27.84,4.97-41.69,7.48-2.36.43-4.13.49-6.61.03-15.31-2.82-30.73-5.57-46.11-8.35-.98-.18-1.93-.37-3.19-.62.85-.21,1.39-.39,2.04-.51,15.9-2.86,31.84-5.7,47.71-8.57,1.93-.35,3.4-.38,5.39-.02ZM1169.51,63.85c-.02.52-.37.89-1.9,1.18-16.34,3.05-32.64,6.12-48.95,9.19-.29.06-.64.08-1.43.17-.07-.41-.16-.69-.15-.98.2-5.78.44-11.56.59-17.33.02-.6.42-1.01,2.21-1.35,16.05-2.99,32.04-6.01,48.05-9.02.49-.09,1.03-.16,1.8-.28.15.28.39.52.38.75-.19,5.89-.42,11.78-.6,17.67ZM1117.17,75.1c17.56,3.32,34.71,6.56,52.07,9.84.18,6.38.37,12.74.56,19.24-.99-.11-1.74-.16-2.35-.27-16.01-3.02-32.01-6.05-48.03-9.07-1.29-.24-2.01-.5-2.03-1.03-.1-6.04-.3-12.09-.46-18.13,0-.11.09-.21.24-.57ZM1118.89,95.54c15.74,2.87,31.55,5.71,47.33,8.56.78.14,1.5.31,2.87.6-1.55.29-2.53.47-3.51.64-15.42,2.76-30.86,5.5-46.23,8.29-2.14.39-3.76.44-5.99.03-15.53-2.84-31.15-5.63-46.73-8.44-.88-.16-1.72-.34-2.9-.58.95-.22,1.61-.41,2.35-.54,15.81-2.84,31.64-5.66,47.41-8.52,1.93-.35,3.39-.39,5.4-.02ZM1010.52,135.07c16.1,3.04,32.18,6.08,48.29,9.12,1.31.25,2,.52,2,1.04.12,6.04.3,12.08.45,18.12,0,.11-.1.22-.25.5-1.24-.2-2.15-.33-3.02-.5-15.5-2.92-30.98-5.87-46.51-8.78-1.78-.33-2.59-.68-2.59-1.38-.08-5.82-.28-11.64-.44-17.45,0-.26.06-.51.11-.86.77.07,1.44.09,1.96.19ZM1008.59,132.87c.2-5.67.45-11.34.56-17.02.01-.78.69-1.26,2.91-1.68,15.49-2.87,30.88-5.78,46.32-8.68.86-.16,1.78-.29,3.07-.5.07.48.18.83.17,1.18-.2,5.67-.45,11.35-.56,17.02-.01.79-.72,1.26-2.93,1.67-15.37,2.86-30.67,5.76-45.99,8.65-.95.18-1.91.35-3.37.62-.08-.55-.18-.9-.18-1.26ZM1058.87,143.4c-15.52-2.84-31.13-5.63-46.69-8.44-.86-.16-1.67-.35-2.93-.62,1.36-.25,2.32-.43,3.28-.6,15.61-2.79,31.23-5.57,46.79-8.39,1.96-.35,3.4-.36,5.37,0,15.63,2.85,31.33,5.66,47,8.49.86.16,1.66.35,2.77.59-1.16.24-1.97.42-2.84.58-15.59,2.8-31.21,5.58-46.76,8.41-2.18.4-3.82.39-5.99,0ZM1063,145.41c.01-.58.56-.94,2.18-1.24,16.05-2.99,32.03-6.02,48.04-9.03.49-.09,1.02-.16,1.9-.3.13.33.33.6.32.86-.19,5.85-.43,11.7-.6,17.56-.02.51-.3.89-1.86,1.18-16.44,3.07-32.84,6.16-49.26,9.24-.19.04-.44.04-1.17.11-.07-.34-.16-.58-.15-.83.2-5.85.43-11.7.59-17.56ZM1063.28,124.25c-.19-6.35-.37-12.72-.56-19.09,2.62.16,46.1,8.25,52.23,9.7.17,6.31.36,12.66.54,19.27-17.86-3.38-34.93-6.61-52.21-9.87ZM1062.75,103.42c.19-5.89.45-11.79.58-17.68.02-.71,1.03-1.04,2.76-1.36,14.07-2.62,28.11-5.25,42.16-7.88,2.27-.43,4.57-.84,7.44-1.37.05.55.11.91.09,1.27-.2,5.71-.44,11.42-.56,17.13-.02.66-.6,1.07-2.46,1.42-15.77,2.93-31.47,5.9-47.2,8.86-.68.13-1.41.23-2.4.39-.16-.3-.42-.53-.41-.77ZM1115.72,74.46c-1.53-.27-2.54-.44-3.52-.63-15.21-2.87-30.37-5.76-45.63-8.6-2.14-.4-3.04-.82-3.05-1.64-.04-5.67-.26-11.34-.41-17.01,0-.36.07-.71.13-1.2,1.14.17,1.97.27,2.72.41,15.7,2.96,31.39,5.93,47.1,8.89,1.47.28,2.43.55,2.44,1.18.08,5.93.29,11.86.45,17.79,0,.21-.11.42-.23.81ZM1064.67,65.66c16.15,2.93,32.34,5.84,48.51,8.76.49.09.92.2,1.83.41-1.13.23-1.86.41-2.65.55-15.8,2.83-31.61,5.66-47.38,8.5-1.79.32-3.18.37-5.07.03-15.93-2.9-31.93-5.77-47.91-8.65-.58-.1-1.13-.24-2.02-.42.87-.21,1.5-.4,2.23-.53,16-2.87,32.01-5.73,47.99-8.61,1.57-.28,2.82-.34,4.47-.04ZM1061.4,63.7c-.02.67-.68,1.07-2.5,1.41-15.85,2.95-31.65,5.94-47.47,8.9-.59.11-1.22.2-2.11.34-.15-.28-.4-.52-.39-.75.2-5.89.42-11.78.61-17.67.02-.52.39-.89,1.91-1.18,16.34-3.05,32.64-6.12,48.95-9.19.29-.05.64-.08,1.41-.17.07.41.17.69.16.98-.2,5.78-.45,11.56-.58,17.33ZM1012.2,75.71c15.51,2.93,31,5.87,46.53,8.78,1.65.31,2.46.64,2.46,1.29.09,5.86.29,11.72.46,17.58,0,.22-.05.44-.08.63-.2.04-.3.07-.4.08-.09.01-.23.03-.31.02-.63-.09-1.27-.18-1.86-.29-16.49-3.11-32.98-6.23-49.55-9.37-.18-6.38-.37-12.71-.55-19.27,1.51.24,2.44.37,3.29.54ZM1011.01,95.55c15.64,2.85,31.35,5.67,47.03,8.49.79.14,1.52.32,2.9.6-1.53.28-2.51.47-3.48.64-15.52,2.78-31.04,5.55-46.53,8.34-1.72.31-3.11.46-5.08.11-16.04-2.93-32.15-5.82-48.23-8.72-.59-.1-1.13-.24-1.99-.43.88-.21,1.52-.41,2.27-.54,15.8-2.84,31.64-5.66,47.4-8.52,2.1-.38,3.66-.35,5.71.02ZM903.08,154.43c-.76-.16-1.39-.29-1.87-.4-.18-6.32-.36-12.65-.55-19.25,9.75,1.84,19.27,3.64,28.72,5.43v-.04c7.76,1.47,15.49,2.93,23.26,4.4.19,6.35.37,12.71.56,19.08-1.26-.07-11.98-1.98-23.47-4.1v-.09c-8.91-1.68-17.76-3.35-26.64-5.03ZM904.41,133.38c-.53.1-1.06.2-1.66.31-.51.09-1.08.17-1.9.3-.09-.46-.17-.76-.16-1.05.19-5.71.45-11.41.55-17.12.01-.8.83-1.26,3-1.66,8.5-1.58,16.98-3.17,25.46-4.77v-.06c7.02-1.32,14.04-2.64,21.07-3.96.66-.13,1.42-.21,2.46-.37.11.37.26.64.26.91-.2,5.82-.43,11.64-.59,17.46-.02.61-.47,1.01-2.25,1.34-7.11,1.32-14.2,2.65-21.3,3.99h0c-8.32,1.56-16.64,3.13-24.96,4.69ZM951.06,143.46c-7.1-1.3-14.22-2.59-21.34-3.87v-.02c-8.6-1.55-17.2-3.1-25.79-4.65-.65-.12-1.26-.27-2.38-.52.29-.07.53-.13.78-.19.94-.17,1.63-.3,2.31-.42,8.36-1.5,16.73-3,25.08-4.5v-.06c7.16-1.29,14.33-2.57,21.47-3.87,1.92-.35,3.39-.39,5.39-.03,15.73,2.87,31.55,5.71,47.34,8.56.78.14,1.51.31,2.88.6-1.56.29-2.53.47-3.51.65-15.42,2.76-30.86,5.5-46.23,8.29-2.13.39-3.76.44-5.99.03ZM954.87,145.46c.02-.6.42-1.01,2.22-1.34,15.95-2.97,31.84-5.98,47.74-8.97.59-.11,1.23-.2,2.23-.36.09.38.25.69.24,1-.2,5.78-.44,11.56-.6,17.34-.02.6-.4,1.02-2.19,1.35-16.06,2.99-32.06,6.01-48.07,9.01-.49.09-1.03.16-2.04.31-.06-.44-.15-.73-.14-1.01.2-5.78.43-11.56.59-17.33ZM1007.28,134.02c-1.09-.17-1.92-.27-2.67-.42-15.71-2.97-31.41-5.95-47.14-8.9-1.68-.32-2.38-.66-2.39-1.3-.09-5.86-.3-11.72-.46-17.58-.01-.25.1-.49.18-.85.99.15,1.71.24,2.36.36,15.8,2.99,31.6,5.99,47.43,8.96,1.69.32,2.4.66,2.4,1.3.1,5.86.3,11.72.46,17.58,0,.25-.1.49-.18.85ZM954.78,103.16c.19-5.74.44-11.48.58-17.23.02-.65.46-1.08,2.37-1.43,15.75-2.93,31.43-5.9,47.15-8.86.76-.14,1.59-.25,2.77-.44.06.46.16.81.15,1.17-.19,5.67-.45,11.33-.56,17.01-.01.8-.8,1.25-2.97,1.65-15.36,2.86-30.65,5.75-45.96,8.63-.96.18-1.93.36-3.31.61-.1-.48-.22-.79-.21-1.11ZM955.63,64.63c-.19-6.42-.37-12.75-.55-19.03.32-.06.42-.08.52-.09.1-.01.24-.03.31-.02.62.1,1.26.18,1.86.29,16.48,3.12,32.96,6.23,49.53,9.37.18,6.39.36,12.75.55,19.35-17.74-3.35-34.87-6.59-52.22-9.87ZM956.56,65.62c16.13,2.94,32.33,5.84,48.5,8.76.48.09.92.2,1.68.38-.87.2-1.52.39-2.25.52-15.9,2.85-31.8,5.7-47.68,8.56-1.62.29-2.95.41-4.78.07-7.43-1.35-14.87-2.7-22.32-4.04v-.03c-8.26-1.49-16.52-2.98-24.79-4.47-.88-.16-1.71-.35-2.91-.59.85-.2,1.42-.36,2.06-.47,8.54-1.53,17.09-3.07,25.64-4.6v-.06c7.36-1.32,14.73-2.63,22.08-3.95,1.61-.29,2.93-.42,4.76-.09ZM953.4,63.73c-.01.65-.53,1.07-2.42,1.42-7.21,1.35-14.41,2.7-21.61,4.05h0c-8.3,1.55-16.58,3.12-24.88,4.68-.36.07-.73.14-1.12.21-.55.1-1.15.19-1.89.3-.15-.36-.31-.62-.31-.87.19-5.82.43-11.64.6-17.46.01-.59.37-1.02,2.18-1.36,8.6-1.6,17.18-3.21,25.76-4.82v-.04c4.07-.76,8.14-1.52,12.21-2.28,3.77-.71,7.58-1.4,11.87-2.18.09.43.2.72.19,1-.2,5.78-.44,11.57-.59,17.35ZM901.23,75.27c.22.02.43.04.63.06.85.14,1.63.26,2.32.39,8.39,1.59,16.79,3.17,25.18,4.75v-.03c7.26,1.37,14.51,2.74,21.77,4.11,1.3.25,2.02.51,2.04,1.03.11,6.04.29,12.08.45,18.12,0,.11-.1.21-.23.5-1.23-.2-2.15-.33-3-.49-6.89-1.3-13.79-2.61-20.68-3.91v-.02c-8.61-1.63-17.22-3.26-25.85-4.88-1.69-.32-2.36-.68-2.36-1.31-.1-5.82-.3-11.63-.45-17.45,0-.26.09-.52.18-.88ZM901.21,95.34c.36.03.73.08,1.13.15,9,1.64,18.01,3.27,27.03,4.89v-.03c6.91,1.25,13.83,2.49,20.74,3.74.78.14,1.5.31,2.55.53-1.02.22-1.7.4-2.46.53-6.94,1.25-13.89,2.49-20.83,3.74h0c-8.97,1.61-17.95,3.21-26.91,4.82-.34.06-.65.11-.97.15-.2.02-.4.05-.6.06-.04,0-.08,0-.11,0-.53.03-1.04.03-1.59,0-.36-.03-.74-.08-1.14-.15-16.04-2.92-32.14-5.8-48.21-8.71-.58-.1-1.1-.24-1.98-.43,1.05-.23,1.82-.42,2.66-.58,15.8-2.83,31.61-5.66,47.4-8.5.78-.14,1.49-.23,2.22-.26.01,0,.03,0,.04,0,.33,0,.67.02,1.02.04ZM802.65,136.65c12.77,2.42,25.54,4.84,38.36,7.23.35.07.69.14,1.01.2,1.85.38,2.6.81,2.6,1.56.05,5.68.27,11.35.42,17.03,0,.34-.08.68-.15,1.14-1.17-.19-2.12-.34-2.98-.5-15.31-2.89-30.59-5.8-45.96-8.67-2.18-.4-2.97-.84-2.98-1.65-.05-5.68-.27-11.35-.42-17.03-.01-.31.06-.63.12-1.03,1.32.18,5.06.83,9.96,1.71ZM792.7,133.16c.2-5.85.42-11.7.6-17.56.01-.52.33-.89,1.88-1.18,16.33-3.05,32.63-6.13,48.94-9.19.24-.05.56-.08,1.11-.14.07.38.16.65.15.93-.2,5.78-.44,11.56-.6,17.34-.02.5-.26.88-1.43,1.19-.13.03-.25.06-.4.09-.11.02-.21.05-.33.07-16.06,2.99-32.04,6.01-48.05,9.02-.3.06-.65.11-1.05.17-.16.02-.32.04-.52.07-.13-.31-.3-.56-.3-.81ZM844.59,143.67s-.1-.01-.15-.02c-.21-.03-.41-.06-.63-.1-16.04-2.93-32.16-5.82-48.24-8.72-.59-.11-1.13-.24-2.01-.43.87-.21,1.51-.41,2.26-.54,15.8-2.84,31.64-5.66,47.42-8.52.93-.17,1.77-.26,2.61-.28.76,0,1.54.07,2.44.23,15.84,2.89,31.76,5.74,47.63,8.61.66.12,1.28.27,2.45.52-1.07.22-1.84.39-2.64.54-.23.04-.45.08-.68.12-15.51,2.78-31.04,5.55-46.53,8.35-.39.07-.76.13-1.12.18-.78.1-1.52.15-2.33.1-.16-.01-.32-.03-.49-.05ZM848.91,105.36c15.92,3,31.8,6.01,47.72,9.01,1.27.24,2.12.47,2.13,1.01.1,6.08.28,12.16.43,18.24,0,.06-.09.13-.25.31-8.76-1.52-17.11-3.19-25.6-4.78-8.65-1.62-17.27-3.27-25.96-4.91-.18-6.38-.36-12.69-.54-19.14.85.09,1.53.15,2.07.25ZM846.88,103.17c.2-5.78.43-11.56.59-17.34.02-.61.46-1,2.25-1.34,15.94-2.97,31.83-5.98,47.74-8.97.51-.1,1.09-.18,1.83-.29.12.32.29.58.28.84-.19,5.82-.44,11.63-.59,17.44-.01.61-.44,1.01-2.23,1.35-16.02,2.98-31.99,6-47.99,9-.46.08-.99.15-1.75.26-.06-.41-.13-.69-.12-.96ZM847.08,145.65c.02-.8.82-1.26,2.99-1.66,15.26-2.83,30.44-5.7,45.65-8.56.99-.18,2.02-.37,3.07-.56.2.29.44.51.43.72-.19,5.93-.42,11.86-.61,17.79,0,.08-.03.15-.05.22-.32.42-1.08.72-2.39,1-16.12,3.02-32.22,6.05-48.32,9.08-.24.04-.53.07-1.12.14-.03-.04-.06-.08-.1-.13-.05-.39-.11-.71-.1-1.02.19-5.67.45-11.34.55-17.02ZM889.56,72.56c-13.2-2.49-26.39-4.99-39.6-7.47-.2-.04-.4-.08-.58-.12-1.09-.23-1.69-.5-1.7-.97-.11-6.04-.3-12.09-.45-18.13,0-.08.04-.16.12-.32,1.27.16,4.74.75,9.32,1.57,13.86,2.62,27.54,5.21,41.31,7.81.45.1.86.18,1.2.26.19,6.33.37,12.65.56,19.08-.95-.09-4.85-.75-10.18-1.7ZM847.56,65.56c.41.04.82.1,1.27.18,15.74,2.87,31.55,5.71,47.34,8.55.74.13,1.45.3,2.67.56-.99.21-1.71.39-2.44.52-.3.06-.6.11-.89.16-15.17,2.71-30.37,5.42-45.5,8.16-.25.04-.5.09-.74.13-.52.09-1.01.17-1.48.22-.03,0-.05,0-.08,0-.37.04-.72.05-1.08.07-.94.01-1.89-.06-2.99-.26-15.53-2.84-31.15-5.63-46.73-8.44-.88-.16-1.71-.35-2.89-.59.95-.22,1.61-.41,2.36-.54,15.81-2.84,31.64-5.66,47.41-8.52.85-.15,1.61-.24,2.37-.26.46,0,.93.02,1.4.06ZM845.15,63.72c0,.33-.12.62-.54.86-.37.2-.92.37-1.73.52-15.92,2.96-31.78,5.96-47.66,8.95-.44.08-.93.15-1.5.24-.11.02-.22.03-.34.05-.14-.32-.33-.58-.31-.84.19-5.82.46-11.64.57-17.46.02-.73.85-1.12,2.77-1.48,15.76-2.94,31.47-5.91,47.2-8.86.52-.1,1.1-.17,2-.3.07.41.16.69.15.97-.2,5.78-.43,11.57-.6,17.35ZM814.43,79.17c7.11,1.34,14.21,2.69,21.29,4.02,4.45.87,7.85,1.55,9.16,1.86.17,6.21.35,12.47.53,18.96-.95-.08-4.96-.76-10.4-1.73-13.31-2.51-26.37-4.98-39.51-7.46-.79-.16-1.45-.31-1.95-.42-.18-6.33-.36-12.66-.55-19.01,2.14.27,11.32,1.91,21.42,3.78ZM793.03,95.28c.27.03.55.06.84.11,16.35,2.97,32.73,5.92,49.1,8.87.34.06.66.15,1.33.32-.69.17-1.21.33-1.78.43-.08.01-.16.03-.24.04-1.87.34-3.74.67-5.61,1.01-10.6,1.9-21.21,3.8-31.79,5.71-3.38.61-6.77,1.21-10.15,1.82-.93.16-1.77.25-2.59.26-.99,0-1.98-.09-3.12-.3-15.41-2.83-30.91-5.6-46.38-8.39-.88-.16-1.72-.35-2.92-.59.85-.2,1.41-.36,2.05-.47,16.1-2.89,32.21-5.76,48.31-8.66.54-.1,1.05-.16,1.57-.2.46-.02.92-.01,1.4.02ZM684.66,134.84c.34.05.64.1.93.14,16.85,3.15,33.17,6.26,49.65,9.37.56.16.96.34,1.17.57.17,6.11.35,12.21.52,18.5-.04.11-.07.23-.11.38-1.45-.26-2.39-.42-3.28-.59-15.11-2.86-30.19-5.73-45.35-8.55-2.24-.42-3.21-.85-3.22-1.72,0-5.6-.24-11.2-.39-16.8-.01-.37.04-.75.09-1.31ZM684.58,132.91c.19-5.75.42-11.49.6-17.23.02-.59.3-1.02,2.14-1.36,16.15-3,32.23-6.05,48.35-9.08.32-.06.71-.11,1.21-.18.17.25.41.47.4.68-.19,5.92-.43,11.85-.59,17.77,0,.27-.18.48-.5.66-.06.03-.14.06-.21.09-.35.15-.8.28-1.43.4-16.03,3-32.03,6.01-48.05,9.02-.48.09-1.04.16-1.75.25-.07-.4-.16-.71-.15-1.02ZM735.14,143.46c-15.52-2.84-31.12-5.63-46.7-8.44-.88-.16-1.71-.34-2.91-.59,1.06-.23,1.84-.43,2.67-.58,15.8-2.83,31.62-5.66,47.4-8.5.78-.14,1.49-.23,2.22-.26.34,0,.7.02,1.06.04.36.03.73.08,1.14.15,16.04,2.92,32.13,5.81,48.2,8.71.54.1,1.06.22,2.02.44-.93.21-1.6.37-2.32.5-.23.04-.45.08-.68.12-14.16,2.54-28.34,5.07-42.46,7.62-1.46.26-2.93.52-4.39.79-.46.08-.89.14-1.31.19-.06,0-.12.01-.18.02-.29.03-.58.04-.87.04-.92,0-1.84-.07-2.91-.26ZM738.96,145.47c.02-.73.85-1.12,2.76-1.48,15.76-2.93,31.47-5.9,47.2-8.86.5-.09,1.07-.17,1.93-.29.04.07.08.12.12.18.06.31.12.54.12.77-.2,5.78-.44,11.57-.58,17.35-.01.66-.61,1.07-2.47,1.41-15.76,2.94-31.47,5.91-47.19,8.86-.58.11-1.21.2-2.08.34-.05,0-.08.01-.13.02-.11-.37-.25-.67-.24-.96.2-5.78.46-11.57.57-17.35ZM791.01,134.02c-1.34-.24-2.29-.4-3.2-.57-15.2-2.87-30.37-5.76-45.62-8.6-2.15-.4-3.02-.83-3.03-1.64-.04-5.67-.26-11.34-.41-17.02,0-.34.07-.68.14-1.14.96.14,1.71.24,2.38.37,15.7,2.96,31.39,5.94,47.09,8.89,1.48.28,2.42.55,2.43,1.18.09,5.93.3,11.86.46,17.79,0,.2-.11.4-.22.74ZM738.88,103.13c.2-5.71.45-11.42.58-17.13.02-.73.59-1.2,2.73-1.59,15.68-2.91,31.28-5.86,46.91-8.8.6-.11,1.27-.21,2.11-.35.17.28.38.5.38.72-.19,5.89-.43,11.79-.6,17.68,0,.27-.13.49-.42.68-.06.04-.13.07-.2.11-.09.05-.2.09-.33.14-.09.03-.19.07-.29.1-.26.08-.54.15-.91.21-6.65,1.24-13.29,2.5-19.93,3.75-3.78.71-7.55,1.42-11.33,2.13-5.4,1.02-10.8,2.03-16.2,3.05-.59.1-1.25.21-2.05.33-.09.01-.21.03-.31.04-.06-.46-.15-.77-.14-1.08ZM791.43,74.34c-8.91-1.54-17.23-3.21-25.71-4.8-8.66-1.62-17.28-3.26-25.97-4.91-.19-6.37-.36-12.69-.55-19.16.95.12,1.72.2,2.36.32,15.81,2.98,31.6,5.98,47.43,8.95,1.46.27,2.12.56,2.13,1.12.11,5.97.31,11.94.48,17.91,0,.13-.07.28-.16.56ZM739.41,65.51c.41.04.84.1,1.29.18,15.74,2.87,31.55,5.71,47.33,8.55.72.13,1.4.29,2.51.52-.58.16-1.04.29-1.52.4-1.16.21-2.25.41-3.3.61-3.4.61-6.8,1.22-10.2,1.83-8.22,1.47-16.42,2.94-24.62,4.42-3.31.59-6.61,1.19-9.92,1.78-.89.15-1.72.24-2.54.26-1.02,0-2.05-.09-3.25-.31-15.31-2.82-30.73-5.57-46.1-8.35-.93-.17-1.85-.36-3.02-.59-.04-.01-.1-.03-.15-.04.83-.21,1.37-.39,2.02-.51,15.9-2.86,31.84-5.7,47.71-8.57.68-.12,1.3-.19,1.92-.23.61-.03,1.21-.02,1.84.03ZM737.15,63.85c-.02.52-.37.89-1.9,1.18-16.34,3.05-32.64,6.12-48.95,9.19-.03,0-.06,0-.09.01-.24.03-.52.06-1,.12-.07-.38-.15-.66-.14-.93.2-5.78.44-11.56.59-17.33.02-.6.42-1.01,2.21-1.35,16.05-2.99,32.04-6.01,48.05-9.02.41-.08.89-.14,1.49-.23.15.26.36.49.35.71-.19,5.89-.42,11.78-.6,17.67ZM685.13,75.16c17.45,3.3,34.5,6.52,51.75,9.78.18,6.36.37,12.72.56,19.2-.8-.08-1.47-.14-2.01-.24-16.01-3.02-32.01-6.05-48.03-9.07-1.29-.24-2.01-.5-2.03-1.03-.11-6.04-.3-12.09-.46-18.13,0-.1.08-.21.21-.51ZM685.2,95.35c.42.04.86.1,1.32.19,15.74,2.87,31.55,5.71,47.33,8.56.72.13,1.42.29,2.62.55-.87.2-1.5.37-2.17.5-.38.07-.74.14-1.09.2-13.18,2.36-26.36,4.71-39.51,7.08-2.29.41-4.58.82-6.86,1.23-.91.16-1.74.25-2.56.28-.92,0-1.86-.07-2.93-.27-15.53-2.84-31.15-5.63-46.73-8.44-.88-.16-1.72-.34-2.9-.58.95-.22,1.61-.41,2.35-.54,15.81-2.84,31.64-5.66,47.41-8.52.9-.16,1.7-.25,2.51-.27.4,0,.81.03,1.22.06ZM578.16,135.07c16.1,3.04,32.18,6.08,48.29,9.12,1.31.25,2,.52,2,1.04.12,6.04.3,12.08.45,18.12,0,.1-.09.21-.22.44-1.06-.17-1.92-.3-2.7-.45-15.5-2.92-30.98-5.87-46.51-8.78-1.78-.33-2.59-.68-2.59-1.38-.08-5.82-.28-11.64-.44-17.45,0-.25.06-.5.1-.83.62.05,1.18.08,1.62.17ZM576.58,132.87c.2-5.67.45-11.34.56-17.02.01-.78.69-1.26,2.91-1.68,15.49-2.87,30.88-5.78,46.32-8.68.78-.15,1.62-.27,2.73-.45.07.45.17.79.16,1.13-.2,5.67-.45,11.35-.56,17.02-.02.79-.72,1.26-2.93,1.67-15.37,2.86-30.67,5.76-45.99,8.65-.87.16-1.77.32-3.03.56-.08-.51-.18-.86-.17-1.2ZM626.86,143.4c-15.52-2.84-31.13-5.63-46.69-8.44-.86-.16-1.67-.35-2.93-.62,1.36-.25,2.32-.43,3.28-.6,15.6-2.79,31.23-5.57,46.79-8.39.91-.16,1.71-.25,2.51-.26.8.01,1.6.09,2.52.26,15.63,2.85,31.33,5.66,47,8.49.86.16,1.66.35,2.77.59-1.16.24-1.97.42-2.84.58-15.59,2.8-31.21,5.58-46.76,8.41-1.02.19-1.92.28-2.82.29-.9-.01-1.8-.1-2.83-.29ZM630.99,145.41c.01-.58.56-.94,2.18-1.24,16.05-2.99,32.03-6.02,48.04-9.03.42-.08.91-.15,1.58-.25.13.31.31.56.3.81-.19,5.85-.43,11.7-.6,17.56,0,.19-.08.35-.2.51-.3.28-.87.51-1.85.71-16.37,3.06-32.71,6.13-49.06,9.2-.16.03-.37.04-.83.08-.07-.32-.16-.56-.15-.8.2-5.85.43-11.7.59-17.56ZM672.22,132c-13.84-2.62-27.34-5.17-40.96-7.74-.19-6.34-.37-12.69-.55-19.06,2.86.36,18.31,3.16,31.73,5.69v.03c3.95.75,7.9,1.49,11.86,2.24,3.96.77,6.98,1.39,8.29,1.7.17,6.21.35,12.46.53,18.96-.98-.08-5.2-.8-10.9-1.82ZM630.74,103.42c.19-5.89.45-11.79.58-17.68.02-.71,1.03-1.04,2.77-1.36,14.07-2.62,28.11-5.25,42.16-7.88,2.17-.41,4.37-.8,7.06-1.3.02.06.03.11.05.17.04.42.08.73.07,1.04-.2,5.71-.44,11.42-.56,17.13-.02.66-.6,1.07-2.46,1.42-15.77,2.93-31.47,5.9-47.2,8.86-.6.11-1.27.21-2.09.34-.16-.27-.39-.5-.38-.72ZM683.38,74.4c-1.34-.24-2.29-.4-3.19-.57-15.21-2.87-30.38-5.76-45.63-8.6-2.14-.4-3.04-.82-3.05-1.64-.04-5.67-.26-11.34-.41-17.01,0-.34.07-.69.12-1.15.95.14,1.71.24,2.37.36,15.7,2.96,31.39,5.93,47.1,8.89,1.47.28,2.43.55,2.44,1.18.08,5.93.29,11.86.45,17.79,0,.2-.1.4-.21.75ZM632.31,65.66c16.15,2.93,32.34,5.84,48.51,8.76.49.09.92.2,1.83.41-1.13.23-1.86.41-2.65.55-15.8,2.83-31.62,5.66-47.38,8.5-.84.15-1.6.24-2.36.26-.74,0-1.5-.07-2.36-.23-15.93-2.9-31.94-5.77-47.91-8.65-.58-.1-1.13-.24-2.02-.42.88-.21,1.5-.4,2.22-.53,16-2.87,32.02-5.73,47.99-8.61.74-.13,1.41-.21,2.08-.23.64,0,1.3.06,2.04.19ZM629.04,63.7c-.02.67-.68,1.07-2.5,1.41-15.85,2.95-31.65,5.94-47.47,8.9-.51.1-1.08.18-1.79.29-.15-.26-.36-.49-.36-.71.2-5.89.42-11.78.61-17.67.02-.52.39-.89,1.91-1.18,16.34-3.05,32.64-6.12,48.95-9.19.24-.04.54-.07,1.07-.13.07.39.16.66.16.94-.2,5.78-.45,11.56-.58,17.33ZM579.84,75.71c15.51,2.93,31,5.87,46.53,8.78,1.65.31,2.46.64,2.46,1.29.09,5.86.29,11.72.46,17.58,0,.22-.05.44-.08.63-.2.04-.3.07-.4.08-.02,0-.04,0-.06,0-.6-.09-1.2-.17-1.77-.27-16.49-3.11-32.98-6.23-49.55-9.37-.18-6.36-.37-12.68-.55-19.21,1.3.21,2.16.33,2.94.48ZM578.65,95.55c15.64,2.85,31.35,5.67,47.03,8.49.79.14,1.52.32,2.9.6-1.53.28-2.51.47-3.49.64-15.52,2.78-31.04,5.55-46.53,8.34-.98.18-1.86.3-2.79.31-.6-.01-1.23-.07-1.94-.2-16.04-2.93-32.15-5.82-48.23-8.72-.59-.1-1.13-.24-1.99-.43.87-.21,1.52-.41,2.27-.54,15.8-2.84,31.64-5.66,47.4-8.52.98-.18,1.83-.26,2.68-.26.86.02,1.71.11,2.68.29ZM476.32,155.49c-3.41-.67-6.04-1.21-7.37-1.52-.17-6.28-.36-12.61-.54-19.21,17.7,3.35,34.66,6.56,51.86,9.81.19,6.34.37,12.69.56,19.05-2.28-.28-12.57-2.11-23.47-4.13v-.02c-7.04-1.33-14.03-2.65-21.04-3.97ZM468.45,132.86c.2-5.67.46-11.35.55-17.02,0-.84.86-1.31,3.12-1.73,1.39-.26,2.77-.52,4.15-.78,14.2-2.64,28.34-5.31,42.5-7.97.58-.11,1.27-.2,2.13-.32.11.34.25.61.24.87-.2,5.82-.43,11.64-.59,17.46-.02.61-.47,1.01-2.25,1.34-15.87,2.95-31.67,5.94-47.5,8.92-.6.11-1.26.21-2.27.36-.05-.49-.11-.81-.09-1.12ZM519.04,143.46c-15.53-2.84-31.15-5.63-46.73-8.44-.88-.16-1.72-.35-2.9-.59.96-.22,1.61-.41,2.35-.54,15.8-2.84,31.64-5.66,47.42-8.52.91-.16,1.71-.25,2.52-.27.79,0,1.6.08,2.52.25,15.73,2.87,31.55,5.71,47.34,8.56.78.14,1.51.31,2.88.6-1.56.29-2.53.47-3.51.65-15.42,2.76-30.86,5.5-46.23,8.29-1.01.18-1.91.29-2.82.31-.89,0-1.79-.08-2.83-.27ZM522.86,145.46c.02-.6.42-1.01,2.22-1.34,15.95-2.97,31.84-5.98,47.74-8.97.51-.1,1.11-.18,1.9-.31.1.36.24.66.23.95-.2,5.78-.44,11.56-.6,17.34-.02.6-.4,1.02-2.19,1.35-16.06,2.99-32.06,6.01-48.07,9.01-.43.08-.91.14-1.7.26-.06-.41-.14-.69-.13-.96.2-5.78.43-11.56.59-17.33ZM574.94,133.98c-.92-.14-1.67-.24-2.33-.37-15.71-2.97-31.41-5.95-47.14-8.9-1.68-.32-2.38-.66-2.39-1.3-.09-5.86-.3-11.72-.45-17.58-.01-.23.09-.47.17-.8.8.12,1.46.2,2.03.31,15.8,2.99,31.6,5.99,47.43,8.96,1.69.32,2.4.66,2.4,1.3.1,5.86.3,11.72.46,17.58,0,.23-.09.47-.17.8ZM522.77,103.16c.19-5.74.44-11.48.58-17.23.02-.65.46-1.08,2.37-1.43,15.75-2.93,31.43-5.9,47.15-8.86.68-.13,1.45-.24,2.44-.39.06.43.15.77.14,1.11-.19,5.67-.45,11.33-.56,17.01-.01.8-.8,1.25-2.97,1.65-15.36,2.86-30.65,5.75-45.96,8.63-.87.17-1.78.33-2.98.55-.09-.44-.21-.75-.2-1.05ZM523.62,64.63c-.18-6.42-.37-12.75-.55-19.03.32-.06.42-.08.52-.09.02,0,.04,0,.05,0,.6.09,1.2.18,1.77.28,16.48,3.12,32.96,6.23,49.53,9.37.18,6.37.36,12.7.55,19.29-17.62-3.33-34.63-6.54-51.87-9.8ZM524.2,65.62c16.13,2.94,32.33,5.84,48.5,8.76.48.09.92.2,1.68.38-.87.2-1.52.39-2.25.52-15.9,2.85-31.8,5.7-47.68,8.56-.78.14-1.5.24-2.23.26-.68,0-1.39-.04-2.19-.19-16.14-2.94-32.33-5.85-48.5-8.76-.45-.08-.87-.19-1.75-.4.76-.18,1.3-.32,1.88-.43.19-.04.38-.07.56-.1,2.76-.49,5.52-.99,8.28-1.48,13.1-2.34,26.21-4.68,39.29-7.04.78-.14,1.5-.24,2.23-.27.68,0,1.38.04,2.18.18ZM521.04,63.73c-.01.65-.53,1.07-2.42,1.42-15.76,2.94-31.46,5.91-47.18,8.87-.6.12-1.27.21-2.07.34-.19-.22-.44-.41-.43-.59.18-5.97.44-11.94.58-17.9,0-.17.08-.32.21-.44,0,0,0,0,0,0,.4-.38,1.34-.59,2.51-.81,12.57-2.35,25.12-4.7,37.68-7.05,3.67-.69,7.38-1.36,11.53-2.12.09.39.19.67.18.94-.2,5.78-.44,11.57-.59,17.35ZM470.79,75.5c16.01,3.02,31.99,6.05,47.99,9.06,1.3.25,2.02.51,2.04,1.03.11,6.04.29,12.08.45,18.12,0,.1-.08.2-.21.45-1.05-.17-1.91-.29-2.68-.44-15.5-2.93-30.98-5.87-46.52-8.77-1.79-.33-2.61-.69-2.62-1.37-.08-5.82-.29-11.64-.45-17.46,0-.25.05-.5.1-.85.72.07,1.37.12,1.9.22ZM470.46,95.54c15.73,2.87,31.52,5.7,47.29,8.55.78.14,1.5.31,2.55.53-1.02.22-1.7.4-2.46.53-15.9,2.85-31.8,5.69-47.69,8.56-.82.15-1.56.23-2.31.24-.66,0-1.34-.07-2.11-.21-15.93-2.9-31.93-5.77-47.9-8.65-.64-.11-1.24-.26-2.25-.48.92-.2,1.64-.37,2.39-.52.33-.06.65-.12.97-.18,14.58-2.61,29.17-5.21,43.72-7.84.94-.17,1.88-.34,2.82-.51.88-.16,1.67-.25,2.46-.27.79,0,1.59.07,2.52.24ZM380.33,138.49c6.75,1.28,13.52,2.55,20.28,3.82,4.78.92,8.66,1.69,10.69,2.12.46.16.79.34.99.55.18,6.17.36,12.4.54,18.89-.44-.07-.8-.13-1.17-.19-16.9-3.19-33.17-6.27-49.48-9.35-.7-.21-1.13-.45-1.36-.75-.17-6.16-.35-12.28-.53-18.43.01-.07.02-.13.03-.2,2.13.29,10.53,1.79,20.01,3.54ZM360.46,133.15c.19-5.85.42-11.7.6-17.56.01-.52.32-.89,1.87-1.18,16.34-3.05,32.63-6.13,48.94-9.19.02,0,.05,0,.08-.01.24-.04.53-.07,1.05-.13.08.37.16.65.16.92-.2,5.81-.44,11.63-.59,17.44-.02.58-.55.94-2.17,1.24-16.14,3.01-32.24,6.05-48.35,9.08-.32.06-.73.11-1.28.19-.13-.3-.31-.55-.3-.81ZM411.64,143.55c-16.15-2.94-32.35-5.85-48.54-8.77-.5-.09-.95-.2-1.77-.38.84-.21,1.45-.41,2.18-.54,15.91-2.86,31.83-5.71,47.73-8.57.27-.05.52-.08.78-.12.94-.12,1.82-.15,2.78-.07.29.03.57.06.87.12,16.05,2.92,32.16,5.81,48.24,8.71.66.12,1.23.29,2.12.5-1.15.24-1.96.43-2.82.58-15.71,2.82-31.44,5.63-47.13,8.46-.83.15-1.58.25-2.36.27-.64,0-1.31-.05-2.06-.18ZM414.84,145.31c0-.1.07-.18.12-.26.3-.36.95-.64,1.99-.88.19-.04.37-.08.58-.12,12.56-2.34,25.11-4.7,37.67-7.05,3.66-.68,7.37-1.36,11.57-2.13.03.03.05.07.08.1.05.41.12.73.11,1.04-.2,5.67-.46,11.34-.56,17.02-.01.8-.82,1.25-2.98,1.66-15.38,2.86-30.66,5.76-46,8.65-.75.14-1.56.29-2.52.46-.05,0-.13.01-.19.02-.21-.28-.45-.5-.45-.71.19-5.93.44-11.86.58-17.79ZM466.81,133.99c-.85-.15-1.68-.3-2.52-.45-16.63-3.14-32.87-6.21-49.15-9.29-.18-6.37-.36-12.68-.55-19.15.18.02.35.04.52.06.7.09,1.32.16,1.82.26,15.82,2.98,31.61,5.98,47.44,8.95,1.46.27,2.13.57,2.13,1.12.12,5.97.32,11.94.48,17.91,0,.13-.07.27-.17.6ZM414.64,103.01c.19-5.67.46-11.34.56-17,0-.8.78-1.25,2.96-1.66,15.27-2.84,30.44-5.71,45.66-8.58.51-.1,1.03-.19,1.59-.29.48-.08,1.01-.16,1.71-.27.1.41.22.71.2,1-.19,5.74-.43,11.48-.58,17.23-.02.64-.4,1.08-2.32,1.44-15.96,2.97-31.85,5.97-47.77,8.96-.5.09-1.08.17-1.92.29-.04-.48-.09-.8-.08-1.11ZM448.87,70.98c-8.39-1.58-16.78-3.17-25.17-4.75-3.38-.66-6.08-1.21-7.66-1.56-.24-.09-.43-.2-.55-.32-.18-6.2-.36-12.45-.54-18.72.02-.03.03-.06.05-.1,1.91.24,8.8,1.45,17.01,2.95,9.75,1.84,19.44,3.67,29.16,5.51,2.58.51,4.61.93,5.79,1.2.18,6.3.36,12.66.55,19.03-1.96-.24-9.66-1.6-18.62-3.25ZM416.97,65.79c15.44,2.82,30.95,5.59,46.43,8.39.97.18,1.89.37,3.21.64-1.19.26-1.98.45-2.84.6-15.71,2.82-31.45,5.62-47.14,8.45-.68.12-1.3.19-1.93.24-.54.02-1.08.01-1.64-.03-.37-.04-.75-.08-1.16-.16-15.94-2.9-31.95-5.77-47.94-8.66-.62-.11-1.19-.26-2.15-.48.83-.19,1.45-.36,2.13-.49.2-.04.39-.07.57-.1,15.61-2.8,31.25-5.59,46.81-8.41.52-.09,1.01-.16,1.48-.21.1,0,.2-.01.29-.02.3-.02.59-.04.88-.04.96,0,1.91.09,2.99.29ZM412.91,63.7c-.01.66-.6,1.07-2.46,1.41-15.76,2.94-31.47,5.91-47.19,8.86-.6.11-1.27.21-2.13.35-.14-.32-.33-.58-.32-.84.2-5.82.43-11.64.59-17.46.01-.48.33-.83,1.21-1.12.04-.01.06-.03.1-.04.25-.08.57-.15.91-.22.11-.02.19-.05.31-.07,15.84-2.95,31.62-5.93,47.43-8.9.43-.08.92-.14,1.59-.24.12-.02.26-.03.4-.05.07.41.16.69.15.96-.19,5.78-.44,11.57-.58,17.35ZM372.06,77.28c12.9,2.44,25.58,4.84,38.36,7.25.95.2,1.69.36,2.21.48.18,6.33.36,12.65.55,18.99-1.94-.24-9.65-1.6-18.61-3.24-8.62-1.63-17.19-3.25-25.75-4.86-3.49-.69-6.19-1.24-7.52-1.55-.17-6.21-.36-12.48-.54-18.98,1,.1,5.4.85,11.29,1.91ZM362.18,95.48c15.83,2.89,31.73,5.74,47.6,8.6.69.13,1.33.27,2.32.47-.79.2-1.33.36-1.96.48-16.1,2.89-32.21,5.77-48.28,8.68-.3.06-.59.09-.87.13-.91.07-1.79.06-2.73-.04-.17-.03-.34-.04-.52-.07-16.14-2.93-32.34-5.84-48.51-8.76-.45-.08-.87-.19-1.76-.39.75-.18,1.28-.32,1.85-.43.31-.06.6-.11.89-.16,15.77-2.82,31.54-5.64,47.31-8.48.78-.14,1.49-.22,2.2-.24.77,0,1.56.06,2.46.22ZM255.19,135.31c15.51,2.93,31,5.87,46.53,8.79,1.63.3,2.49.62,2.5,1.28.08,5.86.29,11.72.44,17.57,0,.23-.1.47-.21.86-16.94-3.2-33.49-6.33-50.13-9.47-.77-.22-1.27-.47-1.52-.79-.17-6.16-.35-12.28-.52-18.56,0-.05,0-.09.01-.14,1.26.2,2.11.32,2.89.46ZM252.34,132.72c.2-5.63.45-11.26.55-16.89.02-.79.74-1.26,2.92-1.66,10.86-2.02,21.68-4.06,32.5-6.1,4.71-.89,9.42-1.78,14.14-2.66.32-.06.67-.12,1.02-.19.34-.06.72-.11,1.28-.19.13.36.28.61.26.87-.19,5.81-.43,11.63-.59,17.45-.01.62-.53,1.01-2.29,1.33-15.95,2.97-31.85,5.97-47.76,8.96-.51.1-1.1.17-1.97.3-.03-.51-.08-.86-.07-1.21ZM304.52,143.69c-.34-.04-.69-.08-1.07-.15-15.93-2.9-31.93-5.77-47.91-8.65-.63-.12-1.23-.26-2.26-.48.97-.21,1.71-.39,2.48-.54.29-.05.57-.1.86-.16,15.5-2.77,31.02-5.54,46.5-8.34.9-.16,1.7-.26,2.5-.28.78,0,1.59.07,2.52.24,15.72,2.87,31.52,5.7,47.29,8.55.77.14,1.5.31,2.56.53-1,.22-1.67.39-2.43.53-15.9,2.85-31.81,5.7-47.68,8.56-.62.11-1.18.18-1.75.21-.53.02-1.06.01-1.6-.03ZM306.73,145.57c.02-.62.45-1.04,1.83-1.39.2-.05.4-.1.63-.14.09-.02.18-.04.28-.06,15.78-2.93,31.48-5.9,47.2-8.86.29-.05.59-.1.93-.15.27-.04.54-.08.89-.13.15.27.36.49.35.71-.2,5.9-.43,11.79-.59,17.68-.01.57-.52.94-2.15,1.25-16.05,3-32.07,6.02-48.09,9.03-.42.08-.91.14-1.72.26-.06-.46-.15-.77-.14-1.08.2-5.71.44-11.42.58-17.13ZM358.78,134.01c-1.33-.23-2.27-.4-3.18-.57-15.21-2.87-30.37-5.76-45.63-8.6-2.16-.4-3.04-.83-3.05-1.64-.06-5.67-.27-11.34-.42-17.02-.01-.34.06-.69.11-1.15.94.13,1.7.23,2.36.35,15.7,2.96,31.39,5.94,47.11,8.89,1.65.31,2.44.64,2.45,1.29.08,5.85.29,11.71.44,17.57.01.23-.09.47-.19.87ZM306.63,103.31c.19-5.82.43-11.64.6-17.46,0-.28.11-.52.38-.73.08-.05.17-.1.27-.15.06-.03.13-.06.2-.09.14-.06.29-.11.47-.17.25-.07.51-.14.86-.21,15.96-2.97,31.86-5.97,47.78-8.96.37-.06.78-.13,1.23-.2.21-.03.46-.06.74-.1.02.03.04.06.06.1.04.41.1.71.09,1-.2,5.71-.45,11.42-.59,17.13-.02.69-.49,1.14-2.51,1.52-15.67,2.91-31.27,5.87-46.89,8.81-.68.13-1.44.24-2.39.39-.14-.34-.31-.6-.31-.87ZM356.54,73.89c-16.68-3.15-32.82-6.2-49.05-9.27-.18-6.33-.35-12.63-.54-19.18.79.11,1.42.18,1.98.26,16.7,3.15,32.82,6.2,49,9.26.42.12.7.26.89.42.18,6.28.35,12.53.54,19.01-.96-.16-1.88-.34-2.83-.5ZM308.97,65.77c15.43,2.83,30.95,5.6,46.43,8.39.9.16,1.75.34,2.92.58-.77.2-1.28.38-1.91.5-16.1,2.89-32.23,5.78-48.33,8.68-.24.04-.47.07-.71.11-1.03.09-2.03.08-3.12-.04-16.45-2.99-32.94-5.96-49.41-8.94-.28-.05-.52-.13-1.1-.28.48-.13.89-.23,1.27-.33.31-.07.6-.13.89-.19,14.91-2.67,29.84-5.34,44.71-8.03.81-.15,1.62-.29,2.43-.44.54-.1,1.04-.17,1.52-.22.07,0,.13-.01.2-.02.31-.03.62-.04.93-.05,1.04-.01,2.08.07,3.29.29ZM304.9,63.85c-.02.52-.4.88-1.93,1.17-16.34,3.05-32.64,6.12-48.96,9.19-.24.04-.55.07-1.07.13-.07-.39-.15-.67-.13-.95.2-5.78.44-11.56.59-17.34.02-.61.46-1.01,2.25-1.34,15.95-2.97,31.84-5.98,47.75-8.97.51-.09,1.08-.18,1.77-.28.14.27.35.49.34.72-.2,5.89-.43,11.78-.6,17.67ZM252.88,75.15c17.45,3.3,34.5,6.52,51.75,9.78.18,6.36.37,12.72.56,19.2-.81-.08-1.47-.14-2.01-.24-16.01-3.02-32.01-6.05-48.03-9.07-1.29-.24-2.02-.51-2.03-1.03-.1-6.04-.29-12.09-.44-18.13,0-.1.07-.21.2-.51ZM254.61,95.59c15.54,2.84,31.16,5.63,46.74,8.44.87.16,1.7.34,2.87.59-.98.23-1.64.41-2.39.55-15.92,2.85-31.85,5.7-47.75,8.56-.35.06-.68.11-1.01.16-.89.08-1.75.07-2.68-.02-.14-.02-.28-.03-.43-.06-6.5-1.18-13.02-2.35-19.54-3.53v.03c-9.39-1.7-18.79-3.39-28.18-5.08-.88-.16-1.72-.34-2.9-.58.95-.22,1.61-.41,2.35-.54,9.58-1.72,19.15-3.44,28.72-5.16h0c6.18-1.11,12.37-2.22,18.54-3.34,1.02-.19,1.92-.28,2.82-.29.9,0,1.8.1,2.82.28ZM146.15,135.07c16.1,3.04,32.18,6.08,48.29,9.12,1.31.25,2,.52,2,1.04.12,6.04.3,12.08.45,18.12,0,.11-.1.22-.25.5-1.24-.2-2.15-.33-3.02-.5-15.5-2.92-30.98-5.87-46.51-8.78-1.78-.33-2.59-.68-2.59-1.38-.08-5.82-.28-11.64-.44-17.45,0-.26.06-.51.11-.86.77.07,1.44.09,1.96.19ZM144.22,132.87c.2-5.67.45-11.34.56-17.02.01-.78.69-1.26,2.91-1.68,15.49-2.87,30.88-5.78,46.32-8.68.86-.16,1.78-.29,3.07-.5.07.48.18.83.17,1.18-.2,5.67-.45,11.35-.56,17.02-.01.79-.72,1.26-2.93,1.67-15.37,2.86-30.67,5.76-45.99,8.65-.95.18-1.91.35-3.37.62-.08-.55-.19-.9-.18-1.26ZM194.5,143.4c-15.52-2.84-31.13-5.63-46.69-8.44-.86-.16-1.67-.35-2.93-.62,1.36-.25,2.32-.43,3.28-.6,15.6-2.79,31.23-5.57,46.79-8.39,1.96-.35,3.4-.36,5.37,0,9.9,1.81,19.83,3.6,29.76,5.39v.02c5.93,1.07,11.86,2.14,17.79,3.21.58.1,1.1.24,2.19.48-.08.02-.13.03-.21.04-1.29.24-2.15.39-2.99.55-5.59,1-11.18,2.01-16.77,3.01v.05c-9.88,1.77-19.75,3.54-29.59,5.33-2.18.4-3.82.39-5.99,0ZM198.63,145.41c.01-.58.56-.94,2.18-1.24,9.9-1.85,19.76-3.71,29.63-5.57h0c5.67-1.06,11.34-2.13,17.01-3.19.51-.1,1.02-.19,1.58-.29.44-.08.92-.15,1.66-.26.08.45.17.75.16,1.05-.19,5.74-.44,11.49-.59,17.23,0,.66-.57,1.07-2.43,1.42-5.92,1.1-11.82,2.21-17.73,3.33v.05c-10.24,1.92-20.49,3.84-30.72,5.76-.19.04-.44.04-1.17.11-.07-.34-.16-.58-.15-.83.2-5.85.43-11.7.59-17.56ZM231.99,130.51c-11.1-2.1-22.08-4.18-33.09-6.26-.19-6.35-.37-12.72-.55-19.09,1.56.1,17.69,3.02,31.73,5.66v.1c6.05,1.14,12.11,2.29,18.17,3.43.87.18,1.57.33,2.08.45.18,6.32.37,12.65.55,18.99-1.95-.23-9.81-1.62-18.89-3.28ZM198.38,103.42c.19-5.89.45-11.79.58-17.68.02-.71,1.03-1.04,2.76-1.36,14.07-2.62,28.11-5.25,42.16-7.88,2.05-.38,4.14-.76,6.63-1.22.14-.02.28-.04.44-.06.1.37.25.67.24.96-.19,5.78-.42,11.57-.59,17.35-.02.59-.36,1.02-2.17,1.36-6.13,1.14-12.23,2.29-18.34,3.44v.05c-9.63,1.81-19.26,3.62-28.88,5.43-.68.13-1.41.23-2.41.39-.16-.3-.42-.53-.41-.77ZM200.29,65.66c9.91,1.8,19.85,3.59,29.79,5.38v.03c6.01,1.08,12.02,2.17,18.03,3.25.68.12,1.29.27,2.45.52,0,0-.01,0-.02,0-1.47.27-2.36.44-3.25.6-5.74,1.03-11.48,2.06-17.21,3.09v.05c-9.83,1.76-19.67,3.52-29.48,5.29-1.79.32-3.18.37-5.07.03-15.93-2.9-31.93-5.77-47.91-8.65-.58-.1-1.13-.24-2.02-.42.88-.21,1.5-.4,2.22-.53,16-2.87,32.02-5.73,48-8.61,1.57-.28,2.82-.34,4.47-.04ZM197.03,63.7c-.02.67-.68,1.07-2.5,1.41-15.85,2.95-31.65,5.94-47.47,8.9-.59.11-1.22.2-2.11.34-.15-.28-.4-.52-.39-.75.2-5.89.42-11.78.61-17.67.02-.52.39-.89,1.91-1.18,16.34-3.05,32.64-6.12,48.95-9.19.29-.05.64-.08,1.41-.17.07.41.17.69.16.98-.2,5.78-.45,11.56-.58,17.33ZM147.82,75.71c15.51,2.93,31,5.87,46.53,8.78,1.65.31,2.46.64,2.46,1.29.09,5.86.29,11.72.46,17.58,0,.22-.05.44-.08.63-.2.04-.3.07-.4.08-.09.01-.23.03-.31.02-.63-.09-1.27-.18-1.86-.29-16.49-3.11-32.98-6.23-49.55-9.37-.18-6.38-.37-12.71-.55-19.27,1.51.24,2.44.37,3.29.54ZM146.64,95.55c15.64,2.85,31.35,5.67,47.03,8.49.79.14,1.52.32,2.9.6-1.53.28-2.51.47-3.49.64-15.52,2.78-31.04,5.55-46.53,8.34-1.72.31-3.11.46-5.08.11-16.04-2.93-32.15-5.82-48.23-8.72-.59-.1-1.13-.24-1.99-.43.87-.21,1.52-.41,2.27-.54,15.8-2.84,31.64-5.66,47.4-8.52,2.1-.38,3.66-.35,5.7.02ZM90.5,145.46c.02-.6.42-1.01,2.22-1.34,15.95-2.97,31.84-5.98,47.74-8.97.59-.11,1.23-.2,2.23-.36.09.38.25.69.24,1-.2,5.78-.44,11.56-.6,17.34-.02.6-.4,1.02-2.19,1.35-16.06,2.99-32.06,6.01-48.07,9.01-.49.09-1.03.16-2.04.31-.06-.44-.15-.73-.14-1.01.2-5.78.43-11.56.59-17.33ZM86.68,143.46c-15.53-2.84-31.15-5.63-46.73-8.44-.88-.16-1.72-.35-2.9-.59.96-.22,1.61-.41,2.35-.54,15.8-2.84,31.64-5.66,47.42-8.52,1.92-.35,3.39-.39,5.39-.03,15.74,2.87,31.55,5.71,47.34,8.56.78.14,1.5.31,2.88.6-1.56.29-2.53.47-3.51.65-15.42,2.76-30.86,5.5-46.23,8.29-2.13.39-3.76.44-5.99.03ZM142.91,134.02c-1.09-.17-1.92-.27-2.67-.42-15.71-2.97-31.41-5.95-47.14-8.9-1.68-.32-2.38-.66-2.39-1.3-.09-5.86-.3-11.72-.46-17.58-.01-.25.1-.49.18-.85.99.15,1.71.24,2.36.36,15.8,2.99,31.6,5.99,47.43,8.96,1.69.32,2.4.66,2.4,1.3.1,5.86.3,11.72.46,17.58,0,.25-.1.49-.18.85ZM90.41,103.16c.19-5.74.44-11.48.58-17.23.02-.65.46-1.08,2.37-1.43,15.75-2.93,31.43-5.9,47.15-8.86.76-.14,1.59-.25,2.77-.44.06.46.16.81.15,1.17-.19,5.67-.45,11.33-.56,17.01-.01.8-.8,1.25-2.97,1.65-15.36,2.86-30.65,5.75-45.96,8.63-.96.18-1.93.36-3.31.61-.1-.48-.22-.79-.21-1.11ZM91.26,64.63c-.18-6.42-.37-12.75-.55-19.03.32-.06.42-.08.52-.09.1-.01.24-.03.32-.02.62.1,1.26.18,1.86.29,16.48,3.12,32.96,6.23,49.53,9.37.18,6.39.36,12.75.55,19.35-17.74-3.35-34.87-6.59-52.22-9.87ZM92.19,65.62c16.13,2.94,32.33,5.84,48.5,8.76.48.09.91.2,1.68.38-.87.2-1.52.39-2.25.52-15.9,2.85-31.8,5.7-47.68,8.56-1.62.29-2.95.41-4.78.07-16.14-2.94-32.33-5.85-48.5-8.76-.48-.09-.92-.21-1.95-.44,1.35-.25,2.23-.41,3.1-.57,15.71-2.81,31.42-5.62,47.11-8.44,1.61-.29,2.93-.42,4.76-.09ZM86.02,103.72c-15.5-2.93-30.98-5.87-46.52-8.77-1.79-.33-2.61-.69-2.62-1.37-.08-5.82-.29-11.64-.45-17.46,0-.26.05-.51.1-.88.88.1,1.63.14,2.25.26,16.01,3.02,31.99,6.05,47.99,9.06,1.3.25,2.02.51,2.04,1.03.11,6.04.29,12.08.45,18.12,0,.11-.09.21-.23.5-1.23-.2-2.15-.33-3-.49ZM36.64,115.84c0-.85.87-1.32,3.16-1.74,15.59-2.89,31.09-5.82,46.62-8.74.66-.13,1.42-.21,2.46-.37.11.37.26.64.26.91-.2,5.82-.43,11.64-.59,17.46-.02.61-.47,1.01-2.25,1.34-15.87,2.95-31.67,5.94-47.5,8.92-.67.13-1.39.22-2.61.41-.05-.52-.11-.85-.1-1.17.2-5.67.46-11.35.55-17.02ZM36.59,153.97c-.18-6.3-.36-12.66-.54-19.28,17.83,3.37,34.9,6.6,52.21,9.87.19,6.35.37,12.71.56,19.08-2.59-.14-45.29-8.08-52.22-9.68ZM35.74,192.57c.19-5.74.44-11.48.58-17.22.02-.66.53-1.07,2.4-1.42,15.75-2.94,31.43-5.91,47.15-8.86.75-.15,1.57-.25,2.69-.43.08.42.21.74.2,1.05-.2,5.71-.47,11.41-.56,17.12-.01.8-.85,1.25-3,1.65-15.26,2.84-30.45,5.71-45.65,8.57-1.07.2-2.13.39-3.59.66-.1-.49-.22-.81-.21-1.13ZM139.24,194.56c-15.91,2.86-31.83,5.7-47.73,8.56-1.53.28-2.78.38-4.46.07-16.25-2.95-32.56-5.88-48.85-8.83-.47-.08-.87-.21-1.7-.4,1.11-.23,1.76-.39,2.45-.51,15.61-2.8,31.25-5.58,46.81-8.41,2.39-.44,4.19-.45,6.62,0,15.32,2.81,30.74,5.56,46.12,8.34.97.18,1.9.38,3.22.64-1.05.23-1.72.41-2.48.55ZM90.42,183.87c-.19-6.36-.37-12.72-.55-19.11,3.01.24,43.58,7.78,52.21,9.68.19,6.3.37,12.66.56,19.3-17.84-3.37-34.92-6.6-52.22-9.87ZM141.08,173.37c-16.04-2.92-32.13-5.81-48.21-8.7-.58-.1-1.1-.24-1.97-.43,1.05-.23,1.83-.42,2.67-.58,15.81-2.83,31.62-5.66,47.4-8.5,1.64-.29,2.96-.39,4.76-.06,16.03,2.92,32.13,5.81,48.2,8.71.58.1,1.1.24,2.21.48-1.31.24-2.1.39-2.9.53-15.8,2.83-31.62,5.65-47.4,8.5-1.65.3-2.97.38-4.76.05ZM143.73,192.72c.19-5.82.43-11.64.6-17.46.01-.6.37-1.02,2.18-1.36,16.06-2.99,32.07-6.02,48.09-9.03.48-.09,1.02-.14,2.02-.27.06.44.15.73.14,1.02-.2,5.79-.42,11.57-.59,17.35-.02.6-.39,1.01-2.2,1.35-15.97,2.97-31.88,5.98-47.8,8.97-.57.11-1.2.19-2.13.33-.13-.36-.33-.63-.32-.9ZM246.44,194.72c-5.45.98-10.9,1.95-16.35,2.93v.06c-10,1.79-19.99,3.57-29.96,5.38-2.03.37-3.57.41-5.69.02-15.63-2.86-31.35-5.67-47.04-8.5-.8-.14-1.55-.31-2.62-.53.72-.2,1.22-.38,1.85-.49,16.1-2.89,32.22-5.78,48.33-8.68,1.42-.26,2.62-.35,4.16-.07,10.31,1.87,20.64,3.73,30.96,5.6v.02c5.58,1.01,11.16,2.01,16.74,3.02.86.16,1.64.35,2.94.63-1.41.26-2.36.44-3.33.61ZM250.34,193.56c-.43-.04-.81-.08-1.16-.12-6.29-1.19-12.53-2.37-18.75-3.54v.04c-10.01-1.89-20.03-3.79-30.05-5.68-1.3-.25-2.02-.51-2.03-1.03-.11-6.04-.29-12.09-.46-18.13,0-.11.09-.22.13-.32,1.52.07,17.78,3,32.05,5.7v.12c5.85,1.11,11.69,2.21,17.55,3.31,1.67.31,2.39.66,2.41,1.3.09,5.86.3,11.72.46,17.58,0,.21-.08.44-.16.78ZM251.2,173.48c-.08,0-.16,0-.24,0-.35,0-.7-.04-1.06-.07-.52-.05-1.05-.13-1.63-.23-5.93-1.09-11.9-2.16-17.85-3.24v.03c-9.35-1.69-18.7-3.37-28.05-5.06-1.09-.2-2.15-.39-3.61-.67,1.03-.25,1.67-.44,2.42-.57,9.74-1.75,19.5-3.49,29.24-5.24h0c6.07-1.09,12.14-2.17,18.19-3.27.15-.02.29-.05.43-.07.16-.03.31-.05.47-.07,1.07-.13,2.06-.16,3.14-.07.37.04.73.09,1.13.16,15.84,2.89,31.76,5.74,47.64,8.61.67.12,1.29.28,2.45.54-2.89.53-5.27.98-7.67,1.41-13.9,2.49-27.83,4.96-41.69,7.48-1.2.22-2.26.34-3.34.34ZM251.96,192.89c.19-5.93.45-11.86.58-17.79,0-.1.07-.17.12-.25.33-.38,1.04-.67,2.14-.92.15-.03.28-.06.45-.09,12.57-2.34,25.12-4.7,37.67-7.05,3.68-.69,7.4-1.36,11.54-2.12.1.34.22.58.22.81-.2,5.86-.45,11.71-.59,17.57-.02.63-.7,1-2.41,1.32-15.86,2.96-31.66,5.95-47.48,8.93-.51.1-1.09.18-1.81.29-.18-.26-.43-.48-.43-.7ZM355.12,194.52c-15.9,2.85-31.81,5.7-47.69,8.56-.82.15-1.57.24-2.33.25-.65,0-1.33-.06-2.09-.2-16.03-2.92-32.13-5.81-48.2-8.71-.58-.11-1.11-.24-2.22-.48,1.58-.29,2.67-.5,3.77-.69,14.36-2.57,28.73-5.13,43.05-7.72,1.06-.19,2.13-.38,3.19-.57.46-.08.89-.14,1.31-.19.05,0,.11-.01.16-.02.3-.03.6-.04.9-.05.92,0,1.84.06,2.9.26,15.51,2.84,31.12,5.63,46.69,8.44.87.16,1.71.34,2.91.59-.96.22-1.63.4-2.37.53ZM356.1,193.2c-15.69-2.97-31.37-5.94-47.09-8.89-1.66-.31-2.41-.65-2.42-1.29-.09-5.82-.29-11.64-.45-17.45,0-.26.1-.52.19-.92.51.08.98.16,1.39.23,16.51,3.12,32.68,6.18,48.95,9.25.63.18,1.05.38,1.3.62.18,6.24.36,12.45.54,18.87-1.14-.19-1.81-.29-2.43-.41ZM359.55,173.56c-.79,0-1.59-.08-2.52-.25-15.74-2.87-31.55-5.7-47.33-8.55-.76-.14-1.48-.31-2.49-.52.25-.07.48-.14.69-.2.55-.14,1.06-.26,1.58-.35,13.13-2.36,26.27-4.71,39.39-7.08,2.72-.49,5.44-.98,8.15-1.46.38-.07.75-.12,1.11-.16.05,0,.1-.01.15-.02.35-.04.69-.05,1.03-.06.82,0,1.66.07,2.62.24,15.74,2.87,31.55,5.7,47.34,8.55.74.13,1.45.3,2.7.56.05.01.09.02.14.04-1.44.26-2.31.43-3.19.59-15.61,2.79-31.25,5.58-46.83,8.4-.91.16-1.71.25-2.52.27ZM359.97,192.46c.21-5.7.44-11.41.59-17.11.01-.39.14-.71.69-.98.05-.02.1-.04.15-.07.14-.06.3-.12.49-.17.27-.08.55-.15.92-.22.02,0,.03,0,.05,0,15.85-2.95,31.64-5.94,47.45-8.91.12-.02.26-.04.38-.06.51-.08,1.05-.16,1.71-.26.12.32.27.59.26.85-.2,5.82-.44,11.63-.59,17.45-.02.61-.51,1.01-2.28,1.33-15.95,2.97-31.85,5.97-47.77,8.96-.51.1-1.09.17-1.95.3-.05-.47-.12-.78-.11-1.09ZM465.2,194.21c-1.07.2-1.91.35-2.73.5-15.5,2.78-31.03,5.54-46.48,8.35-1.12.2-2.1.28-3.08.27-.81-.03-1.63-.11-2.56-.28-15.52-2.84-31.12-5.63-46.7-8.44-.86-.16-1.66-.35-2.75-.59,1.18-.24,2-.42,2.88-.58,13.04-2.34,26.09-4.67,39.11-7.01,2.67-.48,5.34-.95,8-1.43.15-.03.3-.04.45-.07.26-.04.53-.08.78-.11.15-.02.29-.02.44-.03.24-.02.49-.03.73-.04.83,0,1.66.09,2.61.26,15.63,2.85,31.33,5.67,47,8.49.85.15,1.63.35,2.83.6-.2.04-.36.08-.53.12ZM466.5,193.53c-.71-.07-1.35-.12-1.88-.21-16.01-3.02-31.99-6.05-47.99-9.06-1.3-.25-2.04-.51-2.04-1.03-.11-6.04-.3-12.08-.45-18.12,0-.1.08-.21.21-.46,1.05.17,1.9.29,2.67.44,15.51,2.93,31,5.86,46.51,8.78.71.13,1.3.27,1.76.43.06.02.14.05.19.07.43.19.69.42.7.75.07,5.93.29,11.86.45,17.79.01.17-.06.35-.13.62ZM467.26,173.48c-.91-.02-1.83-.12-2.87-.31-15.41-2.82-30.92-5.6-46.38-8.39-.88-.16-1.71-.35-2.91-.59.87-.2,1.44-.35,2.09-.47,16.1-2.89,32.22-5.76,48.3-8.66.28-.05.55-.09.82-.12.76-.09,1.48-.1,2.22-.04.25.03.5.05.77.1,16.35,2.97,32.73,5.92,49.1,8.88.38.07.69.17,1.51.38-1.43.26-2.41.45-3.41.62-15.39,2.76-30.82,5.51-46.15,8.3-1.13.21-2.11.3-3.09.3ZM468.3,193.61c-.09-.44-.2-.74-.19-1.04.19-5.74.44-11.48.58-17.22.02-.66.53-1.07,2.4-1.42,15.75-2.94,31.43-5.91,47.15-8.86.67-.13,1.42-.23,2.36-.38.08.39.19.7.18,1-.2,5.71-.47,11.41-.56,17.12-.01.8-.85,1.25-3,1.65-15.26,2.84-30.45,5.71-45.65,8.57-.88.17-1.78.33-2.89.53-.11.01-.24.03-.37.04ZM571.25,194.56c-15.91,2.86-31.83,5.7-47.73,8.56-.74.13-1.41.22-2.1.25-.63,0-1.28-.04-2.02-.17-16.25-2.95-32.56-5.88-48.85-8.83-.44-.08-.83-.19-1.56-.37.68-.17,1.24-.34,1.85-.46.15-.03.3-.06.45-.09,15.61-2.8,31.25-5.58,46.81-8.41,1.13-.21,2.13-.31,3.13-.32.99,0,2,.11,3.14.32,15.32,2.81,30.74,5.56,46.12,8.34.97.18,1.9.38,3.22.64-1.05.23-1.72.41-2.48.55ZM522.78,183.87c-.19-6.35-.36-12.69-.55-19.07,4.91.62,43.47,7.79,51.86,9.64.19,6.28.36,12.62.56,19.23-17.72-3.35-34.68-6.55-51.87-9.8ZM575.63,173.57c-.69,0-1.39-.05-2.19-.2-16.04-2.92-32.13-5.81-48.21-8.7-.58-.1-1.1-.24-1.97-.43,1.04-.23,1.83-.42,2.67-.58,15.81-2.83,31.62-5.66,47.4-8.5.79-.14,1.5-.23,2.23-.26.68,0,1.39.05,2.19.2,16.03,2.92,32.13,5.81,48.2,8.71.58.1,1.1.24,2.21.48-1.31.24-2.1.39-2.9.53-15.8,2.83-31.62,5.65-47.39,8.5-.79.14-1.5.23-2.22.25ZM576.09,192.72c.19-5.82.43-11.64.6-17.46.01-.6.37-1.02,2.18-1.36,16.06-2.99,32.07-6.02,48.09-9.03.42-.08.9-.13,1.68-.23.06.41.14.7.13.97-.2,5.79-.42,11.57-.59,17.35-.02.6-.39,1.01-2.2,1.35-15.97,2.97-31.88,5.98-47.8,8.97-.49.09-1.06.17-1.8.28-.13-.33-.31-.6-.3-.85ZM678.68,194.74c-15.52,2.78-31.06,5.54-46.54,8.34-.96.17-1.81.27-2.66.28-.84,0-1.7-.09-2.68-.27-15.63-2.86-31.35-5.67-47.04-8.5-.8-.14-1.55-.31-2.61-.53.72-.2,1.22-.38,1.85-.49,16.1-2.89,32.22-5.78,48.33-8.68.68-.12,1.31-.2,1.96-.23.59,0,1.19.04,1.86.16,16.46,2.99,32.95,5.96,49.43,8.94.3.05.53.14,1.37.36-1.34.25-2.29.43-3.26.6ZM682.7,193.56c-.77-.08-1.41-.13-1.94-.23-16.01-3.02-32.01-6.05-48.02-9.07-1.3-.25-2.02-.51-2.03-1.03-.11-6.04-.29-12.09-.46-18.13,0-.1.07-.19.12-.29,2.82.33,18.42,3.15,32.07,5.73v.05c4.26.8,8.51,1.61,12.77,2.41,2.51.5,4.63.93,6.15,1.26.4.14.71.3.86.5.18,6.16.36,12.29.53,18.54-.02.08-.04.17-.07.26ZM683.43,173.49c-1.01-.02-2.03-.14-3.18-.35-15.11-2.78-30.33-5.5-45.51-8.24-1.09-.2-2.15-.39-3.61-.67,1.03-.25,1.67-.44,2.42-.57,15.71-2.82,31.45-5.62,47.12-8.47,1.05-.19,1.98-.29,2.91-.3.86,0,1.74.09,2.74.27,15.53,2.84,31.15,5.64,46.73,8.44.89.16,1.72.34,3.16.64-2.96.54-5.33.99-7.73,1.42-12.02,2.15-24.05,4.29-36.03,6.47-1.85.33-3.71.67-5.56,1-1.25.23-2.35.35-3.47.35ZM684.37,193.55c-.08-.43-.16-.75-.15-1.05.19-5.68.47-11.35.54-17.02,0-.86.95-1.31,3.22-1.73,15.32-2.84,30.56-5.72,45.83-8.59.12-.02.25-.05.38-.07.73-.13,1.54-.25,2.63-.43,0,0,0,.01,0,.02.04.49.1.8.09,1.11-.2,5.67-.45,11.34-.57,17.02-.02.78-.71,1.26-2.91,1.67-.07.01-.15.03-.22.04-15.3,2.84-30.53,5.73-45.78,8.61-.4.07-.81.15-1.25.23-.49.08-1.03.16-1.75.27-.02-.03-.05-.06-.07-.09ZM787.37,194.53c-15.89,2.86-31.79,5.7-47.68,8.57-.31.06-.6.1-.9.14-.22.03-.44.05-.65.07-.02,0-.04,0-.05,0-.54.04-1.07.05-1.63,0-.38-.03-.77-.08-1.19-.16-16.03-2.92-32.12-5.81-48.2-8.71-.59-.11-1.11-.24-2.22-.49,1.38-.25,2.26-.42,3.16-.58,15.7-2.81,31.42-5.62,47.1-8.44.61-.11,1.17-.18,1.73-.22.57-.03,1.14-.02,1.73.03.31.03.61.06.95.13,16.04,2.92,32.14,5.81,48.21,8.71.58.1,1.11.24,2,.43-.94.21-1.61.39-2.35.52ZM790.65,193.64c-.35-.06-.67-.11-.94-.16-16.84-3.18-33.17-6.27-49.77-9.41-.5-.14-.82-.31-1.04-.5-.18-6.23-.36-12.49-.54-18.92,1.31.22,2.26.36,3.13.53,15.3,2.89,30.56,5.8,45.91,8.65,2.2.41,2.91.86,2.92,1.66.05,5.63.27,11.27.43,16.9,0,.34-.05.7-.09,1.25ZM791.78,173.57c-.84,0-1.7-.09-2.68-.26-15.63-2.86-31.35-5.67-47.03-8.5-.79-.14-1.55-.31-2.62-.52.73-.2,1.22-.38,1.84-.49,16.11-2.9,32.23-5.78,48.33-8.68.44-.08.85-.13,1.26-.17.63-.04,1.26-.03,1.93.03.21.03.41.04.63.08,16.46,2.99,32.95,5.96,49.43,8.94.3.05.53.14,1.37.37-1.34.25-2.3.42-3.26.6-15.52,2.78-31.06,5.54-46.54,8.34-.5.09-.97.16-1.43.21-.08,0-.16,0-.24.02-.33.03-.66.05-.98.06ZM792.4,193.56c-.09-.4-.2-.71-.19-1.01.2-5.74.45-11.48.58-17.22.02-.65.53-1.07,2.41-1.42,15.75-2.94,31.43-5.91,47.15-8.86.67-.13,1.42-.23,2.35-.37.08.39.2.7.19,1.01-.19,5.71-.46,11.41-.55,17.12-.02.8-.84,1.25-2.98,1.65-1.24.23-2.47.46-3.7.69-14.23,2.65-28.4,5.32-42.6,7.99-.77.14-1.61.27-2.63.43,0,0-.02,0-.03,0ZM895.48,194.58c-7.17,1.29-14.34,2.57-21.51,3.86-1.24.22-2.49.45-3.73.67-7.47,1.34-14.94,2.67-22.4,4.02-1.7.26-3.12.26-4.77.01-15.93-2.9-31.93-5.77-47.9-8.65-.58-.11-1.1-.24-2.2-.48,1.3-.24,2.09-.39,2.89-.53,15.8-2.83,31.61-5.66,47.4-8.5.78-.14,1.49-.23,2.21-.26.37,0,.75.02,1.14.05.34.03.69.07,1.06.14,16.04,2.92,32.13,5.81,48.21,8.71.57.1,1.1.24,1.97.43-.96.21-1.62.39-2.38.52ZM898.73,193.55c-.35-.04-.69-.07-1.01-.1-.5-.07-.96-.14-1.38-.22-15.7-2.96-31.38-5.94-47.09-8.89-1.48-.28-2.42-.55-2.42-1.19-.08-5.93-.29-11.86-.45-17.78,0-.2.1-.4.21-.74.05,0,.08.01.13.02,1.28.23,2.2.38,3.09.55,15.2,2.87,30.37,5.76,45.62,8.6,2.15.4,3.02.83,3.03,1.64.04,5.67.26,11.34.41,17.01.01.33-.07.66-.13,1.09ZM900.25,173.47c-.67.03-1.33.02-2.01-.05-.51-.05-1.03-.13-1.59-.23-15.41-2.82-30.92-5.59-46.38-8.39-.88-.16-1.71-.34-2.92-.59.87-.2,1.44-.35,2.08-.47,16.1-2.89,32.22-5.76,48.3-8.66.76-.14,1.44-.2,2.12-.21.64.01,1.28.08,1.99.21,9.17,1.66,18.36,3.32,27.54,4.97v-.03c7.13,1.29,14.26,2.58,21.38,3.87.38.07.69.17,1.52.38-1.43.26-2.41.45-3.41.62-6.49,1.16-12.99,2.33-19.49,3.49h0c-8.94,1.6-17.87,3.2-26.77,4.82-.47.09-.9.14-1.33.19-.25.03-.49.05-.73.07-.1,0-.19,0-.29.01ZM900.35,192.66c.2-5.78.44-11.56.59-17.33.01-.6.4-1.01,2.2-1.35,8.87-1.65,17.73-3.32,26.58-4.98v-.06c6.84-1.29,13.68-2.58,20.53-3.86.75-.15,1.57-.25,2.69-.43.08.42.21.74.2,1.05-.2,5.71-.47,11.41-.56,17.12-.01.8-.85,1.25-3,1.65-6.75,1.25-13.48,2.52-20.2,3.78h0c-9.26,1.74-18.53,3.47-27.79,5.22-.24.04-.54.07-1.1.13-.06-.38-.14-.66-.13-.94ZM1003.61,194.56c-15.91,2.86-31.83,5.7-47.73,8.56-1.53.28-2.78.38-4.46.07-7.22-1.31-14.47-2.62-21.71-3.92v-.03c-9-1.63-18.01-3.25-27.01-4.87-.4-.07-.75-.17-1.47-.33.8-.2,1.4-.4,2.12-.53,8.79-1.58,17.58-3.15,26.36-4.73v-.06c6.81-1.22,13.62-2.45,20.41-3.68,2.39-.44,4.19-.45,6.62,0,15.32,2.81,30.74,5.56,46.12,8.34.97.18,1.9.38,3.22.64-1.05.23-1.72.41-2.48.55ZM954.79,183.87c-.19-6.36-.37-12.72-.55-19.11,3.01.24,43.58,7.78,52.21,9.68.19,6.3.37,12.66.56,19.3-17.84-3.37-34.92-6.6-52.22-9.87ZM1005.45,173.37c-16.04-2.92-32.13-5.81-48.21-8.7-.58-.1-1.1-.24-1.97-.43,1.05-.23,1.83-.42,2.67-.58,15.81-2.83,31.62-5.66,47.41-8.5,1.64-.29,2.96-.39,4.76-.06,16.03,2.92,32.13,5.81,48.2,8.71.58.1,1.1.24,2.21.48-1.31.24-2.1.39-2.9.53-15.8,2.83-31.62,5.65-47.4,8.5-1.65.3-2.97.38-4.76.05ZM1008.1,192.72c.19-5.82.43-11.64.6-17.46.01-.6.37-1.02,2.18-1.36,16.06-2.99,32.07-6.02,48.09-9.03.48-.09,1.03-.14,2.02-.27.06.44.15.73.14,1.02-.2,5.79-.42,11.57-.59,17.35-.02.6-.39,1.01-2.2,1.35-15.97,2.97-31.88,5.98-47.8,8.97-.57.11-1.2.19-2.13.33-.13-.36-.33-.63-.32-.9ZM1111.04,194.74c-15.52,2.78-31.06,5.54-46.54,8.34-2.03.37-3.57.41-5.69.02-15.63-2.86-31.35-5.67-47.03-8.5-.8-.14-1.55-.31-2.62-.53.72-.2,1.22-.38,1.85-.49,16.1-2.89,32.22-5.78,48.33-8.68,1.42-.26,2.62-.35,4.16-.07,16.46,2.99,32.96,5.96,49.43,8.94.3.05.53.14,1.37.36-1.34.25-2.29.43-3.26.6ZM1112.78,193.33c-16.02-3.02-32.01-6.05-48.02-9.07-1.3-.25-2.02-.51-2.02-1.03-.11-6.04-.29-12.09-.46-18.13,0-.11.09-.22.13-.32,2.46.11,43.16,7.65,52.18,9.67.18,6.37.37,12.7.55,19.16-.99-.11-1.74-.16-2.36-.27ZM1112.26,173.14c-15.11-2.78-30.33-5.5-45.51-8.24-1.09-.2-2.15-.39-3.61-.67,1.03-.25,1.67-.44,2.42-.57,15.71-2.82,31.45-5.62,47.12-8.47,2.14-.39,3.78-.43,6-.03,15.53,2.84,31.15,5.64,46.73,8.44.88.16,1.72.34,3.16.64-2.96.54-5.33.99-7.73,1.42-13.9,2.49-27.85,4.96-41.68,7.49-2.55.47-4.42.44-6.91-.02ZM1116.23,192.5c.19-5.68.47-11.35.54-17.02,0-.86.95-1.31,3.22-1.73,15.38-2.85,30.69-5.75,46.02-8.63.86-.16,1.78-.29,3.16-.51.04.53.11.86.09,1.19-.2,5.67-.45,11.34-.57,17.02-.02.78-.71,1.26-2.92,1.67-15.38,2.86-30.67,5.76-45.99,8.65-.96.18-1.92.35-3.38.62-.08-.55-.19-.9-.18-1.25ZM1219.73,194.53c-15.89,2.86-31.79,5.7-47.68,8.57-1.63.29-2.96.39-4.77.06-16.03-2.92-32.12-5.81-48.2-8.71-.59-.11-1.1-.24-2.22-.49,1.38-.25,2.26-.42,3.16-.58,15.7-2.81,31.42-5.62,47.1-8.44,1.63-.29,2.95-.4,4.76-.07,16.04,2.92,32.14,5.81,48.21,8.71.58.1,1.11.24,2,.43-.94.21-1.61.39-2.35.52ZM1223,193.72c-17.64-3.33-34.7-6.56-52.09-9.84-.18-6.35-.37-12.73-.55-19.28,1.51.25,2.53.4,3.48.58,15.3,2.89,30.56,5.8,45.91,8.65,2.2.41,2.91.86,2.92,1.66.05,5.63.27,11.27.43,16.9,0,.36-.05.73-.09,1.34ZM1221.11,173.3c-15.63-2.86-31.35-5.67-47.03-8.5-.79-.14-1.55-.31-2.62-.52.73-.2,1.22-.38,1.84-.49,16.1-2.9,32.23-5.78,48.33-8.68,1.42-.25,2.62-.35,4.17-.07,16.46,2.99,32.95,5.96,49.43,8.94.3.05.53.14,1.37.37-1.34.25-2.3.42-3.26.6-15.52,2.78-31.06,5.54-46.54,8.34-2.03.37-3.57.41-5.69.02ZM1224.23,192.54c.2-5.74.45-11.48.58-17.22.02-.65.53-1.07,2.41-1.42,15.75-2.94,31.44-5.91,47.15-8.86.75-.14,1.57-.25,2.69-.42.08.42.21.74.2,1.06-.19,5.71-.46,11.41-.55,17.12-.02.8-.84,1.25-3,1.65-15.47,2.87-30.85,5.78-46.28,8.68-.86.16-1.78.29-2.99.49-.09-.43-.21-.74-.2-1.07ZM1327.84,194.58c-15.89,2.85-31.81,5.7-47.69,8.56-1.64.3-2.96.38-4.77.06-16.03-2.92-32.13-5.81-48.2-8.71-.58-.11-1.1-.24-2.2-.48,1.3-.24,2.09-.39,2.89-.53,15.8-2.83,31.61-5.66,47.4-8.5,1.63-.29,2.96-.39,4.76-.06,16.04,2.92,32.13,5.81,48.21,8.71.57.1,1.1.24,1.97.43-.96.21-1.62.39-2.38.52ZM1282.16,165.2c15.2,2.87,30.37,5.76,45.62,8.6,2.15.4,3.02.83,3.03,1.64.04,5.67.26,11.34.41,17.01.01.35-.08.71-.15,1.19-1.15-.17-1.97-.28-2.72-.42-15.7-2.96-31.38-5.94-47.09-8.89-1.48-.28-2.42-.55-2.42-1.19-.08-5.93-.29-11.86-.45-17.78,0-.21.12-.42.23-.8,1.55.27,2.55.45,3.54.63ZM1330.97,153.38c-.01.48-.36.82-1.78,1.09-16.34,3.06-32.66,6.14-48.98,9.21-.29.05-.64.08-1.55.18-.05-.48-.13-.84-.12-1.19.19-5.67.45-11.34.55-17.02.02-.8.82-1.26,2.99-1.66,15.48-2.88,30.89-5.79,46.32-8.69.79-.15,1.58-.29,2.7-.5.2.32.49.55.47.78-.19,5.93-.42,11.86-.61,17.79ZM1281.27,105.36c15.92,3,31.8,6.01,47.72,9.01,1.27.24,2.12.47,2.13,1.01.1,6.08.28,12.16.43,18.24,0,.07-.11.14-.3.37-8.87-1.53-17.31-3.23-25.9-4.83-8.65-1.62-17.27-3.27-25.96-4.91-.18-6.39-.37-12.72-.55-19.18,1.04.12,1.8.17,2.42.29ZM1331.33,93.52c-.01.61-.44,1.01-2.23,1.35-16.05,2.99-32.04,6.01-48.07,9.01-.48.09-1.03.16-2.02.3-.06-.45-.14-.73-.13-1.02.2-5.78.43-11.56.59-17.34.02-.61.46-1,2.25-1.34,15.94-2.97,31.83-5.98,47.74-8.97.59-.11,1.23-.19,2.16-.34.12.34.31.62.3.89-.19,5.82-.44,11.63-.59,17.44ZM1331.54,55.14c.19,6.38.37,12.75.56,19.22-.88-.09-1.55-.11-2.07-.21-16.11-3.04-32.21-6.09-48.32-9.12-1.31-.25-2-.52-2.01-1.04-.11-6.04-.3-12.09-.45-18.13,0-.11.08-.21.24-.56,17.57,3.32,34.73,6.56,52.06,9.84ZM1332.41,16.25c-.18,5.96-.42,11.92-.59,17.89-.02.49-.48.82-1.86,1.08-16.43,3.07-32.84,6.16-49.26,9.24-.2.04-.43.04-1.17.11-.06-.37-.16-.66-.15-.94.2-5.82.43-11.63.59-17.45.02-.58.55-.94,2.17-1.24,16.04-3,32.03-6.01,48.04-9.03.49-.09,1.02-.16,1.78-.28.18.23.46.43.46.62ZM1229.51,14.5c15.6-2.79,31.23-5.58,46.79-8.39,1.96-.35,3.4-.35,5.38,0,15.62,2.85,31.33,5.66,46.99,8.49.87.16,1.66.35,2.77.59-1.18.24-1.99.43-2.87.58-15.59,2.8-31.21,5.58-46.76,8.41-2.18.4-3.82.38-5.99-.01-15.52-2.84-31.12-5.63-46.69-8.44-.87-.16-1.66-.35-2.92-.63,1.37-.25,2.33-.43,3.29-.6ZM1225.52,15.65c.78.07,1.44.09,1.96.19,16.11,3.04,32.19,6.08,48.29,9.12,1.31.25,2,.52,2.01,1.04.12,6.04.3,12.08.45,18.12,0,.11-.1.22-.24.5-1.24-.2-2.16-.33-3.02-.49-15.51-2.93-30.98-5.87-46.52-8.78-1.77-.33-2.6-.68-2.6-1.37-.07-5.82-.28-11.64-.45-17.46,0-.25.07-.51.11-.86ZM1227.05,35.87c16.04,2.92,32.13,5.81,48.2,8.7.58.11,1.11.24,1.99.43-1.05.23-1.81.43-2.66.58-15.79,2.84-31.61,5.66-47.39,8.5-1.63.29-2.95.39-4.76.06-16.04-2.92-32.14-5.81-48.21-8.71-.58-.1-1.11-.24-2.22-.49,1.29-.24,2.07-.39,2.88-.53,15.8-2.83,31.61-5.66,47.4-8.5,1.62-.29,2.95-.4,4.77-.07ZM1224.29,16.56c-.21,5.78-.44,11.55-.6,17.33-.01.6-.39,1.02-2.19,1.35-16.06,2.98-32.05,6-48.07,9.01-.48.09-1.02.16-1.81.28-.15-.29-.38-.52-.38-.76.19-5.89.43-11.78.6-17.66.02-.52.39-.89,1.92-1.18,16.34-3.05,32.64-6.12,48.95-9.19.29-.06.64-.08,1.41-.17.07.41.17.7.16.98ZM1121.29,14.56c15.51-2.78,31.05-5.55,46.5-8.37,2.33-.42,4.02-.41,6.32.02,15.43,2.82,30.94,5.6,46.43,8.39.89.16,1.74.34,2.9.58-.78.21-1.29.39-1.93.5-16.12,2.89-32.24,5.77-48.35,8.67-1.43.26-2.63.33-4.16.06-16.37-2.97-32.77-5.92-49.15-8.88-.39-.07-.72-.17-1.64-.39,1.34-.25,2.21-.41,3.08-.57ZM1169.6,25.34c.18,6.4.37,12.75.55,19.36-17.75-3.36-34.87-6.59-52.21-9.87-.19-6.36-.37-12.72-.56-19.36,17.86,3.38,35,6.62,52.22,9.87ZM1118.52,35.76c16.45,2.98,32.93,5.95,49.4,8.93.28.05.5.14,1.26.35-1.3.24-2.28.42-3.26.6-15.39,2.76-30.82,5.51-46.16,8.3-2.25.41-3.94.46-6.31.02-15.5-2.85-31.1-5.63-46.67-8.44-.79-.14-1.53-.31-2.59-.53.63-.17,1.05-.33,1.58-.43,16.29-2.93,32.61-5.84,48.91-8.77,1.33-.24,2.45-.29,3.85-.03ZM1116.29,16.51c-.2,5.82-.43,11.64-.59,17.46-.02.6-.45,1.01-2.24,1.34-15.87,2.96-31.66,5.95-47.48,8.92-.67.13-1.39.22-2.56.39-.08-.43-.18-.69-.17-.94.2-5.82.46-11.64.59-17.46.02-.67.72-1.06,2.54-1.4,15.77-2.93,31.48-5.9,47.21-8.86.67-.13,1.39-.22,2.43-.38.12.37.29.65.28.92ZM1012.3,14.66c15.91-2.86,31.84-5.7,47.72-8.57,1.92-.35,3.39-.39,5.39-.02,15.74,2.87,31.55,5.7,47.33,8.55.78.14,1.5.32,2.8.59-2.92.54-5.29.98-7.7,1.41-13.9,2.49-27.83,4.96-41.68,7.48-2.36.43-4.14.49-6.61.03-15.21-2.8-30.53-5.53-45.81-8.29-1.08-.2-2.15-.4-3.55-.66.9-.23,1.43-.41,2.09-.53ZM1009.43,15.53c1.35.22,2.36.37,3.31.55,15.32,2.89,30.59,5.8,45.96,8.67,2.16.4,3,.83,3.01,1.64.05,5.67.27,11.35.42,17.02,0,.36-.09.71-.15,1.2-1.35-.23-2.36-.38-3.31-.55-15.31-2.89-30.59-5.8-45.96-8.67-2.16-.4-2.99-.84-2.99-1.65-.05-5.67-.27-11.35-.42-17.03-.01-.35.08-.71.14-1.2ZM1011.74,36c15.41,2.83,30.94,5.6,46.42,8.39.9.16,1.75.34,2.89.57-.6.18-.97.36-1.5.46-16.31,2.93-32.65,5.84-48.95,8.78-1.36.24-2.49.27-3.86.02-16.47-2.99-32.96-5.96-49.44-8.94-.3-.05-.53-.14-1.23-.32,1.15-.24,1.97-.43,2.84-.58,15.5-2.78,31.04-5.55,46.49-8.36,2.29-.42,3.97-.44,6.32-.01ZM1008.15,16.56c-.19,5.78-.42,11.57-.59,17.35-.01.6-.36,1.01-2.18,1.35-15.97,2.97-31.87,5.98-47.79,8.97-.58.11-1.21.19-2.38.37-.04-.55-.1-.91-.09-1.27.2-5.64.46-11.27.55-16.91.02-.83.75-1.32,3.1-1.76,15.59-2.88,31.08-5.82,46.61-8.74.68-.13,1.42-.22,2.52-.39.11.4.26.71.25,1.01ZM904.33,14.78c8.46-1.52,16.93-3.03,25.39-4.55v-.06c7.55-1.35,15.1-2.7,22.64-4.06,1.64-.29,2.96-.39,4.77-.06,16.03,2.92,32.13,5.81,48.2,8.71.58.11,1.1.24,1.97.43-.96.21-1.64.39-2.38.52-15.89,2.85-31.81,5.7-47.69,8.56-1.64.29-2.96.38-4.77.05-7.57-1.38-15.16-2.75-22.74-4.12v-.02c-8.42-1.52-16.84-3.04-25.26-4.56-.58-.1-1.1-.24-1.94-.43.78-.18,1.26-.32,1.8-.42ZM916.45,18.33c12.42,2.35,24.71,4.67,37.03,7,.18,6.39.36,12.75.55,19.36-4.7-.89-8.56-1.62-12.43-2.35-3.96-.75-7.92-1.5-11.88-2.25v-.03c-8.83-1.67-17.6-3.33-26.43-5-.61-.17-.99-.38-1.24-.62-.18-6.21-.36-12.42-.54-18.66,1.71.2,7.61,1.21,14.95,2.54ZM900.73,35.7c1,.02,2.02.13,3.18.34,8.46,1.56,16.95,3.09,25.46,4.63v-.04c7.02,1.26,14.04,2.53,21.05,3.79.78.14,1.51.31,2.83.59-2.72.5-4.89.91-7.08,1.3-9.21,1.65-18.42,3.3-27.62,4.95-5.14.92-10.27,1.84-15.4,2.76-1.45.24-2.7.32-4.12.18-.2-.03-.39-.04-.61-.08-16.05-2.92-32.15-5.81-48.24-8.72-.59-.1-1.11-.24-2.11-.46,1.23-.25,1.96-.42,2.75-.56,15.4-2.77,30.84-5.51,46.19-8.31,1.35-.25,2.52-.37,3.71-.37ZM900.05,16.25c-.18,5.96-.41,11.92-.6,17.89,0,.07-.04.13-.06.19-.32.42-1.1.73-2.42,1-16.23,3.03-32.43,6.08-48.64,9.12-.16.03-.36.04-.83.08-.06-.36-.15-.63-.14-.91.2-5.82.43-11.63.59-17.45.02-.58.55-.94,2.17-1.24,16.04-3,32.03-6.01,48.04-9.03.42-.08.89-.15,1.47-.23.18.21.42.39.41.57ZM794.59,15.03c1.16-.21,2.04-.38,2.91-.53,15.61-2.79,31.23-5.58,46.79-8.39.94-.17,1.76-.25,2.57-.25.77.02,1.56.09,2.46.26,15.62,2.85,31.33,5.66,46.99,8.49.87.16,1.66.35,2.77.59-1.18.24-1.99.43-2.87.58-15.59,2.8-31.21,5.58-46.76,8.41-.43.08-.82.13-1.21.17-.26.03-.52.05-.78.07-.04,0-.09,0-.13,0-.67.03-1.32.02-2-.04-.49-.05-.99-.12-1.52-.22-15.52-2.84-31.12-5.63-46.69-8.44-.86-.15-1.65-.35-2.89-.62.13-.03.23-.05.35-.08ZM793.5,15.67c.62.05,1.18.08,1.62.16,16.11,3.04,32.19,6.08,48.29,9.12.97.18,1.6.38,1.86.68,0,0,.01,0,.02.01.08.1.13.22.13.34.12,6.04.3,12.08.45,18.12,0,.1-.09.21-.22.45-1.07-.17-1.92-.3-2.7-.44-15.5-2.93-30.98-5.87-46.52-8.78-1.77-.33-2.6-.68-2.6-1.37-.07-5.82-.28-11.64-.45-17.46,0-.25.06-.5.1-.83ZM792.5,35.67c.19,0,.38,0,.58.02.13,0,.27,0,.4.02.38.03.78.08,1.21.16,16.04,2.92,32.13,5.81,48.2,8.7.57.1,1.09.24,1.94.42-.2.05-.36.09-.54.14-.75.17-1.41.33-2.08.45-15.79,2.84-31.61,5.66-47.39,8.5-.64.12-1.23.19-1.83.23-.15,0-.3.03-.45.03-.15,0-.3,0-.46-.01-.15,0-.31,0-.46-.02-.39-.03-.79-.08-1.22-.16-16.04-2.92-32.14-5.81-48.21-8.71-.58-.1-1.11-.24-2.22-.49,1.29-.24,2.07-.39,2.88-.53,15.8-2.83,31.61-5.66,47.4-8.5.78-.14,1.49-.23,2.22-.26ZM791.92,16.56c-.21,5.78-.44,11.55-.6,17.33,0,.4-.22.71-.86.98-.11.04-.19.09-.32.13-.15.05-.35.09-.54.13-.19.05-.37.1-.6.14-15.97,2.97-31.89,5.97-47.83,8.97-.37.06-.78.13-1.25.2-.12.02-.24.03-.37.05-.15-.26-.35-.49-.35-.71.19-5.89.43-11.78.6-17.66.02-.52.39-.89,1.92-1.18,16.34-3.05,32.64-6.12,48.95-9.19.24-.05.55-.07,1.07-.13.07.39.16.67.16.94ZM689.28,14.56c15.51-2.78,31.05-5.55,46.5-8.37,1.13-.21,2.12-.3,3.1-.29.91.02,1.83.12,2.87.31,15.43,2.82,30.94,5.6,46.43,8.39.89.16,1.74.34,2.9.58-.78.21-1.29.39-1.93.5-16.12,2.89-32.24,5.77-48.35,8.67-.21.04-.41.06-.61.09-.85.11-1.65.13-2.5.06-.23-.03-.46-.05-.7-.09-16.37-2.97-32.77-5.92-49.15-8.88-.39-.07-.72-.17-1.64-.39,1.34-.25,2.21-.41,3.08-.57ZM688.02,16.03c16.78,3.17,32.97,6.23,49.22,9.31.18,6.38.37,12.71.55,19.29-17.63-3.33-34.64-6.55-51.87-9.8-.18-6.33-.37-12.66-.56-19.27.9.16,1.77.32,2.65.48ZM685.56,35.68c.2.03.39.04.6.08,16.45,2.98,32.93,5.95,49.4,8.93.25.05.48.13,1.05.29-.67.17-1.18.32-1.76.42-2.93.53-5.86,1.05-8.79,1.58-8.95,1.6-17.89,3.21-26.82,4.82-4.13.74-8.27,1.48-12.39,2.23-.84.13-1.61.21-2.38.23-.95,0-1.91-.09-3.03-.3-15.5-2.85-31.1-5.63-46.67-8.44-.79-.14-1.53-.31-2.59-.53.63-.17,1.05-.33,1.58-.43,16.3-2.93,32.61-5.84,48.91-8.77.29-.05.57-.09.85-.13.67-.05,1.34-.05,2.04.01ZM683.93,16.51c-.2,5.82-.43,11.64-.59,17.46,0,.23-.11.43-.3.61-.31.24-.81.45-1.55.63-.11.02-.18.05-.3.07-.08.02-.17.04-.26.05-15.81,2.95-31.55,5.93-47.32,8.89-.6.11-1.26.2-2.23.34-.08-.4-.16-.65-.16-.89.2-5.82.46-11.64.59-17.46.02-.67.72-1.06,2.54-1.4,15.77-2.93,31.48-5.9,47.21-8.86.59-.11,1.25-.2,2.1-.33.12.35.27.61.26.87ZM580.29,14.66c15.91-2.86,31.84-5.7,47.72-8.57.91-.16,1.71-.25,2.52-.27.79,0,1.6.08,2.53.25,15.74,2.87,31.55,5.7,47.33,8.55.7.13,1.39.29,2.47.52-.47.14-.84.27-1.23.36-1.1.2-2.15.4-3.14.58-4.53.81-9.07,1.63-13.6,2.44-10.37,1.85-20.75,3.71-31.08,5.59-1.14.21-2.15.33-3.16.35-.97,0-1.96-.1-3.1-.31-15.21-2.8-30.53-5.53-45.81-8.29-1.08-.2-2.15-.4-3.54-.66.9-.23,1.43-.41,2.09-.53ZM577.41,15.59c1.17.19,2.11.33,2.97.5,15.32,2.89,30.59,5.8,45.96,8.67,2.16.4,3,.83,3.01,1.64.05,5.67.27,11.35.42,17.02,0,.34-.08.69-.14,1.15-1.17-.19-2.11-.34-2.97-.5-15.31-2.89-30.59-5.8-45.96-8.67-2.16-.4-2.99-.84-2.99-1.65-.05-5.67-.27-11.35-.42-17.03-.01-.34.07-.68.13-1.15ZM576.39,35.7c.94,0,1.89.1,2.99.3,15.41,2.83,30.94,5.6,46.42,8.39.9.16,1.75.34,2.89.57-.6.18-.97.36-1.5.46-16.31,2.93-32.65,5.84-48.95,8.78-.63.11-1.21.17-1.78.18-.56,0-1.12-.06-1.73-.17-16.47-2.99-32.96-5.96-49.44-8.94-.3-.05-.53-.14-1.23-.32,1.15-.24,1.97-.43,2.84-.58,15.51-2.78,31.04-5.55,46.49-8.36,1.08-.2,2.03-.3,2.98-.31ZM575.79,16.56c-.19,5.78-.42,11.57-.59,17.35-.01.6-.36,1.01-2.18,1.35-15.97,2.97-31.87,5.98-47.79,8.97-.51.1-1.09.18-2.03.32-.04-.52-.09-.87-.09-1.21.2-5.64.46-11.27.55-16.91.02-.83.75-1.32,3.1-1.76,15.59-2.88,31.08-5.82,46.61-8.74.6-.11,1.28-.21,2.19-.34.11.37.24.67.24.96ZM471.9,14.8c.37-.07.71-.13,1.04-.19,2.3-.41,4.59-.82,6.89-1.24,5.84-1.05,11.68-2.09,17.52-3.14h0c7.66-1.37,15.34-2.74,22.99-4.12.79-.14,1.5-.23,2.22-.26.68,0,1.39.05,2.2.2,16.03,2.92,32.13,5.81,48.2,8.71.58.11,1.1.24,1.97.43-.96.21-1.64.39-2.38.52-15.89,2.85-31.81,5.7-47.69,8.56-.78.14-1.5.23-2.22.25-.69,0-1.39-.05-2.2-.2-16.04-2.92-32.13-5.81-48.2-8.7-.55-.1-1.06-.23-2.01-.44.69-.16,1.16-.29,1.66-.38ZM469.41,15.78c1.12.12,4.38.66,8.8,1.44,14.44,2.73,28.64,5.42,42.91,8.11.18,6.37.36,12.7.55,19.29-4.53-.86-8.31-1.57-12.08-2.28-12.32-2.33-24.63-4.67-37-6.97-2.03-.37-2.88-.79-2.88-1.55-.06-5.68-.27-11.35-.42-17.02,0-.29.06-.59.13-1ZM469.87,35.76c.38.05.75.09,1.16.16,15.64,2.86,31.35,5.67,47.03,8.5.78.14,1.51.31,2.83.59-2.72.5-4.89.91-7.08,1.3-14.2,2.55-28.43,5.08-42.59,7.65-1.16.21-2.18.32-3.22.31-.76-.02-1.54-.11-2.42-.27-15.53-2.84-31.15-5.63-46.73-8.44-.89-.16-1.73-.35-2.91-.58.93-.22,1.57-.42,2.33-.55,15.67-2.81,31.38-5.61,47.02-8.45.09-.01.17-.03.26-.04.2-.03.38-.06.57-.08,1.28-.16,2.46-.2,3.74-.08ZM467.62,15.67c.1.4.2.7.18.98-.19,5.71-.46,11.41-.56,17.11-.01.8-.83,1.25-2.99,1.65-15.27,2.83-30.45,5.71-45.67,8.57-.87.16-1.75.32-2.87.53-.12,0-.27.02-.44.04-.06-.47-.15-.81-.14-1.14.2-5.67.46-11.34.55-17.01.02-.8.86-1.25,3.01-1.65,15.26-2.84,30.45-5.72,45.65-8.58.57-.11,1.15-.21,1.79-.33.41-.07.85-.13,1.45-.23.01.01.02.02.03.04ZM364.63,14.6c6.35-1.14,12.7-2.28,19.06-3.42,3.06-.55,6.13-1.1,9.19-1.65,6.48-1.16,12.97-2.32,19.44-3.49.26-.05.49-.07.74-.11.95-.11,1.81-.12,2.74-.04.3.04.61.07.94.13,15.84,2.88,31.73,5.74,47.6,8.6.77.14,1.47.32,2.64.57-1.36.25-2.32.43-3.27.6-15.5,2.78-31.02,5.55-46.47,8.35-1.05.19-1.98.28-2.91.28-.87-.02-1.74-.1-2.73-.28-15.52-2.84-31.12-5.63-46.69-8.44-.87-.15-1.67-.35-2.78-.59,1.03-.22,1.73-.4,2.5-.53ZM361.34,15.66c.28.02.55.04.79.06.58.08,1.11.16,1.58.25,15.7,2.96,31.38,5.94,47.11,8.89,1.7.32,2.36.68,2.36,1.31.1,5.82.3,11.64.46,17.46,0,.27-.11.54-.21.9-.93-.14-1.68-.24-2.35-.37-15.7-2.97-31.39-5.94-47.11-8.89-1.7-.32-2.36-.68-2.37-1.31-.09-5.82-.29-11.64-.45-17.46,0-.25.1-.51.18-.85ZM360.31,35.67c.74,0,1.5.07,2.36.23,15.83,2.88,31.73,5.73,47.6,8.6.69.12,1.33.27,2.3.47-.78.19-1.31.36-1.93.48-16.1,2.89-32.21,5.76-48.29,8.67-.74.13-1.41.21-2.08.22-.65,0-1.3-.06-2.04-.2-16.15-2.93-32.33-5.84-48.51-8.76-.48-.09-.92-.21-1.97-.44,1.34-.25,2.22-.41,3.1-.57,15.71-2.81,31.42-5.62,47.1-8.44.43-.08.83-.14,1.23-.18.11-.01.21-.01.32-.02.27-.02.54-.04.81-.05ZM359.67,16.54c-.19,5.78-.44,11.56-.57,17.33-.02.67-.68,1.07-2.5,1.41-15.85,2.95-31.65,5.93-47.47,8.9-.51.1-1.09.18-1.79.29-.15-.27-.36-.49-.35-.71.2-5.89.42-11.78.6-17.67.02-.52.39-.88,1.92-1.17,16.33-3.05,32.63-6.12,48.94-9.19.24-.04.54-.07,1.07-.13.07.38.17.66.15.94ZM256.8,14.59c15.6-2.8,31.24-5.59,46.81-8.41.43-.08.84-.13,1.24-.18.28-.03.56-.06.83-.07.02,0,.04,0,.05,0,.72-.04,1.41-.02,2.13.04.45.05.9.11,1.4.2,15.52,2.84,31.15,5.63,46.73,8.45.88.16,1.7.35,2.89.59-.97.23-1.62.41-2.36.55-15.92,2.85-31.86,5.69-47.75,8.56-.82.15-1.55.22-2.29.24-.68,0-1.36-.07-2.14-.21-16.06-2.92-32.17-5.81-48.24-8.71-.58-.1-1.09-.25-2.19-.49,1.32-.24,2.1-.39,2.89-.53ZM279,20.41c8.65,1.62,17.27,3.26,26,4.91.18,6.37.36,12.7.55,19.29-17.72-3.35-34.68-6.55-51.86-9.8-.19-6.33-.37-12.67-.56-19.24,9.07,1.58,17.41,3.25,25.88,4.84ZM252.1,35.63c.77,0,1.55.06,2.44.22,15.83,2.89,31.73,5.74,47.6,8.6.64.11,1.28.26,2.16.44.04.01.09.03.13.04-.78.19-1.31.36-1.94.47-16.09,2.9-32.2,5.78-48.27,8.68-.34.06-.67.11-.99.14-.81.06-1.61.05-2.47-.03-.22-.03-.43-.05-.67-.09-6.55-1.19-13.11-2.37-19.67-3.55v.03c-9.34-1.69-18.68-3.37-28.02-5.05-.79-.14-1.53-.31-2.59-.53.63-.17,1.05-.33,1.58-.43,16.13-2.9,32.29-5.78,48.43-8.68.81-.15,1.54-.23,2.27-.25ZM251.52,15.61c.07.45.17.79.16,1.13-.2,5.68-.45,11.35-.56,17.02-.01.78-.72,1.26-2.92,1.67-6.05,1.13-12.08,2.26-18.12,3.4v.06c-9.5,1.79-18.99,3.58-28.48,5.36-.67.13-1.39.22-2.56.39-.08-.43-.17-.69-.17-.94.2-5.82.46-11.64.59-17.46.02-.67.72-1.06,2.54-1.4,9.49-1.77,18.96-3.54,28.43-5.32h0c6.12-1.15,12.24-2.3,18.36-3.44.78-.15,1.62-.27,2.74-.45ZM147.93,14.66c15.91-2.86,31.84-5.7,47.72-8.57,1.92-.35,3.39-.39,5.39-.02,9.66,1.76,19.35,3.51,29.04,5.25v.02c5.89,1.06,11.78,2.12,17.67,3.19.89.16,1.75.34,2.89.57-.63.19-1.03.35-1.55.45-6.33,1.14-12.67,2.27-19,3.41v.06c-9.44,1.69-18.88,3.37-28.28,5.09-2.36.43-4.14.49-6.61.03-15.21-2.8-30.53-5.53-45.81-8.29-1.08-.2-2.15-.4-3.54-.66.9-.23,1.43-.41,2.09-.53ZM145.06,15.53c1.35.22,2.36.37,3.31.55,15.31,2.89,30.59,5.8,45.96,8.67,2.16.4,3,.83,3.01,1.64.05,5.67.27,11.35.42,17.02,0,.36-.09.71-.15,1.2-1.35-.23-2.36-.38-3.31-.55-15.31-2.89-30.59-5.8-45.96-8.67-2.16-.4-2.98-.84-2.99-1.65-.05-5.67-.27-11.35-.42-17.03-.01-.35.08-.71.14-1.2ZM147.37,36c15.42,2.83,30.94,5.6,46.42,8.39.9.16,1.75.34,2.89.57-.6.18-.97.36-1.5.46-16.31,2.93-32.65,5.84-48.95,8.78-1.36.24-2.49.27-3.86.02-16.47-2.99-32.96-5.96-49.44-8.94-.3-.05-.53-.14-1.22-.32,1.15-.24,1.97-.43,2.84-.58,15.51-2.78,31.04-5.55,46.49-8.36,2.29-.42,3.97-.44,6.32-.01ZM143.78,16.56c-.19,5.78-.42,11.57-.59,17.35-.01.6-.36,1.01-2.18,1.35-15.97,2.97-31.87,5.98-47.79,8.97-.58.11-1.21.19-2.38.37-.04-.55-.1-.91-.09-1.27.2-5.64.46-11.27.55-16.91.02-.83.75-1.32,3.1-1.76,15.59-2.88,31.08-5.82,46.61-8.74.68-.13,1.42-.22,2.52-.39.11.4.26.71.25,1.01ZM40.58,14.61c15.8-2.83,31.62-5.65,47.4-8.5,1.64-.29,2.96-.39,4.77-.06,16.03,2.92,32.13,5.81,48.2,8.71.58.11,1.1.24,1.97.43-.96.21-1.64.39-2.38.52-15.89,2.85-31.81,5.7-47.69,8.56-1.64.29-2.96.38-4.77.05-16.04-2.92-32.13-5.81-48.2-8.7-.59-.11-1.11-.24-2.2-.48,1.3-.24,2.09-.39,2.89-.53ZM37.09,15.5c17.62,3.33,34.75,6.57,52.01,9.83.18,6.39.36,12.75.55,19.36-4.7-.89-8.56-1.62-12.43-2.35-12.32-2.33-24.63-4.67-37-6.97-2.03-.37-2.88-.79-2.88-1.55-.06-5.68-.27-11.35-.42-17.02,0-.36.09-.71.17-1.29Z"/>
</svg>