<?xml version="1.0" encoding="UTF-8"?>
<svg id="Layer_1" data-name="Layer 1" xmlns="http://www.w3.org/2000/svg" viewBox="0 0 1296.68 197.6">
  <defs>
    <style>
      .cls-1 {
        fill: #fff;
        fill-rule: evenodd;
      }
    </style>
  </defs>
  <path class="cls-1" d="M1.41,50.05c0-.68,1.16-.96,2.72-1.26,12.57-2.35,25.12-4.7,37.68-7.05,3.77-.71,7.58-1.4,11.87-2.18.09.43.2.72.2,1-.2,5.78-.44,11.57-.59,17.35-.01.65-.53,1.07-2.42,1.42-15.76,2.94-31.46,5.91-47.18,8.87-.68.13-1.42.23-2.38.39-.19-.25-.49-.44-.48-.64.18-5.97.44-11.94.58-17.9ZM212.66,48.84c1.63.31,2.48.63,2.49,1.29.08,5.86.29,11.71.45,17.56,0,.24-.08.48-.17.86-1.11-.18-1.88-.3-2.59-.43-6.05-1.14-12.1-2.29-18.15-3.43v.03c-9.4-1.78-18.8-3.55-28.23-5.31-2.14-.4-3.04-.82-3.05-1.64-.04-5.67-.26-11.34-.41-17.01,0-.36.07-.71.13-1.2,1.15.17,1.97.27,2.72.41,9.5,1.79,19,3.59,28.5,5.38v.03c6.1,1.15,12.2,2.31,18.32,3.46h-.01ZM1188.98,128.97c1.36.23,2.36.38,3.32.56,15.31,2.89,30.58,5.8,45.95,8.66,2.17.4,2.98.85,2.99,1.65.05,5.68.27,11.35.42,17.03,0,.35-.08.71-.15,1.2-1.36-.23-2.37-.38-3.32-.56-15.31-2.89-30.59-5.8-45.96-8.67-2.18-.4-2.97-.84-2.98-1.65-.05-5.68-.27-11.35-.42-17.03-.01-.36.08-.71.15-1.2h0ZM1188.97,127.35c.19-5.85.42-11.7.6-17.56.01-.52.33-.89,1.88-1.18,16.33-3.05,32.63-6.13,48.94-9.19.29-.06.64-.08,1.45-.18.07.4.17.68.16.97-.2,5.78-.44,11.56-.6,17.34-.02.6-.35,1.02-2.16,1.36-16.05,2.99-32.04,6.01-48.05,9.02-.49.09-1.03.16-1.89.3-.13-.33-.33-.6-.32-.87h0ZM1240.08,137.75c-16.04-2.93-32.16-5.82-48.24-8.72-.59-.11-1.13-.24-2.01-.43.87-.21,1.51-.41,2.26-.54,15.8-2.84,31.64-5.66,47.42-8.52,1.9-.34,3.38-.41,5.39-.04,15.84,2.89,31.76,5.74,47.63,8.61.69.12,1.32.28,2.59.55-1.51.28-2.47.46-3.45.63-15.51,2.78-31.04,5.55-46.53,8.35-1.71.31-3.11.47-5.07.11h0ZM1239.91,78.04c-15.53-2.84-31.15-5.63-46.73-8.44-.88-.16-1.71-.35-2.89-.59.95-.22,1.61-.41,2.36-.54,15.81-2.84,31.64-5.66,47.41-8.52,1.93-.35,3.39-.39,5.39-.02,15.74,2.87,31.55,5.71,47.34,8.55.78.14,1.51.31,2.86.6-1.55.29-2.53.47-3.51.65-15.42,2.76-30.86,5.5-46.23,8.29-2.14.39-3.77.44-5.99.03h-.01ZM1241.77,57.91c-.01.59-.31,1.02-2.15,1.36-16.06,2.99-32.07,6.01-48.09,9.03-.48.09-1.02.15-1.86.28-.14-.34-.35-.61-.34-.88.19-5.82.46-11.64.57-17.46.02-.73.85-1.12,2.77-1.48,15.76-2.94,31.47-5.91,47.2-8.86.58-.11,1.22-.19,2.34-.35.08.44.17.73.16,1.01-.2,5.78-.43,11.57-.6,17.35ZM1241.51,79.25c.18,6.31.36,12.66.54,19.26-17.77-3.36-34.89-6.59-52.22-9.86-.18-6.36-.37-12.72-.55-19.1,2.68.18,46.58,8.36,52.22,9.71h.01ZM1190.49,89.58c16.35,2.97,32.73,5.92,49.1,8.87.38.07.7.17,1.56.38-1.41.26-2.39.45-3.39.62-15.39,2.76-30.82,5.51-46.16,8.3-2.29.42-3.98.42-6.3,0-15.41-2.83-30.92-5.6-46.38-8.39-.88-.16-1.72-.35-2.92-.59.85-.2,1.41-.36,2.05-.47,16.1-2.89,32.21-5.76,48.31-8.66,1.42-.25,2.61-.35,4.15-.07h-.02ZM1080.94,128.94c17.71,3.3,34.78,6.57,52.08,9.83.18,6.38.36,12.74.55,19.32-1.75-.31-2.77-.48-3.75-.67-15.11-2.86-30.19-5.73-45.35-8.55-2.24-.42-3.21-.85-3.22-1.72,0-5.6-.24-11.2-.39-16.8-.01-.39.05-.79.1-1.4h-.02ZM1080.85,127.1c.2-5.75.42-11.49.6-17.23.02-.59.3-1.02,2.14-1.36,16.15-3,32.23-6.05,48.35-9.08.39-.07.82-.12,1.52-.23.17.27.44.5.43.72-.19,5.92-.43,11.85-.59,17.77-.01.55-.69.87-2.14,1.14-16.03,3-32.03,6.01-48.05,9.02-.57.11-1.19.17-2.09.3-.07-.42-.17-.74-.16-1.06h-.01ZM1131.42,137.65c-15.52-2.84-31.12-5.63-46.7-8.44-.88-.16-1.71-.34-2.91-.59,1.06-.23,1.84-.43,2.67-.58,15.8-2.83,31.62-5.66,47.4-8.5,1.64-.29,2.95-.39,4.76-.07,16.04,2.92,32.13,5.81,48.2,8.71.58.1,1.11.24,2.21.48-1.41.26-2.29.42-3.19.58-15.6,2.8-31.23,5.58-46.78,8.4-2.06.37-3.59.38-5.68,0h.02ZM1135.23,139.66c.02-.73.85-1.12,2.76-1.48,15.76-2.93,31.47-5.9,47.2-8.86.58-.11,1.22-.19,2.35-.35.07.44.17.73.16,1.01-.2,5.78-.44,11.57-.58,17.35-.01.66-.61,1.07-2.47,1.41-15.76,2.94-31.47,5.91-47.19,8.86-.68.13-1.41.23-2.54.41-.11-.4-.27-.71-.26-1.01.2-5.78.46-11.57.56-17.35h0ZM1187.61,128.26c-1.53-.27-2.54-.44-3.53-.63-15.2-2.87-30.37-5.76-45.62-8.6-2.15-.4-3.02-.83-3.03-1.64-.04-5.67-.26-11.34-.41-17.02,0-.35.08-.71.14-1.19,1.15.17,1.97.27,2.72.42,15.7,2.96,31.39,5.94,47.09,8.89,1.48.28,2.42.55,2.43,1.18.09,5.93.3,11.86.46,17.79,0,.21-.12.42-.24.8h0ZM1135.15,97.32c.2-5.71.45-11.42.58-17.13.02-.73.59-1.2,2.73-1.59,15.68-2.91,31.28-5.86,46.91-8.8.68-.13,1.42-.23,2.42-.4.17.3.41.54.41.77-.19,5.89-.43,11.79-.6,17.68-.01.57-.51.94-2.15,1.25-16.05,3-32.05,6.03-48.08,9.04-.49.09-1.02.15-2.08.31-.07-.49-.15-.81-.15-1.13h0ZM1188.03,68.59c-9.03-1.55-17.45-3.25-26.04-4.85-8.66-1.62-17.28-3.26-25.97-4.91-.19-6.38-.36-12.72-.55-19.2,1.15.15,1.98.23,2.71.37,15.81,2.98,31.6,5.98,47.43,8.95,1.46.27,2.12.56,2.13,1.12.11,5.97.31,11.94.48,17.91,0,.14-.08.29-.18.62h0ZM1137.32,59.89c15.74,2.87,31.55,5.71,47.33,8.55.78.14,1.5.31,2.8.59-2.92.54-5.3.98-7.7,1.41-13.9,2.49-27.84,4.97-41.69,7.48-2.36.43-4.13.49-6.61.03-15.31-2.82-30.73-5.57-46.11-8.35-.98-.18-1.93-.37-3.19-.62.85-.21,1.39-.39,2.04-.51,15.9-2.86,31.84-5.7,47.71-8.57,1.93-.35,3.4-.38,5.39-.02h.03ZM1133.77,58.04c-.02.52-.37.89-1.9,1.18-16.34,3.05-32.64,6.12-48.95,9.19-.29.06-.64.08-1.43.17-.07-.41-.16-.69-.15-.98.2-5.78.44-11.56.59-17.33.02-.6.42-1.01,2.21-1.35,16.05-2.99,32.04-6.01,48.05-9.02.49-.09,1.03-.16,1.8-.28.15.28.39.52.38.75-.19,5.89-.42,11.78-.6,17.67ZM1081.43,69.29c17.56,3.32,34.71,6.56,52.07,9.84.18,6.38.37,12.74.56,19.24-.99-.11-1.74-.16-2.35-.27-16.01-3.02-32.01-6.05-48.03-9.07-1.29-.24-2.01-.5-2.03-1.03-.1-6.04-.3-12.09-.46-18.13,0-.11.09-.21.24-.57h0ZM1083.15,89.73c15.74,2.87,31.55,5.71,47.33,8.56.78.14,1.5.31,2.87.6-1.55.29-2.53.47-3.51.64-15.42,2.76-30.86,5.5-46.23,8.29-2.14.39-3.76.44-5.99.03-15.53-2.84-31.15-5.63-46.73-8.44-.88-.16-1.72-.34-2.9-.58.95-.22,1.61-.41,2.35-.54,15.81-2.84,31.64-5.66,47.41-8.52,1.93-.35,3.39-.39,5.4-.02v-.02ZM974.78,129.26c16.1,3.04,32.18,6.08,48.29,9.12,1.31.25,2,.52,2,1.04.12,6.04.3,12.08.45,18.12,0,.11-.1.22-.25.5-1.24-.2-2.15-.33-3.02-.5-15.5-2.92-30.98-5.87-46.51-8.78-1.78-.33-2.59-.68-2.59-1.38-.08-5.82-.28-11.64-.44-17.45,0-.26.06-.51.11-.86.77.07,1.44.09,1.96.19h0ZM972.85,127.06c.2-5.67.45-11.34.56-17.02.01-.78.69-1.26,2.91-1.68,15.49-2.87,30.88-5.78,46.32-8.68.86-.16,1.78-.29,3.07-.5.07.48.18.83.17,1.18-.2,5.67-.45,11.35-.56,17.02-.01.79-.72,1.26-2.93,1.67-15.37,2.86-30.67,5.76-45.99,8.65-.95.18-1.91.35-3.37.62-.08-.55-.18-.9-.18-1.26h0ZM1023.13,137.59c-15.52-2.84-31.13-5.63-46.69-8.44-.86-.16-1.67-.35-2.93-.62,1.36-.25,2.32-.43,3.28-.6,15.61-2.79,31.23-5.57,46.79-8.39,1.96-.35,3.4-.36,5.37,0,15.63,2.85,31.33,5.66,47,8.49.86.16,1.66.35,2.77.59-1.16.24-1.97.42-2.84.58-15.59,2.8-31.21,5.58-46.76,8.41-2.18.4-3.82.39-5.99,0v-.02ZM1027.26,139.6c.01-.58.56-.94,2.18-1.24,16.05-2.99,32.03-6.02,48.04-9.03.49-.09,1.02-.16,1.9-.3.13.33.33.6.32.86-.19,5.85-.43,11.7-.6,17.56-.02.51-.3.89-1.86,1.18-16.44,3.07-32.84,6.16-49.26,9.24-.19.04-.44.04-1.17.11-.07-.34-.16-.58-.15-.83.2-5.85.43-11.7.59-17.56h.01ZM1027.54,118.44c-.19-6.35-.37-12.72-.56-19.09,2.62.16,46.1,8.25,52.23,9.7.17,6.31.36,12.66.54,19.27-17.86-3.38-34.93-6.61-52.21-9.87h0ZM1027.01,97.61c.19-5.89.45-11.79.58-17.68.02-.71,1.03-1.04,2.76-1.36,14.07-2.62,28.11-5.25,42.16-7.88,2.27-.43,4.57-.84,7.44-1.37.05.55.11.91.09,1.27-.2,5.71-.44,11.42-.56,17.13-.02.66-.6,1.07-2.46,1.42-15.77,2.93-31.47,5.9-47.2,8.86-.68.13-1.41.23-2.4.39-.16-.3-.42-.53-.41-.77h0ZM1079.98,68.65c-1.53-.27-2.54-.44-3.52-.63-15.21-2.87-30.37-5.76-45.63-8.6-2.14-.4-3.04-.82-3.05-1.64-.04-5.67-.26-11.34-.41-17.01,0-.36.07-.71.13-1.2,1.14.17,1.97.27,2.72.41,15.7,2.96,31.39,5.93,47.1,8.89,1.47.28,2.43.55,2.44,1.18.08,5.93.29,11.86.45,17.79,0,.21-.11.42-.23.81h0ZM1028.93,59.85c16.15,2.93,32.34,5.84,48.51,8.76.49.09.92.2,1.83.41-1.13.23-1.86.41-2.65.55-15.8,2.83-31.61,5.66-47.38,8.5-1.79.32-3.18.37-5.07.03-15.93-2.9-31.93-5.77-47.91-8.65-.58-.1-1.13-.24-2.02-.42.87-.21,1.5-.4,2.23-.53,16-2.87,32.01-5.73,47.99-8.61,1.57-.28,2.82-.34,4.47-.04ZM1025.66,57.89c-.02.67-.68,1.07-2.5,1.41-15.85,2.95-31.65,5.94-47.47,8.9-.59.11-1.22.2-2.11.34-.15-.28-.4-.52-.39-.75.2-5.89.42-11.78.61-17.67.02-.52.39-.89,1.91-1.18,16.34-3.05,32.64-6.12,48.95-9.19.29-.05.64-.08,1.41-.17.07.41.17.69.16.98-.2,5.78-.45,11.56-.58,17.33h0ZM976.46,69.9c15.51,2.93,31,5.87,46.53,8.78,1.65.31,2.46.64,2.46,1.29.09,5.86.29,11.72.46,17.58,0,.22-.05.44-.08.63-.2.04-.3.07-.4.08-.09.01-.23.03-.31.02-.63-.09-1.27-.18-1.86-.29-16.49-3.11-32.98-6.23-49.55-9.37-.18-6.38-.37-12.71-.55-19.27,1.51.24,2.44.37,3.29.54h.01ZM975.27,89.74c15.64,2.85,31.35,5.67,47.03,8.49.79.14,1.52.32,2.9.6-1.53.28-2.51.47-3.48.64-15.52,2.78-31.04,5.55-46.53,8.34-1.72.31-3.11.46-5.08.11-16.04-2.93-32.15-5.82-48.23-8.72-.59-.1-1.13-.24-1.99-.43.88-.21,1.52-.41,2.27-.54,15.8-2.84,31.64-5.66,47.4-8.52,2.1-.38,3.66-.35,5.71.02h0ZM867.34,148.62c-.76-.16-1.39-.29-1.87-.4-.18-6.32-.36-12.65-.55-19.25,9.75,1.84,19.27,3.64,28.72,5.43v-.04c7.76,1.47,15.49,2.93,23.26,4.4.19,6.35.37,12.71.56,19.08-1.26-.07-11.98-1.98-23.47-4.1v-.09c-8.91-1.68-17.76-3.35-26.64-5.03h-.01ZM868.67,127.57c-.53.1-1.06.2-1.66.31-.51.09-1.08.17-1.9.3-.09-.46-.17-.76-.16-1.05.19-5.71.45-11.41.55-17.12.01-.8.83-1.26,3-1.66,8.5-1.58,16.98-3.17,25.46-4.77v-.06c7.02-1.32,14.04-2.64,21.07-3.96.66-.13,1.42-.21,2.46-.37.11.37.26.64.26.91-.2,5.82-.43,11.64-.59,17.46-.02.61-.47,1.01-2.25,1.34-7.11,1.32-14.2,2.65-21.3,3.99h0c-8.32,1.56-16.64,3.13-24.96,4.69h.02ZM915.32,137.65c-7.1-1.3-14.22-2.59-21.34-3.87v-.02c-8.6-1.55-17.2-3.1-25.79-4.65-.65-.12-1.26-.27-2.38-.52.29-.07.53-.13.78-.19.94-.17,1.63-.3,2.31-.42,8.36-1.5,16.73-3,25.08-4.5v-.06c7.16-1.29,14.33-2.57,21.47-3.87,1.92-.35,3.39-.39,5.39-.03,15.73,2.87,31.55,5.71,47.34,8.56.78.14,1.51.31,2.88.6-1.56.29-2.53.47-3.51.65-15.42,2.76-30.86,5.5-46.23,8.29-2.13.39-3.76.44-5.99.03h-.01ZM919.13,139.65c.02-.6.42-1.01,2.22-1.34,15.95-2.97,31.84-5.98,47.74-8.97.59-.11,1.23-.2,2.23-.36.09.38.25.69.24,1-.2,5.78-.44,11.56-.6,17.34-.02.6-.4,1.02-2.19,1.35-16.06,2.99-32.06,6.01-48.07,9.01-.49.09-1.03.16-2.04.31-.06-.44-.15-.73-.14-1.01.2-5.78.43-11.56.59-17.33h.02ZM971.54,128.21c-1.09-.17-1.92-.27-2.67-.42-15.71-2.97-31.41-5.95-47.14-8.9-1.68-.32-2.38-.66-2.39-1.3-.09-5.86-.3-11.72-.46-17.58-.01-.25.1-.49.18-.85.99.15,1.71.24,2.36.36,15.8,2.99,31.6,5.99,47.43,8.96,1.69.32,2.4.66,2.4,1.3.1,5.86.3,11.72.46,17.58,0,.25-.1.49-.18.85h.01ZM919.04,97.35c.19-5.74.44-11.48.58-17.23.02-.65.46-1.08,2.37-1.43,15.75-2.93,31.43-5.9,47.15-8.86.76-.14,1.59-.25,2.77-.44.06.46.16.81.15,1.17-.19,5.67-.45,11.33-.56,17.01-.01.8-.8,1.25-2.97,1.65-15.36,2.86-30.65,5.75-45.96,8.63-.96.18-1.93.36-3.31.61-.1-.48-.22-.79-.21-1.11h-.01ZM919.89,58.82c-.19-6.42-.37-12.75-.55-19.03.32-.06.42-.08.52-.09.1,0,.24-.03.31-.02.62.1,1.26.18,1.86.29,16.48,3.12,32.96,6.23,49.53,9.37.18,6.39.36,12.75.55,19.35-17.74-3.35-34.87-6.59-52.22-9.87ZM920.82,59.81c16.13,2.94,32.33,5.84,48.5,8.76.48.09.92.2,1.68.38-.87.2-1.52.39-2.25.52-15.9,2.85-31.8,5.7-47.68,8.56-1.62.29-2.95.41-4.78.07-7.43-1.35-14.87-2.7-22.32-4.04v-.03c-8.26-1.49-16.52-2.98-24.79-4.47-.88-.16-1.71-.35-2.91-.59.85-.2,1.42-.36,2.06-.47,8.54-1.53,17.09-3.07,25.64-4.6v-.06c7.36-1.32,14.73-2.63,22.08-3.95,1.61-.29,2.93-.42,4.76-.09h0ZM917.66,57.92c-.01.65-.53,1.07-2.42,1.42-7.21,1.35-14.41,2.7-21.61,4.05h0c-8.3,1.55-16.58,3.12-24.88,4.68-.36.07-.73.14-1.12.21-.55.1-1.15.19-1.89.3-.15-.36-.31-.62-.31-.87.19-5.82.43-11.64.6-17.46.01-.59.37-1.02,2.18-1.36,8.6-1.6,17.18-3.21,25.76-4.82v-.04c4.07-.76,8.14-1.52,12.21-2.28,3.77-.71,7.58-1.4,11.87-2.18.09.43.2.72.19,1-.2,5.78-.44,11.57-.59,17.35h.01ZM865.49,69.46c.22.02.43.04.63.06.85.14,1.63.26,2.32.39,8.39,1.59,16.79,3.17,25.18,4.75v-.03c7.26,1.37,14.51,2.74,21.77,4.11,1.3.25,2.02.51,2.04,1.03.11,6.04.29,12.08.45,18.12,0,.11-.1.21-.23.5-1.23-.2-2.15-.33-3-.49-6.89-1.3-13.79-2.61-20.68-3.91v-.02c-8.61-1.63-17.22-3.26-25.85-4.88-1.69-.32-2.36-.68-2.36-1.31-.1-5.82-.3-11.63-.45-17.45,0-.26.09-.52.18-.88h0ZM865.47,89.53c.36.03.73.08,1.13.15,9,1.64,18.01,3.27,27.03,4.89v-.03c6.91,1.25,13.83,2.49,20.74,3.74.78.14,1.5.31,2.55.53-1.02.22-1.7.4-2.46.53-6.94,1.25-13.89,2.49-20.83,3.74h0c-8.97,1.61-17.95,3.21-26.91,4.82-.34.06-.65.11-.97.15-.2.02-.4.05-.6.06h-.11c-.53.03-1.04.03-1.59,0-.36-.03-.74-.08-1.14-.15-16.04-2.92-32.14-5.8-48.21-8.71-.58-.1-1.1-.24-1.98-.43,1.05-.23,1.82-.42,2.66-.58,15.8-2.83,31.61-5.66,47.4-8.5.78-.14,1.49-.23,2.22-.26h.04c.33,0,.67.02,1.02.04h.01ZM766.91,130.84c12.77,2.42,25.54,4.84,38.36,7.23.35.07.69.14,1.01.2,1.85.38,2.6.81,2.6,1.56.05,5.68.27,11.35.42,17.03,0,.34-.08.68-.15,1.14-1.17-.19-2.12-.34-2.98-.5-15.31-2.89-30.59-5.8-45.96-8.67-2.18-.4-2.97-.84-2.98-1.65-.05-5.68-.27-11.35-.42-17.03-.01-.31.06-.63.12-1.03,1.32.18,5.06.83,9.96,1.71h.02ZM756.96,127.35c.2-5.85.42-11.7.6-17.56.01-.52.33-.89,1.88-1.18,16.33-3.05,32.63-6.13,48.94-9.19.24-.05.56-.08,1.11-.14.07.38.16.65.15.93-.2,5.78-.44,11.56-.6,17.34-.02.5-.26.88-1.43,1.19-.13.03-.25.06-.4.09-.11.02-.21.05-.33.07-16.06,2.99-32.04,6.01-48.05,9.02-.3.06-.65.11-1.05.17-.16.02-.32.04-.52.07-.13-.31-.3-.56-.3-.81ZM808.85,137.86s-.1,0-.15-.02c-.21-.03-.41-.06-.63-.1-16.04-2.93-32.16-5.82-48.24-8.72-.59-.11-1.13-.24-2.01-.43.87-.21,1.51-.41,2.26-.54,15.8-2.84,31.64-5.66,47.42-8.52.93-.17,1.77-.26,2.61-.28.76,0,1.54.07,2.44.23,15.84,2.89,31.76,5.74,47.63,8.61.66.12,1.28.27,2.45.52-1.07.22-1.84.39-2.64.54-.23.04-.45.08-.68.12-15.51,2.78-31.04,5.55-46.53,8.35-.39.07-.76.13-1.12.18-.78.1-1.52.15-2.33.1-.16,0-.32-.03-.49-.05h.01ZM813.17,99.55c15.92,3,31.8,6.01,47.72,9.01,1.27.24,2.12.47,2.13,1.01.1,6.08.28,12.16.43,18.24,0,.06-.09.13-.25.31-8.76-1.52-17.11-3.19-25.6-4.78-8.65-1.62-17.27-3.27-25.96-4.91-.18-6.38-.36-12.69-.54-19.14.85.09,1.53.15,2.07.25h0ZM811.14,97.36c.2-5.78.43-11.56.59-17.34.02-.61.46-1,2.25-1.34,15.94-2.97,31.83-5.98,47.74-8.97.51-.1,1.09-.18,1.83-.29.12.32.29.58.28.84-.19,5.82-.44,11.63-.59,17.44-.01.61-.44,1.01-2.23,1.35-16.02,2.98-31.99,6-47.99,9-.46.08-.99.15-1.75.26-.06-.41-.13-.69-.12-.96h-.01ZM811.34,139.84c.02-.8.82-1.26,2.99-1.66,15.26-2.83,30.44-5.7,45.65-8.56.99-.18,2.02-.37,3.07-.56.2.29.44.51.43.72-.19,5.93-.42,11.86-.61,17.79,0,.08-.03.15-.05.22-.32.42-1.08.72-2.39,1-16.12,3.02-32.22,6.05-48.32,9.08-.24.04-.53.07-1.12.14-.03-.04-.06-.08-.1-.13-.05-.39-.11-.71-.1-1.02.19-5.67.45-11.34.55-17.02h0ZM853.82,66.75c-13.2-2.49-26.39-4.99-39.6-7.47-.2-.04-.4-.08-.58-.12-1.09-.23-1.69-.5-1.7-.97-.11-6.04-.3-12.09-.45-18.13,0-.08.04-.16.12-.32,1.27.16,4.74.75,9.32,1.57,13.86,2.62,27.54,5.21,41.31,7.81.45.1.86.18,1.2.26.19,6.33.37,12.65.56,19.08-.95-.09-4.85-.75-10.18-1.7h0ZM811.82,59.75c.41.04.82.1,1.27.18,15.74,2.87,31.55,5.71,47.34,8.55.74.13,1.45.3,2.67.56-.99.21-1.71.39-2.44.52-.3.06-.6.11-.89.16-15.17,2.71-30.37,5.42-45.5,8.16-.25.04-.5.09-.74.13-.52.09-1.01.17-1.48.22h-.08c-.37.04-.72.05-1.08.07-.94.01-1.89-.06-2.99-.26-15.53-2.84-31.15-5.63-46.73-8.44-.88-.16-1.71-.35-2.89-.59.95-.22,1.61-.41,2.36-.54,15.81-2.84,31.64-5.66,47.41-8.52.85-.15,1.61-.24,2.37-.26.46,0,.93.02,1.4.06ZM809.41,57.91c0,.33-.12.62-.54.86-.37.2-.92.37-1.73.52-15.92,2.96-31.78,5.96-47.66,8.95-.44.08-.93.15-1.5.24-.11.02-.22.03-.34.05-.14-.32-.33-.58-.31-.84.19-5.82.46-11.64.57-17.46.02-.73.85-1.12,2.77-1.48,15.76-2.94,31.47-5.91,47.2-8.86.52-.1,1.1-.17,2-.3.07.41.16.69.15.97-.2,5.78-.43,11.57-.6,17.35h-.01ZM778.69,73.36c7.11,1.34,14.21,2.69,21.29,4.02,4.45.87,7.85,1.55,9.16,1.86.17,6.21.35,12.47.53,18.96-.95-.08-4.96-.76-10.4-1.73-13.31-2.51-26.37-4.98-39.51-7.46-.79-.16-1.45-.31-1.95-.42-.18-6.33-.36-12.66-.55-19.01,2.14.27,11.32,1.91,21.42,3.78h.01ZM757.29,89.47c.27.03.55.06.84.11,16.35,2.97,32.73,5.92,49.1,8.87.34.06.66.15,1.33.32-.69.17-1.21.33-1.78.43-.08.01-.16.03-.24.04-1.87.34-3.74.67-5.61,1.01-10.6,1.9-21.21,3.8-31.79,5.71-3.38.61-6.77,1.21-10.15,1.82-.93.16-1.77.25-2.59.26-.99,0-1.98-.09-3.12-.3-15.41-2.83-30.91-5.6-46.38-8.39-.88-.16-1.72-.35-2.92-.59.85-.2,1.41-.36,2.05-.47,16.1-2.89,32.21-5.76,48.31-8.66.54-.1,1.05-.16,1.57-.2.46-.02.92-.01,1.4.02l-.02.02ZM648.92,129.03c.34.05.64.1.93.14,16.85,3.15,33.17,6.26,49.65,9.37.56.16.96.34,1.17.57.17,6.11.35,12.21.52,18.5-.04.11-.07.23-.11.38-1.45-.26-2.39-.42-3.28-.59-15.11-2.86-30.19-5.73-45.35-8.55-2.24-.42-3.21-.85-3.22-1.72,0-5.6-.24-11.2-.39-16.8-.01-.37.04-.75.09-1.31h-.01ZM648.84,127.1c.19-5.75.42-11.49.6-17.23.02-.59.3-1.02,2.14-1.36,16.15-3,32.23-6.05,48.35-9.08.32-.06.71-.11,1.21-.18.17.25.41.47.4.68-.19,5.92-.43,11.85-.59,17.77,0,.27-.18.48-.5.66-.06.03-.14.06-.21.09-.35.15-.8.28-1.43.4-16.03,3-32.03,6.01-48.05,9.02-.48.09-1.04.16-1.75.25-.07-.4-.16-.71-.15-1.02h-.02ZM699.4,137.65c-15.52-2.84-31.12-5.63-46.7-8.44-.88-.16-1.71-.34-2.91-.59,1.06-.23,1.84-.43,2.67-.58,15.8-2.83,31.62-5.66,47.4-8.5.78-.14,1.49-.23,2.22-.26.34,0,.7.02,1.06.04.36.03.73.08,1.14.15,16.04,2.92,32.13,5.81,48.2,8.71.54.1,1.06.22,2.02.44-.93.21-1.6.37-2.32.5-.23.04-.45.08-.68.12-14.16,2.54-28.34,5.07-42.46,7.62-1.46.26-2.93.52-4.39.79-.46.08-.89.14-1.31.19-.06,0-.12,0-.18.02-.29.03-.58.04-.87.04-.92,0-1.84-.07-2.91-.26h.02ZM703.22,139.66c.02-.73.85-1.12,2.76-1.48,15.76-2.93,31.47-5.9,47.2-8.86.5-.09,1.07-.17,1.93-.29.04.07.08.12.12.18.06.31.12.54.12.77-.2,5.78-.44,11.57-.58,17.35-.01.66-.61,1.07-2.47,1.41-15.76,2.94-31.47,5.91-47.19,8.86-.58.11-1.21.2-2.08.34-.05,0-.08,0-.13.02-.11-.37-.25-.67-.24-.96.2-5.78.46-11.57.57-17.35h-.01ZM755.27,128.21c-1.34-.24-2.29-.4-3.2-.57-15.2-2.87-30.37-5.76-45.62-8.6-2.15-.4-3.02-.83-3.03-1.64-.04-5.67-.26-11.34-.41-17.02,0-.34.07-.68.14-1.14.96.14,1.71.24,2.38.37,15.7,2.96,31.39,5.94,47.09,8.89,1.48.28,2.42.55,2.43,1.18.09,5.93.3,11.86.46,17.79,0,.2-.11.4-.22.74h-.02ZM703.14,97.32c.2-5.71.45-11.42.58-17.13.02-.73.59-1.2,2.73-1.59,15.68-2.91,31.28-5.86,46.91-8.8.6-.11,1.27-.21,2.11-.35.17.28.38.5.38.72-.19,5.89-.43,11.79-.6,17.68,0,.27-.13.49-.42.68-.06.04-.13.07-.2.11-.09.05-.2.09-.33.14-.09.03-.19.07-.29.1-.26.08-.54.15-.91.21-6.65,1.24-13.29,2.5-19.93,3.75-3.78.71-7.55,1.42-11.33,2.13-5.4,1.02-10.8,2.03-16.2,3.05-.59.1-1.25.21-2.05.33-.09.01-.21.03-.31.04-.06-.46-.15-.77-.14-1.08h0ZM755.69,68.53c-8.91-1.54-17.23-3.21-25.71-4.8-8.66-1.62-17.28-3.26-25.97-4.91-.19-6.37-.36-12.69-.55-19.16.95.12,1.72.2,2.36.32,15.81,2.98,31.6,5.98,47.43,8.95,1.46.27,2.12.56,2.13,1.12.11,5.97.31,11.94.48,17.91,0,.13-.07.28-.16.56h-.01ZM703.67,59.7c.41.04.84.1,1.29.18,15.74,2.87,31.55,5.71,47.33,8.55.72.13,1.4.29,2.51.52-.58.16-1.04.29-1.52.4-1.16.21-2.25.41-3.3.61-3.4.61-6.8,1.22-10.2,1.83-8.22,1.47-16.42,2.94-24.62,4.42-3.31.59-6.61,1.19-9.92,1.78-.89.15-1.72.24-2.54.26-1.02,0-2.05-.09-3.25-.31-15.31-2.82-30.73-5.57-46.1-8.35-.93-.17-1.85-.36-3.02-.59-.04-.01-.1-.03-.15-.04.83-.21,1.37-.39,2.02-.51,15.9-2.86,31.84-5.7,47.71-8.57.68-.12,1.3-.19,1.92-.23.61-.03,1.21-.02,1.84.03v.02ZM701.41,58.04c-.02.52-.37.89-1.9,1.18-16.34,3.05-32.64,6.12-48.95,9.19-.03,0-.06,0-.09.01-.24.03-.52.06-1,.12-.07-.38-.15-.66-.14-.93.2-5.78.44-11.56.59-17.33.02-.6.42-1.01,2.21-1.35,16.05-2.99,32.04-6.01,48.05-9.02.41-.08.89-.14,1.49-.23.15.26.36.49.35.71-.19,5.89-.42,11.78-.6,17.67v-.02ZM649.39,69.35c17.45,3.3,34.5,6.52,51.75,9.78.18,6.36.37,12.72.56,19.2-.8-.08-1.47-.14-2.01-.24-16.01-3.02-32.01-6.05-48.03-9.07-1.29-.24-2.01-.5-2.03-1.03-.11-6.04-.3-12.09-.46-18.13,0-.1.08-.21.21-.51h.01ZM649.46,89.54c.42.04.86.1,1.32.19,15.74,2.87,31.55,5.71,47.33,8.56.72.13,1.42.29,2.62.55-.87.2-1.5.37-2.17.5-.38.07-.74.14-1.09.2-13.18,2.36-26.36,4.71-39.51,7.08-2.29.41-4.58.82-6.86,1.23-.91.16-1.74.25-2.56.28-.92,0-1.86-.07-2.93-.27-15.53-2.84-31.15-5.63-46.73-8.44-.88-.16-1.72-.34-2.9-.58.95-.22,1.61-.41,2.35-.54,15.81-2.84,31.64-5.66,47.41-8.52.9-.16,1.7-.25,2.51-.27.4,0,.81.03,1.22.06v-.03ZM542.42,129.26c16.1,3.04,32.18,6.08,48.29,9.12,1.31.25,2,.52,2,1.04.12,6.04.3,12.08.45,18.12,0,.1-.09.21-.22.44-1.06-.17-1.92-.3-2.7-.45-15.5-2.92-30.98-5.87-46.51-8.78-1.78-.33-2.59-.68-2.59-1.38-.08-5.82-.28-11.64-.44-17.45,0-.25.06-.5.1-.83.62.05,1.18.08,1.62.17h0ZM540.84,127.06c.2-5.67.45-11.34.56-17.02.01-.78.69-1.26,2.91-1.68,15.49-2.87,30.88-5.78,46.32-8.68.78-.15,1.62-.27,2.73-.45.07.45.17.79.16,1.13-.2,5.67-.45,11.35-.56,17.02-.02.79-.72,1.26-2.93,1.67-15.37,2.86-30.67,5.76-45.99,8.65-.87.16-1.77.32-3.03.56-.08-.51-.18-.86-.17-1.2h0ZM591.12,137.59c-15.52-2.84-31.13-5.63-46.69-8.44-.86-.16-1.67-.35-2.93-.62,1.36-.25,2.32-.43,3.28-.6,15.6-2.79,31.23-5.57,46.79-8.39.91-.16,1.71-.25,2.51-.26.8.01,1.6.09,2.52.26,15.63,2.85,31.33,5.66,47,8.49.86.16,1.66.35,2.77.59-1.16.24-1.97.42-2.84.58-15.59,2.8-31.21,5.58-46.76,8.41-1.02.19-1.92.28-2.82.29-.9,0-1.8-.1-2.83-.29v-.02ZM595.25,139.6c.01-.58.56-.94,2.18-1.24,16.05-2.99,32.03-6.02,48.04-9.03.42-.08.91-.15,1.58-.25.13.31.31.56.3.81-.19,5.85-.43,11.7-.6,17.56,0,.19-.08.35-.2.51-.3.28-.87.51-1.85.71-16.37,3.06-32.71,6.13-49.06,9.2-.16.03-.37.04-.83.08-.07-.32-.16-.56-.15-.8.2-5.85.43-11.7.59-17.56h0ZM636.48,126.19c-13.84-2.62-27.34-5.17-40.96-7.74-.19-6.34-.37-12.69-.55-19.06,2.86.36,18.31,3.16,31.73,5.69v.03c3.95.75,7.9,1.49,11.86,2.24,3.96.77,6.98,1.39,8.29,1.7.17,6.21.35,12.46.53,18.96-.98-.08-5.2-.8-10.9-1.82h0ZM595,97.61c.19-5.89.45-11.79.58-17.68.02-.71,1.03-1.04,2.77-1.36,14.07-2.62,28.11-5.25,42.16-7.88,2.17-.41,4.37-.8,7.06-1.3.02.06.03.11.05.17.04.42.08.73.07,1.04-.2,5.71-.44,11.42-.56,17.13-.02.66-.6,1.07-2.46,1.42-15.77,2.93-31.47,5.9-47.2,8.86-.6.11-1.27.21-2.09.34-.16-.27-.39-.5-.38-.72v-.02ZM647.64,68.59c-1.34-.24-2.29-.4-3.19-.57-15.21-2.87-30.38-5.76-45.63-8.6-2.14-.4-3.04-.82-3.05-1.64-.04-5.67-.26-11.34-.41-17.01,0-.34.07-.69.12-1.15.95.14,1.71.24,2.37.36,15.7,2.96,31.39,5.93,47.1,8.89,1.47.28,2.43.55,2.44,1.18.08,5.93.29,11.86.45,17.79,0,.2-.1.4-.21.75h.01ZM596.57,59.85c16.15,2.93,32.34,5.84,48.51,8.76.49.09.92.2,1.83.41-1.13.23-1.86.41-2.65.55-15.8,2.83-31.62,5.66-47.38,8.5-.84.15-1.6.24-2.36.26-.74,0-1.5-.07-2.36-.23-15.93-2.9-31.94-5.77-47.91-8.65-.58-.1-1.13-.24-2.02-.42.88-.21,1.5-.4,2.22-.53,16-2.87,32.02-5.73,47.99-8.61.74-.13,1.41-.21,2.08-.23.64,0,1.3.06,2.04.19h.01ZM593.3,57.89c-.02.67-.68,1.07-2.5,1.41-15.85,2.95-31.65,5.94-47.47,8.9-.51.1-1.08.18-1.79.29-.15-.26-.36-.49-.36-.71.2-5.89.42-11.78.61-17.67.02-.52.39-.89,1.91-1.18,16.34-3.05,32.64-6.12,48.95-9.19.24-.04.54-.07,1.07-.13.07.39.16.66.16.94-.2,5.78-.45,11.56-.58,17.33h0ZM544.1,69.9c15.51,2.93,31,5.87,46.53,8.78,1.65.31,2.46.64,2.46,1.29.09,5.86.29,11.72.46,17.58,0,.22-.05.44-.08.63-.2.04-.3.07-.4.08h-.06c-.6-.09-1.2-.17-1.77-.27-16.49-3.11-32.98-6.23-49.55-9.37-.18-6.36-.37-12.68-.55-19.21,1.3.21,2.16.33,2.94.48h.02ZM542.91,89.74c15.64,2.85,31.35,5.67,47.03,8.49.79.14,1.52.32,2.9.6-1.53.28-2.51.47-3.49.64-15.52,2.78-31.04,5.55-46.53,8.34-.98.18-1.86.3-2.79.31-.6-.01-1.23-.07-1.94-.2-16.04-2.93-32.15-5.82-48.23-8.72-.59-.1-1.13-.24-1.99-.43.87-.21,1.52-.41,2.27-.54,15.8-2.84,31.64-5.66,47.4-8.52.98-.18,1.83-.26,2.68-.26.86.02,1.71.11,2.68.29h0ZM440.58,149.68c-3.41-.67-6.04-1.21-7.37-1.52-.17-6.28-.36-12.61-.54-19.21,17.7,3.35,34.66,6.56,51.86,9.81.19,6.34.37,12.69.56,19.05-2.28-.28-12.57-2.11-23.47-4.13v-.02c-7.04-1.33-14.03-2.65-21.04-3.97h0ZM432.71,127.05c.2-5.67.46-11.35.55-17.02,0-.84.86-1.31,3.12-1.73,1.39-.26,2.77-.52,4.15-.78,14.2-2.64,28.34-5.31,42.5-7.97.58-.11,1.27-.2,2.13-.32.11.34.25.61.24.87-.2,5.82-.43,11.64-.59,17.46-.02.61-.47,1.01-2.25,1.34-15.87,2.95-31.67,5.94-47.5,8.92-.6.11-1.26.21-2.27.36-.05-.49-.11-.81-.09-1.12h.01ZM483.3,137.65c-15.53-2.84-31.15-5.63-46.73-8.44-.88-.16-1.72-.35-2.9-.59.96-.22,1.61-.41,2.35-.54,15.8-2.84,31.64-5.66,47.42-8.52.91-.16,1.71-.25,2.52-.27.79,0,1.6.08,2.52.25,15.73,2.87,31.55,5.71,47.34,8.56.78.14,1.51.31,2.88.6-1.56.29-2.53.47-3.51.65-15.42,2.76-30.86,5.5-46.23,8.29-1.01.18-1.91.29-2.82.31-.89,0-1.79-.08-2.83-.27v-.03ZM487.12,139.65c.02-.6.42-1.01,2.22-1.34,15.95-2.97,31.84-5.98,47.74-8.97.51-.1,1.11-.18,1.9-.31.1.36.24.66.23.95-.2,5.78-.44,11.56-.6,17.34-.02.6-.4,1.02-2.19,1.35-16.06,2.99-32.06,6.01-48.07,9.01-.43.08-.91.14-1.7.26-.06-.41-.14-.69-.13-.96.2-5.78.43-11.56.59-17.33h.01ZM539.2,128.17c-.92-.14-1.67-.24-2.33-.37-15.71-2.97-31.41-5.95-47.14-8.9-1.68-.32-2.38-.66-2.39-1.3-.09-5.86-.3-11.72-.45-17.58-.01-.23.09-.47.17-.8.8.12,1.46.2,2.03.31,15.8,2.99,31.6,5.99,47.43,8.96,1.69.32,2.4.66,2.4,1.3.1,5.86.3,11.72.46,17.58,0,.23-.09.47-.17.8h-.01ZM487.03,97.35c.19-5.74.44-11.48.58-17.23.02-.65.46-1.08,2.37-1.43,15.75-2.93,31.43-5.9,47.15-8.86.68-.13,1.45-.24,2.44-.39.06.43.15.77.14,1.11-.19,5.67-.45,11.33-.56,17.01-.01.8-.8,1.25-2.97,1.65-15.36,2.86-30.65,5.75-45.96,8.63-.87.17-1.78.33-2.98.55-.09-.44-.21-.75-.2-1.05h-.01ZM487.88,58.82c-.18-6.42-.37-12.75-.55-19.03.32-.06.42-.08.52-.09h.05c.6.09,1.2.18,1.77.28,16.48,3.12,32.96,6.23,49.53,9.37.18,6.37.36,12.7.55,19.29-17.62-3.33-34.63-6.54-51.87-9.8v-.02ZM488.46,59.81c16.13,2.94,32.33,5.84,48.5,8.76.48.09.92.2,1.68.38-.87.2-1.52.39-2.25.52-15.9,2.85-31.8,5.7-47.68,8.56-.78.14-1.5.24-2.23.26-.68,0-1.39-.04-2.19-.19-16.14-2.94-32.33-5.85-48.5-8.76-.45-.08-.87-.19-1.75-.4.76-.18,1.3-.32,1.88-.43.19-.04.38-.07.56-.1,2.76-.49,5.52-.99,8.28-1.48,13.1-2.34,26.21-4.68,39.29-7.04.78-.14,1.5-.24,2.23-.27.68,0,1.38.04,2.18.18h0ZM485.3,57.92c-.01.65-.53,1.07-2.42,1.42-15.76,2.94-31.46,5.91-47.18,8.87-.6.12-1.27.21-2.07.34-.19-.22-.44-.41-.43-.59.18-5.97.44-11.94.58-17.9,0-.17.08-.32.21-.44h0c.4-.38,1.34-.59,2.51-.81,12.57-2.35,25.12-4.7,37.68-7.05,3.67-.69,7.38-1.36,11.53-2.12.09.39.19.67.18.94-.2,5.78-.44,11.57-.59,17.35h0ZM435.05,69.69c16.01,3.02,31.99,6.05,47.99,9.06,1.3.25,2.02.51,2.04,1.03.11,6.04.29,12.08.45,18.12,0,.1-.08.2-.21.45-1.05-.17-1.91-.29-2.68-.44-15.5-2.93-30.98-5.87-46.52-8.77-1.79-.33-2.61-.69-2.62-1.37-.08-5.82-.29-11.64-.45-17.46,0-.25.05-.5.1-.85.72.07,1.37.12,1.9.22h0ZM434.72,89.73c15.73,2.87,31.52,5.7,47.29,8.55.78.14,1.5.31,2.55.53-1.02.22-1.7.4-2.46.53-15.9,2.85-31.8,5.69-47.69,8.56-.82.15-1.56.23-2.31.24-.66,0-1.34-.07-2.11-.21-15.93-2.9-31.93-5.77-47.9-8.65-.64-.11-1.24-.26-2.25-.48.92-.2,1.64-.37,2.39-.52.33-.06.65-.12.97-.18,14.58-2.61,29.17-5.21,43.72-7.84.94-.17,1.88-.34,2.82-.51.88-.16,1.67-.25,2.46-.27.79,0,1.59.07,2.52.24h0ZM344.59,132.68c6.75,1.28,13.52,2.55,20.28,3.82,4.78.92,8.66,1.69,10.69,2.12.46.16.79.34.99.55.18,6.17.36,12.4.54,18.89-.44-.07-.8-.13-1.17-.19-16.9-3.19-33.17-6.27-49.48-9.35-.7-.21-1.13-.45-1.36-.75-.17-6.16-.35-12.28-.53-18.43.01-.07.02-.13.03-.2,2.13.29,10.53,1.79,20.01,3.54h0ZM324.72,127.34c.19-5.85.42-11.7.6-17.56.01-.52.32-.89,1.87-1.18,16.34-3.05,32.63-6.13,48.94-9.19.02,0,.05,0,.08-.01.24-.04.53-.07,1.05-.13.08.37.16.65.16.92-.2,5.81-.44,11.63-.59,17.44-.02.58-.55.94-2.17,1.24-16.14,3.01-32.24,6.05-48.35,9.08-.32.06-.73.11-1.28.19-.13-.3-.31-.55-.3-.81h0ZM375.9,137.74c-16.15-2.94-32.35-5.85-48.54-8.77-.5-.09-.95-.2-1.77-.38.84-.21,1.45-.41,2.18-.54,15.91-2.86,31.83-5.71,47.73-8.57.27-.05.52-.08.78-.12.94-.12,1.82-.15,2.78-.07.29.03.57.06.87.12,16.05,2.92,32.16,5.81,48.24,8.71.66.12,1.23.29,2.12.5-1.15.24-1.96.43-2.82.58-15.71,2.82-31.44,5.63-47.13,8.46-.83.15-1.58.25-2.36.27-.64,0-1.31-.05-2.06-.18h-.02ZM379.1,139.5c0-.1.07-.18.12-.26.3-.36.95-.64,1.99-.88.19-.04.37-.08.58-.12,12.56-2.34,25.11-4.7,37.67-7.05,3.66-.68,7.37-1.36,11.57-2.13.03.03.05.07.08.1.05.41.12.73.11,1.04-.2,5.67-.46,11.34-.56,17.02-.01.8-.82,1.25-2.98,1.66-15.38,2.86-30.66,5.76-46,8.65-.75.14-1.56.29-2.52.46-.05,0-.13,0-.19.02-.21-.28-.45-.5-.45-.71.19-5.93.44-11.86.58-17.79h0ZM431.07,128.18c-.85-.15-1.68-.3-2.52-.45-16.63-3.14-32.87-6.21-49.15-9.29-.18-6.37-.36-12.68-.55-19.15.18.02.35.04.52.06.7.09,1.32.16,1.82.26,15.82,2.98,31.61,5.98,47.44,8.95,1.46.27,2.13.57,2.13,1.12.12,5.97.32,11.94.48,17.91,0,.13-.07.27-.17.6h0ZM378.9,97.2c.19-5.67.46-11.34.56-17,0-.8.78-1.25,2.96-1.66,15.27-2.84,30.44-5.71,45.66-8.58.51-.1,1.03-.19,1.59-.29.48-.08,1.01-.16,1.71-.27.1.41.22.71.2,1-.19,5.74-.43,11.48-.58,17.23-.02.64-.4,1.08-2.32,1.44-15.96,2.97-31.85,5.97-47.77,8.96-.5.09-1.08.17-1.92.29-.04-.48-.09-.8-.08-1.11h-.01ZM413.13,65.17c-8.39-1.58-16.78-3.17-25.17-4.75-3.38-.66-6.08-1.21-7.66-1.56-.24-.09-.43-.2-.55-.32-.18-6.2-.36-12.45-.54-18.72.02-.03.03-.06.05-.1,1.91.24,8.8,1.45,17.01,2.95,9.75,1.84,19.44,3.67,29.16,5.51,2.58.51,4.61.93,5.79,1.2.18,6.3.36,12.66.55,19.03-1.96-.24-9.66-1.6-18.62-3.25h-.02ZM381.23,59.98c15.44,2.82,30.95,5.59,46.43,8.39.97.18,1.89.37,3.21.64-1.19.26-1.98.45-2.84.6-15.71,2.82-31.45,5.62-47.14,8.45-.68.12-1.3.19-1.93.24-.54.02-1.08.01-1.64-.03-.37-.04-.75-.08-1.16-.16-15.94-2.9-31.95-5.77-47.94-8.66-.62-.11-1.19-.26-2.15-.48.83-.19,1.45-.36,2.13-.49.2-.04.39-.07.57-.1,15.61-2.8,31.25-5.59,46.81-8.41.52-.09,1.01-.16,1.48-.21.1,0,.2-.01.29-.02.3-.02.59-.04.88-.04.96,0,1.91.09,2.99.29h0ZM377.17,57.89c-.01.66-.6,1.07-2.46,1.41-15.76,2.94-31.47,5.91-47.19,8.86-.6.11-1.27.21-2.13.35-.14-.32-.33-.58-.32-.84.2-5.82.43-11.64.59-17.46.01-.48.33-.83,1.21-1.12.04,0,.06-.03.1-.04.25-.08.57-.15.91-.22.11-.02.19-.05.31-.07,15.84-2.95,31.62-5.93,47.43-8.9.43-.08.92-.14,1.59-.24.12-.02.26-.03.4-.05.07.41.16.69.15.96-.19,5.78-.44,11.57-.58,17.35h0ZM336.32,71.47c12.9,2.44,25.58,4.84,38.36,7.25.95.2,1.69.36,2.21.48.18,6.33.36,12.65.55,18.99-1.94-.24-9.65-1.6-18.61-3.24-8.62-1.63-17.19-3.25-25.75-4.86-3.49-.69-6.19-1.24-7.52-1.55-.17-6.21-.36-12.48-.54-18.98,1,.1,5.4.85,11.29,1.91h.01ZM326.44,89.67c15.83,2.89,31.73,5.74,47.6,8.6.69.13,1.33.27,2.32.47-.79.2-1.33.36-1.96.48-16.1,2.89-32.21,5.77-48.28,8.68-.3.06-.59.09-.87.13-.91.07-1.79.06-2.73-.04-.17-.03-.34-.04-.52-.07-16.14-2.93-32.34-5.84-48.51-8.76-.45-.08-.87-.19-1.76-.39.75-.18,1.28-.32,1.85-.43.31-.06.6-.11.89-.16,15.77-2.82,31.54-5.64,47.31-8.48.78-.14,1.49-.22,2.2-.24.77,0,1.56.06,2.46.22h0ZM219.45,129.5c15.51,2.93,31,5.87,46.53,8.79,1.63.3,2.49.62,2.5,1.28.08,5.86.29,11.72.44,17.57,0,.23-.1.47-.21.86-16.94-3.2-33.49-6.33-50.13-9.47-.77-.22-1.27-.47-1.52-.79-.17-6.16-.35-12.28-.52-18.56,0-.05,0-.09,0-.14,1.26.2,2.11.32,2.89.46h.01ZM216.6,126.91c.2-5.63.45-11.26.55-16.89.02-.79.74-1.26,2.92-1.66,10.86-2.02,21.68-4.06,32.5-6.1,4.71-.89,9.42-1.78,14.14-2.66.32-.06.67-.12,1.02-.19.34-.06.72-.11,1.28-.19.13.36.28.61.26.87-.19,5.81-.43,11.63-.59,17.45-.01.62-.53,1.01-2.29,1.33-15.95,2.97-31.85,5.97-47.76,8.96-.51.1-1.1.17-1.97.3-.03-.51-.08-.86-.07-1.21h0ZM268.78,137.88c-.34-.04-.69-.08-1.07-.15-15.93-2.9-31.93-5.77-47.91-8.65-.63-.12-1.23-.26-2.26-.48.97-.21,1.71-.39,2.48-.54.29-.05.57-.1.86-.16,15.5-2.77,31.02-5.54,46.5-8.34.9-.16,1.7-.26,2.5-.28.78,0,1.59.07,2.52.24,15.72,2.87,31.52,5.7,47.29,8.55.77.14,1.5.31,2.56.53-1,.22-1.67.39-2.43.53-15.9,2.85-31.81,5.7-47.68,8.56-.62.11-1.18.18-1.75.21-.53.02-1.06,0-1.6-.03h0ZM270.99,139.76c.02-.62.45-1.04,1.83-1.39.2-.05.4-.1.63-.14.09-.02.18-.04.28-.06,15.78-2.93,31.48-5.9,47.2-8.86.29-.05.59-.1.93-.15.27-.04.54-.08.89-.13.15.27.36.49.35.71-.2,5.9-.43,11.79-.59,17.68-.01.57-.52.94-2.15,1.25-16.05,3-32.07,6.02-48.09,9.03-.42.08-.91.14-1.72.26-.06-.46-.15-.77-.14-1.08.2-5.71.44-11.42.58-17.13h0ZM323.04,128.2c-1.33-.23-2.27-.4-3.18-.57-15.21-2.87-30.37-5.76-45.63-8.6-2.16-.4-3.04-.83-3.05-1.64-.06-5.67-.27-11.34-.42-17.02-.01-.34.06-.69.11-1.15.94.13,1.7.23,2.36.35,15.7,2.96,31.39,5.94,47.11,8.89,1.65.31,2.44.64,2.45,1.29.08,5.85.29,11.71.44,17.57.01.23-.09.47-.19.87h0ZM270.89,97.5c.19-5.82.43-11.64.6-17.46,0-.28.11-.52.38-.73.08-.05.17-.1.27-.15.06-.03.13-.06.2-.09.14-.06.29-.11.47-.17.25-.07.51-.14.86-.21,15.96-2.97,31.86-5.97,47.78-8.96.37-.06.78-.13,1.23-.2.21-.03.46-.06.74-.1.02.03.04.06.06.1.04.41.1.71.09,1-.2,5.71-.45,11.42-.59,17.13-.02.69-.49,1.14-2.51,1.52-15.67,2.91-31.27,5.87-46.89,8.81-.68.13-1.44.24-2.39.39-.14-.34-.31-.6-.31-.87h.01ZM320.8,68.08c-16.68-3.15-32.82-6.2-49.05-9.27-.18-6.33-.35-12.63-.54-19.18.79.11,1.42.18,1.98.26,16.7,3.15,32.82,6.2,49,9.26.42.12.7.26.89.42.18,6.28.35,12.53.54,19.01-.96-.16-1.88-.34-2.83-.5h0ZM273.23,59.96c15.43,2.83,30.95,5.6,46.43,8.39.9.16,1.75.34,2.92.58-.77.2-1.28.38-1.91.5-16.1,2.89-32.23,5.78-48.33,8.68-.24.04-.47.07-.71.11-1.03.09-2.03.08-3.12-.04-16.45-2.99-32.94-5.96-49.41-8.94-.28-.05-.52-.13-1.1-.28.48-.13.89-.23,1.27-.33.31-.07.6-.13.89-.19,14.91-2.67,29.84-5.34,44.71-8.03.81-.15,1.62-.29,2.43-.44.54-.1,1.04-.17,1.52-.22.07,0,.13-.01.2-.02.31-.03.62-.04.93-.05,1.04-.01,2.08.07,3.29.29h-.01ZM269.16,58.04c-.02.52-.4.88-1.93,1.17-16.34,3.05-32.64,6.12-48.96,9.19-.24.04-.55.07-1.07.13-.07-.39-.15-.67-.13-.95.2-5.78.44-11.56.59-17.34.02-.61.46-1.01,2.25-1.34,15.95-2.97,31.84-5.98,47.75-8.97.51-.09,1.08-.18,1.77-.28.14.27.35.49.34.72-.2,5.89-.43,11.78-.6,17.67h0ZM217.14,69.34c17.45,3.3,34.5,6.52,51.75,9.78.18,6.36.37,12.72.56,19.2-.81-.08-1.47-.14-2.01-.24-16.01-3.02-32.01-6.05-48.03-9.07-1.29-.24-2.02-.51-2.03-1.03-.1-6.04-.29-12.09-.44-18.13,0-.1.07-.21.2-.51h0ZM218.87,89.78c15.54,2.84,31.16,5.63,46.74,8.44.87.16,1.7.34,2.87.59-.98.23-1.64.41-2.39.55-15.92,2.85-31.85,5.7-47.75,8.56-.35.06-.68.11-1.01.16-.89.08-1.75.07-2.68-.02-.14-.02-.28-.03-.43-.06-6.5-1.18-13.02-2.35-19.54-3.53v.03c-9.39-1.7-18.79-3.39-28.18-5.08-.88-.16-1.72-.34-2.9-.58.95-.22,1.61-.41,2.35-.54,9.58-1.72,19.15-3.44,28.72-5.16h0c6.18-1.11,12.37-2.22,18.54-3.34,1.02-.19,1.92-.28,2.82-.29.9,0,1.8.1,2.82.28h.02ZM110.41,129.26c16.1,3.04,32.18,6.08,48.29,9.12,1.31.25,2,.52,2,1.04.12,6.04.3,12.08.45,18.12,0,.11-.1.22-.25.5-1.24-.2-2.15-.33-3.02-.5-15.5-2.92-30.98-5.87-46.51-8.78-1.78-.33-2.59-.68-2.59-1.38-.08-5.82-.28-11.64-.44-17.45,0-.26.06-.51.11-.86.77.07,1.44.09,1.96.19h0ZM108.48,127.06c.2-5.67.45-11.34.56-17.02,0-.78.69-1.26,2.91-1.68,15.49-2.87,30.88-5.78,46.32-8.68.86-.16,1.78-.29,3.07-.5.07.48.18.83.17,1.18-.2,5.67-.45,11.35-.56,17.02,0,.79-.72,1.26-2.93,1.67-15.37,2.86-30.67,5.76-45.99,8.65-.95.18-1.91.35-3.37.62-.08-.55-.19-.9-.18-1.26h0ZM158.76,137.59c-15.52-2.84-31.13-5.63-46.69-8.44-.86-.16-1.67-.35-2.93-.62,1.36-.25,2.32-.43,3.28-.6,15.6-2.79,31.23-5.57,46.79-8.39,1.96-.35,3.4-.36,5.37,0,9.9,1.81,19.83,3.6,29.76,5.39v.02c5.93,1.07,11.86,2.14,17.79,3.21.58.1,1.1.24,2.19.48-.08.02-.13.03-.21.04-1.29.24-2.15.39-2.99.55-5.59,1-11.18,2.01-16.77,3.01v.05c-9.88,1.77-19.75,3.54-29.59,5.33-2.18.4-3.82.39-5.99,0v-.03ZM162.89,139.6c0-.58.56-.94,2.18-1.24,9.9-1.85,19.76-3.71,29.63-5.57h0c5.67-1.06,11.34-2.13,17.01-3.19.51-.1,1.02-.19,1.58-.29.44-.08.92-.15,1.66-.26.08.45.17.75.16,1.05-.19,5.74-.44,11.49-.59,17.23,0,.66-.57,1.07-2.43,1.42-5.92,1.1-11.82,2.21-17.73,3.33v.05c-10.24,1.92-20.49,3.84-30.72,5.76-.19.04-.44.04-1.17.11-.07-.34-.16-.58-.15-.83.2-5.85.43-11.7.59-17.56h-.02ZM196.25,124.7c-11.1-2.1-22.08-4.18-33.09-6.26-.19-6.35-.37-12.72-.55-19.09,1.56.1,17.69,3.02,31.73,5.66v.1c6.05,1.14,12.11,2.29,18.17,3.43.87.18,1.57.33,2.08.45.18,6.32.37,12.65.55,18.99-1.95-.23-9.81-1.62-18.89-3.28ZM162.64,97.61c.19-5.89.45-11.79.58-17.68.02-.71,1.03-1.04,2.76-1.36,14.07-2.62,28.11-5.25,42.16-7.88,2.05-.38,4.14-.76,6.63-1.22.14-.02.28-.04.44-.06.1.37.25.67.24.96-.19,5.78-.42,11.57-.59,17.35-.02.59-.36,1.02-2.17,1.36-6.13,1.14-12.23,2.29-18.34,3.44v.05c-9.63,1.81-19.26,3.62-28.88,5.43-.68.13-1.41.23-2.41.39-.16-.3-.42-.53-.41-.77h-.01ZM164.55,59.85c9.91,1.8,19.85,3.59,29.79,5.38v.03c6.01,1.08,12.02,2.17,18.03,3.25.68.12,1.29.27,2.45.52h-.02c-1.47.27-2.36.44-3.25.6-5.74,1.03-11.48,2.06-17.21,3.09v.05c-9.83,1.76-19.67,3.52-29.48,5.29-1.79.32-3.18.37-5.07.03-15.93-2.9-31.93-5.77-47.91-8.65-.58-.1-1.13-.24-2.02-.42.88-.21,1.5-.4,2.22-.53,16-2.87,32.02-5.73,48-8.61,1.57-.28,2.82-.34,4.47-.04h0ZM161.29,57.89c-.02.67-.68,1.07-2.5,1.41-15.85,2.95-31.65,5.94-47.47,8.9-.59.11-1.22.2-2.11.34-.15-.28-.4-.52-.39-.75.2-5.89.42-11.78.61-17.67.02-.52.39-.89,1.91-1.18,16.34-3.05,32.64-6.12,48.95-9.19.29-.05.64-.08,1.41-.17.07.41.17.69.16.98-.2,5.78-.45,11.56-.58,17.33h0ZM112.08,69.9c15.51,2.93,31,5.87,46.53,8.78,1.65.31,2.46.64,2.46,1.29.09,5.86.29,11.72.46,17.58,0,.22-.05.44-.08.63-.2.04-.3.07-.4.08-.09.01-.23.03-.31.02-.63-.09-1.27-.18-1.86-.29-16.49-3.11-32.98-6.23-49.55-9.37-.18-6.38-.37-12.71-.55-19.27,1.51.24,2.44.37,3.29.54h0ZM110.9,89.74c15.64,2.85,31.35,5.67,47.03,8.49.79.14,1.52.32,2.9.6-1.53.28-2.51.47-3.49.64-15.52,2.78-31.04,5.55-46.53,8.34-1.72.31-3.11.46-5.08.11-16.04-2.93-32.15-5.82-48.23-8.72-.59-.1-1.13-.24-1.99-.43.87-.21,1.52-.41,2.27-.54,15.8-2.84,31.64-5.66,47.4-8.52,2.1-.38,3.66-.35,5.7.02h.02ZM54.76,139.65c.02-.6.42-1.01,2.22-1.34,15.95-2.97,31.84-5.98,47.74-8.97.59-.11,1.23-.2,2.23-.36.09.38.25.69.24,1-.2,5.78-.44,11.56-.6,17.34-.02.6-.4,1.02-2.19,1.35-16.06,2.99-32.06,6.01-48.07,9.01-.49.09-1.03.16-2.04.31-.06-.44-.15-.73-.14-1.01.2-5.78.43-11.56.59-17.33h.02ZM50.94,137.65c-15.53-2.84-31.15-5.63-46.73-8.44-.88-.16-1.72-.35-2.9-.59.96-.22,1.61-.41,2.35-.54,15.8-2.84,31.64-5.66,47.42-8.52,1.92-.35,3.39-.39,5.39-.03,15.74,2.87,31.55,5.71,47.34,8.56.78.14,1.5.31,2.88.6-1.56.29-2.53.47-3.51.65-15.42,2.76-30.86,5.5-46.23,8.29-2.13.39-3.76.44-5.99.03h-.02ZM107.17,128.21c-1.09-.17-1.92-.27-2.67-.42-15.71-2.97-31.41-5.95-47.14-8.9-1.68-.32-2.38-.66-2.39-1.3-.09-5.86-.3-11.72-.46-17.58-.01-.25.1-.49.18-.85.99.15,1.71.24,2.36.36,15.8,2.99,31.6,5.99,47.43,8.96,1.69.32,2.4.66,2.4,1.3.1,5.86.3,11.72.46,17.58,0,.25-.1.49-.18.85h0ZM54.67,97.35c.19-5.74.44-11.48.58-17.23.02-.65.46-1.08,2.37-1.43,15.75-2.93,31.43-5.9,47.15-8.86.76-.14,1.59-.25,2.77-.44.06.46.16.81.15,1.17-.19,5.67-.45,11.33-.56,17.01,0,.8-.8,1.25-2.97,1.65-15.36,2.86-30.65,5.75-45.96,8.63-.96.18-1.93.36-3.31.61-.1-.48-.22-.79-.21-1.11h-.01ZM55.52,58.82c-.18-6.42-.37-12.75-.55-19.03.32-.06.42-.08.52-.09s.24-.03.32-.02c.62.1,1.26.18,1.86.29,16.48,3.12,32.96,6.23,49.53,9.37.18,6.39.36,12.75.55,19.35-17.74-3.35-34.87-6.59-52.22-9.87h-.01ZM56.45,59.81c16.13,2.94,32.33,5.84,48.5,8.76.48.09.91.2,1.68.38-.87.2-1.52.39-2.25.52-15.9,2.85-31.8,5.7-47.68,8.56-1.62.29-2.95.41-4.78.07-16.14-2.94-32.33-5.85-48.5-8.76-.48-.09-.92-.21-1.95-.44,1.35-.25,2.23-.41,3.1-.57,15.71-2.81,31.42-5.62,47.11-8.44,1.61-.29,2.93-.42,4.76-.09h.01ZM50.28,97.91c-15.5-2.93-30.98-5.87-46.52-8.77-1.79-.33-2.61-.69-2.62-1.37-.08-5.82-.29-11.64-.45-17.46,0-.26.05-.51.1-.88.88.1,1.63.14,2.25.26,16.01,3.02,31.99,6.05,47.99,9.06,1.3.25,2.02.51,2.04,1.03.11,6.04.29,12.08.45,18.12,0,.11-.09.21-.23.5-1.23-.2-2.15-.33-3-.49h0ZM.9,110.03c0-.85.87-1.32,3.16-1.74,15.59-2.89,31.09-5.82,46.62-8.74.66-.13,1.42-.21,2.46-.37.11.37.26.64.26.91-.2,5.82-.43,11.64-.59,17.46-.02.61-.47,1.01-2.25,1.34-15.87,2.95-31.67,5.94-47.5,8.92-.67.13-1.39.22-2.61.41-.05-.52-.11-.85-.1-1.17.2-5.67.46-11.35.55-17.02ZM.85,148.16c-.18-6.3-.36-12.66-.54-19.28,17.83,3.37,34.9,6.6,52.21,9.87.19,6.35.37,12.71.56,19.08-2.59-.14-45.29-8.08-52.22-9.68h0ZM0,186.76c.19-5.74.44-11.48.58-17.22.02-.66.53-1.07,2.4-1.42,15.75-2.94,31.43-5.91,47.15-8.86.75-.15,1.57-.25,2.69-.43.08.42.21.74.2,1.05-.2,5.71-.47,11.41-.56,17.12-.01.8-.85,1.25-3,1.65-15.26,2.84-30.45,5.71-45.65,8.57-1.07.2-2.13.39-3.59.66-.1-.49-.22-.81-.21-1.13h-.01ZM103.5,188.75c-15.91,2.86-31.83,5.7-47.73,8.56-1.53.28-2.78.38-4.46.07-16.25-2.95-32.56-5.88-48.85-8.83-.47-.08-.87-.21-1.7-.4,1.11-.23,1.76-.39,2.45-.51,15.61-2.8,31.25-5.58,46.81-8.41,2.39-.44,4.19-.45,6.62,0,15.32,2.81,30.74,5.56,46.12,8.34.97.18,1.9.38,3.22.64-1.05.23-1.72.41-2.48.55h0ZM54.68,178.06c-.19-6.36-.37-12.72-.55-19.11,3.01.24,43.58,7.78,52.21,9.68.19,6.3.37,12.66.56,19.3-17.84-3.37-34.92-6.6-52.22-9.87h0ZM105.34,167.56c-16.04-2.92-32.13-5.81-48.21-8.7-.58-.1-1.1-.24-1.97-.43,1.05-.23,1.83-.42,2.67-.58,15.81-2.83,31.62-5.66,47.4-8.5,1.64-.29,2.96-.39,4.76-.06,16.03,2.92,32.13,5.81,48.2,8.71.58.1,1.1.24,2.21.48-1.31.24-2.1.39-2.9.53-15.8,2.83-31.62,5.65-47.4,8.5-1.65.3-2.97.38-4.76.05h0ZM107.99,186.91c.19-5.82.43-11.64.6-17.46,0-.6.37-1.02,2.18-1.36,16.06-2.99,32.07-6.02,48.09-9.03.48-.09,1.02-.14,2.02-.27.06.44.15.73.14,1.02-.2,5.79-.42,11.57-.59,17.35-.02.6-.39,1.01-2.2,1.35-15.97,2.97-31.88,5.98-47.8,8.97-.57.11-1.2.19-2.13.33-.13-.36-.33-.63-.32-.9h.01ZM210.7,188.91c-5.45.98-10.9,1.95-16.35,2.93v.06c-10,1.79-19.99,3.57-29.96,5.38-2.03.37-3.57.41-5.69.02-15.63-2.86-31.35-5.67-47.04-8.5-.8-.14-1.55-.31-2.62-.53.72-.2,1.22-.38,1.85-.49,16.1-2.89,32.22-5.78,48.33-8.68,1.42-.26,2.62-.35,4.16-.07,10.31,1.87,20.64,3.73,30.96,5.6v.02c5.58,1.01,11.16,2.01,16.74,3.02.86.16,1.64.35,2.94.63-1.41.26-2.36.44-3.33.61h0ZM214.6,187.75c-.43-.04-.81-.08-1.16-.12-6.29-1.19-12.53-2.37-18.75-3.54v.04c-10.01-1.89-20.03-3.79-30.05-5.68-1.3-.25-2.02-.51-2.03-1.03-.11-6.04-.29-12.09-.46-18.13,0-.11.09-.22.13-.32,1.52.07,17.78,3,32.05,5.7v.12c5.85,1.11,11.69,2.21,17.55,3.31,1.67.31,2.39.66,2.41,1.3.09,5.86.3,11.72.46,17.58,0,.21-.08.44-.16.78h0ZM215.46,167.67h-.24c-.35,0-.7-.04-1.06-.07-.52-.05-1.05-.13-1.63-.23-5.93-1.09-11.9-2.16-17.85-3.24v.03c-9.35-1.69-18.7-3.37-28.05-5.06-1.09-.2-2.15-.39-3.61-.67,1.03-.25,1.67-.44,2.42-.57,9.74-1.75,19.5-3.49,29.24-5.24h0c6.07-1.09,12.14-2.17,18.19-3.27.15-.02.29-.05.43-.07.16-.03.31-.05.47-.07,1.07-.13,2.06-.16,3.14-.07.37.04.73.09,1.13.16,15.84,2.89,31.76,5.74,47.64,8.61.67.12,1.29.28,2.45.54-2.89.53-5.27.98-7.67,1.41-13.9,2.49-27.83,4.96-41.69,7.48-1.2.22-2.26.34-3.34.34h.03ZM216.22,187.08c.19-5.93.45-11.86.58-17.79,0-.1.07-.17.12-.25.33-.38,1.04-.67,2.14-.92.15-.03.28-.06.45-.09,12.57-2.34,25.12-4.7,37.67-7.05,3.68-.69,7.4-1.36,11.54-2.12.1.34.22.58.22.81-.2,5.86-.45,11.71-.59,17.57-.02.63-.7,1-2.41,1.32-15.86,2.96-31.66,5.95-47.48,8.93-.51.1-1.09.18-1.81.29-.18-.26-.43-.48-.43-.7h0ZM319.38,188.71c-15.9,2.85-31.81,5.7-47.69,8.56-.82.15-1.57.24-2.33.25-.65,0-1.33-.06-2.09-.2-16.03-2.92-32.13-5.81-48.2-8.71-.58-.11-1.11-.24-2.22-.48,1.58-.29,2.67-.5,3.77-.69,14.36-2.57,28.73-5.13,43.05-7.72,1.06-.19,2.13-.38,3.19-.57.46-.08.89-.14,1.31-.19.05,0,.11,0,.16-.02.3-.03.6-.04.9-.05.92,0,1.84.06,2.9.26,15.51,2.84,31.12,5.63,46.69,8.44.87.16,1.71.34,2.91.59-.96.22-1.63.4-2.37.53h.02ZM320.36,187.39c-15.69-2.97-31.37-5.94-47.09-8.89-1.66-.31-2.41-.65-2.42-1.29-.09-5.82-.29-11.64-.45-17.45,0-.26.1-.52.19-.92.51.08.98.16,1.39.23,16.51,3.12,32.68,6.18,48.95,9.25.63.18,1.05.38,1.3.62.18,6.24.36,12.45.54,18.87-1.14-.19-1.81-.29-2.43-.41h.02ZM323.81,167.75c-.79,0-1.59-.08-2.52-.25-15.74-2.87-31.55-5.7-47.33-8.55-.76-.14-1.48-.31-2.49-.52.25-.07.48-.14.69-.2.55-.14,1.06-.26,1.58-.35,13.13-2.36,26.27-4.71,39.39-7.08,2.72-.49,5.44-.98,8.15-1.46.38-.07.75-.12,1.11-.16.05,0,.1,0,.15-.02.35-.04.69-.05,1.03-.06.82,0,1.66.07,2.62.24,15.74,2.87,31.55,5.7,47.34,8.55.74.13,1.45.3,2.7.56.05,0,.09.02.14.04-1.44.26-2.31.43-3.19.59-15.61,2.79-31.25,5.58-46.83,8.4-.91.16-1.71.25-2.52.27h-.02ZM324.23,186.65c.21-5.7.44-11.41.59-17.11.01-.39.14-.71.69-.98.05-.02.1-.04.15-.07.14-.06.3-.12.49-.17.27-.08.55-.15.92-.22h.05c15.85-2.95,31.64-5.94,47.45-8.91.12-.02.26-.04.38-.06.51-.08,1.05-.16,1.71-.26.12.32.27.59.26.85-.2,5.82-.44,11.63-.59,17.45-.02.61-.51,1.01-2.28,1.33-15.95,2.97-31.85,5.97-47.77,8.96-.51.1-1.09.17-1.95.3-.05-.47-.12-.78-.11-1.09v-.02ZM429.46,188.4c-1.07.2-1.91.35-2.73.5-15.5,2.78-31.03,5.54-46.48,8.35-1.12.2-2.1.28-3.08.27-.81-.03-1.63-.11-2.56-.28-15.52-2.84-31.12-5.63-46.7-8.44-.86-.16-1.66-.35-2.75-.59,1.18-.24,2-.42,2.88-.58,13.04-2.34,26.09-4.67,39.11-7.01,2.67-.48,5.34-.95,8-1.43.15-.03.3-.04.45-.07.26-.04.53-.08.78-.11.15-.02.29-.02.44-.03.24-.02.49-.03.73-.04.83,0,1.66.09,2.61.26,15.63,2.85,31.33,5.67,47,8.49.85.15,1.63.35,2.83.6-.2.04-.36.08-.53.12h0ZM430.76,187.72c-.71-.07-1.35-.12-1.88-.21-16.01-3.02-31.99-6.05-47.99-9.06-1.3-.25-2.04-.51-2.04-1.03-.11-6.04-.3-12.08-.45-18.12,0-.1.08-.21.21-.46,1.05.17,1.9.29,2.67.44,15.51,2.93,31,5.86,46.51,8.78.71.13,1.3.27,1.76.43.06.02.14.05.19.07.43.19.69.42.7.75.07,5.93.29,11.86.45,17.79.01.17-.06.35-.13.62h0ZM431.52,167.67c-.91-.02-1.83-.12-2.87-.31-15.41-2.82-30.92-5.6-46.38-8.39-.88-.16-1.71-.35-2.91-.59.87-.2,1.44-.35,2.09-.47,16.1-2.89,32.22-5.76,48.3-8.66.28-.05.55-.09.82-.12.76-.09,1.48-.1,2.22-.04.25.03.5.05.77.1,16.35,2.97,32.73,5.92,49.1,8.88.38.07.69.17,1.51.38-1.43.26-2.41.45-3.41.62-15.39,2.76-30.82,5.51-46.15,8.3-1.13.21-2.11.3-3.09.3h0ZM432.56,187.8c-.09-.44-.2-.74-.19-1.04.19-5.74.44-11.48.58-17.22.02-.66.53-1.07,2.4-1.42,15.75-2.94,31.43-5.91,47.15-8.86.67-.13,1.42-.23,2.36-.38.08.39.19.7.18,1-.2,5.71-.47,11.41-.56,17.12-.01.8-.85,1.25-3,1.65-15.26,2.84-30.45,5.71-45.65,8.57-.88.17-1.78.33-2.89.53-.11,0-.24.03-.37.04h0ZM535.51,188.75c-15.91,2.86-31.83,5.7-47.73,8.56-.74.13-1.41.22-2.1.25-.63,0-1.28-.04-2.02-.17-16.25-2.95-32.56-5.88-48.85-8.83-.44-.08-.83-.19-1.56-.37.68-.17,1.24-.34,1.85-.46.15-.03.3-.06.45-.09,15.61-2.8,31.25-5.58,46.81-8.41,1.13-.21,2.13-.31,3.13-.32.99,0,2,.11,3.14.32,15.32,2.81,30.74,5.56,46.12,8.34.97.18,1.9.38,3.22.64-1.05.23-1.72.41-2.48.55h.02ZM487.04,178.06c-.19-6.35-.36-12.69-.55-19.07,4.91.62,43.47,7.79,51.86,9.64.19,6.28.36,12.62.56,19.23-17.72-3.35-34.68-6.55-51.87-9.8h0ZM539.89,167.76c-.69,0-1.39-.05-2.19-.2-16.04-2.92-32.13-5.81-48.21-8.7-.58-.1-1.1-.24-1.97-.43,1.04-.23,1.83-.42,2.67-.58,15.81-2.83,31.62-5.66,47.4-8.5.79-.14,1.5-.23,2.23-.26.68,0,1.39.05,2.19.2,16.03,2.92,32.13,5.81,48.2,8.71.58.1,1.1.24,2.21.48-1.31.24-2.1.39-2.9.53-15.8,2.83-31.62,5.65-47.39,8.5-.79.14-1.5.23-2.22.25h-.02ZM540.35,186.91c.19-5.82.43-11.64.6-17.46.01-.6.37-1.02,2.18-1.36,16.06-2.99,32.07-6.02,48.09-9.03.42-.08.9-.13,1.68-.23.06.41.14.7.13.97-.2,5.79-.42,11.57-.59,17.35-.02.6-.39,1.01-2.2,1.35-15.97,2.97-31.88,5.98-47.8,8.97-.49.09-1.06.17-1.8.28-.13-.33-.31-.6-.3-.85h.01ZM642.94,188.93c-15.52,2.78-31.06,5.54-46.54,8.34-.96.17-1.81.27-2.66.28-.84,0-1.7-.09-2.68-.27-15.63-2.86-31.35-5.67-47.04-8.5-.8-.14-1.55-.31-2.61-.53.72-.2,1.22-.38,1.85-.49,16.1-2.89,32.22-5.78,48.33-8.68.68-.12,1.31-.2,1.96-.23.59,0,1.19.04,1.86.16,16.46,2.99,32.95,5.96,49.43,8.94.3.05.53.14,1.37.36-1.34.25-2.29.43-3.26.6v.02ZM646.96,187.75c-.77-.08-1.41-.13-1.94-.23-16.01-3.02-32.01-6.05-48.02-9.07-1.3-.25-2.02-.51-2.03-1.03-.11-6.04-.29-12.09-.46-18.13,0-.1.07-.19.12-.29,2.82.33,18.42,3.15,32.07,5.73v.05c4.26.8,8.51,1.61,12.77,2.41,2.51.5,4.63.93,6.15,1.26.4.14.71.3.86.5.18,6.16.36,12.29.53,18.54-.02.08-.04.17-.07.26h.02ZM647.69,167.68c-1.01-.02-2.03-.14-3.18-.35-15.11-2.78-30.33-5.5-45.51-8.24-1.09-.2-2.15-.39-3.61-.67,1.03-.25,1.67-.44,2.42-.57,15.71-2.82,31.45-5.62,47.12-8.47,1.05-.19,1.98-.29,2.91-.3.86,0,1.74.09,2.74.27,15.53,2.84,31.15,5.64,46.73,8.44.89.16,1.72.34,3.16.64-2.96.54-5.33.99-7.73,1.42-12.02,2.15-24.05,4.29-36.03,6.47-1.85.33-3.71.67-5.56,1-1.25.23-2.35.35-3.47.35h.01ZM648.63,187.74c-.08-.43-.16-.75-.15-1.05.19-5.68.47-11.35.54-17.02,0-.86.95-1.31,3.22-1.73,15.32-2.84,30.56-5.72,45.83-8.59.12-.02.25-.05.38-.07.73-.13,1.54-.25,2.63-.43v.02c.04.49.1.8.09,1.11-.2,5.67-.45,11.34-.57,17.02-.02.78-.71,1.26-2.91,1.67-.07,0-.15.03-.22.04-15.3,2.84-30.53,5.73-45.78,8.61-.4.07-.81.15-1.25.23-.49.08-1.03.16-1.75.27-.02-.03-.05-.06-.07-.09h0ZM751.63,188.72c-15.89,2.86-31.79,5.7-47.68,8.57-.31.06-.6.1-.9.14-.22.03-.44.05-.65.07h-.05c-.54.04-1.07.05-1.63,0-.38-.03-.77-.08-1.19-.16-16.03-2.92-32.12-5.81-48.2-8.71-.59-.11-1.11-.24-2.22-.49,1.38-.25,2.26-.42,3.16-.58,15.7-2.81,31.42-5.62,47.1-8.44.61-.11,1.17-.18,1.73-.22.57-.03,1.14-.02,1.73.03.31.03.61.06.95.13,16.04,2.92,32.14,5.81,48.21,8.71.58.1,1.11.24,2,.43-.94.21-1.61.39-2.35.52h0ZM754.91,187.83c-.35-.06-.67-.11-.94-.16-16.84-3.18-33.17-6.27-49.77-9.41-.5-.14-.82-.31-1.04-.5-.18-6.23-.36-12.49-.54-18.92,1.31.22,2.26.36,3.13.53,15.3,2.89,30.56,5.8,45.91,8.65,2.2.41,2.91.86,2.92,1.66.05,5.63.27,11.27.43,16.9,0,.34-.05.7-.09,1.25h0ZM756.04,167.76c-.84,0-1.7-.09-2.68-.26-15.63-2.86-31.35-5.67-47.03-8.5-.79-.14-1.55-.31-2.62-.52.73-.2,1.22-.38,1.84-.49,16.11-2.9,32.23-5.78,48.33-8.68.44-.08.85-.13,1.26-.17.63-.04,1.26-.03,1.93.03.21.03.41.04.63.08,16.46,2.99,32.95,5.96,49.43,8.94.3.05.53.14,1.37.37-1.34.25-2.3.42-3.26.6-15.52,2.78-31.06,5.54-46.54,8.34-.5.09-.97.16-1.43.21-.08,0-.16,0-.24.02-.33.03-.66.05-.98.06v-.03ZM756.66,187.75c-.09-.4-.2-.71-.19-1.01.2-5.74.45-11.48.58-17.22.02-.65.53-1.07,2.41-1.42,15.75-2.94,31.43-5.91,47.15-8.86.67-.13,1.42-.23,2.35-.37.08.39.2.7.19,1.01-.19,5.71-.46,11.41-.55,17.12-.02.8-.84,1.25-2.98,1.65-1.24.23-2.47.46-3.7.69-14.23,2.65-28.4,5.32-42.6,7.99-.77.14-1.61.27-2.63.43h-.03ZM859.74,188.77c-7.17,1.29-14.34,2.57-21.51,3.86-1.24.22-2.49.45-3.73.67-7.47,1.34-14.94,2.67-22.4,4.02-1.7.26-3.12.26-4.77,0-15.93-2.9-31.93-5.77-47.9-8.65-.58-.11-1.1-.24-2.2-.48,1.3-.24,2.09-.39,2.89-.53,15.8-2.83,31.61-5.66,47.4-8.5.78-.14,1.49-.23,2.21-.26.37,0,.75.02,1.14.05.34.03.69.07,1.06.14,16.04,2.92,32.13,5.81,48.21,8.71.57.1,1.1.24,1.97.43-.96.21-1.62.39-2.38.52h.01ZM862.99,187.74c-.35-.04-.69-.07-1.01-.1-.5-.07-.96-.14-1.38-.22-15.7-2.96-31.38-5.94-47.09-8.89-1.48-.28-2.42-.55-2.42-1.19-.08-5.93-.29-11.86-.45-17.78,0-.2.1-.4.21-.74.05,0,.08,0,.13.02,1.28.23,2.2.38,3.09.55,15.2,2.87,30.37,5.76,45.62,8.6,2.15.4,3.02.83,3.03,1.64.04,5.67.26,11.34.41,17.01.01.33-.07.66-.13,1.09h-.01ZM864.51,167.66c-.67.03-1.33.02-2.01-.05-.51-.05-1.03-.13-1.59-.23-15.41-2.82-30.92-5.59-46.38-8.39-.88-.16-1.71-.34-2.92-.59.87-.2,1.44-.35,2.08-.47,16.1-2.89,32.22-5.76,48.3-8.66.76-.14,1.44-.2,2.12-.21.64,0,1.28.08,1.99.21,9.17,1.66,18.36,3.32,27.54,4.97v-.03c7.13,1.29,14.26,2.58,21.38,3.87.38.07.69.17,1.52.38-1.43.26-2.41.45-3.41.62-6.49,1.16-12.99,2.33-19.49,3.49h0c-8.94,1.6-17.87,3.2-26.77,4.82-.47.09-.9.14-1.33.19-.25.03-.49.05-.73.07-.1,0-.19,0-.29,0h-.01ZM864.61,186.85c.2-5.78.44-11.56.59-17.33.01-.6.4-1.01,2.2-1.35,8.87-1.65,17.73-3.32,26.58-4.98v-.06c6.84-1.29,13.68-2.58,20.53-3.86.75-.15,1.57-.25,2.69-.43.08.42.21.74.2,1.05-.2,5.71-.47,11.41-.56,17.12-.01.8-.85,1.25-3,1.65-6.75,1.25-13.48,2.52-20.2,3.78h0c-9.26,1.74-18.53,3.47-27.79,5.22-.24.04-.54.07-1.1.13-.06-.38-.14-.66-.13-.94h-.01ZM967.87,188.75c-15.91,2.86-31.83,5.7-47.73,8.56-1.53.28-2.78.38-4.46.07-7.22-1.31-14.47-2.62-21.71-3.92v-.03c-9-1.63-18.01-3.25-27.01-4.87-.4-.07-.75-.17-1.47-.33.8-.2,1.4-.4,2.12-.53,8.79-1.58,17.58-3.15,26.36-4.73v-.06c6.81-1.22,13.62-2.45,20.41-3.68,2.39-.44,4.19-.45,6.62,0,15.32,2.81,30.74,5.56,46.12,8.34.97.18,1.9.38,3.22.64-1.05.23-1.72.41-2.48.55h.01ZM919.05,178.06c-.19-6.36-.37-12.72-.55-19.11,3.01.24,43.58,7.78,52.21,9.68.19,6.3.37,12.66.56,19.3-17.84-3.37-34.92-6.6-52.22-9.87h0ZM969.71,167.56c-16.04-2.92-32.13-5.81-48.21-8.7-.58-.1-1.1-.24-1.97-.43,1.05-.23,1.83-.42,2.67-.58,15.81-2.83,31.62-5.66,47.41-8.5,1.64-.29,2.96-.39,4.76-.06,16.03,2.92,32.13,5.81,48.2,8.71.58.1,1.1.24,2.21.48-1.31.24-2.1.39-2.9.53-15.8,2.83-31.62,5.65-47.4,8.5-1.65.3-2.97.38-4.76.05h0ZM972.36,186.91c.19-5.82.43-11.64.6-17.46.01-.6.37-1.02,2.18-1.36,16.06-2.99,32.07-6.02,48.09-9.03.48-.09,1.03-.14,2.02-.27.06.44.15.73.14,1.02-.2,5.79-.42,11.57-.59,17.35-.02.6-.39,1.01-2.2,1.35-15.97,2.97-31.88,5.98-47.8,8.97-.57.11-1.2.19-2.13.33-.13-.36-.33-.63-.32-.9h0ZM1075.3,188.93c-15.52,2.78-31.06,5.54-46.54,8.34-2.03.37-3.57.41-5.69.02-15.63-2.86-31.35-5.67-47.03-8.5-.8-.14-1.55-.31-2.62-.53.72-.2,1.22-.38,1.85-.49,16.1-2.89,32.22-5.78,48.33-8.68,1.42-.26,2.62-.35,4.16-.07,16.46,2.99,32.96,5.96,49.43,8.94.3.05.53.14,1.37.36-1.34.25-2.29.43-3.26.6h0ZM1077.04,187.52c-16.02-3.02-32.01-6.05-48.02-9.07-1.3-.25-2.02-.51-2.02-1.03-.11-6.04-.29-12.09-.46-18.13,0-.11.09-.22.13-.32,2.46.11,43.16,7.65,52.18,9.67.18,6.37.37,12.7.55,19.16-.99-.11-1.74-.16-2.36-.27h0ZM1076.52,167.33c-15.11-2.78-30.33-5.5-45.51-8.24-1.09-.2-2.15-.39-3.61-.67,1.03-.25,1.67-.44,2.42-.57,15.71-2.82,31.45-5.62,47.12-8.47,2.14-.39,3.78-.43,6-.03,15.53,2.84,31.15,5.64,46.73,8.44.88.16,1.72.34,3.16.64-2.96.54-5.33.99-7.73,1.42-13.9,2.49-27.85,4.96-41.68,7.49-2.55.47-4.42.44-6.91-.02h.01ZM1080.49,186.69c.19-5.68.47-11.35.54-17.02,0-.86.95-1.31,3.22-1.73,15.38-2.85,30.69-5.75,46.02-8.63.86-.16,1.78-.29,3.16-.51.04.53.11.86.09,1.19-.2,5.67-.45,11.34-.57,17.02-.02.78-.71,1.26-2.92,1.67-15.38,2.86-30.67,5.76-45.99,8.65-.96.18-1.92.35-3.38.62-.08-.55-.19-.9-.18-1.25h.01ZM1183.99,188.72c-15.89,2.86-31.79,5.7-47.68,8.57-1.63.29-2.96.39-4.77.06-16.03-2.92-32.12-5.81-48.2-8.71-.59-.11-1.1-.24-2.22-.49,1.38-.25,2.26-.42,3.16-.58,15.7-2.81,31.42-5.62,47.1-8.44,1.63-.29,2.95-.4,4.76-.07,16.04,2.92,32.14,5.81,48.21,8.71.58.1,1.11.24,2,.43-.94.21-1.61.39-2.35.52h-.01ZM1187.26,187.91c-17.64-3.33-34.7-6.56-52.09-9.84-.18-6.35-.37-12.73-.55-19.28,1.51.25,2.53.4,3.48.58,15.3,2.89,30.56,5.8,45.91,8.65,2.2.41,2.91.86,2.92,1.66.05,5.63.27,11.27.43,16.9,0,.36-.05.73-.09,1.34h-.01ZM1185.37,167.49c-15.63-2.86-31.35-5.67-47.03-8.5-.79-.14-1.55-.31-2.62-.52.73-.2,1.22-.38,1.84-.49,16.1-2.9,32.23-5.78,48.33-8.68,1.42-.25,2.62-.35,4.17-.07,16.46,2.99,32.95,5.96,49.43,8.94.3.05.53.14,1.37.37-1.34.25-2.3.42-3.26.6-15.52,2.78-31.06,5.54-46.54,8.34-2.03.37-3.57.41-5.69.02h0ZM1188.49,186.73c.2-5.74.45-11.48.58-17.22.02-.65.53-1.07,2.41-1.42,15.75-2.94,31.44-5.91,47.15-8.86.75-.14,1.57-.25,2.69-.42.08.42.21.74.2,1.06-.19,5.71-.46,11.41-.55,17.12-.02.8-.84,1.25-3,1.65-15.47,2.87-30.85,5.78-46.28,8.68-.86.16-1.78.29-2.99.49-.09-.43-.21-.74-.2-1.07h0ZM1292.1,188.77c-15.89,2.85-31.81,5.7-47.69,8.56-1.64.3-2.96.38-4.77.06-16.03-2.92-32.13-5.81-48.2-8.71-.58-.11-1.1-.24-2.2-.48,1.3-.24,2.09-.39,2.89-.53,15.8-2.83,31.61-5.66,47.4-8.5,1.63-.29,2.96-.39,4.76-.06,16.04,2.92,32.13,5.81,48.21,8.71.57.1,1.1.24,1.97.43-.96.21-1.62.39-2.38.52h0ZM1246.42,159.39c15.2,2.87,30.37,5.76,45.62,8.6,2.15.4,3.02.83,3.03,1.64.04,5.67.26,11.34.41,17.01.01.35-.08.71-.15,1.19-1.15-.17-1.97-.28-2.72-.42-15.7-2.96-31.38-5.94-47.09-8.89-1.48-.28-2.42-.55-2.42-1.19-.08-5.93-.29-11.86-.45-17.78,0-.21.12-.42.23-.8,1.55.27,2.55.45,3.54.63h0ZM1295.23,147.57c-.01.48-.36.82-1.78,1.09-16.34,3.06-32.66,6.14-48.98,9.21-.29.05-.64.08-1.55.18-.05-.48-.13-.84-.12-1.19.19-5.67.45-11.34.55-17.02.02-.8.82-1.26,2.99-1.66,15.48-2.88,30.89-5.79,46.32-8.69.79-.15,1.58-.29,2.7-.5.2.32.49.55.47.78-.19,5.93-.42,11.86-.61,17.79h.01ZM1245.53,99.55c15.92,3,31.8,6.01,47.72,9.01,1.27.24,2.12.47,2.13,1.01.1,6.08.28,12.16.43,18.24,0,.07-.11.14-.3.37-8.87-1.53-17.31-3.23-25.9-4.83-8.65-1.62-17.27-3.27-25.96-4.91-.18-6.39-.37-12.72-.55-19.18,1.04.12,1.8.17,2.42.29h.01ZM1295.59,87.71c-.01.61-.44,1.01-2.23,1.35-16.05,2.99-32.04,6.01-48.07,9.01-.48.09-1.03.16-2.02.3-.06-.45-.14-.73-.13-1.02.2-5.78.43-11.56.59-17.34.02-.61.46-1,2.25-1.34,15.94-2.97,31.83-5.98,47.74-8.97.59-.11,1.23-.19,2.16-.34.12.34.31.62.3.89-.19,5.82-.44,11.63-.59,17.44v.02ZM1295.8,49.33c.19,6.38.37,12.75.56,19.22-.88-.09-1.55-.11-2.07-.21-16.11-3.04-32.21-6.09-48.32-9.12-1.31-.25-2-.52-2.01-1.04-.11-6.04-.3-12.09-.45-18.13,0-.11.08-.21.24-.56,17.57,3.32,34.73,6.56,52.06,9.84h-.01ZM1296.67,10.44c-.18,5.96-.42,11.92-.59,17.89-.02.49-.48.82-1.86,1.08-16.43,3.07-32.84,6.16-49.26,9.24-.2.04-.43.04-1.17.11-.06-.37-.16-.66-.15-.94.2-5.82.43-11.63.59-17.45.02-.58.55-.94,2.17-1.24,16.04-3,32.03-6.01,48.04-9.03.49-.09,1.02-.16,1.78-.28.18.23.46.43.46.62h-.01ZM1193.77,8.69c15.6-2.79,31.23-5.58,46.79-8.39,1.96-.35,3.4-.35,5.38,0,15.62,2.85,31.33,5.66,46.99,8.49.87.16,1.66.35,2.77.59-1.18.24-1.99.43-2.87.58-15.59,2.8-31.21,5.58-46.76,8.41-2.18.4-3.82.38-5.99-.01-15.52-2.84-31.12-5.63-46.69-8.44-.87-.16-1.66-.35-2.92-.63,1.37-.25,2.33-.43,3.29-.6h0ZM1189.78,9.84c.78.07,1.44.09,1.96.19,16.11,3.04,32.19,6.08,48.29,9.12,1.31.25,2,.52,2.01,1.04.12,6.04.3,12.08.45,18.12,0,.11-.1.22-.24.5-1.24-.2-2.16-.33-3.02-.49-15.51-2.93-30.98-5.87-46.52-8.78-1.77-.33-2.6-.68-2.6-1.37-.07-5.82-.28-11.64-.45-17.46,0-.25.07-.51.11-.86h.01ZM1191.31,30.06c16.04,2.92,32.13,5.81,48.2,8.7.58.11,1.11.24,1.99.43-1.05.23-1.81.43-2.66.58-15.79,2.84-31.61,5.66-47.39,8.5-1.63.29-2.95.39-4.76.06-16.04-2.92-32.14-5.81-48.21-8.71-.58-.1-1.11-.24-2.22-.49,1.29-.24,2.07-.39,2.88-.53,15.8-2.83,31.61-5.66,47.4-8.5,1.62-.29,2.95-.4,4.77-.07v.03ZM1188.55,10.75c-.21,5.78-.44,11.55-.6,17.33-.01.6-.39,1.02-2.19,1.35-16.06,2.98-32.05,6-48.07,9.01-.48.09-1.02.16-1.81.28-.15-.29-.38-.52-.38-.76.19-5.89.43-11.78.6-17.66.02-.52.39-.89,1.92-1.18,16.34-3.05,32.64-6.12,48.95-9.19.29-.06.64-.08,1.41-.17.07.41.17.7.16.98h0ZM1085.55,8.75c15.51-2.78,31.05-5.55,46.5-8.37,2.33-.42,4.02-.41,6.32.02,15.43,2.82,30.94,5.6,46.43,8.39.89.16,1.74.34,2.9.58-.78.21-1.29.39-1.93.5-16.12,2.89-32.24,5.77-48.35,8.67-1.43.26-2.63.33-4.16.06-16.37-2.97-32.77-5.92-49.15-8.88-.39-.07-.72-.17-1.64-.39,1.34-.25,2.21-.41,3.08-.57h0ZM1133.86,19.53c.18,6.4.37,12.75.55,19.36-17.75-3.36-34.87-6.59-52.21-9.87-.19-6.36-.37-12.72-.56-19.36,17.86,3.38,35,6.62,52.22,9.87ZM1082.78,29.95c16.45,2.98,32.93,5.95,49.4,8.93.28.05.5.14,1.26.35-1.3.24-2.28.42-3.26.6-15.39,2.76-30.82,5.51-46.16,8.3-2.25.41-3.94.46-6.31.02-15.5-2.85-31.1-5.63-46.67-8.44-.79-.14-1.53-.31-2.59-.53.63-.17,1.05-.33,1.58-.43,16.29-2.93,32.61-5.84,48.91-8.77,1.33-.24,2.45-.29,3.85-.03h0ZM1080.55,10.7c-.2,5.82-.43,11.64-.59,17.46-.02.6-.45,1.01-2.24,1.34-15.87,2.96-31.66,5.95-47.48,8.92-.67.13-1.39.22-2.56.39-.08-.43-.18-.69-.17-.94.2-5.82.46-11.64.59-17.46.02-.67.72-1.06,2.54-1.4,15.77-2.93,31.48-5.9,47.21-8.86.67-.13,1.39-.22,2.43-.38.12.37.29.65.28.92h-.01ZM976.56,8.85c15.91-2.86,31.84-5.7,47.72-8.57,1.92-.35,3.39-.39,5.39-.02,15.74,2.87,31.55,5.7,47.33,8.55.78.14,1.5.32,2.8.59-2.92.54-5.29.98-7.7,1.41-13.9,2.49-27.83,4.96-41.68,7.48-2.36.43-4.14.49-6.61.03-15.21-2.8-30.53-5.53-45.81-8.29-1.08-.2-2.15-.4-3.55-.66.9-.23,1.43-.41,2.09-.53h.02ZM973.69,9.72c1.35.22,2.36.37,3.31.55,15.32,2.89,30.59,5.8,45.96,8.67,2.16.4,3,.83,3.01,1.64.05,5.67.27,11.35.42,17.02,0,.36-.09.71-.15,1.2-1.35-.23-2.36-.38-3.31-.55-15.31-2.89-30.59-5.8-45.96-8.67-2.16-.4-2.99-.84-2.99-1.65-.05-5.67-.27-11.35-.42-17.03-.01-.35.08-.71.14-1.2v.02ZM976,30.19c15.41,2.83,30.94,5.6,46.42,8.39.9.16,1.75.34,2.89.57-.6.18-.97.36-1.5.46-16.31,2.93-32.65,5.84-48.95,8.78-1.36.24-2.49.27-3.86.02-16.47-2.99-32.96-5.96-49.44-8.94-.3-.05-.53-.14-1.23-.32,1.15-.24,1.97-.43,2.84-.58,15.5-2.78,31.04-5.55,46.49-8.36,2.29-.42,3.97-.44,6.32,0h.02ZM972.41,10.75c-.19,5.78-.42,11.57-.59,17.35-.01.6-.36,1.01-2.18,1.35-15.97,2.97-31.87,5.98-47.79,8.97-.58.11-1.21.19-2.38.37-.04-.55-.1-.91-.09-1.27.2-5.64.46-11.27.55-16.91.02-.83.75-1.32,3.1-1.76,15.59-2.88,31.08-5.82,46.61-8.74.68-.13,1.42-.22,2.52-.39.11.4.26.71.25,1.01v.02ZM868.59,8.97c8.46-1.52,16.93-3.03,25.39-4.55v-.06c7.55-1.35,15.1-2.7,22.64-4.06,1.64-.29,2.96-.39,4.77-.06,16.03,2.92,32.13,5.81,48.2,8.71.58.11,1.1.24,1.97.43-.96.21-1.64.39-2.38.52-15.89,2.85-31.81,5.7-47.69,8.56-1.64.29-2.96.38-4.77.05-7.57-1.38-15.16-2.75-22.74-4.12v-.02c-8.42-1.52-16.84-3.04-25.26-4.56-.58-.1-1.1-.24-1.94-.43.78-.18,1.26-.32,1.8-.42h.01ZM880.71,12.52c12.42,2.35,24.71,4.67,37.03,7,.18,6.39.36,12.75.55,19.36-4.7-.89-8.56-1.62-12.43-2.35-3.96-.75-7.92-1.5-11.88-2.25v-.03c-8.83-1.67-17.6-3.33-26.43-5-.61-.17-.99-.38-1.24-.62-.18-6.21-.36-12.42-.54-18.66,1.71.2,7.61,1.21,14.95,2.54h-.01ZM864.99,29.89c1,.02,2.02.13,3.18.34,8.46,1.56,16.95,3.09,25.46,4.63v-.04c7.02,1.26,14.04,2.53,21.05,3.79.78.14,1.51.31,2.83.59-2.72.5-4.89.91-7.08,1.3-9.21,1.65-18.42,3.3-27.62,4.95-5.14.92-10.27,1.84-15.4,2.76-1.45.24-2.7.32-4.12.18-.2-.03-.39-.04-.61-.08-16.05-2.92-32.15-5.81-48.24-8.72-.59-.1-1.11-.24-2.11-.46,1.23-.25,1.96-.42,2.75-.56,15.4-2.77,30.84-5.51,46.19-8.31,1.35-.25,2.52-.37,3.71-.37h0ZM864.31,10.44c-.18,5.96-.41,11.92-.6,17.89,0,.07-.04.13-.06.19-.32.42-1.1.73-2.42,1-16.23,3.03-32.43,6.08-48.64,9.12-.16.03-.36.04-.83.08-.06-.36-.15-.63-.14-.91.2-5.82.43-11.63.59-17.45.02-.58.55-.94,2.17-1.24,16.04-3,32.03-6.01,48.04-9.03.42-.08.89-.15,1.47-.23.18.21.42.39.41.57h.01ZM758.85,9.22c1.16-.21,2.04-.38,2.91-.53,15.61-2.79,31.23-5.58,46.79-8.39.94-.17,1.76-.25,2.57-.25.77.02,1.56.09,2.46.26,15.62,2.85,31.33,5.66,46.99,8.49.87.16,1.66.35,2.77.59-1.18.24-1.99.43-2.87.58-15.59,2.8-31.21,5.58-46.76,8.41-.43.08-.82.13-1.21.17-.26.03-.52.05-.78.07h-.13c-.67.03-1.32.02-2-.04-.49-.05-.99-.12-1.52-.22-15.52-2.84-31.12-5.63-46.69-8.44-.86-.15-1.65-.35-2.89-.62.13-.03.23-.05.35-.08h.01ZM757.76,9.86c.62.05,1.18.08,1.62.16,16.11,3.04,32.19,6.08,48.29,9.12.97.18,1.6.38,1.86.68,0,0,.01,0,.02.01.08.1.13.22.13.34.12,6.04.3,12.08.45,18.12,0,.1-.09.21-.22.45-1.07-.17-1.92-.3-2.7-.44-15.5-2.93-30.98-5.87-46.52-8.78-1.77-.33-2.6-.68-2.6-1.37-.07-5.82-.28-11.64-.45-17.46,0-.25.06-.5.1-.83h.02ZM756.76,29.86c.19,0,.38,0,.58.02.13,0,.27,0,.4.02.38.03.78.08,1.21.16,16.04,2.92,32.13,5.81,48.2,8.7.57.1,1.09.24,1.94.42-.2.05-.36.09-.54.14-.75.17-1.41.33-2.08.45-15.79,2.84-31.61,5.66-47.39,8.5-.64.12-1.23.19-1.83.23-.15,0-.3.03-.45.03s-.3,0-.46,0c-.15,0-.31,0-.46-.02-.39-.03-.79-.08-1.22-.16-16.04-2.92-32.14-5.81-48.21-8.71-.58-.1-1.11-.24-2.22-.49,1.29-.24,2.07-.39,2.88-.53,15.8-2.83,31.61-5.66,47.4-8.5.78-.14,1.49-.23,2.22-.26h.03ZM756.18,10.75c-.21,5.78-.44,11.55-.6,17.33,0,.4-.22.71-.86.98-.11.04-.19.09-.32.13-.15.05-.35.09-.54.13-.19.05-.37.1-.6.14-15.97,2.97-31.89,5.97-47.83,8.97-.37.06-.78.13-1.25.2-.12.02-.24.03-.37.05-.15-.26-.35-.49-.35-.71.19-5.89.43-11.78.6-17.66.02-.52.39-.89,1.92-1.18,16.34-3.05,32.64-6.12,48.95-9.19.24-.05.55-.07,1.07-.13.07.39.16.67.16.94h.02ZM653.54,8.75c15.51-2.78,31.05-5.55,46.5-8.37,1.13-.21,2.12-.3,3.1-.29.91.02,1.83.12,2.87.31,15.43,2.82,30.94,5.6,46.43,8.39.89.16,1.74.34,2.9.58-.78.21-1.29.39-1.93.5-16.12,2.89-32.24,5.77-48.35,8.67-.21.04-.41.06-.61.09-.85.11-1.65.13-2.5.06-.23-.03-.46-.05-.7-.09-16.37-2.97-32.77-5.92-49.15-8.88-.39-.07-.72-.17-1.64-.39,1.34-.25,2.21-.41,3.08-.57h0ZM652.28,10.22c16.78,3.17,32.97,6.23,49.22,9.31.18,6.38.37,12.71.55,19.29-17.63-3.33-34.64-6.55-51.87-9.8-.18-6.33-.37-12.66-.56-19.27.9.16,1.77.32,2.65.48h.01ZM649.82,29.87c.2.03.39.04.6.08,16.45,2.98,32.93,5.95,49.4,8.93.25.05.48.13,1.05.29-.67.17-1.18.32-1.76.42-2.93.53-5.86,1.05-8.79,1.58-8.95,1.6-17.89,3.21-26.82,4.82-4.13.74-8.27,1.48-12.39,2.23-.84.13-1.61.21-2.38.23-.95,0-1.91-.09-3.03-.3-15.5-2.85-31.1-5.63-46.67-8.44-.79-.14-1.53-.31-2.59-.53.63-.17,1.05-.33,1.58-.43,16.3-2.93,32.61-5.84,48.91-8.77.29-.05.57-.09.85-.13.67-.05,1.34-.05,2.04,0h0ZM648.19,10.7c-.2,5.82-.43,11.64-.59,17.46,0,.23-.11.43-.3.61-.31.24-.81.45-1.55.63-.11.02-.18.05-.3.07-.08.02-.17.04-.26.05-15.81,2.95-31.55,5.93-47.32,8.89-.6.11-1.26.2-2.23.34-.08-.4-.16-.65-.16-.89.2-5.82.46-11.64.59-17.46.02-.67.72-1.06,2.54-1.4,15.77-2.93,31.48-5.9,47.21-8.86.59-.11,1.25-.2,2.1-.33.12.35.27.61.26.87v.02ZM544.55,8.85c15.91-2.86,31.84-5.7,47.72-8.57.91-.16,1.71-.25,2.52-.27.79,0,1.6.08,2.53.25,15.74,2.87,31.55,5.7,47.33,8.55.7.13,1.39.29,2.47.52-.47.14-.84.27-1.23.36-1.1.2-2.15.4-3.14.58-4.53.81-9.07,1.63-13.6,2.44-10.37,1.85-20.75,3.71-31.08,5.59-1.14.21-2.15.33-3.16.35-.97,0-1.96-.1-3.1-.31-15.21-2.8-30.53-5.53-45.81-8.29-1.08-.2-2.15-.4-3.54-.66.9-.23,1.43-.41,2.09-.53h0ZM541.67,9.78c1.17.19,2.11.33,2.97.5,15.32,2.89,30.59,5.8,45.96,8.67,2.16.4,3,.83,3.01,1.64.05,5.67.27,11.35.42,17.02,0,.34-.08.69-.14,1.15-1.17-.19-2.11-.34-2.97-.5-15.31-2.89-30.59-5.8-45.96-8.67-2.16-.4-2.99-.84-2.99-1.65-.05-5.67-.27-11.35-.42-17.03-.01-.34.07-.68.13-1.15v.02ZM540.65,29.89c.94,0,1.89.1,2.99.3,15.41,2.83,30.94,5.6,46.42,8.39.9.16,1.75.34,2.89.57-.6.18-.97.36-1.5.46-16.31,2.93-32.65,5.84-48.95,8.78-.63.11-1.21.17-1.78.18-.56,0-1.12-.06-1.73-.17-16.47-2.99-32.96-5.96-49.44-8.94-.3-.05-.53-.14-1.23-.32,1.15-.24,1.97-.43,2.84-.58,15.51-2.78,31.04-5.55,46.49-8.36,1.08-.2,2.03-.3,2.98-.31h.02ZM540.05,10.75c-.19,5.78-.42,11.57-.59,17.35-.01.6-.36,1.01-2.18,1.35-15.97,2.97-31.87,5.98-47.79,8.97-.51.1-1.09.18-2.03.32-.04-.52-.09-.87-.09-1.21.2-5.64.46-11.27.55-16.91.02-.83.75-1.32,3.1-1.76,15.59-2.88,31.08-5.82,46.61-8.74.6-.11,1.28-.21,2.19-.34.11.37.24.67.24.96h0ZM436.16,8.99c.37-.07.71-.13,1.04-.19,2.3-.41,4.59-.82,6.89-1.24,5.84-1.05,11.68-2.09,17.52-3.14h0c7.66-1.37,15.34-2.74,22.99-4.12.79-.14,1.5-.23,2.22-.26.68,0,1.39.05,2.2.2,16.03,2.92,32.13,5.81,48.2,8.71.58.11,1.1.24,1.97.43-.96.21-1.64.39-2.38.52-15.89,2.85-31.81,5.7-47.69,8.56-.78.14-1.5.23-2.22.25-.69,0-1.39-.05-2.2-.2-16.04-2.92-32.13-5.81-48.2-8.7-.55-.1-1.06-.23-2.01-.44.69-.16,1.16-.29,1.66-.38h.01ZM433.67,9.97c1.12.12,4.38.66,8.8,1.44,14.44,2.73,28.64,5.42,42.91,8.11.18,6.37.36,12.7.55,19.29-4.53-.86-8.31-1.57-12.08-2.28-12.32-2.33-24.63-4.67-37-6.97-2.03-.37-2.88-.79-2.88-1.55-.06-5.68-.27-11.35-.42-17.02,0-.29.06-.59.13-1v-.02ZM434.13,29.95c.38.05.75.09,1.16.16,15.64,2.86,31.35,5.67,47.03,8.5.78.14,1.51.31,2.83.59-2.72.5-4.89.91-7.08,1.3-14.2,2.55-28.43,5.08-42.59,7.65-1.16.21-2.18.32-3.22.31-.76-.02-1.54-.11-2.42-.27-15.53-2.84-31.15-5.63-46.73-8.44-.89-.16-1.73-.35-2.91-.58.93-.22,1.57-.42,2.33-.55,15.67-2.81,31.38-5.61,47.02-8.45.09,0,.17-.03.26-.04.2-.03.38-.06.57-.08,1.28-.16,2.46-.2,3.74-.08v-.02ZM431.88,9.86c.1.4.2.7.18.98-.19,5.71-.46,11.41-.56,17.11-.01.8-.83,1.25-2.99,1.65-15.27,2.83-30.45,5.71-45.67,8.57-.87.16-1.75.32-2.87.53-.12,0-.27.02-.44.04-.06-.47-.15-.81-.14-1.14.2-5.67.46-11.34.55-17.01.02-.8.86-1.25,3.01-1.65,15.26-2.84,30.45-5.72,45.65-8.58.57-.11,1.15-.21,1.79-.33.41-.07.85-.13,1.45-.23.01.01.02.02.03.04v.02ZM328.89,8.79c6.35-1.14,12.7-2.28,19.06-3.42,3.06-.55,6.13-1.1,9.19-1.65,6.48-1.16,12.97-2.32,19.44-3.49.26-.05.49-.07.74-.11.95-.11,1.81-.12,2.74-.04.3.04.61.07.94.13,15.84,2.88,31.73,5.74,47.6,8.6.77.14,1.47.32,2.64.57-1.36.25-2.32.43-3.27.6-15.5,2.78-31.02,5.55-46.47,8.35-1.05.19-1.98.28-2.91.28-.87-.02-1.74-.1-2.73-.28-15.52-2.84-31.12-5.63-46.69-8.44-.87-.15-1.67-.35-2.78-.59,1.03-.22,1.73-.4,2.5-.53v.02ZM325.6,9.85c.28.02.55.04.79.06.58.08,1.11.16,1.58.25,15.7,2.96,31.38,5.94,47.11,8.89,1.7.32,2.36.68,2.36,1.31.1,5.82.3,11.64.46,17.46,0,.27-.11.54-.21.9-.93-.14-1.68-.24-2.35-.37-15.7-2.97-31.39-5.94-47.11-8.89-1.7-.32-2.36-.68-2.37-1.31-.09-5.82-.29-11.64-.45-17.46,0-.25.1-.51.18-.85h.01ZM324.57,29.86c.74,0,1.5.07,2.36.23,15.83,2.88,31.73,5.73,47.6,8.6.69.12,1.33.27,2.3.47-.78.19-1.31.36-1.93.48-16.1,2.89-32.21,5.76-48.29,8.67-.74.13-1.41.21-2.08.22-.65,0-1.3-.06-2.04-.2-16.15-2.93-32.33-5.84-48.51-8.76-.48-.09-.92-.21-1.97-.44,1.34-.25,2.22-.41,3.1-.57,15.71-2.81,31.42-5.62,47.1-8.44.43-.08.83-.14,1.23-.18.11,0,.21,0,.32-.02.27-.02.54-.04.81-.05h0ZM323.93,10.73c-.19,5.78-.44,11.56-.57,17.33-.02.67-.68,1.07-2.5,1.41-15.85,2.95-31.65,5.93-47.47,8.9-.51.1-1.09.18-1.79.29-.15-.27-.36-.49-.35-.71.2-5.89.42-11.78.6-17.67.02-.52.39-.88,1.92-1.17,16.33-3.05,32.63-6.12,48.94-9.19.24-.04.54-.07,1.07-.13.07.38.17.66.15.94ZM221.06,8.78c15.6-2.8,31.24-5.59,46.81-8.41.43-.08.84-.13,1.24-.18.28-.03.56-.06.83-.07h.05c.72-.04,1.41-.02,2.13.04.45.05.9.11,1.4.2,15.52,2.84,31.15,5.63,46.73,8.45.88.16,1.7.35,2.89.59-.97.23-1.62.41-2.36.55-15.92,2.85-31.86,5.69-47.75,8.56-.82.15-1.55.22-2.29.24-.68,0-1.36-.07-2.14-.21-16.06-2.92-32.17-5.81-48.24-8.71-.58-.1-1.09-.25-2.19-.49,1.32-.24,2.1-.39,2.89-.53v-.03ZM243.26,14.6c8.65,1.62,17.27,3.26,26,4.91.18,6.37.36,12.7.55,19.29-17.72-3.35-34.68-6.55-51.86-9.8-.19-6.33-.37-12.67-.56-19.24,9.07,1.58,17.41,3.25,25.88,4.84h0ZM216.36,29.82c.77,0,1.55.06,2.44.22,15.83,2.89,31.73,5.74,47.6,8.6.64.11,1.28.26,2.16.44.04,0,.09.03.13.04-.78.19-1.31.36-1.94.47-16.09,2.9-32.2,5.78-48.27,8.68-.34.06-.67.11-.99.14-.81.06-1.61.05-2.47-.03-.22-.03-.43-.05-.67-.09-6.55-1.19-13.11-2.37-19.67-3.55v.03c-9.34-1.69-18.68-3.37-28.02-5.05-.79-.14-1.53-.31-2.59-.53.63-.17,1.05-.33,1.58-.43,16.13-2.9,32.29-5.78,48.43-8.68.81-.15,1.54-.23,2.27-.25h0ZM215.78,9.8c.07.45.17.79.16,1.13-.2,5.68-.45,11.35-.56,17.02,0,.78-.72,1.26-2.92,1.67-6.05,1.13-12.08,2.26-18.12,3.4v.06c-9.5,1.79-18.99,3.58-28.48,5.36-.67.13-1.39.22-2.56.39-.08-.43-.17-.69-.17-.94.2-5.82.46-11.64.59-17.46.02-.67.72-1.06,2.54-1.4,9.49-1.77,18.96-3.54,28.43-5.32h0c6.12-1.15,12.24-2.3,18.36-3.44.78-.15,1.62-.27,2.74-.45v-.02ZM112.19,8.85c15.91-2.86,31.84-5.7,47.72-8.57,1.92-.35,3.39-.39,5.39-.02,9.66,1.76,19.35,3.51,29.04,5.25v.02c5.89,1.06,11.78,2.12,17.67,3.19.89.16,1.75.34,2.89.57-.63.19-1.03.35-1.55.45-6.33,1.14-12.67,2.27-19,3.41v.06c-9.44,1.69-18.88,3.37-28.28,5.09-2.36.43-4.14.49-6.61.03-15.21-2.8-30.53-5.53-45.81-8.29-1.08-.2-2.15-.4-3.54-.66.9-.23,1.43-.41,2.09-.53h0ZM109.32,9.72c1.35.22,2.36.37,3.31.55,15.31,2.89,30.59,5.8,45.96,8.67,2.16.4,3,.83,3.01,1.64.05,5.67.27,11.35.42,17.02,0,.36-.09.71-.15,1.2-1.35-.23-2.36-.38-3.31-.55-15.31-2.89-30.59-5.8-45.96-8.67-2.16-.4-2.98-.84-2.99-1.65-.05-5.67-.27-11.35-.42-17.03,0-.35.08-.71.14-1.2v.02ZM111.63,30.19c15.42,2.83,30.94,5.6,46.42,8.39.9.16,1.75.34,2.89.57-.6.18-.97.36-1.5.46-16.31,2.93-32.65,5.84-48.95,8.78-1.36.24-2.49.27-3.86.02-16.47-2.99-32.96-5.96-49.44-8.94-.3-.05-.53-.14-1.22-.32,1.15-.24,1.97-.43,2.84-.58,15.51-2.78,31.04-5.55,46.49-8.36,2.29-.42,3.97-.44,6.32,0h0ZM108.04,10.75c-.19,5.78-.42,11.57-.59,17.35,0,.6-.36,1.01-2.18,1.35-15.97,2.97-31.87,5.98-47.79,8.97-.58.11-1.21.19-2.38.37-.04-.55-.1-.91-.09-1.27.2-5.64.46-11.27.55-16.91.02-.83.75-1.32,3.1-1.76,15.59-2.88,31.08-5.82,46.61-8.74.68-.13,1.42-.22,2.52-.39.11.4.26.71.25,1.01v.02ZM4.84,8.8C20.64,5.97,36.46,3.15,52.24.3c1.64-.29,2.96-.39,4.77-.06,16.03,2.92,32.13,5.81,48.2,8.71.58.11,1.1.24,1.97.43-.96.21-1.64.39-2.38.52-15.89,2.85-31.81,5.7-47.69,8.56-1.64.29-2.96.38-4.77.05-16.04-2.92-32.13-5.81-48.2-8.7-.59-.11-1.11-.24-2.2-.48,1.3-.24,2.09-.39,2.89-.53h.01ZM1.35,9.69c17.62,3.33,34.75,6.57,52.01,9.83.18,6.39.36,12.75.55,19.36-4.7-.89-8.56-1.62-12.43-2.35-12.32-2.33-24.63-4.67-37-6.97-2.03-.37-2.88-.79-2.88-1.55-.06-5.68-.27-11.35-.42-17.02,0-.36.09-.71.17-1.29h0Z"/>
</svg>