<?xml version="1.0" encoding="UTF-8"?>
<svg id="Layer_1" data-name="Layer 1" xmlns="http://www.w3.org/2000/svg" viewBox="0 0 649.24 172.08">
  <defs>
    <style>
      .cls-1 {
        fill: #fff;
        fill-rule: evenodd;
      }
    </style>
  </defs>
  <path class="cls-1" d="M.71,43.59c0-.59.58-.84,1.36-1.1,6.29-2.05,12.58-4.09,18.87-6.14,1.89-.62,3.8-1.22,5.94-1.9.05.37.1.63.1.87-.1,5.03-.22,10.08-.3,15.11,0,.57-.27.93-1.21,1.24-7.89,2.56-15.75,5.15-23.62,7.72-.34.11-.71.2-1.19.34-.1-.22-.25-.38-.24-.56.09-5.2.22-10.4.29-15.59ZM106.48,42.53c.82.27,1.24.55,1.25,1.12.04,5.1.15,10.2.23,15.29,0,.21-.04.42-.09.75-.56-.16-.94-.26-1.3-.37-3.03-.99-6.06-1.99-9.09-2.99v.03c-4.71-1.55-9.41-3.09-14.13-4.62-1.07-.35-1.52-.71-1.53-1.43-.02-4.94-.13-9.88-.21-14.81,0-.31.04-.62.07-1.05.58.15.99.24,1.36.36,4.76,1.56,9.51,3.13,14.27,4.69v.03c3.05,1,6.11,2.01,9.17,3.01h0ZM595.31,112.31c.68.2,1.18.33,1.66.49,7.67,2.52,15.31,5.05,23.01,7.54,1.09.35,1.49.74,1.5,1.44.03,4.95.14,9.88.21,14.83,0,.3-.04.62-.08,1.05-.68-.2-1.19-.33-1.66-.49-7.67-2.52-15.32-5.05-23.01-7.55-1.09-.35-1.49-.73-1.49-1.44-.03-4.95-.14-9.88-.21-14.83,0-.31.04-.62.08-1.05h0ZM595.31,110.9c.1-5.09.21-10.19.3-15.29,0-.45.17-.78.94-1.03,8.18-2.66,16.34-5.34,24.5-8,.15-.05.32-.07.73-.16.04.35.09.59.08.84-.1,5.03-.22,10.07-.3,15.1-.01.52-.18.89-1.08,1.18-8.04,2.6-16.04,5.23-24.06,7.86-.25.08-.52.14-.95.26-.07-.29-.17-.52-.16-.76h0ZM620.9,119.96c-8.03-2.55-16.1-5.07-24.15-7.59-.3-.1-.57-.21-1.01-.37.44-.18.76-.36,1.13-.47,7.91-2.47,15.84-4.93,23.74-7.42.95-.3,1.69-.36,2.7-.03,7.93,2.52,15.9,5,23.85,7.5.35.1.66.24,1.3.48-.76.24-1.24.4-1.73.55-7.77,2.42-15.54,4.83-23.3,7.27-.86.27-1.56.41-2.54.1h0ZM620.81,67.96c-7.78-2.47-15.6-4.9-23.4-7.35-.44-.14-.86-.3-1.45-.51.48-.19.81-.36,1.18-.47,7.92-2.47,15.84-4.93,23.74-7.42.97-.3,1.7-.34,2.7-.02,7.88,2.5,15.8,4.97,23.7,7.45.39.12.76.27,1.43.52-.78.25-1.27.41-1.76.57-7.72,2.4-15.45,4.79-23.15,7.22-1.07.34-1.89.38-3,.03h0ZM621.74,50.43c0,.51-.16.89-1.08,1.18-8.04,2.6-16.06,5.23-24.08,7.86-.24.08-.51.13-.93.24-.07-.3-.18-.53-.17-.77.1-5.07.23-10.14.29-15.2.01-.64.43-.98,1.39-1.29,7.89-2.56,15.76-5.15,23.63-7.72.29-.1.61-.17,1.17-.3.04.38.09.64.08.88-.1,5.03-.22,10.08-.3,15.11ZM621.61,69.01c.09,5.5.18,11.02.27,16.77-8.9-2.93-17.47-5.74-26.15-8.59-.09-5.54-.19-11.08-.28-16.63,1.34.16,23.32,7.28,26.15,8.46h0ZM596.07,78.01c8.19,2.59,16.39,5.16,24.58,7.72.19.06.35.15.78.33-.71.23-1.2.39-1.7.54-7.71,2.4-15.43,4.8-23.11,7.23-1.15.37-1.99.37-3.15,0-7.72-2.46-15.48-4.88-23.22-7.31-.44-.14-.86-.3-1.46-.51.43-.17.71-.31,1.03-.41,8.06-2.52,16.13-5.02,24.19-7.54.71-.22,1.31-.3,2.08-.06h-.01ZM541.22,112.29c8.87,2.87,17.41,5.72,26.08,8.56.09,5.56.18,11.09.28,16.82-.88-.27-1.39-.42-1.88-.58-7.57-2.49-15.12-4.99-22.71-7.45-1.12-.37-1.61-.74-1.61-1.5,0-4.88-.12-9.75-.2-14.63,0-.34.03-.69.05-1.22h-.01ZM541.17,110.68c.1-5.01.21-10.01.3-15,.01-.51.15-.89,1.07-1.18,8.09-2.61,16.14-5.27,24.21-7.91.2-.06.41-.1.76-.2.09.24.22.44.22.63-.1,5.16-.22,10.32-.3,15.47,0,.48-.35.76-1.07.99-8.03,2.61-16.04,5.23-24.06,7.86-.29.1-.6.15-1.05.26-.04-.37-.09-.64-.08-.92h0ZM566.49,119.87c-7.77-2.47-15.58-4.9-23.38-7.35-.44-.14-.86-.3-1.46-.51.53-.2.92-.37,1.34-.51,7.91-2.46,15.83-4.93,23.73-7.4.82-.25,1.48-.34,2.38-.06,8.03,2.54,16.09,5.06,24.13,7.59.29.09.56.21,1.11.42-.71.23-1.15.37-1.6.51-7.81,2.44-15.64,4.86-23.42,7.32-1.03.32-1.8.33-2.84,0h.01ZM568.4,121.62c.01-.64.43-.98,1.38-1.29,7.89-2.55,15.76-5.14,23.63-7.72.29-.1.61-.17,1.18-.3.04.38.09.64.08.88-.1,5.03-.22,10.08-.29,15.11,0,.57-.31.93-1.24,1.23-7.89,2.56-15.76,5.15-23.63,7.72-.34.11-.71.2-1.27.36-.06-.35-.14-.62-.13-.88.1-5.03.23-10.08.28-15.11h0ZM594.62,111.7c-.77-.24-1.27-.38-1.77-.55-7.61-2.5-15.21-5.02-22.84-7.49-1.08-.35-1.51-.72-1.52-1.43-.02-4.94-.13-9.88-.21-14.82,0-.3.04-.62.07-1.04.58.15.99.24,1.36.37,7.86,2.58,15.72,5.17,23.58,7.74.74.24,1.21.48,1.22,1.03.05,5.16.15,10.33.23,15.49,0,.18-.06.37-.12.7h0ZM568.36,84.75c.1-4.97.23-9.95.29-14.92.01-.64.3-1.05,1.37-1.38,7.85-2.53,15.66-5.1,23.49-7.66.34-.11.71-.2,1.21-.35.09.26.21.47.21.67-.1,5.13-.22,10.27-.3,15.4,0,.5-.26.82-1.08,1.09-8.04,2.61-16.05,5.25-24.07,7.87-.25.08-.51.13-1.04.27-.04-.43-.08-.71-.08-.98h0ZM594.84,59.73c-4.52-1.35-8.74-2.83-13.04-4.22-4.34-1.41-8.65-2.84-13-4.28-.1-5.56-.18-11.08-.28-16.72.58.13.99.2,1.36.32,7.92,2.6,15.82,5.21,23.75,7.79.73.24,1.06.49,1.07.98.06,5.2.16,10.4.24,15.6,0,.12-.04.25-.09.54h0ZM569.45,52.16c7.88,2.5,15.8,4.97,23.7,7.45.39.12.75.27,1.4.51-1.46.47-2.65.85-3.86,1.23-6.96,2.17-13.94,4.33-20.87,6.51-1.18.37-2.07.43-3.31.03-7.67-2.46-15.39-4.85-23.09-7.27-.49-.16-.97-.32-1.6-.54.43-.18.7-.34,1.02-.44,7.96-2.49,15.94-4.96,23.89-7.46.97-.3,1.7-.33,2.7-.02h.01ZM567.67,50.54c-.01.45-.19.78-.95,1.03-8.18,2.66-16.34,5.33-24.51,8-.15.05-.32.07-.72.15-.04-.36-.08-.6-.08-.85.1-5.03.22-10.07.3-15.09.01-.52.21-.88,1.11-1.18,8.04-2.6,16.04-5.23,24.06-7.86.25-.08.52-.14.9-.24.08.24.2.45.19.65-.1,5.13-.21,10.26-.3,15.39ZM541.46,60.34c8.79,2.89,17.38,5.71,26.07,8.57.09,5.56.19,11.09.28,16.76-.5-.1-.87-.14-1.18-.24-8.02-2.63-16.03-5.27-24.05-7.9-.65-.21-1.01-.44-1.02-.9-.05-5.26-.15-10.53-.23-15.79,0-.1.05-.18.12-.5h0ZM542.32,78.14c7.88,2.5,15.8,4.97,23.7,7.45.39.12.75.27,1.44.52-.78.25-1.27.41-1.76.56-7.72,2.4-15.45,4.79-23.15,7.22-1.07.34-1.88.38-3,.03-7.78-2.47-15.6-4.9-23.4-7.35-.44-.14-.86-.3-1.45-.51.48-.19.81-.36,1.18-.47,7.92-2.47,15.84-4.93,23.74-7.42.97-.3,1.7-.34,2.7-.02v-.02ZM488.06,112.57c8.06,2.65,16.11,5.29,24.18,7.94.66.22,1,.45,1,.91.06,5.26.15,10.52.23,15.78,0,.1-.05.19-.13.44-.62-.17-1.08-.29-1.51-.44-7.76-2.54-15.51-5.11-23.29-7.65-.89-.29-1.3-.59-1.3-1.2-.04-5.07-.14-10.14-.22-15.2,0-.23.03-.44.06-.75.39.06.72.08.98.17h0ZM487.1,110.65c.1-4.94.23-9.88.28-14.82,0-.68.35-1.1,1.46-1.46,7.76-2.5,15.46-5.03,23.19-7.56.43-.14.89-.25,1.54-.44.04.42.09.72.09,1.03-.1,4.94-.23,9.88-.28,14.82,0,.69-.36,1.1-1.47,1.45-7.7,2.49-15.36,5.02-23.03,7.53-.48.16-.96.3-1.69.54-.04-.48-.09-.78-.09-1.1h0ZM512.27,119.82c-7.77-2.47-15.59-4.9-23.38-7.35-.43-.14-.84-.3-1.47-.54.68-.22,1.16-.37,1.64-.52,7.82-2.43,15.64-4.85,23.43-7.31.98-.3,1.7-.31,2.69,0,7.83,2.48,15.69,4.93,23.53,7.39.43.14.83.3,1.39.51-.58.21-.99.37-1.42.51-7.81,2.44-15.63,4.86-23.41,7.32-1.09.35-1.91.34-3,0v-.02ZM514.34,121.57c0-.51.28-.82,1.09-1.08,8.04-2.6,16.04-5.24,24.05-7.86.25-.08.51-.14.95-.26.07.29.17.52.16.75-.1,5.09-.22,10.19-.3,15.29-.01.44-.15.78-.93,1.03-8.23,2.67-16.44,5.36-24.66,8.05-.1.03-.22.03-.59.1-.04-.3-.08-.51-.08-.72.1-5.09.22-10.19.3-15.29h0ZM514.48,103.14c-.1-5.53-.19-11.08-.28-16.62,1.31.14,23.08,7.18,26.15,8.45.09,5.5.18,11.02.27,16.78-8.94-2.94-17.49-5.76-26.14-8.6h0ZM514.21,85c.1-5.13.23-10.27.29-15.4.01-.62.52-.91,1.38-1.18,7.04-2.28,14.07-4.57,21.11-6.86,1.14-.37,2.29-.73,3.73-1.19.03.48.06.79.05,1.11-.1,4.97-.22,9.95-.28,14.92-.01.57-.3.93-1.23,1.24-7.9,2.55-15.76,5.14-23.63,7.72-.34.11-.71.2-1.2.34-.08-.26-.21-.46-.21-.67h0ZM540.74,59.78c-.77-.24-1.27-.38-1.76-.55-7.62-2.5-15.21-5.02-22.85-7.49-1.07-.35-1.52-.71-1.53-1.43-.02-4.94-.13-9.88-.21-14.81,0-.31.04-.62.07-1.05.57.15.99.24,1.36.36,7.86,2.58,15.72,5.16,23.58,7.74.74.24,1.22.48,1.22,1.03.04,5.16.15,10.33.23,15.49,0,.18-.06.37-.12.71h0ZM515.18,52.12c8.09,2.55,16.19,5.09,24.29,7.63.25.08.46.17.92.36-.57.2-.93.36-1.33.48-7.91,2.46-15.83,4.93-23.72,7.4-.9.28-1.59.32-2.54.03-7.98-2.53-15.99-5.02-23.99-7.53-.29-.09-.57-.21-1.01-.37.44-.18.75-.35,1.12-.46,8.01-2.5,16.03-4.99,24.03-7.5.79-.24,1.41-.3,2.24-.03ZM513.54,50.41c-.01.58-.34.93-1.25,1.23-7.94,2.57-15.85,5.17-23.77,7.75-.3.1-.61.17-1.06.3-.08-.24-.2-.45-.2-.65.1-5.13.21-10.26.31-15.39.01-.45.2-.78.96-1.03,8.18-2.66,16.34-5.33,24.51-8,.15-.04.32-.07.71-.15.04.36.09.6.08.85-.1,5.03-.23,10.07-.29,15.09h0ZM488.9,60.87c7.77,2.55,15.52,5.11,23.3,7.65.83.27,1.23.56,1.23,1.12.05,5.1.15,10.21.23,15.31,0,.19-.03.38-.04.55-.1.03-.15.06-.2.07-.05,0-.12.03-.16.02-.32-.08-.64-.16-.93-.25-8.26-2.71-16.51-5.43-24.81-8.16-.09-5.56-.19-11.07-.28-16.78.76.21,1.22.32,1.65.47h0ZM488.31,78.15c7.83,2.48,15.7,4.94,23.55,7.39.4.12.76.28,1.45.52-.77.24-1.26.41-1.74.56-7.77,2.42-15.54,4.83-23.3,7.26-.86.27-1.56.4-2.54.1-8.03-2.55-16.1-5.07-24.15-7.59-.3-.09-.57-.21-1-.37.44-.18.76-.36,1.14-.47,7.91-2.47,15.84-4.93,23.73-7.42,1.05-.33,1.83-.3,2.86.02h0ZM434.27,129.43c-.38-.14-.7-.25-.94-.35-.09-5.5-.18-11.02-.28-16.76,4.88,1.6,9.65,3.17,14.38,4.73v-.03c3.89,1.28,7.76,2.55,11.65,3.83.1,5.53.19,11.07.28,16.62-.63-.06-6-1.72-11.75-3.57v-.08c-4.46-1.46-8.89-2.92-13.34-4.38h0ZM434.93,111.09c-.27.09-.53.17-.83.27-.26.08-.54.15-.95.26-.05-.4-.09-.66-.08-.91.1-4.97.23-9.94.28-14.91,0-.7.42-1.1,1.5-1.45,4.26-1.38,8.5-2.76,12.75-4.15v-.05c3.51-1.15,7.03-2.3,10.55-3.45.33-.11.71-.18,1.23-.32.06.32.13.56.13.79-.1,5.07-.22,10.14-.3,15.2-.01.53-.24.88-1.13,1.17-3.56,1.15-7.11,2.31-10.66,3.47h0c-4.17,1.36-8.33,2.73-12.5,4.08h0ZM458.29,119.87c-3.55-1.13-7.12-2.26-10.68-3.37v-.02c-4.31-1.35-8.61-2.7-12.91-4.05-.33-.1-.63-.24-1.19-.45.15-.06.27-.11.39-.17.47-.15.82-.26,1.16-.37,4.19-1.31,8.38-2.61,12.56-3.92v-.05c3.58-1.12,7.17-2.24,10.75-3.37.96-.3,1.7-.34,2.7-.03,7.88,2.5,15.8,4.97,23.7,7.45.39.12.76.27,1.44.52-.78.25-1.27.41-1.76.57-7.72,2.4-15.45,4.79-23.15,7.22-1.07.34-1.88.38-3,.03h0ZM460.2,121.61c.01-.52.21-.88,1.11-1.17,7.99-2.59,15.94-5.21,23.9-7.81.3-.1.62-.17,1.12-.31.05.33.13.6.12.87-.1,5.03-.22,10.07-.3,15.1-.01.52-.2.89-1.1,1.18-8.04,2.6-16.05,5.23-24.07,7.85-.25.08-.52.14-1.02.27-.03-.38-.08-.64-.07-.88.1-5.03.22-10.07.3-15.09h.01ZM486.44,111.65c-.55-.15-.96-.24-1.34-.37-7.87-2.59-15.73-5.18-23.6-7.75-.84-.28-1.19-.57-1.2-1.13-.05-5.1-.15-10.21-.23-15.31,0-.22.05-.43.09-.74.5.13.86.21,1.18.31,7.91,2.6,15.82,5.22,23.75,7.8.85.28,1.2.57,1.2,1.13.05,5.1.15,10.21.23,15.31,0,.22-.05.43-.09.74h0ZM460.15,84.78c.1-5,.22-10,.29-15,.01-.57.23-.94,1.19-1.25,7.89-2.55,15.74-5.14,23.61-7.72.38-.12.8-.22,1.39-.38.03.4.08.71.08,1.02-.1,4.94-.23,9.87-.28,14.81,0,.7-.4,1.09-1.49,1.44-7.69,2.49-15.35,5.01-23.01,7.52-.48.16-.97.31-1.66.53-.05-.42-.11-.69-.11-.97h0ZM460.58,51.22c-.1-5.59-.19-11.1-.28-16.57.16-.05.21-.07.26-.08.05,0,.12-.03.16-.02.31.09.63.16.93.25,8.25,2.72,16.5,5.43,24.8,8.16.09,5.56.18,11.1.28,16.85-8.88-2.92-17.46-5.74-26.15-8.6ZM461.05,52.09c8.08,2.56,16.19,5.09,24.28,7.63.24.08.46.17.84.33-.44.17-.76.34-1.13.45-7.96,2.48-15.92,4.96-23.87,7.45-.81.25-1.48.36-2.39.06-3.72-1.18-7.45-2.35-11.18-3.52v-.03c-4.14-1.3-8.27-2.6-12.41-3.89-.44-.14-.86-.3-1.46-.51.43-.17.71-.31,1.03-.41,4.28-1.33,8.56-2.67,12.84-4.01v-.05c3.69-1.15,7.38-2.29,11.06-3.44.81-.25,1.47-.37,2.38-.08h0ZM459.46,50.44c0,.57-.27.93-1.21,1.24-3.61,1.18-7.21,2.35-10.82,3.53h0c-4.16,1.35-8.3,2.72-12.46,4.08-.18.06-.37.12-.56.18-.28.09-.58.17-.95.26-.08-.31-.16-.54-.16-.76.1-5.07.22-10.14.3-15.2,0-.51.19-.89,1.09-1.18,4.31-1.39,8.6-2.8,12.9-4.2v-.03c2.04-.66,4.08-1.32,6.11-1.99,1.89-.62,3.8-1.22,5.94-1.9.05.37.1.63.1.87-.1,5.03-.22,10.08-.3,15.11h0ZM433.34,60.49c.11.02.22.03.32.05.43.12.82.23,1.16.34,4.2,1.38,8.41,2.76,12.61,4.14v-.03c3.64,1.19,7.27,2.39,10.9,3.58.65.22,1.01.44,1.02.9.06,5.26.15,10.52.23,15.78,0,.1-.05.18-.12.44-.62-.17-1.08-.29-1.5-.43-3.45-1.13-6.9-2.27-10.35-3.41v-.02c-4.31-1.42-8.62-2.84-12.94-4.25-.85-.28-1.18-.59-1.18-1.14-.05-5.07-.15-10.13-.23-15.2,0-.23.05-.45.09-.77h0ZM433.33,77.97c.18.03.37.07.57.13,4.51,1.43,9.02,2.85,13.53,4.26v-.03c3.46,1.09,6.92,2.17,10.38,3.26.39.12.75.27,1.28.46-.51.19-.85.35-1.23.46-3.47,1.09-6.95,2.17-10.43,3.26h0c-4.49,1.4-8.99,2.8-13.47,4.2-.17.05-.33.1-.49.13-.1.02-.2.04-.3.05h-.06c-.27.03-.52.03-.8,0-.18-.03-.37-.07-.57-.13-8.03-2.54-16.09-5.05-24.14-7.59-.29-.09-.55-.21-.99-.37.53-.2.91-.37,1.33-.51,7.91-2.46,15.83-4.93,23.73-7.4.39-.12.75-.2,1.11-.23h.02c.17,0,.34.02.51.03h0ZM383.98,113.94c6.39,2.11,12.79,4.21,19.21,6.3.18.06.35.12.51.17.93.33,1.3.71,1.3,1.36.03,4.95.14,9.88.21,14.83,0,.3-.04.59-.08.99-.59-.17-1.06-.3-1.49-.44-7.67-2.52-15.32-5.05-23.01-7.55-1.09-.35-1.49-.73-1.49-1.44-.03-4.95-.14-9.88-.21-14.83,0-.27.03-.55.06-.9.66.16,2.53.72,4.99,1.49h.01ZM379,110.9c.1-5.09.21-10.19.3-15.29,0-.45.17-.78.94-1.03,8.18-2.66,16.34-5.34,24.5-8,.12-.04.28-.07.56-.12.04.33.08.57.08.81-.1,5.03-.22,10.07-.3,15.1-.01.44-.13.77-.72,1.04-.07.03-.13.05-.2.08-.06.02-.11.04-.17.06-8.04,2.6-16.04,5.23-24.06,7.86-.15.05-.33.1-.53.15-.08.02-.16.03-.26.06-.07-.27-.15-.49-.15-.71ZM404.98,120.06s-.05,0-.08-.02c-.11-.03-.21-.05-.32-.09-8.03-2.55-16.1-5.07-24.15-7.59-.3-.1-.57-.21-1.01-.37.44-.18.76-.36,1.13-.47,7.91-2.47,15.84-4.93,23.74-7.42.47-.15.89-.23,1.31-.24.38,0,.77.06,1.22.2,7.93,2.52,15.9,5,23.85,7.5.33.1.64.24,1.23.45-.54.19-.92.34-1.32.47-.12.03-.23.07-.34.1-7.77,2.42-15.54,4.83-23.3,7.27-.2.06-.38.11-.56.16-.39.09-.76.13-1.17.09-.08,0-.16-.03-.25-.04h0ZM407.15,86.69c7.97,2.61,15.92,5.23,23.89,7.85.64.21,1.06.41,1.07.88.05,5.29.14,10.59.22,15.88,0,.05-.05.11-.13.27-4.39-1.32-8.57-2.78-12.82-4.16-4.33-1.41-8.65-2.85-13-4.28-.09-5.56-.18-11.05-.27-16.67.43.08.77.13,1.04.22h0ZM406.13,84.79c.1-5.03.22-10.07.3-15.1.01-.53.23-.87,1.13-1.17,7.98-2.59,15.94-5.21,23.9-7.81.26-.09.55-.16.92-.25.06.28.15.51.14.73-.1,5.07-.22,10.13-.3,15.19,0,.53-.22.88-1.12,1.18-8.02,2.6-16.02,5.23-24.03,7.84-.23.07-.5.13-.88.23-.03-.36-.07-.6-.06-.84h0ZM406.23,121.78c.01-.7.41-1.1,1.5-1.45,7.64-2.46,15.24-4.96,22.86-7.45.5-.16,1.01-.32,1.54-.49.1.25.22.44.22.63-.1,5.16-.21,10.33-.31,15.49,0,.07-.02.13-.03.19-.16.37-.54.63-1.2.87-8.07,2.63-16.13,5.27-24.19,7.91-.12.03-.27.06-.56.12-.02-.03-.03-.07-.05-.11-.03-.34-.06-.62-.05-.89.1-4.94.23-9.88.28-14.82h0ZM427.5,58.13c-6.61-2.17-13.21-4.35-19.83-6.51-.1-.03-.2-.07-.29-.1-.55-.2-.85-.44-.85-.84-.06-5.26-.15-10.53-.23-15.79,0-.07.02-.14.06-.28.64.14,2.37.65,4.67,1.37,6.94,2.28,13.79,4.54,20.68,6.8.23.09.43.16.6.23.1,5.51.19,11.02.28,16.62-.48-.08-2.43-.65-5.1-1.48h0ZM406.47,52.03c.21.03.41.09.64.16,7.88,2.5,15.8,4.97,23.7,7.45.37.11.73.26,1.34.49-.5.18-.86.34-1.22.45-.15.05-.3.1-.45.14-7.6,2.36-15.21,4.72-22.78,7.11-.13.03-.25.08-.37.11-.26.08-.51.15-.74.19h-.04c-.19.03-.36.04-.54.06-.47,0-.95-.05-1.5-.23-7.78-2.47-15.6-4.9-23.4-7.35-.44-.14-.86-.3-1.45-.51.48-.19.81-.36,1.18-.47,7.92-2.47,15.84-4.93,23.74-7.42.43-.13.81-.21,1.19-.23.23,0,.47.02.7.05ZM405.26,50.43c0,.29-.06.54-.27.75-.19.17-.46.32-.87.45-7.97,2.58-15.91,5.19-23.86,7.79-.22.07-.47.13-.75.21-.06.02-.11.03-.17.04-.07-.28-.17-.51-.16-.73.1-5.07.23-10.14.29-15.2.01-.64.43-.98,1.39-1.29,7.89-2.56,15.76-5.15,23.63-7.72.26-.09.55-.15,1-.26.04.36.08.6.08.84-.1,5.03-.22,10.08-.3,15.11h0ZM389.88,63.89c3.56,1.17,7.11,2.34,10.66,3.5,2.23.76,3.93,1.35,4.59,1.62.09,5.41.18,10.86.27,16.51-.48-.07-2.48-.66-5.21-1.51-6.66-2.19-13.2-4.34-19.78-6.5-.4-.14-.73-.27-.98-.37-.09-5.51-.18-11.02-.28-16.55,1.07.24,5.67,1.66,10.72,3.29h0ZM379.17,77.91c.14.03.28.05.42.1,8.19,2.59,16.39,5.16,24.58,7.72.17.05.33.13.67.28-.35.15-.61.29-.89.37-.04,0-.08.03-.12.03-.94.3-1.87.58-2.81.88-5.31,1.65-10.62,3.31-15.92,4.97-1.69.53-3.39,1.05-5.08,1.58-.47.14-.89.22-1.3.23-.5,0-.99-.08-1.56-.26-7.72-2.46-15.48-4.88-23.22-7.31-.44-.14-.86-.3-1.46-.51.43-.17.71-.31,1.03-.41,8.06-2.52,16.13-5.02,24.19-7.54.27-.09.53-.14.79-.17.23-.02.46,0,.7.02v.02ZM324.91,112.37c.17.04.32.09.47.12,8.44,2.74,16.61,5.45,24.86,8.16.28.14.48.3.59.5.09,5.32.18,10.63.26,16.11-.02.1-.04.2-.06.33-.73-.23-1.2-.37-1.64-.51-7.57-2.49-15.12-4.99-22.71-7.45-1.12-.37-1.61-.74-1.61-1.5,0-4.88-.12-9.75-.2-14.63,0-.32.02-.65.05-1.14h0ZM324.87,110.68c.1-5.01.21-10.01.3-15,.01-.51.15-.89,1.07-1.18,8.09-2.61,16.14-5.27,24.21-7.91.16-.05.36-.1.61-.16.09.22.21.41.2.59-.1,5.16-.22,10.32-.3,15.47,0,.24-.09.42-.25.57-.03.03-.07.05-.11.08-.18.13-.4.24-.72.35-8.03,2.61-16.04,5.23-24.06,7.86-.24.08-.52.14-.88.22-.04-.35-.08-.62-.08-.89h0ZM350.18,119.87c-7.77-2.47-15.58-4.9-23.38-7.35-.44-.14-.86-.3-1.46-.51.53-.2.92-.37,1.34-.51,7.91-2.46,15.83-4.93,23.73-7.4.39-.12.75-.2,1.11-.23.17,0,.35.02.53.03.18.03.37.07.57.13,8.03,2.54,16.09,5.06,24.13,7.59.27.09.53.19,1.01.38-.47.18-.8.32-1.16.44-.12.03-.23.07-.34.1-7.09,2.21-14.19,4.42-21.26,6.64-.73.23-1.47.45-2.2.69-.23.07-.45.12-.66.17-.03,0-.06,0-.09.02-.15.03-.29.03-.44.03-.46,0-.92-.06-1.46-.23h0ZM352.1,121.62c.01-.64.43-.98,1.38-1.29,7.89-2.55,15.76-5.14,23.63-7.72.25-.08.54-.15.97-.25.02.06.04.1.06.16.03.27.06.47.06.67-.1,5.03-.22,10.08-.29,15.11,0,.57-.31.93-1.24,1.23-7.89,2.56-15.76,5.15-23.63,7.72-.29.1-.61.17-1.04.3-.03,0-.04,0-.07.02-.06-.32-.13-.58-.12-.84.1-5.03.23-10.08.29-15.11h0ZM378.16,111.65c-.67-.21-1.15-.35-1.6-.5-7.61-2.5-15.21-5.02-22.84-7.49-1.08-.35-1.51-.72-1.52-1.43-.02-4.94-.13-9.88-.21-14.82,0-.3.04-.59.07-.99.48.12.86.21,1.19.32,7.86,2.58,15.72,5.17,23.58,7.74.74.24,1.21.48,1.22,1.03.05,5.16.15,10.33.23,15.49,0,.17-.06.35-.11.64h-.01ZM352.06,84.75c.1-4.97.23-9.95.29-14.92.01-.64.3-1.05,1.37-1.38,7.85-2.53,15.66-5.1,23.49-7.66.3-.1.64-.18,1.06-.3.09.24.19.44.19.63-.1,5.13-.22,10.27-.3,15.4,0,.24-.07.43-.21.59-.03.03-.07.06-.1.1-.05.04-.1.08-.17.12-.05.03-.1.06-.15.09-.13.07-.27.13-.46.18-3.33,1.08-6.65,2.18-9.98,3.27-1.89.62-3.78,1.24-5.67,1.85-2.7.89-5.41,1.77-8.11,2.66-.3.09-.63.18-1.03.29-.05,0-.11.03-.16.03-.03-.4-.08-.67-.07-.94h0ZM378.37,59.68c-4.46-1.34-8.63-2.8-12.87-4.18-4.34-1.41-8.65-2.84-13-4.28-.1-5.55-.18-11.05-.28-16.69.48.1.86.17,1.18.28,7.92,2.6,15.82,5.21,23.75,7.79.73.24,1.06.49,1.07.98.06,5.2.16,10.4.24,15.6,0,.11-.04.24-.08.49h0ZM352.32,51.99c.21.03.42.09.65.16,7.88,2.5,15.8,4.97,23.7,7.45.36.11.7.25,1.26.45-.29.14-.52.25-.76.35-.58.18-1.13.36-1.65.53-1.7.53-3.4,1.06-5.11,1.59-4.12,1.28-8.22,2.56-12.33,3.85-1.66.51-3.31,1.04-4.97,1.55-.45.13-.86.21-1.27.23-.51,0-1.03-.08-1.63-.27-7.67-2.46-15.39-4.85-23.08-7.27-.47-.15-.93-.31-1.51-.51-.02,0-.05-.03-.08-.03.42-.18.69-.34,1.01-.44,7.96-2.49,15.94-4.96,23.89-7.46.34-.1.65-.17.96-.2.31-.03.61-.02.92.03v.02ZM351.19,50.54c-.01.45-.19.78-.95,1.03-8.18,2.66-16.34,5.33-24.51,8-.02,0-.03,0-.05,0-.12.03-.26.05-.5.1-.04-.33-.08-.57-.07-.81.1-5.03.22-10.07.3-15.09.01-.52.21-.88,1.11-1.18,8.04-2.6,16.04-5.23,24.06-7.86.21-.07.45-.12.75-.2.08.23.18.43.18.62-.1,5.13-.21,10.26-.3,15.39v-.02ZM325.14,60.39c8.74,2.87,17.27,5.68,25.91,8.52.09,5.54.19,11.08.28,16.72-.4-.07-.74-.12-1.01-.21-8.02-2.63-16.03-5.27-24.05-7.9-.65-.21-1.01-.44-1.02-.9-.06-5.26-.15-10.53-.23-15.79,0-.09.04-.18.11-.44h0ZM325.18,77.98c.21.03.43.09.66.17,7.88,2.5,15.8,4.97,23.7,7.45.36.11.71.25,1.31.48-.44.17-.75.32-1.09.44-.19.06-.37.12-.55.17-6.6,2.06-13.2,4.1-19.78,6.17-1.15.36-2.29.71-3.43,1.07-.46.14-.87.22-1.28.24-.46,0-.93-.06-1.47-.24-7.78-2.47-15.6-4.9-23.4-7.35-.44-.14-.86-.3-1.45-.51.48-.19.81-.36,1.18-.47,7.92-2.47,15.84-4.93,23.74-7.42.45-.14.85-.22,1.26-.24.2,0,.41.03.61.05v-.03ZM271.58,112.57c8.06,2.65,16.11,5.29,24.18,7.94.66.22,1,.45,1,.91.06,5.26.15,10.52.23,15.78,0,.09-.05.18-.11.38-.53-.15-.96-.26-1.35-.39-7.76-2.54-15.51-5.11-23.29-7.65-.89-.29-1.3-.59-1.3-1.2-.04-5.07-.14-10.14-.22-15.2,0-.22.03-.44.05-.72.31.04.59.07.81.15h0ZM270.79,110.65c.1-4.94.23-9.88.28-14.82,0-.68.35-1.1,1.46-1.46,7.76-2.5,15.46-5.03,23.19-7.56.39-.13.81-.24,1.37-.39.04.39.09.69.08.98-.1,4.94-.23,9.88-.28,14.82-.01.69-.36,1.1-1.47,1.45-7.7,2.49-15.36,5.02-23.03,7.53-.44.14-.89.28-1.52.49-.04-.44-.09-.75-.09-1.05h0ZM295.97,119.82c-7.77-2.47-15.59-4.9-23.38-7.35-.43-.14-.84-.3-1.47-.54.68-.22,1.16-.37,1.64-.52,7.81-2.43,15.64-4.85,23.43-7.31.46-.14.86-.22,1.26-.23.4,0,.8.08,1.26.23,7.83,2.48,15.69,4.93,23.53,7.39.43.14.83.3,1.39.51-.58.21-.99.37-1.42.51-7.81,2.44-15.63,4.86-23.41,7.32-.51.17-.96.24-1.41.25-.45,0-.9-.09-1.42-.25v-.02ZM298.04,121.57c0-.51.28-.82,1.09-1.08,8.04-2.6,16.04-5.24,24.05-7.86.21-.07.46-.13.79-.22.07.27.16.49.15.71-.1,5.09-.22,10.19-.3,15.29,0,.17-.04.3-.1.44-.15.24-.44.44-.93.62-8.2,2.66-16.38,5.34-24.56,8.01-.08.03-.19.03-.42.07-.04-.28-.08-.49-.08-.7.1-5.09.22-10.19.3-15.29h0ZM318.68,109.89c-6.93-2.28-13.69-4.5-20.51-6.74-.1-5.52-.19-11.05-.28-16.6,1.43.31,9.17,2.75,15.89,4.96v.03c1.98.65,3.96,1.3,5.94,1.95,1.98.67,3.49,1.21,4.15,1.48.09,5.41.18,10.85.27,16.51-.49-.07-2.6-.7-5.46-1.58h0ZM297.91,85c.1-5.13.23-10.27.29-15.4.01-.62.52-.91,1.39-1.18,7.04-2.28,14.07-4.57,21.11-6.86,1.09-.36,2.19-.7,3.53-1.13.01.05.02.1.03.15.02.37.04.64.04.91-.1,4.97-.22,9.95-.28,14.92-.01.57-.3.93-1.23,1.24-7.9,2.55-15.76,5.14-23.63,7.72-.3.1-.64.18-1.05.3-.08-.24-.2-.44-.19-.63v-.02ZM324.27,59.73c-.67-.21-1.15-.35-1.6-.5-7.62-2.5-15.21-5.02-22.85-7.49-1.07-.35-1.52-.71-1.53-1.43-.02-4.94-.13-9.88-.21-14.81,0-.3.04-.6.06-1,.48.12.86.21,1.19.31,7.86,2.58,15.72,5.16,23.58,7.74.74.24,1.22.48,1.22,1.03.04,5.16.15,10.33.23,15.49,0,.17-.05.35-.11.65h0ZM298.7,52.12c8.09,2.55,16.19,5.09,24.29,7.63.25.08.46.17.92.36-.57.2-.93.36-1.33.48-7.91,2.46-15.83,4.93-23.72,7.4-.42.13-.8.21-1.18.23-.37,0-.75-.06-1.18-.2-7.98-2.53-15.99-5.02-23.99-7.53-.29-.09-.57-.21-1.01-.37.44-.18.75-.35,1.11-.46,8.01-2.5,16.03-4.99,24.03-7.5.37-.11.71-.18,1.04-.2.32,0,.65.05,1.02.17h0ZM297.06,50.41c-.01.58-.34.93-1.25,1.23-7.94,2.57-15.85,5.17-23.77,7.75-.26.09-.54.16-.9.25-.08-.23-.18-.43-.18-.62.1-5.13.21-10.26.31-15.39.01-.45.2-.78.96-1.03,8.18-2.66,16.34-5.33,24.51-8,.12-.03.27-.06.54-.11.04.34.08.57.08.82-.1,5.03-.23,10.07-.29,15.09h0ZM272.43,60.87c7.77,2.55,15.52,5.11,23.3,7.65.83.27,1.23.56,1.23,1.12.05,5.1.15,10.21.23,15.31,0,.19-.03.38-.04.55-.1.03-.15.06-.2.07h-.03c-.3-.08-.6-.15-.89-.24-8.26-2.71-16.51-5.43-24.81-8.16-.09-5.54-.19-11.04-.28-16.73.65.18,1.08.29,1.47.42h.01ZM271.83,78.15c7.83,2.48,15.7,4.94,23.55,7.39.4.12.76.28,1.45.52-.77.24-1.26.41-1.75.56-7.77,2.42-15.54,4.83-23.3,7.26-.49.16-.93.26-1.4.27-.3,0-.62-.06-.97-.17-8.03-2.55-16.1-5.07-24.15-7.59-.3-.09-.57-.21-1-.37.44-.18.76-.36,1.14-.47,7.91-2.47,15.84-4.93,23.73-7.42.49-.16.92-.23,1.34-.23.43.02.86.1,1.34.25h0ZM220.59,130.35c-1.71-.58-3.02-1.05-3.69-1.32-.09-5.47-.18-10.98-.27-16.73,8.86,2.92,17.35,5.71,25.97,8.54.1,5.52.19,11.05.28,16.59-1.14-.24-6.29-1.84-11.75-3.6v-.02c-3.52-1.16-7.02-2.31-10.53-3.46h0ZM216.65,110.64c.1-4.94.23-9.88.28-14.82,0-.73.43-1.14,1.56-1.51.7-.23,1.39-.45,2.08-.68,7.11-2.3,14.19-4.62,21.28-6.94.29-.1.64-.17,1.07-.28.06.3.13.53.12.76-.1,5.07-.22,10.14-.3,15.2-.01.53-.24.88-1.13,1.17-7.95,2.57-15.86,5.17-23.78,7.77-.3.1-.63.18-1.14.31-.03-.43-.06-.71-.05-.98h0ZM241.98,119.87c-7.78-2.47-15.6-4.9-23.4-7.35-.44-.14-.86-.3-1.45-.51.48-.19.81-.36,1.18-.47,7.91-2.47,15.84-4.93,23.74-7.42.46-.14.86-.22,1.26-.24.4,0,.8.07,1.26.22,7.88,2.5,15.8,4.97,23.7,7.45.39.12.76.27,1.44.52-.78.25-1.27.41-1.76.57-7.72,2.4-15.45,4.79-23.15,7.22-.51.16-.96.25-1.41.27-.45,0-.9-.07-1.42-.24v-.03ZM243.9,121.61c.01-.52.21-.88,1.11-1.17,7.99-2.59,15.94-5.21,23.9-7.81.26-.09.56-.16.95-.27.05.31.12.57.12.83-.1,5.03-.22,10.07-.3,15.1-.01.52-.2.89-1.1,1.18-8.04,2.6-16.05,5.23-24.07,7.85-.22.07-.46.12-.85.23-.03-.36-.07-.6-.07-.84.1-5.03.22-10.07.3-15.09h0ZM269.97,111.62c-.46-.12-.84-.21-1.17-.32-7.87-2.59-15.73-5.18-23.6-7.75-.84-.28-1.19-.57-1.2-1.13-.05-5.1-.15-10.21-.23-15.31,0-.2.05-.41.09-.7.4.1.73.17,1.02.27,7.91,2.6,15.82,5.22,23.75,7.8.85.28,1.2.57,1.2,1.13.05,5.1.15,10.21.23,15.31,0,.2-.05.41-.09.7h0ZM243.85,84.78c.1-5,.22-10,.29-15,.01-.57.23-.94,1.19-1.25,7.89-2.55,15.74-5.14,23.61-7.72.34-.11.73-.21,1.22-.34.03.37.08.67.07.97-.1,4.94-.23,9.87-.28,14.81,0,.7-.4,1.09-1.49,1.44-7.69,2.49-15.35,5.01-23.01,7.52-.44.15-.89.29-1.49.48-.05-.38-.11-.65-.1-.91h0ZM244.28,51.22c-.09-5.59-.19-11.1-.28-16.57.16-.05.21-.07.26-.08h.03c.3.08.6.16.89.24,8.25,2.72,16.5,5.43,24.8,8.16.09,5.55.18,11.06.28,16.8-8.82-2.9-17.34-5.7-25.97-8.53v-.02ZM244.57,52.09c8.08,2.56,16.19,5.09,24.28,7.63.24.08.46.17.84.33-.44.17-.76.34-1.13.45-7.96,2.48-15.92,4.96-23.87,7.45-.39.12-.75.21-1.12.23-.34,0-.7-.03-1.1-.17-8.08-2.56-16.19-5.09-24.28-7.63-.23-.07-.44-.17-.88-.35.38-.16.65-.28.94-.37.1-.03.19-.06.28-.09,1.38-.43,2.76-.86,4.15-1.29,6.56-2.04,13.12-4.08,19.67-6.13.39-.12.75-.21,1.12-.24.34,0,.69.03,1.09.16h0ZM242.98,50.44c0,.57-.27.93-1.21,1.24-7.89,2.56-15.75,5.15-23.62,7.72-.3.1-.64.18-1.04.3-.1-.19-.22-.36-.22-.51.09-5.2.22-10.4.29-15.59,0-.15.04-.28.11-.38h0c.2-.33.67-.51,1.26-.71,6.29-2.05,12.58-4.09,18.87-6.14,1.84-.6,3.7-1.18,5.77-1.85.05.34.1.58.09.82-.1,5.03-.22,10.08-.3,15.11h0ZM217.83,60.69c8.02,2.63,16.02,5.27,24.03,7.89.65.22,1.01.44,1.02.9.06,5.26.15,10.52.23,15.78,0,.09-.04.17-.11.39-.53-.15-.96-.25-1.34-.38-7.76-2.55-15.51-5.11-23.29-7.64-.9-.29-1.31-.6-1.31-1.19-.04-5.07-.15-10.14-.23-15.2,0-.22.03-.44.05-.74.36.06.69.1.95.19h0ZM217.66,78.14c7.88,2.5,15.78,4.96,23.68,7.45.39.12.75.27,1.28.46-.51.19-.85.35-1.23.46-7.96,2.48-15.92,4.96-23.88,7.45-.41.13-.78.2-1.16.21-.33,0-.67-.06-1.06-.18-7.98-2.53-15.99-5.02-23.98-7.53-.32-.1-.62-.23-1.13-.42.46-.17.82-.32,1.2-.45.17-.05.33-.1.49-.16,7.3-2.27,14.61-4.54,21.89-6.83.47-.15.94-.3,1.41-.44.44-.14.84-.22,1.23-.24.4,0,.8.06,1.26.21h0ZM172.53,115.54c3.38,1.11,6.77,2.22,10.15,3.33,2.39.8,4.34,1.47,5.35,1.85.23.14.4.3.5.48.09,5.37.18,10.8.27,16.45-.22-.06-.4-.11-.59-.17-8.46-2.78-16.61-5.46-24.77-8.14-.35-.18-.57-.39-.68-.65-.09-5.36-.18-10.69-.27-16.05,0-.06.01-.11.02-.17,1.07.25,5.27,1.56,10.02,3.08h0ZM162.58,110.89c.1-5.09.21-10.19.3-15.29,0-.45.16-.78.94-1.03,8.18-2.66,16.34-5.34,24.5-8,.01,0,.03,0,.04,0,.12-.03.27-.06.53-.11.04.32.08.57.08.8-.1,5.06-.22,10.13-.3,15.19-.01.51-.28.82-1.09,1.08-8.08,2.62-16.14,5.27-24.21,7.91-.16.05-.37.1-.64.17-.07-.26-.16-.48-.15-.71h0ZM188.21,119.95c-8.09-2.56-16.2-5.09-24.3-7.64-.25-.08-.48-.17-.89-.33.42-.18.73-.36,1.09-.47,7.97-2.49,15.94-4.97,23.9-7.46.14-.04.26-.07.39-.1.47-.1.91-.13,1.39-.06.15.03.29.05.44.1,8.04,2.54,16.1,5.06,24.15,7.59.33.1.62.25,1.06.44-.58.21-.98.37-1.41.51-7.87,2.46-15.74,4.9-23.6,7.37-.42.13-.79.22-1.18.24-.32,0-.66-.04-1.03-.16h-.01ZM189.81,121.48c0-.09.04-.16.06-.23.15-.31.48-.56,1-.77.1-.03.19-.07.29-.1,6.29-2.04,12.57-4.09,18.86-6.14,1.83-.59,3.69-1.18,5.79-1.85.02.03.03.06.04.09.03.36.06.64.06.91-.1,4.94-.23,9.88-.28,14.82,0,.7-.41,1.09-1.49,1.45-7.7,2.49-15.35,5.02-23.03,7.53-.38.12-.78.25-1.26.4-.03,0-.07,0-.1.02-.11-.24-.23-.44-.23-.62.1-5.16.22-10.33.29-15.49h0ZM215.83,111.63c-.43-.13-.84-.26-1.26-.39-8.33-2.73-16.46-5.41-24.61-8.09-.09-5.55-.18-11.04-.28-16.68.09.02.18.03.26.05.35.08.66.14.91.23,7.92,2.6,15.83,5.21,23.75,7.79.73.24,1.07.5,1.07.98.06,5.2.16,10.4.24,15.6,0,.11-.04.24-.09.52h0ZM189.71,84.65c.1-4.94.23-9.88.28-14.8,0-.7.39-1.09,1.48-1.45,7.65-2.47,15.24-4.97,22.86-7.47.26-.09.52-.17.8-.25.24-.07.51-.14.86-.24.05.36.11.62.1.87-.1,5-.22,10-.29,15-.01.56-.2.94-1.16,1.25-7.99,2.59-15.95,5.2-23.92,7.8-.25.08-.54.15-.96.25-.02-.42-.05-.7-.04-.97h0ZM206.85,56.75c-4.2-1.38-8.4-2.76-12.6-4.14-1.69-.57-3.04-1.05-3.84-1.36-.12-.08-.22-.17-.28-.28-.09-5.4-.18-10.84-.27-16.3.01-.03.02-.05.03-.09.96.21,4.41,1.26,8.52,2.57,4.88,1.6,9.73,3.2,14.6,4.8,1.29.44,2.31.81,2.9,1.05.09,5.49.18,11.02.28,16.57-.98-.21-4.84-1.39-9.32-2.83h-.01ZM190.88,52.23c7.73,2.46,15.5,4.87,23.25,7.31.49.16.95.32,1.61.56-.6.23-.99.39-1.42.52-7.87,2.46-15.75,4.89-23.6,7.36-.34.1-.65.17-.97.21-.27.02-.54,0-.82-.03-.19-.03-.38-.07-.58-.14-7.98-2.53-16-5.02-24-7.54-.31-.1-.6-.23-1.08-.42.42-.17.73-.31,1.07-.43.1-.03.2-.06.29-.09,7.82-2.44,15.65-4.87,23.44-7.32.26-.08.51-.14.74-.18.05,0,.1,0,.15-.02.15-.02.3-.03.44-.03.48,0,.96.08,1.5.25h0ZM188.85,50.41c0,.57-.3.93-1.23,1.23-7.89,2.56-15.76,5.15-23.63,7.72-.3.1-.64.18-1.07.3-.07-.28-.17-.51-.16-.73.1-5.07.22-10.14.3-15.2,0-.42.17-.72.61-.98.02,0,.03-.03.05-.03.13-.07.29-.13.46-.19.06-.02.1-.04.16-.06,7.93-2.57,15.83-5.16,23.75-7.75.22-.07.46-.12.8-.21.06-.02.13-.03.2-.04.04.36.08.6.08.84-.1,5.03-.22,10.08-.29,15.11h0ZM168.39,62.24c6.46,2.12,12.81,4.21,19.21,6.31.48.17.85.31,1.11.42.09,5.51.18,11.02.28,16.54-.97-.21-4.83-1.39-9.32-2.82-4.32-1.42-8.61-2.83-12.89-4.23-1.75-.6-3.1-1.08-3.77-1.35-.09-5.41-.18-10.87-.27-16.53.5.09,2.7.74,5.65,1.66h0ZM163.45,78.09c7.93,2.52,15.89,5,23.83,7.49.35.11.67.24,1.16.41-.4.17-.67.31-.98.42-8.06,2.52-16.13,5.02-24.17,7.56-.15.05-.3.08-.44.11-.46.06-.9.05-1.37-.03-.09-.03-.17-.03-.26-.06-8.08-2.55-16.19-5.09-24.29-7.63-.23-.07-.44-.17-.88-.34.38-.16.64-.28.93-.37.16-.05.3-.1.45-.14,7.9-2.46,15.79-4.91,23.69-7.38.39-.12.75-.19,1.1-.21.39,0,.78.05,1.23.19h0ZM109.88,112.77c7.77,2.55,15.52,5.11,23.3,7.65.82.26,1.25.54,1.25,1.11.04,5.1.15,10.21.22,15.3,0,.2-.05.41-.11.75-8.48-2.79-16.77-5.51-25.1-8.25-.39-.19-.64-.41-.76-.69-.09-5.36-.18-10.69-.26-16.16,0-.04,0-.08,0-.12.63.17,1.06.28,1.45.4h0ZM108.45,110.52c.1-4.9.23-9.81.28-14.71.01-.69.37-1.1,1.46-1.45,5.44-1.76,10.85-3.54,16.27-5.31,2.36-.78,4.72-1.55,7.08-2.32.16-.05.34-.1.51-.17.17-.05.36-.1.64-.17.07.31.14.53.13.76-.1,5.06-.22,10.13-.3,15.2,0,.54-.27.88-1.15,1.16-7.99,2.59-15.95,5.2-23.91,7.8-.26.09-.55.15-.99.26-.02-.44-.04-.75-.04-1.05h0ZM134.58,120.07c-.17-.03-.35-.07-.54-.13-7.98-2.53-15.99-5.02-23.99-7.53-.32-.1-.62-.23-1.13-.42.49-.18.86-.34,1.24-.47.15-.04.29-.09.43-.14,7.76-2.41,15.53-4.82,23.28-7.26.45-.14.85-.23,1.25-.24.39,0,.8.06,1.26.21,7.87,2.5,15.78,4.96,23.68,7.45.39.12.75.27,1.28.46-.5.19-.84.34-1.22.46-7.96,2.48-15.93,4.96-23.87,7.45-.31.1-.59.16-.88.18-.27.02-.53,0-.8-.03h0ZM135.68,121.71c.01-.54.23-.91.92-1.21.1-.04.2-.09.32-.12.05-.02.09-.03.14-.05,7.9-2.55,15.76-5.14,23.63-7.72.15-.04.3-.09.47-.13.14-.03.27-.07.45-.11.08.24.18.43.18.62-.1,5.14-.22,10.27-.3,15.4,0,.5-.26.82-1.08,1.09-8.04,2.61-16.06,5.24-24.08,7.86-.21.07-.46.12-.86.23-.03-.4-.08-.67-.07-.94.1-4.97.22-9.95.29-14.92h0ZM161.74,111.64c-.67-.2-1.14-.35-1.59-.5-7.62-2.5-15.21-5.02-22.85-7.49-1.08-.35-1.52-.72-1.53-1.43-.03-4.94-.14-9.88-.21-14.82,0-.3.03-.6.06-1,.47.11.85.2,1.18.3,7.86,2.58,15.72,5.17,23.59,7.74.83.27,1.22.56,1.23,1.12.04,5.09.15,10.2.22,15.3,0,.2-.05.41-.1.76h0ZM135.63,84.91c.1-5.07.22-10.14.3-15.2,0-.24.06-.45.19-.64.04-.04.09-.09.14-.13.03-.03.07-.05.1-.08.07-.05.15-.1.24-.15.13-.06.26-.12.43-.18,7.99-2.59,15.95-5.2,23.92-7.8.19-.05.39-.11.62-.17.11-.03.23-.05.37-.09.01.03.02.05.03.09.02.36.05.62.05.87-.1,4.97-.23,9.95-.3,14.92-.01.6-.25.99-1.26,1.32-7.85,2.53-15.66,5.11-23.48,7.67-.34.11-.72.21-1.2.34-.07-.3-.16-.52-.16-.76h0ZM160.62,59.29c-8.35-2.74-16.43-5.4-24.56-8.07-.09-5.51-.18-11-.27-16.7.4.1.71.16.99.23,8.36,2.74,16.43,5.4,24.53,8.06.21.1.35.23.45.37.09,5.47.18,10.91.27,16.55-.48-.14-.94-.3-1.42-.44h0ZM136.8,52.22c7.73,2.46,15.5,4.88,23.25,7.31.45.14.88.3,1.46.51-.39.17-.64.33-.96.44-8.06,2.52-16.14,5.03-24.2,7.56-.12.03-.24.06-.36.1-.52.08-1.02.07-1.56-.03-8.24-2.6-16.49-5.19-24.74-7.79-.14-.04-.26-.11-.55-.24.24-.11.45-.2.64-.29.16-.06.3-.11.45-.17,7.47-2.33,14.94-4.65,22.39-6.99.41-.13.81-.25,1.22-.38.27-.09.52-.15.76-.19.04,0,.07,0,.1-.02.16-.03.31-.03.47-.04.52,0,1.04.06,1.65.25h0ZM134.77,50.54c-.01.45-.2.77-.97,1.02-8.18,2.66-16.34,5.33-24.51,8-.12.03-.28.06-.54.11-.04-.34-.08-.58-.07-.83.1-5.03.22-10.07.3-15.1.01-.53.23-.88,1.13-1.17,7.99-2.59,15.94-5.21,23.91-7.81.26-.08.54-.16.89-.24.07.24.18.43.17.63-.1,5.13-.22,10.26-.3,15.39h0ZM108.72,60.38c8.74,2.87,17.27,5.68,25.91,8.52.09,5.54.19,11.08.28,16.72-.41-.07-.74-.12-1.01-.21-8.02-2.63-16.03-5.27-24.05-7.9-.65-.21-1.01-.44-1.02-.9-.05-5.26-.15-10.53-.22-15.79,0-.09.04-.18.1-.44h0ZM109.59,78.18c7.78,2.47,15.6,4.9,23.4,7.35.44.14.85.3,1.44.51-.49.2-.82.36-1.2.48-7.97,2.48-15.95,4.96-23.91,7.45-.18.05-.34.1-.51.14-.45.07-.88.06-1.34-.02-.07-.02-.14-.03-.22-.05-3.25-1.03-6.52-2.05-9.78-3.07v.03c-4.7-1.48-9.41-2.95-14.11-4.42-.44-.14-.86-.3-1.45-.51.48-.19.81-.36,1.18-.47,4.8-1.5,9.59-3,14.38-4.49h0c3.09-.97,6.19-1.93,9.28-2.91.51-.17.96-.24,1.41-.25.45,0,.9.09,1.41.24h0ZM55.28,112.57c8.06,2.65,16.11,5.29,24.18,7.94.66.22,1,.45,1,.91.06,5.26.15,10.52.23,15.78,0,.1-.05.19-.13.44-.62-.17-1.08-.29-1.51-.44-7.76-2.54-15.51-5.11-23.29-7.65-.89-.29-1.3-.59-1.3-1.2-.04-5.07-.14-10.14-.22-15.2,0-.23.03-.44.06-.75.39.06.72.08.98.17h0ZM54.31,110.65c.1-4.94.23-9.88.28-14.82,0-.68.35-1.1,1.46-1.46,7.76-2.5,15.46-5.03,23.19-7.56.43-.14.89-.25,1.54-.44.04.42.09.72.09,1.03-.1,4.94-.23,9.88-.28,14.82,0,.69-.36,1.1-1.47,1.45-7.7,2.49-15.36,5.02-23.03,7.53-.48.16-.96.3-1.69.54-.04-.48-.1-.78-.09-1.1h0ZM79.49,119.82c-7.77-2.47-15.59-4.9-23.38-7.35-.43-.14-.84-.3-1.47-.54.68-.22,1.16-.37,1.64-.52,7.81-2.43,15.64-4.85,23.43-7.31.98-.3,1.7-.31,2.69,0,4.96,1.58,9.93,3.14,14.9,4.69v.02c2.97.93,5.94,1.86,8.91,2.8.29.09.55.21,1.1.42-.04.02-.07.03-.11.03-.65.21-1.08.34-1.5.48-2.8.87-5.6,1.75-8.4,2.62v.04c-4.95,1.54-9.89,3.08-14.82,4.64-1.09.35-1.91.34-3,0v-.03ZM81.56,121.57c0-.51.28-.82,1.09-1.08,4.96-1.61,9.89-3.23,14.84-4.85h0c2.84-.92,5.68-1.85,8.52-2.78.26-.09.51-.17.79-.25.22-.07.46-.13.83-.23.04.39.09.65.08.91-.1,5-.22,10.01-.3,15,0,.57-.29.93-1.22,1.24-2.96.96-5.92,1.92-8.88,2.9v.04c-5.13,1.67-10.26,3.34-15.38,5.02-.1.03-.22.03-.59.1-.04-.3-.08-.51-.08-.72.1-5.09.22-10.19.3-15.29h-.01ZM98.26,108.59c-5.56-1.83-11.06-3.64-16.57-5.45-.1-5.53-.19-11.08-.28-16.62.78.09,8.86,2.63,15.89,4.93v.09c3.03.99,6.06,1.99,9.1,2.99.44.16.79.29,1.04.39.09,5.5.19,11.02.28,16.54-.98-.2-4.91-1.41-9.46-2.86ZM81.43,85c.1-5.13.23-10.27.29-15.4.01-.62.52-.91,1.38-1.18,7.04-2.28,14.07-4.57,21.11-6.86,1.03-.33,2.07-.66,3.32-1.06.07-.02.14-.03.22-.05.05.32.13.58.12.84-.1,5.03-.21,10.08-.3,15.11-.01.51-.18.89-1.09,1.18-3.07.99-6.12,1.99-9.18,3v.04c-4.82,1.58-9.64,3.15-14.46,4.73-.34.11-.71.2-1.21.34-.08-.26-.21-.46-.21-.67h0ZM82.39,52.12c4.96,1.57,9.94,3.13,14.92,4.69v.03c3.01.94,6.02,1.89,9.03,2.83.34.1.65.24,1.23.45h-.01c-.74.24-1.18.38-1.63.52-2.87.9-5.75,1.79-8.62,2.69v.04c-4.92,1.53-9.85,3.07-14.76,4.61-.9.28-1.59.32-2.54.03-7.98-2.53-15.99-5.02-23.99-7.53-.29-.09-.57-.21-1.01-.37.44-.18.75-.35,1.11-.46,8.01-2.5,16.03-4.99,24.03-7.5.79-.24,1.41-.3,2.24-.03h0ZM80.76,50.41c-.01.58-.34.93-1.25,1.23-7.94,2.57-15.85,5.17-23.77,7.75-.3.1-.61.17-1.06.3-.08-.24-.2-.45-.2-.65.1-5.13.21-10.26.31-15.39.01-.45.2-.78.96-1.03,8.18-2.66,16.34-5.33,24.51-8,.15-.04.32-.07.71-.15.04.36.09.6.08.85-.1,5.03-.23,10.07-.29,15.09h0ZM56.12,60.87c7.77,2.55,15.52,5.11,23.3,7.65.83.27,1.23.56,1.23,1.12.05,5.1.15,10.21.23,15.31,0,.19-.03.38-.04.55-.1.03-.15.06-.2.07-.05,0-.12.03-.16.02-.32-.08-.64-.16-.93-.25-8.26-2.71-16.51-5.43-24.81-8.16-.09-5.56-.19-11.07-.28-16.78.76.21,1.22.32,1.65.47h0ZM55.53,78.15c7.83,2.48,15.7,4.94,23.55,7.39.4.12.76.28,1.45.52-.77.24-1.26.41-1.75.56-7.77,2.42-15.54,4.83-23.3,7.26-.86.27-1.56.4-2.54.1-8.03-2.55-16.1-5.07-24.15-7.59-.3-.09-.57-.21-1-.37.44-.18.76-.36,1.14-.47,7.91-2.47,15.84-4.93,23.73-7.42,1.05-.33,1.83-.3,2.85.02h.01ZM27.42,121.61c.01-.52.21-.88,1.11-1.17,7.99-2.59,15.94-5.21,23.9-7.81.3-.1.62-.17,1.12-.31.05.33.13.6.12.87-.1,5.03-.22,10.07-.3,15.1-.01.52-.2.89-1.1,1.18-8.04,2.6-16.05,5.23-24.07,7.85-.25.08-.52.14-1.02.27-.03-.38-.08-.64-.07-.88.1-5.03.22-10.07.3-15.09h.01ZM25.51,119.87c-7.78-2.47-15.6-4.9-23.4-7.35-.44-.14-.86-.3-1.45-.51.48-.19.81-.36,1.18-.47,7.91-2.47,15.84-4.93,23.74-7.42.96-.3,1.7-.34,2.7-.03,7.88,2.5,15.8,4.97,23.7,7.45.39.12.75.27,1.44.52-.78.25-1.27.41-1.76.57-7.72,2.4-15.45,4.79-23.15,7.22-1.07.34-1.88.38-3,.03h-.01ZM53.66,111.65c-.55-.15-.96-.24-1.34-.37-7.87-2.59-15.73-5.18-23.6-7.75-.84-.28-1.19-.57-1.2-1.13-.05-5.1-.15-10.21-.23-15.31,0-.22.05-.43.09-.74.5.13.86.21,1.18.31,7.91,2.6,15.82,5.22,23.75,7.8.85.28,1.2.57,1.2,1.13.05,5.1.15,10.21.23,15.31,0,.22-.05.43-.09.74h0ZM27.37,84.78c.1-5,.22-10,.29-15,.01-.57.23-.94,1.19-1.25,7.89-2.55,15.74-5.14,23.61-7.72.38-.12.8-.22,1.39-.38.03.4.08.71.08,1.02-.1,4.94-.23,9.87-.28,14.81,0,.7-.4,1.09-1.49,1.44-7.69,2.49-15.35,5.01-23.01,7.52-.48.16-.97.31-1.66.53-.05-.42-.11-.69-.11-.97h0ZM27.8,51.22c-.09-5.59-.19-11.1-.28-16.57.16-.05.21-.07.26-.08s.12-.03.16-.02c.31.09.63.16.93.25,8.25,2.72,16.5,5.43,24.8,8.16.09,5.56.18,11.1.28,16.85-8.88-2.92-17.46-5.74-26.15-8.6h0ZM28.26,52.09c8.08,2.56,16.19,5.09,24.28,7.63.24.08.46.17.84.33-.44.17-.76.34-1.13.45-7.96,2.48-15.92,4.96-23.87,7.45-.81.25-1.48.36-2.39.06-8.08-2.56-16.19-5.09-24.28-7.63-.24-.08-.46-.18-.98-.38.68-.22,1.12-.36,1.55-.5,7.87-2.45,15.73-4.89,23.59-7.35.81-.25,1.47-.37,2.38-.08h0ZM25.17,85.26c-7.76-2.55-15.51-5.11-23.29-7.64-.9-.29-1.31-.6-1.31-1.19-.04-5.07-.15-10.14-.23-15.2,0-.23.03-.44.05-.77.44.09.82.12,1.13.23,8.02,2.63,16.02,5.27,24.03,7.89.65.22,1.01.44,1.02.9.06,5.26.15,10.52.23,15.78,0,.1-.05.18-.12.44-.62-.17-1.08-.29-1.5-.43h0ZM.45,95.82c0-.74.44-1.15,1.58-1.52,7.81-2.52,15.57-5.07,23.34-7.61.33-.11.71-.18,1.23-.32.06.32.13.56.13.79-.1,5.07-.22,10.14-.3,15.2-.01.53-.24.88-1.13,1.17-7.95,2.57-15.86,5.17-23.78,7.77-.34.11-.7.19-1.31.36-.03-.45-.06-.74-.05-1.02.1-4.94.23-9.88.28-14.82ZM.43,129.02c-.09-5.49-.18-11.02-.27-16.79,8.93,2.93,17.47,5.75,26.14,8.6.1,5.53.19,11.07.28,16.62-1.3-.12-22.68-7.04-26.15-8.43h0ZM0,162.64c.1-5,.22-10,.29-15,.01-.57.27-.93,1.2-1.24,7.89-2.56,15.74-5.15,23.61-7.72.38-.13.79-.22,1.35-.37.04.37.11.64.1.91-.1,4.97-.24,9.94-.28,14.91,0,.7-.43,1.09-1.5,1.44-7.64,2.47-15.25,4.97-22.86,7.46-.54.17-1.07.34-1.8.57-.05-.43-.11-.71-.11-.98h0ZM51.82,164.37c-7.97,2.49-15.94,4.96-23.9,7.45-.77.24-1.39.33-2.23.06-8.14-2.57-16.3-5.12-24.46-7.69-.24-.07-.44-.18-.85-.35.56-.2.88-.34,1.23-.44,7.82-2.44,15.65-4.86,23.44-7.32,1.2-.38,2.1-.39,3.31,0,7.67,2.45,15.39,4.84,23.09,7.26.49.16.95.33,1.61.56-.53.2-.86.36-1.24.48h0ZM27.38,155.06c-.1-5.54-.19-11.08-.28-16.64,1.51.21,21.82,6.78,26.14,8.43.1,5.49.19,11.02.28,16.81-8.93-2.93-17.48-5.75-26.15-8.6h0ZM52.74,145.92c-8.03-2.54-16.09-5.06-24.14-7.58-.29-.09-.55-.21-.99-.37.53-.2.92-.37,1.34-.51,7.92-2.46,15.83-4.93,23.73-7.4.82-.25,1.48-.34,2.38-.05,8.03,2.54,16.09,5.06,24.13,7.59.29.09.55.21,1.11.42-.66.21-1.05.34-1.45.46-7.91,2.46-15.83,4.92-23.73,7.4-.83.26-1.49.33-2.38.04h0ZM54.07,162.77c.1-5.07.22-10.14.3-15.2,0-.52.19-.89,1.09-1.18,8.04-2.6,16.06-5.24,24.08-7.86.24-.08.51-.12,1.01-.24.03.38.08.64.07.89-.1,5.04-.21,10.08-.3,15.11-.01.52-.2.88-1.1,1.18-8,2.59-15.96,5.21-23.93,7.81-.29.1-.6.17-1.07.29-.07-.31-.17-.55-.16-.78h0ZM105.5,164.51c-2.73.85-5.46,1.7-8.19,2.55v.05c-5.01,1.56-10.01,3.11-15,4.69-1.02.32-1.79.36-2.85.02-7.83-2.49-15.7-4.94-23.55-7.4-.4-.12-.78-.27-1.31-.46.36-.17.61-.33.93-.43,8.06-2.52,16.13-5.03,24.2-7.56.71-.23,1.31-.3,2.08-.06,5.16,1.63,10.33,3.25,15.5,4.88v.02c2.79.88,5.59,1.75,8.38,2.63.43.14.82.3,1.47.55-.71.23-1.18.38-1.67.53h0ZM107.45,163.5c-.22-.03-.41-.07-.58-.1-3.15-1.04-6.27-2.06-9.39-3.08v.03c-5.01-1.65-10.03-3.3-15.05-4.95-.65-.22-1.01-.44-1.02-.9-.06-5.26-.15-10.53-.23-15.79,0-.1.05-.19.07-.28.76.06,8.9,2.61,16.05,4.96v.1c2.93.97,5.85,1.92,8.79,2.88.84.27,1.2.57,1.21,1.13.05,5.1.15,10.21.23,15.31,0,.18-.04.38-.08.68h0ZM107.88,146.02h-.12c-.18,0-.35-.03-.53-.06-.26-.04-.53-.11-.82-.2-2.97-.95-5.96-1.88-8.94-2.82v.03c-4.68-1.47-9.36-2.93-14.04-4.41-.55-.17-1.08-.34-1.81-.58.52-.22.84-.38,1.21-.5,4.88-1.52,9.76-3.04,14.64-4.56h0c3.04-.95,6.08-1.89,9.11-2.85.08-.02.15-.04.22-.06.08-.03.16-.04.24-.06.54-.11,1.03-.14,1.57-.06.19.03.37.08.57.14,7.93,2.52,15.9,5,23.85,7.5.34.1.65.24,1.23.47-1.45.46-2.64.85-3.84,1.23-6.96,2.17-13.93,4.32-20.87,6.51-.6.19-1.13.3-1.67.3h.02ZM108.26,162.92c.1-5.16.23-10.33.29-15.49,0-.09.04-.15.06-.22.17-.33.52-.58,1.07-.8.08-.03.14-.05.23-.08,6.29-2.04,12.58-4.09,18.86-6.14,1.84-.6,3.71-1.18,5.78-1.85.05.3.11.51.11.71-.1,5.1-.23,10.2-.3,15.3-.01.55-.35.87-1.21,1.15-7.94,2.58-15.85,5.18-23.77,7.78-.26.09-.55.16-.91.25-.09-.23-.22-.42-.22-.61h0ZM159.91,164.34c-7.96,2.48-15.93,4.96-23.88,7.45-.41.13-.79.21-1.17.22-.33,0-.67-.05-1.05-.17-8.03-2.54-16.09-5.06-24.13-7.59-.29-.1-.56-.21-1.11-.42.79-.25,1.34-.44,1.89-.6,7.19-2.24,14.38-4.47,21.55-6.72.53-.17,1.07-.33,1.6-.5.23-.07.45-.12.66-.17.03,0,.06,0,.08-.02.15-.03.3-.03.45-.04.46,0,.92.05,1.45.23,7.77,2.47,15.58,4.9,23.38,7.35.44.14.86.3,1.46.51-.48.19-.82.35-1.19.46h.01ZM160.4,163.19c-7.86-2.59-15.71-5.17-23.58-7.74-.83-.27-1.21-.57-1.21-1.12-.05-5.07-.15-10.14-.23-15.2,0-.23.05-.45.1-.8.26.07.49.14.7.2,8.27,2.72,16.36,5.38,24.51,8.06.32.16.53.33.65.54.09,5.43.18,10.84.27,16.43-.57-.17-.91-.25-1.22-.36h.01ZM162.13,146.08c-.4,0-.8-.07-1.26-.22-7.88-2.5-15.8-4.96-23.7-7.45-.38-.12-.74-.27-1.25-.45.13-.06.24-.12.35-.17.28-.12.53-.23.79-.3,6.57-2.06,13.15-4.1,19.72-6.17,1.36-.43,2.72-.85,4.08-1.27.19-.06.38-.1.56-.14.03,0,.05,0,.08-.02.18-.03.35-.04.52-.05.41,0,.83.06,1.31.21,7.88,2.5,15.8,4.96,23.7,7.45.37.11.73.26,1.35.49.03,0,.05.02.07.03-.72.23-1.16.37-1.6.51-7.82,2.43-15.65,4.86-23.45,7.32-.46.14-.86.22-1.26.24h-.01ZM162.34,162.54c.11-4.96.22-9.94.3-14.9,0-.34.07-.62.35-.85.03-.02.05-.03.08-.06.07-.05.15-.1.25-.15.14-.07.28-.13.46-.19h.03c7.94-2.57,15.84-5.17,23.76-7.76.06-.02.13-.03.19-.05.26-.07.53-.14.86-.23.06.28.14.51.13.74-.1,5.07-.22,10.13-.3,15.2-.01.53-.26.88-1.14,1.16-7.99,2.59-15.95,5.2-23.92,7.8-.26.09-.55.15-.98.26-.03-.41-.06-.68-.06-.95v-.02ZM215.03,164.07c-.54.17-.96.3-1.37.44-7.76,2.42-15.54,4.82-23.27,7.27-.56.17-1.05.24-1.54.24-.41-.03-.82-.1-1.28-.24-7.77-2.47-15.58-4.9-23.38-7.35-.43-.14-.83-.3-1.38-.51.59-.21,1-.37,1.44-.51,6.53-2.04,13.06-4.07,19.58-6.1,1.34-.42,2.67-.83,4.01-1.25.08-.03.15-.03.23-.06.13-.03.27-.07.39-.1.08-.02.15-.02.22-.03.12-.02.25-.03.37-.03.42,0,.83.08,1.31.23,7.83,2.48,15.69,4.94,23.53,7.39.43.13.82.3,1.42.52-.1.03-.18.07-.27.1h0ZM215.68,163.48c-.36-.06-.68-.1-.94-.18-8.02-2.63-16.02-5.27-24.03-7.89-.65-.22-1.02-.44-1.02-.9-.06-5.26-.15-10.52-.23-15.78,0-.09.04-.18.11-.4.53.15.95.25,1.34.38,7.77,2.55,15.52,5.1,23.29,7.65.36.11.65.24.88.37.03.02.07.04.1.06.22.17.35.37.35.65.04,5.16.15,10.33.23,15.49,0,.15-.03.3-.07.54h0ZM216.06,146.02c-.46-.02-.92-.1-1.44-.27-7.72-2.46-15.48-4.88-23.22-7.31-.44-.14-.86-.3-1.46-.51.44-.17.72-.3,1.05-.41,8.06-2.52,16.13-5.02,24.18-7.54.14-.04.28-.08.41-.1.38-.08.74-.09,1.11-.03.13.03.25.04.39.09,8.19,2.59,16.39,5.16,24.58,7.73.19.06.35.15.76.33-.72.23-1.21.39-1.71.54-7.71,2.4-15.43,4.8-23.11,7.23-.57.18-1.06.26-1.55.26h0ZM216.58,163.55c-.05-.38-.1-.64-.1-.91.1-5,.22-10,.29-15,.01-.57.27-.93,1.2-1.24,7.89-2.56,15.74-5.15,23.61-7.72.34-.11.71-.2,1.18-.33.04.34.1.61.09.87-.1,4.97-.24,9.94-.28,14.91,0,.7-.43,1.09-1.5,1.44-7.64,2.47-15.25,4.97-22.86,7.46-.44.15-.89.29-1.45.46-.06,0-.12.03-.19.03h0ZM268.12,164.37c-7.97,2.49-15.94,4.96-23.9,7.45-.37.11-.71.19-1.05.22-.32,0-.64-.03-1.01-.15-8.14-2.57-16.3-5.12-24.46-7.69-.22-.07-.42-.17-.78-.32.34-.15.62-.3.93-.4.08-.03.15-.05.23-.08,7.82-2.44,15.65-4.86,23.44-7.32.57-.18,1.07-.27,1.57-.28.5,0,1,.1,1.57.28,7.67,2.45,15.39,4.84,23.09,7.26.49.16.95.33,1.61.56-.53.2-.86.36-1.24.48h0ZM243.86,155.06c-.1-5.53-.18-11.05-.28-16.61,2.46.54,21.77,6.78,25.97,8.39.1,5.47.18,10.99.28,16.75-8.87-2.92-17.36-5.7-25.97-8.53h0ZM270.32,146.09c-.35,0-.7-.04-1.1-.17-8.03-2.54-16.09-5.06-24.14-7.58-.29-.09-.55-.21-.99-.37.52-.2.92-.37,1.34-.51,7.92-2.46,15.83-4.93,23.73-7.4.4-.12.75-.2,1.12-.23.34,0,.7.04,1.1.17,8.03,2.54,16.09,5.06,24.13,7.59.29.09.55.21,1.11.42-.66.21-1.05.34-1.45.46-7.91,2.46-15.83,4.92-23.73,7.4-.4.12-.75.2-1.11.22h-.01ZM270.55,162.77c.1-5.07.22-10.14.3-15.2,0-.52.19-.89,1.09-1.18,8.04-2.6,16.06-5.24,24.08-7.86.21-.07.45-.11.84-.2.03.36.07.61.07.84-.1,5.04-.21,10.08-.3,15.11-.01.52-.2.88-1.1,1.18-8,2.59-15.96,5.21-23.93,7.81-.25.08-.53.15-.9.24-.07-.29-.16-.52-.15-.74h0ZM321.91,164.53c-7.77,2.42-15.55,4.82-23.3,7.26-.48.15-.91.24-1.33.24-.42,0-.85-.08-1.34-.24-7.83-2.49-15.7-4.94-23.55-7.4-.4-.12-.78-.27-1.31-.46.36-.17.61-.33.93-.43,8.06-2.52,16.13-5.03,24.2-7.56.34-.1.66-.17.98-.2.3,0,.6.03.93.14,8.24,2.6,16.5,5.19,24.75,7.79.15.04.27.12.69.31-.67.22-1.15.37-1.63.52v.02ZM323.93,163.5c-.39-.07-.71-.11-.97-.2-8.02-2.63-16.03-5.27-24.04-7.9-.65-.22-1.01-.44-1.02-.9-.06-5.26-.15-10.53-.23-15.79,0-.09.04-.17.06-.25,1.41.29,9.22,2.74,16.06,4.99v.04c2.13.7,4.26,1.4,6.39,2.1,1.26.44,2.32.81,3.08,1.1.2.12.36.26.43.44.09,5.36.18,10.7.27,16.15-.01.07-.02.15-.04.23h.01ZM324.29,146.02c-.51-.02-1.02-.12-1.59-.3-7.57-2.42-15.19-4.79-22.79-7.18-.55-.17-1.08-.34-1.81-.58.52-.22.84-.38,1.21-.5,7.87-2.46,15.75-4.89,23.59-7.38.53-.17.99-.25,1.46-.26.43,0,.87.08,1.37.24,7.78,2.47,15.6,4.91,23.4,7.35.45.14.86.3,1.58.56-1.48.47-2.67.86-3.87,1.24-6.02,1.87-12.04,3.74-18.04,5.63-.93.29-1.86.58-2.78.87-.63.2-1.18.3-1.74.3h0ZM324.76,163.49c-.04-.37-.08-.65-.08-.91.1-4.95.24-9.88.27-14.82,0-.75.48-1.14,1.61-1.51,7.67-2.47,15.3-4.98,22.95-7.48.06-.02.13-.04.19-.06.37-.11.77-.22,1.32-.37v.02c.02.43.05.7.05.97-.1,4.94-.23,9.88-.29,14.82-.01.68-.36,1.1-1.46,1.45-.04,0-.08.03-.11.03-7.66,2.47-15.29,4.99-22.92,7.5-.2.06-.41.13-.63.2-.25.07-.52.14-.88.24-.01-.03-.03-.05-.04-.08h0ZM376.33,164.35c-7.96,2.49-15.92,4.96-23.87,7.46-.16.05-.3.09-.45.12-.11.03-.22.04-.33.06h-.03c-.27.03-.54.04-.82,0-.19-.03-.39-.07-.6-.14-8.03-2.54-16.08-5.06-24.13-7.59-.3-.1-.56-.21-1.11-.43.69-.22,1.13-.37,1.58-.51,7.86-2.45,15.73-4.89,23.58-7.35.31-.1.59-.16.87-.19.29-.03.57-.02.87.03.16.03.31.05.48.11,8.03,2.54,16.09,5.06,24.14,7.59.29.09.56.21,1,.37-.47.18-.81.34-1.18.45h0ZM377.98,163.57c-.18-.05-.34-.1-.47-.14-8.43-2.77-16.61-5.46-24.92-8.19-.25-.12-.41-.27-.52-.44-.09-5.43-.18-10.88-.27-16.48.66.19,1.13.31,1.57.46,7.66,2.52,15.3,5.05,22.99,7.53,1.1.36,1.46.75,1.46,1.45.03,4.9.14,9.81.22,14.72,0,.3-.03.61-.05,1.09h0ZM378.54,146.09c-.42,0-.85-.08-1.34-.23-7.83-2.49-15.7-4.94-23.55-7.4-.4-.12-.78-.27-1.31-.45.37-.17.61-.33.92-.43,8.07-2.53,16.14-5.03,24.2-7.56.22-.07.43-.11.63-.15.32-.03.63-.03.97.03.11.03.21.03.32.07,8.24,2.6,16.5,5.19,24.75,7.79.15.04.27.12.69.32-.67.22-1.15.37-1.63.52-7.77,2.42-15.55,4.82-23.3,7.26-.25.08-.49.14-.72.18-.04,0-.08,0-.12.02-.17.03-.33.04-.49.05v-.03ZM378.85,163.5c-.05-.35-.1-.62-.1-.88.1-5,.23-10,.29-15,.01-.57.27-.93,1.21-1.24,7.89-2.56,15.74-5.15,23.61-7.72.34-.11.71-.2,1.18-.32.04.34.1.61.1.88-.1,4.97-.23,9.94-.28,14.91-.01.7-.42,1.09-1.49,1.44-.62.2-1.24.4-1.85.6-7.12,2.31-14.22,4.63-21.33,6.96-.39.12-.81.24-1.32.37h-.02ZM430.46,164.39c-3.59,1.12-7.18,2.24-10.77,3.36-.62.19-1.25.39-1.87.58-3.74,1.17-7.48,2.33-11.22,3.5-.85.23-1.56.23-2.39,0-7.98-2.53-15.99-5.02-23.98-7.53-.29-.1-.55-.21-1.1-.42.65-.21,1.05-.34,1.45-.46,7.91-2.46,15.83-4.93,23.73-7.4.39-.12.75-.2,1.11-.23.19,0,.38.02.57.04.17.03.35.06.53.12,8.03,2.54,16.09,5.06,24.14,7.59.29.09.55.21.99.37-.48.18-.81.34-1.19.45h0ZM432.09,163.49c-.18-.03-.35-.06-.51-.09-.25-.06-.48-.12-.69-.19-7.86-2.58-15.71-5.17-23.58-7.74-.74-.24-1.21-.48-1.21-1.04-.04-5.16-.15-10.33-.23-15.48,0-.17.05-.35.11-.64.03,0,.04,0,.07.02.64.2,1.1.33,1.55.48,7.61,2.5,15.21,5.02,22.84,7.49,1.08.35,1.51.72,1.52,1.43.02,4.94.13,9.88.21,14.81,0,.29-.04.57-.07.95h0ZM432.85,146.01c-.34.03-.67.02-1.01-.04-.26-.04-.52-.11-.8-.2-7.72-2.46-15.48-4.87-23.22-7.31-.44-.14-.86-.3-1.46-.51.44-.17.72-.3,1.04-.41,8.06-2.52,16.13-5.02,24.18-7.54.38-.12.72-.17,1.06-.18.32,0,.64.07,1,.18,4.59,1.45,9.19,2.89,13.79,4.33v-.03c3.57,1.12,7.14,2.25,10.7,3.37.19.06.35.15.76.33-.72.23-1.21.39-1.71.54-3.25,1.01-6.5,2.03-9.76,3.04h0c-4.48,1.39-8.95,2.79-13.4,4.2-.24.08-.45.12-.67.17-.13.03-.25.04-.37.06-.05,0-.1,0-.15,0h0ZM432.9,162.72c.1-5.03.22-10.07.3-15.09,0-.52.2-.88,1.1-1.18,4.44-1.44,8.88-2.89,13.31-4.34v-.05c3.42-1.12,6.85-2.25,10.28-3.36.38-.13.79-.22,1.35-.37.04.37.11.64.1.91-.1,4.97-.24,9.94-.28,14.91,0,.7-.43,1.09-1.5,1.44-3.38,1.09-6.75,2.19-10.11,3.29h0c-4.64,1.52-9.28,3.02-13.91,4.55-.12.03-.27.06-.55.11-.03-.33-.07-.57-.07-.82h0ZM484.6,164.37c-7.97,2.49-15.94,4.96-23.9,7.45-.77.24-1.39.33-2.23.06-3.61-1.14-7.24-2.28-10.87-3.41v-.03c-4.51-1.42-9.02-2.83-13.52-4.24-.2-.06-.38-.15-.74-.29.4-.17.7-.35,1.06-.46,4.4-1.38,8.8-2.74,13.2-4.12v-.05c3.41-1.06,6.82-2.13,10.22-3.2,1.2-.38,2.1-.39,3.31,0,7.67,2.45,15.39,4.84,23.09,7.26.49.16.95.33,1.61.56-.53.2-.86.36-1.24.48h0ZM460.16,155.06c-.1-5.54-.19-11.08-.28-16.64,1.51.21,21.82,6.78,26.14,8.43.1,5.49.19,11.02.28,16.81-8.93-2.93-17.48-5.75-26.15-8.6h0ZM485.52,145.92c-8.03-2.54-16.09-5.06-24.14-7.58-.29-.09-.55-.21-.99-.37.53-.2.92-.37,1.34-.51,7.92-2.46,15.83-4.93,23.74-7.4.82-.25,1.48-.34,2.38-.05,8.03,2.54,16.09,5.06,24.13,7.59.29.09.55.21,1.11.42-.66.21-1.05.34-1.45.46-7.91,2.46-15.83,4.92-23.73,7.4-.83.26-1.49.33-2.38.04h0ZM486.85,162.77c.1-5.07.22-10.14.3-15.2,0-.52.19-.89,1.09-1.18,8.04-2.6,16.06-5.24,24.08-7.86.24-.08.52-.12,1.01-.24.03.38.08.64.07.89-.1,5.04-.21,10.08-.3,15.11-.01.52-.2.88-1.1,1.18-8,2.59-15.96,5.21-23.93,7.81-.29.1-.6.17-1.07.29-.07-.31-.17-.55-.16-.78h0ZM538.39,164.53c-7.77,2.42-15.55,4.82-23.3,7.26-1.02.32-1.79.36-2.85.02-7.83-2.49-15.7-4.94-23.55-7.4-.4-.12-.78-.27-1.31-.46.36-.17.61-.33.93-.43,8.06-2.52,16.13-5.03,24.2-7.56.71-.23,1.31-.3,2.08-.06,8.24,2.6,16.5,5.19,24.75,7.79.15.04.27.12.69.31-.67.22-1.15.37-1.63.52h0ZM539.26,163.3c-8.02-2.63-16.03-5.27-24.04-7.9-.65-.22-1.01-.44-1.01-.9-.06-5.26-.15-10.53-.23-15.79,0-.1.05-.19.07-.28,1.23.1,21.61,6.66,26.13,8.42.09,5.55.19,11.06.28,16.69-.5-.1-.87-.14-1.18-.24h0ZM539,145.72c-7.57-2.42-15.19-4.79-22.79-7.18-.55-.17-1.08-.34-1.81-.58.52-.22.84-.38,1.21-.5,7.87-2.46,15.75-4.89,23.59-7.38,1.07-.34,1.89-.37,3-.03,7.78,2.47,15.6,4.91,23.4,7.35.44.14.86.3,1.58.56-1.48.47-2.67.86-3.87,1.24-6.96,2.17-13.94,4.32-20.87,6.52-1.28.41-2.21.38-3.46-.02h0ZM540.99,162.58c.1-4.95.24-9.88.27-14.82,0-.75.48-1.14,1.61-1.51,7.7-2.48,15.37-5.01,23.04-7.52.43-.14.89-.25,1.58-.44.02.46.06.75.05,1.04-.1,4.94-.23,9.88-.29,14.82-.01.68-.36,1.1-1.46,1.45-7.7,2.49-15.36,5.02-23.03,7.53-.48.16-.96.3-1.69.54-.04-.48-.1-.78-.09-1.09h0ZM592.81,164.35c-7.96,2.49-15.92,4.96-23.87,7.46-.82.25-1.48.34-2.39.05-8.03-2.54-16.08-5.06-24.13-7.59-.3-.1-.55-.21-1.11-.43.69-.22,1.13-.37,1.58-.51,7.86-2.45,15.73-4.89,23.58-7.35.82-.25,1.48-.35,2.38-.06,8.03,2.54,16.09,5.06,24.14,7.59.29.09.56.21,1,.37-.47.18-.81.34-1.18.45h0ZM594.45,163.64c-8.83-2.9-17.37-5.71-26.08-8.57-.09-5.53-.19-11.09-.28-16.79.76.22,1.27.35,1.74.51,7.66,2.52,15.3,5.05,22.99,7.53,1.1.36,1.46.75,1.46,1.45.03,4.9.14,9.81.22,14.72,0,.31-.03.64-.05,1.17h0ZM593.5,145.86c-7.83-2.49-15.7-4.94-23.55-7.4-.4-.12-.78-.27-1.31-.45.37-.17.61-.33.92-.43,8.06-2.53,16.14-5.03,24.2-7.56.71-.22,1.31-.3,2.09-.06,8.24,2.6,16.5,5.19,24.75,7.79.15.04.27.12.69.32-.67.22-1.15.37-1.63.52-7.77,2.42-15.55,4.82-23.3,7.26-1.02.32-1.79.36-2.85.02h0ZM595.07,162.61c.1-5,.23-10,.29-15,.01-.57.27-.93,1.21-1.24,7.89-2.56,15.74-5.15,23.61-7.72.38-.12.79-.22,1.35-.37.04.37.11.64.1.92-.1,4.97-.23,9.94-.28,14.91-.01.7-.42,1.09-1.5,1.44-7.75,2.5-15.45,5.03-23.17,7.56-.43.14-.89.25-1.5.43-.05-.37-.11-.64-.1-.93h0ZM646.94,164.39c-7.96,2.48-15.93,4.96-23.88,7.45-.82.26-1.48.33-2.39.05-8.03-2.54-16.09-5.06-24.13-7.59-.29-.1-.55-.21-1.1-.42.65-.21,1.05-.34,1.45-.46,7.91-2.46,15.83-4.93,23.73-7.4.82-.25,1.48-.34,2.38-.05,8.03,2.54,16.09,5.06,24.14,7.59.29.09.55.21.99.37-.48.18-.81.34-1.19.45h0ZM624.07,138.8c7.61,2.5,15.21,5.02,22.84,7.49,1.08.35,1.51.72,1.52,1.43.02,4.94.13,9.88.21,14.81,0,.3-.04.62-.08,1.04-.58-.15-.99-.24-1.36-.37-7.86-2.58-15.71-5.17-23.58-7.74-.74-.24-1.21-.48-1.21-1.04-.04-5.16-.15-10.33-.23-15.48,0-.18.06-.37.12-.7.78.24,1.28.39,1.77.55h0ZM648.51,128.51c0,.42-.18.71-.89.95-8.18,2.66-16.35,5.35-24.52,8.02-.15.04-.32.07-.78.16-.03-.42-.07-.73-.06-1.04.1-4.94.23-9.88.28-14.82.01-.7.41-1.1,1.5-1.45,7.75-2.51,15.47-5.04,23.19-7.57.4-.13.79-.25,1.35-.44.1.28.25.48.24.68-.1,5.16-.21,10.33-.31,15.49h0ZM623.62,86.69c7.97,2.61,15.92,5.23,23.89,7.85.64.21,1.06.41,1.07.88.05,5.29.14,10.59.22,15.88,0,.06-.06.12-.15.32-4.44-1.33-8.67-2.81-12.97-4.21-4.33-1.41-8.65-2.85-13-4.28-.09-5.56-.19-11.08-.28-16.7.52.1.9.15,1.21.25h0ZM648.69,76.38c0,.53-.22.88-1.12,1.18-8.04,2.6-16.04,5.23-24.07,7.85-.24.08-.52.14-1.01.26-.03-.39-.07-.64-.07-.89.1-5.03.22-10.07.3-15.1.01-.53.23-.87,1.13-1.17,7.98-2.59,15.94-5.21,23.9-7.81.3-.1.62-.17,1.08-.3.06.3.16.54.15.78-.1,5.07-.22,10.13-.3,15.19v.02ZM648.79,42.96c.1,5.56.19,11.1.28,16.74-.44-.08-.78-.1-1.04-.18-8.07-2.65-16.13-5.3-24.19-7.94-.66-.22-1-.45-1.01-.91-.06-5.26-.15-10.53-.23-15.79,0-.1.04-.18.12-.49,8.8,2.89,17.39,5.71,26.07,8.57h0ZM649.23,9.09c-.09,5.19-.21,10.38-.3,15.58-.01.43-.24.71-.93.94-8.23,2.67-16.44,5.36-24.66,8.05-.1.03-.22.03-.59.1-.03-.32-.08-.57-.08-.82.1-5.07.22-10.13.3-15.2.01-.51.28-.82,1.09-1.08,8.03-2.61,16.04-5.23,24.05-7.86.25-.08.51-.14.89-.24.09.2.23.37.23.54h0ZM597.71,7.57c7.81-2.43,15.64-4.86,23.43-7.31.98-.3,1.7-.3,2.69,0,7.82,2.48,15.69,4.93,23.53,7.39.44.14.83.3,1.39.51-.59.21-1,.37-1.44.51-7.81,2.44-15.63,4.86-23.41,7.32-1.09.35-1.91.33-3,0-7.77-2.47-15.58-4.9-23.38-7.35-.44-.14-.83-.3-1.46-.55.69-.22,1.17-.37,1.65-.52h0ZM595.71,8.57c.39.06.72.08.98.17,8.07,2.65,16.12,5.29,24.18,7.94.66.22,1,.45,1.01.91.06,5.26.15,10.52.23,15.78,0,.1-.05.19-.12.44-.62-.17-1.08-.29-1.51-.43-7.77-2.55-15.51-5.11-23.29-7.65-.89-.29-1.3-.59-1.3-1.19-.04-5.07-.14-10.14-.23-15.2,0-.22.04-.44.06-.75h0ZM596.48,26.18c8.03,2.54,16.09,5.06,24.13,7.58.29.1.56.21,1,.37-.53.2-.91.37-1.33.51-7.91,2.47-15.83,4.93-23.73,7.4-.82.25-1.48.34-2.38.05-8.03-2.54-16.09-5.06-24.14-7.59-.29-.09-.56-.21-1.11-.43.65-.21,1.04-.34,1.44-.46,7.91-2.46,15.83-4.93,23.73-7.4.81-.25,1.48-.35,2.39-.06v.03ZM595.1,9.36c-.11,5.03-.22,10.06-.3,15.09,0,.52-.2.89-1.1,1.18-8.04,2.6-16.05,5.23-24.07,7.85-.24.08-.51.14-.91.24-.08-.25-.19-.45-.19-.66.1-5.13.22-10.26.3-15.38.01-.45.2-.78.96-1.03,8.18-2.66,16.34-5.33,24.51-8,.15-.05.32-.07.71-.15.04.36.09.61.08.85h0ZM543.52,7.62c7.77-2.42,15.55-4.83,23.28-7.29,1.17-.37,2.01-.36,3.16.02,7.73,2.46,15.49,4.88,23.25,7.31.45.14.87.3,1.45.51-.39.18-.65.34-.97.44-8.07,2.52-16.14,5.02-24.21,7.55-.72.23-1.32.29-2.08.05-8.2-2.59-16.41-5.16-24.61-7.73-.2-.06-.36-.15-.82-.34.67-.22,1.11-.36,1.54-.5h0ZM567.71,17.01c.09,5.57.19,11.1.28,16.86-8.89-2.93-17.46-5.74-26.14-8.6-.1-5.54-.19-11.08-.28-16.86,8.94,2.94,17.52,5.76,26.15,8.6ZM542.14,26.08c8.24,2.6,16.49,5.18,24.73,7.78.14.04.25.12.63.3-.65.21-1.14.37-1.63.52-7.71,2.4-15.43,4.8-23.11,7.23-1.13.36-1.97.4-3.16.02-7.76-2.48-15.57-4.9-23.37-7.35-.4-.12-.77-.27-1.3-.46.32-.15.53-.29.79-.37,8.16-2.55,16.33-5.09,24.49-7.64.67-.21,1.23-.25,1.93-.03h0ZM541.02,9.32c-.1,5.07-.22,10.14-.3,15.2-.01.52-.23.88-1.12,1.17-7.95,2.58-15.85,5.18-23.77,7.77-.34.11-.7.19-1.28.34-.04-.37-.09-.6-.09-.82.1-5.07.23-10.14.3-15.2.01-.58.36-.92,1.27-1.22,7.9-2.55,15.76-5.14,23.64-7.72.34-.11.7-.19,1.22-.33.06.32.15.57.14.8h0ZM488.95,7.71c7.97-2.49,15.94-4.96,23.89-7.46.96-.3,1.7-.34,2.7-.02,7.88,2.5,15.8,4.96,23.7,7.45.39.12.75.28,1.4.51-1.46.47-2.65.85-3.86,1.23-6.96,2.17-13.93,4.32-20.87,6.51-1.18.37-2.07.43-3.31.03-7.62-2.44-15.29-4.82-22.94-7.22-.54-.17-1.08-.35-1.78-.57.45-.2.72-.36,1.05-.46h0ZM487.52,8.47c.68.19,1.18.32,1.66.48,7.67,2.52,15.32,5.05,23.01,7.55,1.08.35,1.5.72,1.51,1.43.03,4.94.14,9.88.21,14.82,0,.31-.05.62-.08,1.05-.68-.2-1.18-.33-1.66-.48-7.67-2.52-15.32-5.05-23.01-7.55-1.08-.35-1.5-.73-1.5-1.44-.03-4.94-.14-9.88-.21-14.83,0-.3.04-.62.07-1.05v.02ZM488.67,26.29c7.72,2.46,15.49,4.88,23.24,7.31.45.14.88.3,1.45.5-.3.16-.49.31-.75.4-8.17,2.55-16.35,5.09-24.51,7.65-.68.21-1.25.24-1.93.02-8.25-2.6-16.5-5.19-24.75-7.79-.15-.04-.27-.12-.62-.28.58-.21.99-.37,1.42-.51,7.76-2.42,15.54-4.83,23.28-7.28,1.15-.37,1.99-.38,3.16,0h0ZM486.88,9.36c-.1,5.03-.21,10.08-.3,15.11,0,.52-.18.88-1.09,1.18-8,2.59-15.96,5.21-23.93,7.81-.29.1-.61.17-1.19.32-.02-.48-.05-.79-.05-1.11.1-4.91.23-9.81.28-14.73.01-.72.38-1.15,1.55-1.53,7.81-2.51,15.56-5.07,23.34-7.61.34-.11.71-.19,1.26-.34.06.35.13.62.13.88v.02ZM434.89,7.81c4.24-1.32,8.48-2.64,12.71-3.96v-.05c3.78-1.18,7.56-2.35,11.34-3.54.82-.25,1.48-.34,2.39-.05,8.03,2.54,16.09,5.06,24.13,7.59.29.1.55.21.99.37-.48.18-.82.34-1.19.45-7.96,2.48-15.93,4.96-23.88,7.45-.82.25-1.48.33-2.39.04-3.79-1.2-7.59-2.39-11.39-3.59v-.02c-4.22-1.32-8.43-2.65-12.65-3.97-.29-.09-.55-.21-.97-.37.39-.16.63-.28.9-.37h0ZM440.96,10.9c6.22,2.05,12.37,4.07,18.54,6.1.09,5.56.18,11.1.28,16.86-2.35-.78-4.29-1.41-6.22-2.05-1.98-.65-3.97-1.31-5.95-1.96v-.03c-4.42-1.45-8.81-2.9-13.23-4.35-.31-.15-.5-.33-.62-.54-.09-5.41-.18-10.82-.27-16.25.86.17,3.81,1.05,7.49,2.21h0ZM433.09,26.03c.5.02,1.01.11,1.59.3,4.24,1.36,8.49,2.69,12.75,4.03v-.03c3.51,1.1,7.03,2.2,10.54,3.3.39.12.76.27,1.42.51-1.36.44-2.45.79-3.54,1.13-4.61,1.44-9.22,2.87-13.83,4.31-2.57.8-5.14,1.6-7.71,2.4-.73.21-1.35.28-2.06.16-.1-.03-.2-.03-.31-.07-8.04-2.54-16.1-5.06-24.15-7.59-.3-.09-.56-.21-1.06-.4.62-.22.98-.37,1.38-.49,7.71-2.41,15.44-4.8,23.13-7.24.68-.22,1.26-.32,1.86-.32h0ZM432.75,9.09c-.09,5.19-.21,10.38-.3,15.58,0,.06-.02.11-.03.17-.16.37-.55.64-1.21.87-8.13,2.64-16.24,5.29-24.35,7.94-.08.03-.18.03-.42.07-.03-.31-.08-.55-.07-.79.1-5.07.22-10.13.3-15.2.01-.51.28-.82,1.09-1.08,8.03-2.61,16.04-5.23,24.05-7.86.21-.07.45-.13.74-.2.09.18.21.34.21.5h0ZM379.95,8.03c.58-.18,1.02-.33,1.46-.46,7.82-2.43,15.64-4.86,23.43-7.31.47-.15.88-.22,1.29-.22.39.02.78.08,1.23.23,7.82,2.48,15.69,4.93,23.53,7.39.44.14.83.3,1.39.51-.59.21-1,.37-1.44.51-7.81,2.44-15.63,4.86-23.41,7.32-.22.07-.41.11-.61.15-.13.03-.26.04-.39.06h-.07c-.34.03-.66.02-1-.03-.25-.04-.5-.1-.76-.19-7.77-2.47-15.58-4.9-23.38-7.35-.43-.13-.83-.3-1.45-.54.07-.03.12-.04.18-.07h0ZM379.4,8.59c.31.04.59.07.81.14,8.07,2.65,16.12,5.29,24.18,7.94.49.16.8.33.93.59,0,0,0,0,.01,0,.04.09.07.19.07.3.06,5.26.15,10.52.23,15.78,0,.09-.05.18-.11.39-.54-.15-.96-.26-1.35-.38-7.76-2.55-15.51-5.11-23.29-7.65-.89-.29-1.3-.59-1.3-1.19-.04-5.07-.14-10.14-.23-15.2,0-.22.03-.44.05-.72h.01ZM378.9,26c.1,0,.19,0,.29.02.07,0,.14,0,.2.02.19.03.39.07.61.14,8.03,2.54,16.09,5.06,24.13,7.58.29.09.55.21.97.37-.1.04-.18.08-.27.12-.38.15-.71.29-1.04.39-7.91,2.47-15.83,4.93-23.73,7.4-.32.1-.62.17-.92.2-.08,0-.15.03-.23.03s-.15,0-.23,0c-.08,0-.16,0-.23-.02-.2-.03-.4-.07-.61-.14-8.03-2.54-16.09-5.06-24.14-7.59-.29-.09-.56-.21-1.11-.43.65-.21,1.04-.34,1.44-.46,7.91-2.46,15.83-4.93,23.73-7.4.39-.12.75-.2,1.11-.23h.02ZM378.61,9.36c-.11,5.03-.22,10.06-.3,15.09,0,.35-.11.62-.43.85-.06.03-.1.08-.16.11-.08.04-.18.08-.27.11-.1.04-.19.09-.3.12-8,2.59-15.97,5.2-23.95,7.81-.19.05-.39.11-.63.17-.06.02-.12.03-.19.04-.08-.23-.18-.43-.18-.62.1-5.13.22-10.26.3-15.38.01-.45.2-.78.96-1.03,8.18-2.66,16.34-5.33,24.51-8,.12-.04.28-.06.54-.11.04.34.08.58.08.82h0ZM326.59,8.9c8.4,2.76,16.51,5.43,24.64,8.11.09,5.56.19,11.07.28,16.8-8.83-2.9-17.34-5.7-25.97-8.53-.09-5.51-.19-11.02-.28-16.78.45.14.89.28,1.33.42h0ZM325.36,26.01c.1.03.2.03.3.07,8.24,2.6,16.49,5.18,24.73,7.78.13.04.24.11.53.25-.34.15-.59.28-.88.37-1.47.46-2.93.91-4.4,1.38-4.48,1.39-8.96,2.8-13.43,4.2-2.07.64-4.14,1.29-6.2,1.94-.42.11-.81.18-1.19.2-.48,0-.96-.08-1.52-.26-7.76-2.48-15.57-4.9-23.37-7.35-.4-.12-.77-.27-1.3-.46.32-.15.53-.29.79-.37,8.16-2.55,16.33-5.09,24.49-7.64.15-.04.29-.08.43-.11.34-.04.67-.04,1.02,0h0ZM324.54,9.32c-.1,5.07-.22,10.14-.3,15.2,0,.2-.06.37-.15.53-.16.21-.41.39-.78.55-.06.02-.09.04-.15.06-.04.02-.09.03-.13.04-7.92,2.57-15.8,5.16-23.69,7.74-.3.1-.63.17-1.12.3-.04-.35-.08-.57-.08-.78.1-5.07.23-10.14.3-15.2.01-.58.36-.92,1.27-1.22,7.9-2.55,15.76-5.14,23.64-7.72.3-.1.63-.17,1.05-.29.06.3.14.53.13.76v.02ZM272.65,7.71c7.97-2.49,15.94-4.96,23.89-7.46.46-.14.86-.22,1.26-.24.4,0,.8.07,1.27.22,7.88,2.5,15.8,4.96,23.7,7.45.35.11.7.25,1.24.45-.24.12-.42.24-.62.31-.55.17-1.08.35-1.57.51-2.27.71-4.54,1.42-6.81,2.12-5.19,1.61-10.39,3.23-15.56,4.87-.57.18-1.08.29-1.58.3-.49,0-.98-.09-1.55-.27-7.62-2.44-15.29-4.82-22.94-7.22-.54-.17-1.08-.35-1.77-.57.45-.2.72-.36,1.05-.46h0ZM271.21,8.52c.59.17,1.06.29,1.49.44,7.67,2.52,15.32,5.05,23.01,7.55,1.08.35,1.5.72,1.51,1.43.03,4.94.14,9.88.21,14.82,0,.3-.04.6-.07,1-.59-.17-1.06-.3-1.49-.44-7.67-2.52-15.32-5.05-23.01-7.55-1.08-.35-1.5-.73-1.5-1.44-.03-4.94-.14-9.88-.21-14.83,0-.3.04-.59.07-1v.02ZM270.7,26.03c.47,0,.95.09,1.5.26,7.72,2.46,15.49,4.88,23.24,7.31.45.14.88.3,1.45.5-.3.16-.49.31-.75.4-8.17,2.55-16.35,5.09-24.51,7.65-.32.1-.61.15-.89.16-.28,0-.56-.05-.87-.15-8.25-2.6-16.5-5.19-24.75-7.79-.15-.04-.27-.12-.62-.28.58-.21.99-.37,1.42-.51,7.77-2.42,15.54-4.83,23.28-7.28.54-.17,1.02-.26,1.49-.27h.01ZM270.4,9.36c-.1,5.03-.21,10.08-.3,15.11,0,.52-.18.88-1.09,1.18-8,2.59-15.96,5.21-23.93,7.81-.26.09-.55.16-1.02.28-.02-.45-.05-.76-.05-1.05.1-4.91.23-9.81.28-14.73.01-.72.38-1.15,1.55-1.53,7.81-2.51,15.56-5.07,23.34-7.61.3-.1.64-.18,1.1-.3.06.32.12.58.12.84h0ZM218.38,7.83c.19-.06.36-.11.52-.17,1.15-.36,2.3-.71,3.45-1.08,2.92-.91,5.85-1.82,8.77-2.73h0c3.84-1.19,7.68-2.39,11.51-3.59.4-.12.75-.2,1.11-.23.34,0,.7.04,1.1.17,8.03,2.54,16.09,5.06,24.13,7.59.29.1.55.21.99.37-.48.18-.82.34-1.19.45-7.96,2.48-15.93,4.96-23.88,7.45-.39.12-.75.2-1.11.22-.35,0-.7-.04-1.1-.17-8.03-2.54-16.09-5.06-24.13-7.58-.28-.09-.53-.2-1.01-.38.35-.14.58-.25.83-.33h0ZM217.13,8.68c.56.1,2.19.57,4.41,1.25,7.23,2.38,14.34,4.72,21.48,7.06.09,5.55.18,11.06.28,16.8-2.27-.75-4.16-1.37-6.05-1.99-6.17-2.03-12.33-4.07-18.53-6.07-1.02-.32-1.44-.69-1.44-1.35-.03-4.95-.14-9.88-.21-14.82,0-.25.03-.51.07-.87v-.02ZM217.36,26.08c.19.04.38.08.58.14,7.83,2.49,15.7,4.94,23.55,7.4.39.12.76.27,1.42.51-1.36.44-2.45.79-3.54,1.13-7.11,2.22-14.23,4.42-21.32,6.66-.58.18-1.09.28-1.61.27-.38-.02-.77-.1-1.21-.24-7.78-2.47-15.6-4.9-23.4-7.35-.45-.14-.87-.3-1.46-.51.47-.19.79-.37,1.17-.48,7.85-2.45,15.71-4.89,23.54-7.36.05,0,.09-.03.13-.03.1-.03.19-.05.29-.07.64-.14,1.23-.17,1.87-.07v-.02ZM216.24,8.59c.05.35.1.61.09.85-.1,4.97-.23,9.94-.28,14.9,0,.7-.42,1.09-1.5,1.44-7.65,2.46-15.25,4.97-22.87,7.46-.44.14-.88.28-1.44.46-.06,0-.14.02-.22.03-.03-.41-.08-.71-.07-.99.1-4.94.23-9.88.28-14.81.01-.7.43-1.09,1.51-1.44,7.64-2.47,15.25-4.98,22.86-7.47.29-.1.58-.18.9-.29.21-.06.43-.11.73-.2,0,0,.01.02.02.03v.02ZM164.67,7.66c3.18-.99,6.36-1.99,9.54-2.98,1.53-.48,3.07-.96,4.6-1.44,3.24-1.01,6.49-2.02,9.73-3.04.13-.04.25-.06.37-.1.48-.1.91-.1,1.37-.03.15.03.31.06.47.11,7.93,2.51,15.89,5,23.83,7.49.39.12.74.28,1.32.5-.68.22-1.16.37-1.64.52-7.76,2.42-15.53,4.83-23.27,7.27-.53.17-.99.24-1.46.24-.44-.02-.87-.09-1.37-.24-7.77-2.47-15.58-4.9-23.38-7.35-.44-.13-.84-.3-1.39-.51.52-.19.87-.35,1.25-.46v.02ZM163.02,8.58c.14.02.28.03.4.05.29.07.56.14.79.22,7.86,2.58,15.71,5.17,23.59,7.74.85.28,1.18.59,1.18,1.14.05,5.07.15,10.14.23,15.2,0,.24-.06.47-.11.78-.47-.12-.84-.21-1.18-.32-7.86-2.59-15.72-5.17-23.59-7.74-.85-.28-1.18-.59-1.19-1.14-.05-5.07-.15-10.14-.23-15.2,0-.22.05-.44.09-.74h0ZM162.51,26c.37,0,.75.06,1.18.2,7.93,2.51,15.89,4.99,23.83,7.49.35.1.67.24,1.15.41-.39.17-.66.31-.97.42-8.06,2.52-16.13,5.02-24.18,7.55-.37.11-.71.18-1.04.19-.33,0-.65-.05-1.02-.17-8.09-2.55-16.19-5.09-24.29-7.63-.24-.08-.46-.18-.99-.38.67-.22,1.11-.36,1.55-.5,7.87-2.45,15.73-4.89,23.58-7.35.22-.07.42-.12.62-.16.06,0,.11,0,.16-.02.14-.02.27-.03.41-.04h0ZM162.19,9.34c-.1,5.03-.22,10.07-.29,15.09-.01.58-.34.93-1.25,1.23-7.94,2.57-15.85,5.16-23.77,7.75-.26.09-.55.16-.9.25-.08-.24-.18-.43-.18-.62.1-5.13.21-10.26.3-15.39.01-.45.2-.77.96-1.02,8.18-2.66,16.34-5.33,24.5-8,.12-.03.27-.06.54-.11.04.33.09.57.08.82ZM110.68,7.65c7.81-2.44,15.64-4.87,23.44-7.32.22-.07.42-.11.62-.16.14-.03.28-.05.42-.06h.03c.36-.03.71-.02,1.07.03.23.04.45.1.7.17,7.77,2.47,15.6,4.9,23.4,7.36.44.14.85.3,1.45.51-.49.2-.81.36-1.18.48-7.97,2.48-15.95,4.96-23.91,7.45-.41.13-.78.19-1.15.21-.34,0-.68-.06-1.07-.18-8.04-2.54-16.11-5.06-24.15-7.59-.29-.09-.55-.22-1.1-.43.66-.21,1.05-.34,1.45-.46v-.03ZM121.8,12.71c4.33,1.41,8.65,2.84,13.02,4.28.09,5.55.18,11.06.28,16.8-8.87-2.92-17.36-5.7-25.97-8.53-.1-5.51-.19-11.03-.28-16.76,4.54,1.38,8.72,2.83,12.96,4.21h0ZM108.33,25.97c.39,0,.78.05,1.22.19,7.93,2.52,15.89,5,23.83,7.49.32.1.64.23,1.08.38.02,0,.05.03.07.03-.39.17-.66.31-.97.41-8.06,2.53-16.12,5.03-24.17,7.56-.17.05-.34.1-.5.12-.41.05-.81.04-1.24-.03-.11-.03-.22-.04-.34-.08-3.28-1.04-6.56-2.06-9.85-3.09v.03c-4.68-1.47-9.35-2.93-14.03-4.4-.4-.12-.77-.27-1.3-.46.32-.15.53-.29.79-.37,8.08-2.53,16.17-5.03,24.25-7.56.41-.13.77-.2,1.14-.22h0ZM108.04,8.53c.04.39.09.69.08.98-.1,4.95-.23,9.88-.28,14.82,0,.68-.36,1.1-1.46,1.45-3.03.98-6.05,1.97-9.07,2.96v.05c-4.76,1.56-9.51,3.12-14.26,4.67-.34.11-.7.19-1.28.34-.04-.37-.09-.6-.09-.82.1-5.07.23-10.14.3-15.2.01-.58.36-.92,1.27-1.22,4.75-1.54,9.49-3.08,14.23-4.63h0c3.06-1,6.13-2,9.19-3,.39-.13.81-.24,1.37-.39v-.02ZM56.17,7.71c7.97-2.49,15.94-4.96,23.89-7.46.96-.3,1.7-.34,2.7-.02,4.84,1.53,9.69,3.06,14.54,4.57v.02c2.95.92,5.9,1.85,8.85,2.78.45.14.88.3,1.45.5-.32.17-.52.3-.78.39-3.17.99-6.34,1.98-9.51,2.97v.05c-4.73,1.47-9.45,2.93-14.16,4.43-1.18.37-2.07.43-3.31.03-7.62-2.44-15.29-4.82-22.94-7.22-.54-.17-1.08-.35-1.77-.57.45-.2.72-.36,1.05-.46h0ZM54.74,8.47c.68.19,1.18.32,1.66.48,7.67,2.52,15.32,5.05,23.01,7.55,1.08.35,1.5.72,1.51,1.43.03,4.94.14,9.88.21,14.82,0,.31-.05.62-.08,1.05-.68-.2-1.18-.33-1.66-.48-7.67-2.52-15.32-5.05-23.01-7.55-1.08-.35-1.49-.73-1.5-1.44-.03-4.94-.14-9.88-.21-14.83,0-.3.04-.62.07-1.05v.02ZM55.89,26.29c7.72,2.46,15.49,4.88,23.24,7.31.45.14.88.3,1.45.5-.3.16-.49.31-.75.4-8.17,2.55-16.35,5.09-24.51,7.65-.68.21-1.25.24-1.93.02-8.25-2.6-16.5-5.19-24.75-7.79-.15-.04-.27-.12-.61-.28.58-.21.99-.37,1.42-.51,7.77-2.42,15.54-4.83,23.28-7.28,1.15-.37,1.99-.38,3.16,0h0ZM54.09,9.36c-.1,5.03-.21,10.08-.3,15.11,0,.52-.18.88-1.09,1.18-8,2.59-15.96,5.21-23.93,7.81-.29.1-.61.17-1.19.32-.02-.48-.05-.79-.05-1.11.1-4.91.23-9.81.28-14.73.01-.72.38-1.15,1.55-1.53,7.81-2.51,15.56-5.07,23.34-7.61.34-.11.71-.19,1.26-.34.06.35.13.62.13.88v.02ZM2.42,7.66C10.33,5.2,18.26,2.74,26.16.26c.82-.25,1.48-.34,2.39-.05,8.03,2.54,16.09,5.06,24.13,7.59.29.1.55.21.99.37-.48.18-.82.34-1.19.45-7.96,2.48-15.93,4.96-23.88,7.45-.82.25-1.48.33-2.39.04-8.03-2.54-16.09-5.06-24.13-7.58-.3-.1-.56-.21-1.1-.42.65-.21,1.05-.34,1.45-.46h0ZM.68,8.44c8.82,2.9,17.4,5.72,26.04,8.56.09,5.56.18,11.1.28,16.86-2.35-.78-4.29-1.41-6.22-2.05-6.17-2.03-12.33-4.07-18.53-6.07-1.02-.32-1.44-.69-1.44-1.35-.03-4.95-.14-9.88-.21-14.82,0-.31.05-.62.09-1.12h0Z"/>
</svg>