<svg width="250" height="370" viewBox="0 0 250 370" fill="none" xmlns="http://www.w3.org/2000/svg">
<path d="M56 130C28.431 130 6 152.422 6 179.994C6 207.566 28.431 230 56 230C83.569 230 106 207.566 106 179.994C106 152.422 83.569 130 56 130Z" fill="white"/>
<path d="M69.2931 181.753C69.724 181.476 69.9912 180.994 69.9998 180.476C70.0084 179.958 69.7499 179.467 69.3276 179.182L47.2664 164.247C46.8183 163.943 46.2409 163.917 45.767 164.184C45.293 164.452 45 164.97 45 165.523V194.473C45 195.027 45.2844 195.536 45.7497 195.804C45.9738 195.929 46.2237 196 46.465 196C46.7321 196 46.9993 195.92 47.232 195.768L69.2931 181.753Z" fill="#173B3F"/>
<path d="M19.067 99C11.8507 99 6 104.851 6 112.067C6 118.618 10.8261 124.028 17.1135 124.973V115.53H13.8805V112.095H17.1135V109.81C17.1135 106.026 18.957 104.365 22.1018 104.365C23.6077 104.365 24.4048 104.477 24.7816 104.527V107.525H22.6364C21.3014 107.525 20.8354 108.792 20.8354 110.218V112.095H24.7478L24.2175 115.53H20.8354V125C27.2131 124.135 32.1339 118.682 32.1339 112.067C32.1339 104.851 26.2832 99 19.067 99Z" fill="#173B3F"/>
<path d="M38.1976 100.301L47.8503 113.207L38.1367 123.701H40.3228L48.827 114.514L55.6982 123.701H63.1377L52.942 110.068L61.9833 100.301H59.7972L51.9652 108.762L45.6371 100.301H38.1976ZM41.4125 101.911H44.8302L59.9224 122.09H56.5046L41.4125 101.911Z" fill="#173B3F"/>
<path d="M73.6585 122.402H69.1367V108.22H73.6585V122.402ZM71.3985 106.329C70.1478 106.329 69.1367 105.269 69.1367 103.964C69.1367 102.66 70.1496 101.602 71.3985 101.602C72.6447 101.602 73.6585 102.661 73.6585 103.964C73.6585 105.269 72.6447 106.329 71.3985 106.329ZM89.9367 122.402H85.5895V115.5C85.5895 113.854 85.5597 111.737 83.3296 111.737C81.066 111.737 80.7178 113.529 80.7178 115.381V122.402H76.3715V108.209H80.5442V110.148H80.6029C81.1835 109.033 82.6025 107.857 84.7186 107.857C89.1228 107.857 89.9367 110.796 89.9367 114.618V122.402Z" fill="#173B3F"/>
<path d="M109.141 99C101.849 99 95.9375 104.912 95.9375 112.204C95.9375 118.391 100.198 123.567 105.941 125C105.88 124.822 105.84 124.615 105.84 124.359V122.102C105.304 122.102 104.406 122.102 104.181 122.102C103.278 122.102 102.474 121.713 102.085 120.992C101.652 120.19 101.578 118.963 100.506 118.212C100.188 117.963 100.43 117.678 100.796 117.716C101.473 117.907 102.034 118.372 102.562 119.061C103.088 119.75 103.336 119.907 104.318 119.907C104.795 119.907 105.508 119.879 106.179 119.774C106.54 118.857 107.164 118.013 107.926 117.615C103.53 117.163 101.431 114.975 101.431 112.006C101.431 110.727 101.976 109.49 102.901 108.448C102.598 107.414 102.216 105.305 103.018 104.501C104.996 104.501 106.192 105.784 106.479 106.131C107.465 105.793 108.548 105.602 109.686 105.602C110.826 105.602 111.913 105.793 112.901 106.133C113.185 105.789 114.382 104.501 116.364 104.501C117.17 105.306 116.784 107.424 116.477 108.456C117.397 109.496 117.938 110.729 117.938 112.006C117.938 114.973 115.843 117.159 111.453 117.614C112.661 118.244 113.542 120.016 113.542 121.35V124.359C113.542 124.473 113.517 124.555 113.504 124.653C118.649 122.85 122.345 117.965 122.345 112.204C122.345 104.912 116.433 99 109.141 99Z" fill="#173B3F"/>
<path d="M136.026 99C131.789 99 128.344 102.445 128.344 106.682V117.318C128.344 121.555 131.789 125 136.026 125H146.662C150.899 125 154.344 121.555 154.344 117.318V106.682C154.344 102.445 150.899 99 146.662 99H136.026ZM148.435 103.727C149.085 103.727 149.616 104.259 149.616 104.909C149.616 105.559 149.085 106.091 148.435 106.091C147.785 106.091 147.253 105.559 147.253 104.909C147.253 104.259 147.785 103.727 148.435 103.727ZM141.344 105.5C144.931 105.5 147.844 108.413 147.844 112C147.844 115.587 144.931 118.5 141.344 118.5C137.757 118.5 134.844 115.587 134.844 112C134.844 108.413 137.757 105.5 141.344 105.5ZM141.344 106.682C138.413 106.682 136.026 109.069 136.026 112C136.026 114.931 138.413 117.318 141.344 117.318C144.275 117.318 146.662 114.931 146.662 112C146.662 109.069 144.275 106.682 141.344 106.682Z" fill="#173B3F"/>
<path d="M190.983 104.323C190.691 102.714 189.301 101.544 187.693 101.178C185.279 100.666 180.819 100.301 175.992 100.301C171.166 100.301 166.633 100.666 164.219 101.178C162.611 101.544 161.221 102.641 160.929 104.323C160.636 106.151 160.344 108.71 160.344 112.001C160.344 115.291 160.636 117.851 161.002 119.679C161.294 121.288 162.684 122.458 164.292 122.823C166.852 123.335 171.239 123.701 176.066 123.701C180.892 123.701 185.279 123.335 187.839 122.823C189.447 122.458 190.837 121.361 191.129 119.679C191.422 117.851 191.787 115.218 191.861 112.001C191.714 108.71 191.349 106.151 190.983 104.323ZM172.044 117.12V106.882L180.965 112.001L172.044 117.12Z" fill="#173B3F"/>
<path d="M83.4663 26.8173L77.3302 20.6812C78.8046 18.9111 79.5399 16.6406 79.383 14.3422C79.2261 12.0438 78.1891 9.89429 76.4877 8.34095C74.7864 6.7876 72.5517 5.94997 70.2485 6.00231C67.9453 6.05465 65.751 6.99292 64.1219 8.62195C62.4929 10.251 61.5547 12.4453 61.5023 14.7485C61.45 17.0517 62.2876 19.2864 63.8409 20.9877C65.3943 22.6891 67.5438 23.7261 69.8422 23.883C72.1406 24.0399 74.4111 23.3046 76.1812 21.8302L82.3173 27.9663L83.4663 26.8173ZM63.1538 14.9663C63.1538 13.52 63.5826 12.1062 64.3861 10.9036C65.1896 9.70111 66.3317 8.76385 67.6679 8.21039C69.0041 7.65692 70.4744 7.51211 71.8929 7.79426C73.3113 8.07642 74.6143 8.77287 75.637 9.79554C76.6596 10.8182 77.3561 12.1212 77.6382 13.5397C77.9204 14.9581 77.7756 16.4284 77.2221 17.7646C76.6687 19.1008 75.7314 20.2429 74.5289 21.0464C73.3263 21.8499 71.9125 22.2788 70.4663 22.2788C68.5275 22.2766 66.6688 21.5055 65.2979 20.1346C63.927 18.7637 63.1559 16.905 63.1538 14.9663Z" fill="white"/>
<g opacity="0.7">
<path d="M195 309C175.67 309 160 293.33 160 274C160 254.67 175.67 239 195 239C214.33 239 230 254.67 230 274C230 293.33 214.33 309 195 309Z" fill="white"/>
<path d="M210 261L197 274L210 287" stroke="#173B3F" stroke-width="3"/>
</g>
<path d="M45.0012 56C50.5157 56 55.0024 60.4843 55.0024 65.9988C55.0024 71.5132 50.5157 76 45.0012 76C39.4868 76 35 71.5132 35 65.9988C35 60.4843 39.4868 56 45.0012 56ZM49.2072 66.6872C49.3293 66.6115 49.405 66.4797 49.4074 66.3381C49.4099 66.1965 49.3366 66.0622 49.217 65.9841L42.9678 61.9002C42.8408 61.8172 42.6773 61.8098 42.543 61.8831C42.4088 61.9563 42.3258 62.0979 42.3258 62.2492V70.1658C42.3258 70.3171 42.4063 70.4562 42.5381 70.5295C42.6016 70.5637 42.6724 70.5832 42.7408 70.5832C42.8164 70.5832 42.8921 70.5612 42.958 70.5197L49.2072 66.6872Z" fill="#0FDDCC"/>
<path d="M196.001 56C201.516 56 206.002 60.4843 206.002 65.9988C206.002 71.5132 201.516 76 196.001 76C190.487 76 186 71.5132 186 65.9988C186 60.4843 190.487 56 196.001 56ZM200.207 66.6872C200.329 66.6115 200.405 66.4797 200.407 66.3381C200.41 66.1965 200.337 66.0622 200.217 65.9841L193.968 61.9002C193.841 61.8172 193.677 61.8098 193.543 61.8831C193.409 61.9563 193.326 62.0979 193.326 62.2492V70.1658C193.326 70.3171 193.406 70.4562 193.538 70.5295C193.602 70.5637 193.672 70.5832 193.741 70.5832C193.816 70.5832 193.892 70.5612 193.958 70.5197L200.207 66.6872Z" fill="#0FDDCC"/>
<path d="M196.001 56C201.516 56 206.002 60.4843 206.002 65.9988C206.002 71.5132 201.516 76 196.001 76C190.487 76 186 71.5132 186 65.9988C186 60.4843 190.487 56 196.001 56ZM200.207 66.6872C200.329 66.6115 200.405 66.4797 200.407 66.3381C200.41 66.1965 200.337 66.0622 200.217 65.9841L193.968 61.9002C193.841 61.8172 193.677 61.8098 193.543 61.8831C193.409 61.9563 193.326 62.0979 193.326 62.2492V70.1658C193.326 70.3171 193.406 70.4562 193.538 70.5295C193.602 70.5637 193.672 70.5832 193.741 70.5832C193.816 70.5832 193.892 70.5612 193.958 70.5197L200.207 66.6872Z" fill="black" fill-opacity="0.15"/>
<path d="M17.375 10.875C16.5715 10.875 15.7861 11.1133 15.118 11.5597C14.4499 12.006 13.9292 12.6405 13.6217 13.3828C13.3143 14.1252 13.2338 14.942 13.3906 15.7301C13.5473 16.5181 13.9342 17.242 14.5024 17.8101C15.0705 18.3783 15.7944 18.7652 16.5824 18.9219C17.3705 19.0787 18.1873 18.9982 18.9297 18.6908C19.672 18.3833 20.3065 17.8626 20.7528 17.1945C21.1992 16.5264 21.4375 15.741 21.4375 14.9375C21.4375 13.8601 21.0095 12.8267 20.2476 12.0649C19.4858 11.303 18.4524 10.875 17.375 10.875ZM17.375 17.375C16.8929 17.375 16.4216 17.232 16.0208 16.9642C15.62 16.6964 15.3075 16.3157 15.123 15.8703C14.9386 15.4249 14.8903 14.9348 14.9843 14.462C15.0784 13.9891 15.3105 13.5548 15.6514 13.2139C15.9923 12.873 16.4266 12.6409 16.8995 12.5468C17.3723 12.4528 17.8624 12.5011 18.3078 12.6855C18.7532 12.87 19.1339 13.1825 19.4017 13.5833C19.6695 13.9841 19.8125 14.4554 19.8125 14.9375C19.8118 15.5837 19.5547 16.2033 19.0978 16.6603C18.6408 17.1172 18.0212 17.3743 17.375 17.375Z" fill="white"/>
<path d="M17.375 6C15.1252 6 12.926 6.66713 11.0554 7.91703C9.18478 9.16693 7.72682 10.9435 6.86588 13.022C6.00493 15.1005 5.77967 17.3876 6.21857 19.5942C6.65748 21.8007 7.74084 23.8275 9.33167 25.4183C10.9225 27.0092 12.9493 28.0925 15.1559 28.5314C17.3624 28.9703 19.6495 28.7451 21.728 27.8841C23.8065 27.0232 25.5831 25.5652 26.833 23.6946C28.0829 21.824 28.75 19.6248 28.75 17.375C28.7466 14.3592 27.5471 11.4679 25.4146 9.33541C23.2821 7.20292 20.3908 6.0034 17.375 6ZM12.5 25.8059V24.6875C12.5007 24.0413 12.7578 23.4217 13.2147 22.9647C13.6717 22.5077 14.2913 22.2507 14.9375 22.25H19.8125C20.4588 22.2507 21.0783 22.5077 21.5353 22.9647C21.9923 23.4217 22.2493 24.0413 22.25 24.6875V25.8059C20.7706 26.6698 19.0882 27.125 17.375 27.125C15.6618 27.125 13.9794 26.6698 12.5 25.8059ZM23.8689 24.6272C23.8528 23.5614 23.4185 22.5446 22.6597 21.796C21.901 21.0474 20.8784 20.6268 19.8125 20.625H14.9375C13.8716 20.6268 12.8491 21.0474 12.0903 21.796C11.3315 22.5446 10.8973 23.5614 10.8811 24.6272C9.40768 23.3116 8.36863 21.5794 7.90153 19.6601C7.43442 17.7408 7.5613 15.7249 8.26537 13.8793C8.96943 12.0338 10.2175 10.4456 11.8442 9.32505C13.471 8.20453 15.3997 7.60455 17.375 7.60455C19.3503 7.60455 21.279 8.20453 22.9058 9.32505C24.5325 10.4456 25.7806 12.0338 26.4846 13.8793C27.1887 15.7249 27.3156 17.7408 26.8485 19.6601C26.3814 21.5794 25.3423 23.3116 23.8689 24.6272Z" fill="white"/>
<path d="M69.9132 40.086H69.8846C66.1376 40.1003 63.0856 43.1668 63.0856 46.914C63.0856 46.9642 63.0426 47 62.9996 47C62.9495 47 62.9136 46.957 62.9136 46.914V46.8854C62.8993 43.1382 59.8329 40.086 56.086 40.086C56.0358 40.086 56 40.043 56 40C56 39.9498 56.043 39.914 56.086 39.914H56.1146C59.8616 39.8997 62.9136 36.8332 62.9136 33.086C62.9136 33.0358 62.9566 33 62.9996 33C63.0498 33 63.0856 33.043 63.0856 33.086C63.0856 36.8475 66.1448 39.914 69.9132 39.914C69.9634 39.914 69.9992 39.957 69.9992 40C70.0064 40.0502 69.9634 40.086 69.9132 40.086Z" fill="white"/>
<path d="M88.9132 40.086H88.8846C85.1376 40.1003 82.0856 43.1668 82.0856 46.914C82.0856 46.9642 82.0426 47 81.9996 47C81.9495 47 81.9136 46.957 81.9136 46.914V46.8854C81.8993 43.1382 78.8329 40.086 75.086 40.086C75.0358 40.086 75 40.043 75 40C75 39.9498 75.043 39.914 75.086 39.914H75.1146C78.8616 39.8997 81.9136 36.8332 81.9136 33.086C81.9136 33.0358 81.9566 33 81.9996 33C82.0498 33 82.0856 33.043 82.0856 33.086C82.0856 36.8475 85.1448 39.914 88.9132 39.914C88.9634 39.914 88.9992 39.957 88.9992 40C89.0064 40.0502 88.9634 40.086 88.9132 40.086Z" fill="#173B3F"/>
<path d="M95.7778 22.5556C100.073 22.5556 103.556 19.0733 103.556 14.7778C103.556 10.4822 100.073 7 95.7778 7C91.4822 7 88 10.4822 88 14.7778C88 19.0733 91.4822 22.5556 95.7778 22.5556Z" stroke="#6A817C" stroke-width="1.5" stroke-linecap="round" stroke-linejoin="round"/>
<path d="M108.003 26.9987L101.336 20.332" stroke="#6A817C" stroke-width="1.5" stroke-linecap="round" stroke-linejoin="round"/>
<path d="M60.0039 58L66.0039 64L72.0039 58" stroke="#6A817C" stroke-width="1.5" stroke-linecap="round" stroke-linejoin="round"/>
<path d="M60 75L66 69L72 75" stroke="#0FDDCC" stroke-width="1.5" stroke-linecap="round" stroke-linejoin="round"/>
<path d="M45.125 10.875C44.3215 10.875 43.5361 11.1133 42.868 11.5597C42.1999 12.006 41.6792 12.6405 41.3717 13.3828C41.0643 14.1252 40.9838 14.942 41.1406 15.7301C41.2973 16.5181 41.6842 17.242 42.2524 17.8101C42.8205 18.3783 43.5444 18.7652 44.3324 18.9219C45.1205 19.0787 45.9373 18.9982 46.6797 18.6908C47.422 18.3833 48.0565 17.8626 48.5028 17.1945C48.9492 16.5264 49.1875 15.741 49.1875 14.9375C49.1875 13.8601 48.7595 12.8267 47.9976 12.0649C47.2358 11.303 46.2024 10.875 45.125 10.875ZM45.125 17.375C44.6429 17.375 44.1716 17.232 43.7708 16.9642C43.37 16.6964 43.0575 16.3157 42.873 15.8703C42.6886 15.4249 42.6403 14.9348 42.7343 14.462C42.8284 13.9891 43.0605 13.5548 43.4014 13.2139C43.7423 12.873 44.1766 12.6409 44.6495 12.5468C45.1223 12.4528 45.6124 12.5011 46.0578 12.6855C46.5032 12.87 46.8839 13.1825 47.1517 13.5833C47.4195 13.9841 47.5625 14.4554 47.5625 14.9375C47.5618 15.5837 47.3047 16.2033 46.8478 16.6603C46.3908 17.1172 45.7712 17.3743 45.125 17.375Z" fill="#173B3F"/>
<path d="M45.125 6C42.8752 6 40.676 6.66713 38.8054 7.91703C36.9348 9.16693 35.4768 10.9435 34.6159 13.022C33.7549 15.1005 33.5297 17.3876 33.9686 19.5942C34.4075 21.8007 35.4908 23.8275 37.0817 25.4183C38.6725 27.0092 40.6993 28.0925 42.9059 28.5314C45.1124 28.9703 47.3995 28.7451 49.478 27.8841C51.5565 27.0232 53.3331 25.5652 54.583 23.6946C55.8329 21.824 56.5 19.6248 56.5 17.375C56.4966 14.3592 55.2971 11.4679 53.1646 9.33541C51.0321 7.20292 48.1408 6.0034 45.125 6ZM40.25 25.8059V24.6875C40.2507 24.0413 40.5078 23.4217 40.9647 22.9647C41.4217 22.5077 42.0413 22.2507 42.6875 22.25H47.5625C48.2088 22.2507 48.8283 22.5077 49.2853 22.9647C49.7423 23.4217 49.9993 24.0413 50 24.6875V25.8059C48.5206 26.6698 46.8382 27.125 45.125 27.125C43.4118 27.125 41.7294 26.6698 40.25 25.8059ZM51.6189 24.6272C51.6028 23.5614 51.1685 22.5446 50.4097 21.796C49.651 21.0474 48.6284 20.6268 47.5625 20.625H42.6875C41.6216 20.6268 40.5991 21.0474 39.8403 21.796C39.0815 22.5446 38.6473 23.5614 38.6311 24.6272C37.1577 23.3116 36.1186 21.5794 35.6515 19.6601C35.1844 17.7408 35.3113 15.7249 36.0154 13.8793C36.7194 12.0338 37.9675 10.4456 39.5942 9.32505C41.221 8.20453 43.1497 7.60455 45.125 7.60455C47.1003 7.60455 49.029 8.20453 50.6558 9.32505C52.2825 10.4456 53.5306 12.0338 54.2346 13.8793C54.9387 15.7249 55.0656 17.7408 54.5985 19.6601C54.1314 21.5794 53.0923 23.3116 51.6189 24.6272Z" fill="#173B3F"/>
<path d="M95 38.6364L99.2353 43L107 35" stroke="white" stroke-width="3"/>
<path d="M26 54.5H10C8.067 54.5 6.5 56.067 6.5 58V74C6.5 75.933 8.067 77.5 10 77.5H26C27.933 77.5 29.5 75.933 29.5 74V58C29.5 56.067 27.933 54.5 26 54.5Z" fill="#0FDDCC" stroke="#0FDDCC"/>
<path d="M12 65.6364L16.2353 70L24 62" stroke="white" stroke-width="3"/>
<path d="M129.364 8L131 9.63636L114.636 26L113 24.3636L129.364 8Z" fill="white"/>
<path d="M131 24.3636L129.364 26L113 9.63636L114.636 8L131 24.3636Z" fill="white"/>
<path d="M77 64L82 59L87 64" stroke="#173B3F" stroke-width="2"/>
<path d="M77 70L82 75L87 70" stroke="#173B3F" stroke-width="2"/>
<path d="M104.63 76L95 66L104.63 56" stroke="#B0D6CE" stroke-width="2"/>
<path d="M109.629 76L119.259 66L109.629 56" stroke="#B0D6CE" stroke-width="2"/>
<path d="M121 35.0312L126.029 40.0023L121.058 45.0312" stroke="white" stroke-width="1.5"/>
<path d="M126.027 40L110.027 40.0931" stroke="url(#paint0_linear_13013_88613)" stroke-width="1.5" stroke-linecap="round"/>
<path d="M124 58L129 63L134 58" stroke="white" stroke-width="2"/>
<path d="M124 74L129 69L134 74" stroke="white" stroke-width="2"/>
<path d="M156.023 23.6618C156.273 23.3313 156.208 22.8609 155.877 22.6112C155.547 22.3615 155.076 22.427 154.827 22.7575L156.023 23.6618ZM137.299 13.5188C137.423 13.1238 137.204 12.7025 136.809 12.5778C136.414 12.453 135.993 12.6721 135.868 13.0671L137.299 13.5188ZM139.55 7.80958C139.229 8.07078 139.18 8.54313 139.441 8.86461C139.703 9.18609 140.175 9.23495 140.496 8.97375L139.55 7.80958ZM156.832 16.7917C156.832 17.2059 157.168 17.5417 157.582 17.5417C157.996 17.5417 158.332 17.2059 158.332 16.7917H156.832ZM154.827 22.7575C152.973 25.2108 150.037 26.8346 146.792 26.8346V28.3346C150.546 28.3346 153.91 26.4585 156.023 23.6618L154.827 22.7575ZM146.792 26.8346C141.256 26.8346 136.75 22.3288 136.75 16.793H135.25C135.25 23.1572 140.427 28.3346 146.792 28.3346V26.8346ZM136.75 16.793C136.75 15.6638 136.965 14.575 137.299 13.5188L135.868 13.0671C135.502 14.2276 135.25 15.4722 135.25 16.793H136.75ZM140.496 8.97375C142.232 7.56336 144.399 6.75 146.79 6.75V5.25C144.047 5.25 141.548 6.18664 139.55 7.80958L140.496 8.97375ZM146.79 6.75C152.326 6.75 156.832 11.2559 156.832 16.7917H158.332C158.332 10.4275 153.154 5.25 146.79 5.25V6.75ZM148.666 13.293C148.666 14.3285 147.827 15.168 146.791 15.168V16.668C148.655 16.668 150.166 15.1569 150.166 13.293H148.666ZM146.791 15.168C145.755 15.168 144.916 14.3285 144.916 13.293H143.416C143.416 15.1569 144.927 16.668 146.791 16.668V15.168ZM144.916 13.293C144.916 12.2574 145.755 11.418 146.791 11.418V9.91797C144.927 9.91797 143.416 11.429 143.416 13.293H144.916ZM146.791 11.418C147.827 11.418 148.666 12.2574 148.666 13.293H150.166C150.166 11.429 148.655 9.91797 146.791 9.91797V11.418ZM152.541 26.293V21.7926H151.041V26.293H152.541ZM148.791 18.043H144.791V19.543H148.791V18.043ZM141.041 21.7925V26.293H142.541V21.7925H141.041ZM144.791 18.043C142.72 18.043 141.041 19.7212 141.041 21.7925H142.541C142.541 20.55 143.548 19.543 144.791 19.543V18.043ZM152.541 21.7926C152.541 19.7214 150.862 18.043 148.791 18.043V19.543C150.034 19.543 151.041 20.5501 151.041 21.7926H152.541Z" fill="#173B3F"/>
<path d="M142 58L158 74M158 58L142 74" stroke="#173B3F" stroke-width="3" stroke-miterlimit="10" stroke-linecap="round" stroke-linejoin="round"/>
<path d="M173 58V74" stroke="#173B3F" stroke-width="3" stroke-miterlimit="10" stroke-linecap="round" stroke-linejoin="round"/>
<path d="M181 66H165" stroke="#173B3F" stroke-width="3" stroke-miterlimit="10" stroke-linecap="round" stroke-linejoin="round"/>
<path d="M184.966 26.8173L178.83 20.6812C180.305 18.9111 181.04 16.6406 180.883 14.3422C180.726 12.0438 179.689 9.89429 177.988 8.34095C176.286 6.7876 174.052 5.94997 171.749 6.00231C169.445 6.05465 167.251 6.99292 165.622 8.62195C163.993 10.251 163.055 12.4453 163.002 14.7485C162.95 17.0517 163.788 19.2864 165.341 20.9877C166.894 22.6891 169.044 23.7261 171.342 23.883C173.641 24.0399 175.911 23.3046 177.681 21.8302L183.817 27.9663L184.966 26.8173ZM164.654 14.9663C164.654 13.52 165.083 12.1062 165.886 10.9036C166.69 9.70111 167.832 8.76385 169.168 8.21039C170.504 7.65692 171.974 7.51211 173.393 7.79426C174.811 8.07642 176.114 8.77287 177.137 9.79554C178.16 10.8182 178.856 12.1212 179.138 13.5397C179.42 14.9581 179.276 16.4284 178.722 17.7646C178.169 19.1008 177.231 20.2429 176.029 21.0464C174.826 21.8499 173.413 22.2788 171.966 22.2788C170.028 22.2766 168.169 21.5055 166.798 20.1346C165.427 18.7637 164.656 16.905 164.654 14.9663Z" fill="#173B3F"/>
<g opacity="0.7">
<path d="M41 309C60.33 309 76 293.33 76 274C76 254.67 60.33 239 41 239C21.67 239 6 254.67 6 274C6 293.33 21.67 309 41 309Z" fill="#0FDDCC"/>
<path d="M26 261L39 274L26 287" stroke="#173B3F" stroke-width="3"/>
</g>
<g opacity="0.7">
<path d="M118 309C98.67 309 83 293.33 83 274C83 254.67 98.67 239 118 239C137.33 239 153 254.67 153 274C153 293.33 137.33 309 118 309Z" fill="#0FDDCC"/>
<path d="M133 261L120 274L133 287" stroke="#173B3F" stroke-width="3"/>
</g>
<g opacity="0.7">
<path d="M146 200C165.33 200 181 184.33 181 165C181 145.67 165.33 130 146 130C126.67 130 111 145.67 111 165C111 184.33 126.67 200 146 200Z" fill="white"/>
<path d="M131 152L144 165L131 178" stroke="#173B3F" stroke-width="3"/>
</g>
<path d="M216 190C199.431 190 186 176.569 186 160C186 143.431 199.431 130 216 130C232.569 130 246 143.431 246 160C246 176.569 232.569 190 216 190Z" fill="white"/>
<path d="M214.613 150.305L205.383 159.535L214.613 168.766" stroke="#173B3F" stroke-width="3"/>
<path d="M206.309 159.539H234.925" stroke="url(#paint1_linear_13013_88613)" stroke-width="3" stroke-linecap="round"/>
<path d="M17 35L22 40L17 45" stroke="#6A817C" stroke-width="1.5"/>
<path d="M22 40L6 40" stroke="url(#paint2_linear_13013_88613)" stroke-width="1.5" stroke-linecap="round"/>
<path d="M34.5 33L27 40.5L34.5 48" stroke="#6A817C" stroke-width="1.5"/>
<path d="M27 40.5L51 40.5" stroke="url(#paint3_linear_13013_88613)" stroke-width="1.5" stroke-linecap="round"/>
<path d="M167.5 34L160 41.5L167.5 49" stroke="#6A817C" stroke-width="1.5"/>
<path d="M160 41.5L184 41.5" stroke="url(#paint4_linear_13013_88613)" stroke-width="1.5" stroke-linecap="round"/>
<path d="M147.5 33L155 40.5L147.5 48" stroke="#6A817C" stroke-width="1.5"/>
<path d="M155 40.5L131 40.5" stroke="url(#paint5_linear_13013_88613)" stroke-width="1.5" stroke-linecap="round"/>
<path d="M196.5 34L189 41.5L196.5 49" stroke="#173B3F" stroke-width="1.5"/>
<path d="M189 41.5L213 41.5" stroke="url(#paint6_linear_13013_88613)" stroke-width="1.5" stroke-linecap="round"/>
<path d="M234.5 34L242 41.5L234.5 49" stroke="#173B3F" stroke-width="1.5"/>
<path d="M242 41.5L218 41.5" stroke="url(#paint7_linear_13013_88613)" stroke-width="1.5" stroke-linecap="round"/>
<path d="M21 315L8 328L21 341" stroke="#173B3F" stroke-width="3"/>
<path d="M31 315L44 328L31 341" stroke="#173B3F" stroke-width="3"/>
<path d="M208 107L213 112L208 117" stroke="#173B3F" stroke-width="1.5"/>
<path d="M213 112L197 112" stroke="url(#paint8_linear_13013_88613)" stroke-width="1.5" stroke-linecap="round"/>
<path d="M170 216L175 221L170 226" stroke="#010101" stroke-width="1.5"/>
<path d="M175 221L159 221" stroke="url(#paint9_linear_13013_88613)" stroke-width="1.5" stroke-linecap="round"/>
<path d="M190 21.4247V17.4361C190 16.3035 190.222 15.1463 190.665 13.9645C191.108 12.7827 191.693 11.6686 192.419 10.6222C193.145 9.57576 193.933 8.7017 194.783 8L198.254 10.0497C197.565 11.133 196.999 12.2656 196.555 13.4474C196.125 14.6293 195.909 15.9465 195.909 17.3991V21.4247H190ZM199.325 21.4247V17.4361C199.325 16.3035 199.547 15.1463 199.99 13.9645C200.433 12.7827 201.018 11.6686 201.744 10.6222C202.471 9.57576 203.259 8.7017 204.108 8L207.58 10.0497C206.89 11.133 206.324 12.2656 205.881 13.4474C205.45 14.6293 205.234 15.9465 205.234 17.3991V21.4247H199.325Z" fill="#0FDDCC"/>
<path d="M213 19.2869V17.3693C213 16.7869 213.103 16.169 213.309 15.5156C213.522 14.8551 213.827 14.2195 214.225 13.6087C214.63 12.9908 215.116 12.4545 215.685 12L217.048 13.108C216.601 13.7472 216.21 14.4148 215.876 15.1108C215.55 15.7997 215.386 16.5384 215.386 17.3267V19.2869H213ZM218.455 19.2869V17.3693C218.455 16.7869 218.558 16.169 218.763 15.5156C218.977 14.8551 219.282 14.2195 219.68 13.6087C220.085 12.9908 220.571 12.4545 221.139 12L222.503 13.108C222.055 13.7472 221.665 14.4148 221.331 15.1108C221.004 15.7997 220.841 16.5384 220.841 17.3267V19.2869H218.455Z" fill="#0FDDCC"/>
<path d="M217.172 70.162L213.702 66.692C213.515 66.505 213.261 66.4 212.997 66.4C212.733 66.4 212.479 66.505 212.292 66.692C212.105 66.879 212 67.1326 212 67.397C212 67.528 212.026 67.6576 212.076 67.7786C212.126 67.8995 212.199 68.0094 212.292 68.102L216.472 72.282C216.862 72.672 217.492 72.672 217.882 72.282L228.462 61.702C228.649 61.515 228.754 61.2614 228.754 60.997C228.754 60.7326 228.649 60.479 228.462 60.292C228.275 60.105 228.021 60 227.757 60C227.493 60 227.239 60.105 227.052 60.292L217.172 70.162Z" fill="#0FDDCC"/>
<path d="M91.8637 328.135H91.8186C85.9305 328.158 81.1345 332.976 81.1345 338.865C81.1345 338.944 81.0669 339 80.9994 339C80.9206 339 80.8643 338.932 80.8643 338.865V338.82C80.8418 332.931 76.0232 328.135 70.1351 328.135C70.0563 328.135 70 328.068 70 328C70 327.921 70.0675 327.865 70.1351 327.865H70.1801C76.0682 327.842 80.8643 323.024 80.8643 317.135C80.8643 317.056 80.9318 317 80.9994 317C81.0782 317 81.1345 317.068 81.1345 317.135C81.1345 323.046 85.9418 327.865 91.8637 327.865C91.9425 327.865 91.9988 327.932 91.9988 328C92.01 328.079 91.9425 328.135 91.8637 328.135Z" fill="#0FDDCC"/>
<path d="M64.9132 328.086H64.8846C61.1376 328.1 58.0856 331.167 58.0856 334.914C58.0856 334.964 58.0426 335 57.9996 335C57.9495 335 57.9136 334.957 57.9136 334.914V334.885C57.8993 331.138 54.8329 328.086 51.086 328.086C51.0358 328.086 51 328.043 51 328C51 327.95 51.043 327.914 51.086 327.914H51.1146C54.8616 327.9 57.9136 324.833 57.9136 321.086C57.9136 321.036 57.9566 321 57.9996 321C58.0498 321 58.0856 321.043 58.0856 321.086C58.0856 324.847 61.1448 327.914 64.9132 327.914C64.9634 327.914 64.9992 327.957 64.9992 328C65.0064 328.05 64.9634 328.086 64.9132 328.086Z" fill="#B0D6CE"/>
<path opacity="0.5" d="M229 112L219 112" stroke="url(#paint10_linear_13013_88613)" stroke-linecap="square"/>
<path fill-rule="evenodd" clip-rule="evenodd" d="M105.391 328.75C105.069 329.834 104.064 330.625 102.875 330.625C101.686 330.625 100.681 329.834 100.359 328.75H98.7505C98.336 328.75 98 328.417 98 328C98 327.586 98.3356 327.25 98.7505 327.25H100.359C100.681 326.166 101.686 325.375 102.875 325.375C104.064 325.375 105.069 326.166 105.391 327.25H115.249C115.664 327.25 116 327.583 116 328C116 328.414 115.664 328.75 115.249 328.75H105.391ZM108.609 333.625C108.931 332.541 109.936 331.75 111.125 331.75C112.314 331.75 113.319 332.541 113.641 333.625H115.249C115.664 333.625 116 333.958 116 334.375C116 334.789 115.664 335.125 115.249 335.125H113.641C113.319 336.209 112.314 337 111.125 337C109.936 337 108.931 336.209 108.609 335.125H98.7505C98.336 335.125 98 334.792 98 334.375C98 333.961 98.3356 333.625 98.7505 333.625H108.609ZM108.609 320.875C108.931 319.791 109.936 319 111.125 319C112.314 319 113.319 319.791 113.641 320.875H115.249C115.664 320.875 116 321.208 116 321.625C116 322.039 115.664 322.375 115.249 322.375H113.641C113.319 323.459 112.314 324.25 111.125 324.25C109.936 324.25 108.931 323.459 108.609 322.375H98.7505C98.336 322.375 98 322.042 98 321.625C98 321.211 98.3356 320.875 98.7505 320.875H108.609ZM111.125 322.75C111.746 322.75 112.25 322.246 112.25 321.625C112.25 321.004 111.746 320.5 111.125 320.5C110.504 320.5 110 321.004 110 321.625C110 322.246 110.504 322.75 111.125 322.75ZM111.125 335.5C111.746 335.5 112.25 334.996 112.25 334.375C112.25 333.754 111.746 333.25 111.125 333.25C110.504 333.25 110 333.754 110 334.375C110 334.996 110.504 335.5 111.125 335.5ZM102.875 326.875C102.254 326.875 101.75 327.379 101.75 328C101.75 328.621 102.254 329.125 102.875 329.125C103.496 329.125 104 328.621 104 328C104 327.379 103.496 326.875 102.875 326.875Z" fill="#173B3F"/>
<path d="M124 324L128.5 328.5L124 333" stroke="#B0D6CE" stroke-width="2"/>
<path d="M144.5 324L149.5 329L144.5 334" stroke="#0FDDCC" stroke-width="2"/>
<path d="M149.5 329L133.5 329" stroke="url(#paint11_linear_13013_88613)" stroke-width="2" stroke-linecap="round"/>
<path d="M157 326L162 321L167 326" stroke="#173B3F" stroke-width="2"/>
<path d="M157 331L162 336L167 331" stroke="#173B3F" stroke-width="2"/>
<path d="M195.023 335.662C195.273 335.331 195.208 334.861 194.877 334.611C194.547 334.362 194.076 334.427 193.827 334.758L195.023 335.662ZM176.299 325.519C176.423 325.124 176.204 324.703 175.809 324.578C175.414 324.453 174.993 324.672 174.868 325.067L176.299 325.519ZM178.55 319.81C178.229 320.071 178.18 320.543 178.441 320.865C178.703 321.186 179.175 321.235 179.496 320.974L178.55 319.81ZM195.832 328.792C195.832 329.206 196.168 329.542 196.582 329.542C196.996 329.542 197.332 329.206 197.332 328.792H195.832ZM193.827 334.758C191.973 337.211 189.037 338.835 185.792 338.835V340.335C189.546 340.335 192.91 338.459 195.023 335.662L193.827 334.758ZM185.792 338.835C180.256 338.835 175.75 334.329 175.75 328.793H174.25C174.25 335.157 179.427 340.335 185.792 340.335V338.835ZM175.75 328.793C175.75 327.664 175.965 326.575 176.299 325.519L174.868 325.067C174.502 326.228 174.25 327.472 174.25 328.793H175.75ZM179.496 320.974C181.232 319.563 183.399 318.75 185.79 318.75V317.25C183.047 317.25 180.548 318.187 178.55 319.81L179.496 320.974ZM185.79 318.75C191.326 318.75 195.832 323.256 195.832 328.792H197.332C197.332 322.427 192.154 317.25 185.79 317.25V318.75ZM187.666 325.293C187.666 326.329 186.827 327.168 185.791 327.168V328.668C187.655 328.668 189.166 327.157 189.166 325.293H187.666ZM185.791 327.168C184.755 327.168 183.916 326.329 183.916 325.293H182.416C182.416 327.157 183.927 328.668 185.791 328.668V327.168ZM183.916 325.293C183.916 324.257 184.755 323.418 185.791 323.418V321.918C183.927 321.918 182.416 323.429 182.416 325.293H183.916ZM185.791 323.418C186.827 323.418 187.666 324.257 187.666 325.293H189.166C189.166 323.429 187.655 321.918 185.791 321.918V323.418ZM191.541 338.293V333.793H190.041V338.293H191.541ZM187.791 330.043H183.791V331.543H187.791V330.043ZM180.041 333.792V338.293H181.541V333.792H180.041ZM183.791 330.043C181.72 330.043 180.041 331.721 180.041 333.792H181.541C181.541 332.55 182.548 331.543 183.791 331.543V330.043ZM191.541 333.793C191.541 331.721 189.862 330.043 187.791 330.043V331.543C189.034 331.543 190.041 332.55 190.041 333.793H191.541Z" fill="#0FDDCC"/>
<path d="M219.857 318.716C220.252 318.322 220.891 318.322 221.286 318.716V318.716C221.68 319.111 221.68 319.75 221.286 320.145L204.143 337.286C203.748 337.68 203.109 337.68 202.714 337.286V337.286C202.32 336.891 202.32 336.252 202.714 335.857L219.857 318.716Z" fill="#173B3F"/>
<path d="M221.286 335.855C221.68 336.25 221.68 336.889 221.286 337.284V337.284C220.891 337.678 220.252 337.678 219.857 337.284L202.714 320.143C202.32 319.748 202.32 319.109 202.714 318.714V318.714C203.109 318.32 203.748 318.32 204.143 318.714L221.286 335.855Z" fill="#173B3F"/>
<path d="M133.913 221.086H133.885C130.138 221.1 127.086 224.167 127.086 227.914C127.086 227.964 127.043 228 127 228C126.949 228 126.914 227.957 126.914 227.914V227.885C126.899 224.138 123.833 221.086 120.086 221.086C120.036 221.086 120 221.043 120 221C120 220.95 120.043 220.914 120.086 220.914H120.115C123.862 220.9 126.914 217.833 126.914 214.086C126.914 214.036 126.957 214 127 214C127.05 214 127.086 214.043 127.086 214.086C127.086 217.847 130.145 220.914 133.913 220.914C133.963 220.914 133.999 220.957 133.999 221C134.006 221.05 133.963 221.086 133.913 221.086Z" fill="#6A817C"/>
<g opacity="0.8">
<path d="M148 216L153 221L148 226" stroke="white" stroke-width="1.5"/>
<path d="M153 221L137 221" stroke="url(#paint12_linear_13013_88613)" stroke-width="1.5" stroke-linecap="round"/>
</g>
<g clip-path="url(#clip0_13013_88613)">
<path d="M204.438 213.849H198.865V213.588C198.865 212.633 199.055 211.843 199.434 211.226C199.814 210.601 200.469 210.054 201.418 209.568L201.85 209.35C202.618 208.96 202.816 208.621 202.816 208.222C202.816 207.744 202.402 207.397 201.738 207.397C200.944 207.397 200.349 207.813 199.935 208.656L198.865 207.579C199.098 207.075 199.477 206.676 199.978 206.355C200.487 206.033 201.047 205.877 201.66 205.877C202.428 205.877 203.092 206.077 203.635 206.494C204.196 206.91 204.472 207.484 204.472 208.204C204.472 209.359 203.825 210.063 202.618 210.688L201.936 211.035C201.211 211.4 200.858 211.73 200.754 212.312H204.438V213.849ZM203.946 215.62H197.847L194.802 220.934H200.901L203.955 226.249L207 220.934L203.946 215.62ZM195.328 224.486C191.446 224.486 188.288 221.308 188.288 217.4C188.288 213.493 191.446 210.314 195.328 210.314L197.743 205.234C196.958 205.078 196.156 205 195.328 205C188.521 205 183 210.557 183 217.4C183 224.251 188.513 229.809 195.328 229.809C198.037 229.809 200.547 228.923 202.583 227.43L199.909 222.775C198.684 223.835 197.079 224.486 195.328 224.486Z" fill="white"/>
</g>
<path d="M220.3 213.213L222.16 217.582L226.692 218.079C226.996 218.115 227.097 218.505 226.894 218.683L223.513 221.88L224.46 226.568C224.527 226.852 224.223 227.101 223.952 226.959L219.996 224.544L216.04 226.923C215.769 227.065 215.465 226.852 215.532 226.533L216.479 221.844L213.098 218.647C212.895 218.47 213.03 218.115 213.301 218.079L217.832 217.582L219.692 213.213C219.793 212.929 220.199 212.929 220.3 213.213Z" fill="white"/>
<path d="M222.5 81C218.367 81 215 84.3667 215 88.5C215 92.6333 218.367 96 222.5 96C224.297 96 225.948 95.3617 227.242 94.3022L231.72 98.7803C231.789 98.8523 231.872 98.9097 231.963 98.9493C232.055 98.9889 232.153 99.0098 232.253 99.0108C232.353 99.0118 232.452 98.9929 232.544 98.9552C232.637 98.9175 232.721 98.8617 232.791 98.7912C232.862 98.7206 232.918 98.6367 232.955 98.5443C232.993 98.4519 233.012 98.3529 233.011 98.2532C233.01 98.1534 232.989 98.0548 232.949 97.9632C232.91 97.8716 232.852 97.7888 232.78 97.7197L228.302 93.2417C229.362 91.948 230 90.2974 230 88.5C230 84.3667 226.633 81 222.5 81ZM222.5 82.5C225.823 82.5 228.5 85.1774 228.5 88.5C228.5 91.8226 225.823 94.5 222.5 94.5C219.177 94.5 216.5 91.8226 216.5 88.5C216.5 85.1774 219.177 82.5 222.5 82.5Z" fill="#6A817C"/>
<g clip-path="url(#clip1_13013_88613)">
<path d="M221.611 90.343V90.518H221.786H222.681H222.856V90.343V90.2997C222.861 90.0015 222.892 89.7613 222.946 89.575C222.999 89.3916 223.083 89.2373 223.196 89.1091L223.197 89.108C223.315 88.9727 223.475 88.8393 223.683 88.7095C223.914 88.5673 224.114 88.4027 224.281 88.2149C224.452 88.0246 224.582 87.8083 224.672 87.5671C224.765 87.3233 224.81 87.0546 224.81 86.7634C224.81 86.3478 224.714 85.9712 224.517 85.6384C224.324 85.3059 224.048 85.0452 223.696 84.8569C223.343 84.6667 222.933 84.575 222.472 84.575C222.046 84.575 221.653 84.6593 221.296 84.8309C220.94 85.0034 220.651 85.2543 220.433 85.5811C220.213 85.9124 220.096 86.3067 220.075 86.7552L220.066 86.9384H220.25H221.189H221.353L221.364 86.7753C221.382 86.5036 221.449 86.2997 221.553 86.1515C221.663 85.9941 221.797 85.8827 221.954 85.812C222.121 85.7374 222.293 85.7005 222.472 85.7005C222.681 85.7005 222.866 85.7436 223.031 85.8271C223.194 85.91 223.324 86.0267 223.421 86.179C223.515 86.3259 223.565 86.5035 223.565 86.7187C223.565 86.894 223.534 87.0491 223.475 87.1864L223.474 87.1885C223.415 87.3308 223.334 87.4556 223.233 87.5639C223.127 87.6743 223.007 87.7702 222.874 87.8517C222.62 88.0045 222.4 88.1733 222.214 88.3586C222.018 88.5553 221.871 88.8076 221.769 89.1089C221.667 89.4145 221.616 89.8129 221.611 90.2964L221.611 90.2983V90.343ZM222.689 92.611L222.69 92.6103C222.816 92.5335 222.917 92.4311 222.992 92.3046C223.07 92.175 223.109 92.0319 223.109 91.8792C223.109 91.6482 223.025 91.446 222.861 91.2819C222.697 91.1178 222.494 91.0331 222.263 91.0331C222.032 91.0331 221.83 91.1178 221.666 91.2819C221.502 91.446 221.417 91.6482 221.417 91.8792C221.417 92.1102 221.502 92.3124 221.666 92.4765C221.83 92.6406 222.032 92.7254 222.263 92.7254C222.417 92.7254 222.56 92.6881 222.689 92.611Z" fill="#6A817C" stroke="#6A817C" stroke-width="0.35"/>
</g>
<g filter="url(#filter0_i_13013_88613)">
<path d="M58.9993 360.021C64.5337 360.021 69.0202 355.534 69.0202 350C69.0202 344.465 64.5337 339.979 58.9993 339.979C53.465 339.979 48.9785 344.465 48.9785 350C48.9785 355.534 53.465 360.021 58.9993 360.021Z" fill="url(#paint13_linear_13013_88613)"/>
</g>
<path d="M54.9375 350.271L57.6458 352.979L63.0625 347.562" stroke="white" stroke-width="2" stroke-linecap="square" stroke-linejoin="round"/>
<defs>
<filter id="filter0_i_13013_88613" x="48.9785" y="339.979" width="20.042" height="20.0417" filterUnits="userSpaceOnUse" color-interpolation-filters="sRGB">
<feFlood flood-opacity="0" result="BackgroundImageFix"/>
<feBlend mode="normal" in="SourceGraphic" in2="BackgroundImageFix" result="shape"/>
<feColorMatrix in="SourceAlpha" type="matrix" values="0 0 0 0 0 0 0 0 0 0 0 0 0 0 0 0 0 0 127 0" result="hardAlpha"/>
<feOffset dy="1"/>
<feComposite in2="hardAlpha" operator="arithmetic" k2="-1" k3="1"/>
<feColorMatrix type="matrix" values="0 0 0 0 0 0 0 0 0 0 0 0 0 0 0 0 0 0 0.25 0"/>
<feBlend mode="normal" in2="shape" result="effect1_innerShadow_13013_88613"/>
</filter>
<linearGradient id="paint0_linear_13013_88613" x1="124.737" y1="40.0075" x2="110.027" y2="40.0931" gradientUnits="userSpaceOnUse">
<stop offset="0.197527" stop-color="white"/>
<stop offset="1" stop-color="white" stop-opacity="0"/>
</linearGradient>
<linearGradient id="paint1_linear_13013_88613" x1="nan" y1="nan" x2="nan" y2="nan" gradientUnits="userSpaceOnUse">
<stop stop-color="#173B3F"/>
<stop offset="1" stop-color="#173B3F" stop-opacity="0"/>
</linearGradient>
<linearGradient id="paint2_linear_13013_88613" x1="20.7097" y1="40" x2="6" y2="40" gradientUnits="userSpaceOnUse">
<stop offset="0.197527" stop-color="#6A817C"/>
<stop offset="1" stop-color="#6A817C" stop-opacity="0"/>
</linearGradient>
<linearGradient id="paint3_linear_13013_88613" x1="28.9355" y1="40.5" x2="51" y2="40.5" gradientUnits="userSpaceOnUse">
<stop offset="0.197527" stop-color="#6A817C"/>
<stop offset="1" stop-color="#6A817C" stop-opacity="0"/>
</linearGradient>
<linearGradient id="paint4_linear_13013_88613" x1="161.935" y1="41.5" x2="184" y2="41.5" gradientUnits="userSpaceOnUse">
<stop offset="0.197527" stop-color="#6A817C"/>
<stop offset="1" stop-color="#6A817C" stop-opacity="0"/>
</linearGradient>
<linearGradient id="paint5_linear_13013_88613" x1="153.065" y1="40.5" x2="131" y2="40.5" gradientUnits="userSpaceOnUse">
<stop offset="0.197527" stop-color="#6A817C"/>
<stop offset="1" stop-color="#6A817C" stop-opacity="0"/>
</linearGradient>
<linearGradient id="paint6_linear_13013_88613" x1="190.935" y1="41.5" x2="213" y2="41.5" gradientUnits="userSpaceOnUse">
<stop offset="0.197527" stop-color="#173B3F"/>
<stop offset="1" stop-color="#173B3F" stop-opacity="0"/>
</linearGradient>
<linearGradient id="paint7_linear_13013_88613" x1="240.065" y1="41.5" x2="218" y2="41.5" gradientUnits="userSpaceOnUse">
<stop offset="0.197527" stop-color="#173B3F"/>
<stop offset="1" stop-color="#173B3F" stop-opacity="0"/>
</linearGradient>
<linearGradient id="paint8_linear_13013_88613" x1="211.71" y1="112" x2="197" y2="112" gradientUnits="userSpaceOnUse">
<stop offset="0.197527" stop-color="#173B3F"/>
<stop offset="1" stop-color="#173B3F" stop-opacity="0"/>
</linearGradient>
<linearGradient id="paint9_linear_13013_88613" x1="173.71" y1="221" x2="159" y2="221" gradientUnits="userSpaceOnUse">
<stop offset="0.197527" stop-color="#010101"/>
<stop offset="1" stop-color="#010101" stop-opacity="0"/>
</linearGradient>
<linearGradient id="paint10_linear_13013_88613" x1="228.194" y1="112" x2="219" y2="112" gradientUnits="userSpaceOnUse">
<stop offset="0.197527" stop-color="#173B3F"/>
<stop offset="1" stop-color="#173B3F" stop-opacity="0"/>
</linearGradient>
<linearGradient id="paint11_linear_13013_88613" x1="148.21" y1="329" x2="133.5" y2="329" gradientUnits="userSpaceOnUse">
<stop offset="0.197527" stop-color="#0FDDCC"/>
<stop offset="1" stop-color="#0FDDCC" stop-opacity="0"/>
</linearGradient>
<linearGradient id="paint12_linear_13013_88613" x1="151.71" y1="221" x2="137" y2="221" gradientUnits="userSpaceOnUse">
<stop offset="0.197527" stop-color="white"/>
<stop offset="1" stop-color="white" stop-opacity="0"/>
</linearGradient>
<linearGradient id="paint13_linear_13013_88613" x1="69.0202" y1="334.301" x2="48.9785" y2="360.021" gradientUnits="userSpaceOnUse">
<stop stop-color="#0FDDCC"/>
<stop offset="0.8" stop-color="#173B3F"/>
</linearGradient>
<clipPath id="clip0_13013_88613">
<rect width="24" height="25" fill="white" transform="translate(183 205)"/>
</clipPath>
<clipPath id="clip1_13013_88613">
<rect width="6" height="9" fill="white" transform="translate(219 84)"/>
</clipPath>
</defs>
</svg>
